<?xml version="1.0" encoding="UTF-8" standalone="no"?>
<!-- Generator: Adobe Illustrator 12.0.0, SVG Export Plug-In . SVG Version: 6.00 Build 51448)  -->
<svg
   xmlns:dc="http://purl.org/dc/elements/1.1/"
   xmlns:cc="http://creativecommons.org/ns#"
   xmlns:rdf="http://www.w3.org/1999/02/22-rdf-syntax-ns#"
   xmlns:svg="http://www.w3.org/2000/svg"
   xmlns="http://www.w3.org/2000/svg"
   xmlns:xlink="http://www.w3.org/1999/xlink"
   xmlns:sodipodi="http://sodipodi.sourceforge.net/DTD/sodipodi-0.dtd"
   xmlns:inkscape="http://www.inkscape.org/namespaces/inkscape"
   height="160"
   id="Layer_1"
   inkscape:version="0.46"
   sodipodi:docbase="D:\Quelltexte\Projekte\phpsurveyor\source\original art"
   sodipodi:docname="conditions_deleteall.svg"
   sodipodi:version="0.32"
   space="preserve"
   style="overflow:visible"
   version="1.0"
   viewBox="0 0 136.728 105.837"
   width="200"
   inkscape:export-filename="D:\web\xampp\htdocs\limesurvey\images\conditions_deleteall.png"
   inkscape:export-xdpi="9"
   inkscape:export-ydpi="9"
   inkscape:output_extension="org.inkscape.output.svg.inkscape">
  <metadata
     id="metadata3">
    <rdf:RDF>
      <cc:Work
         rdf:about="">
        <dc:title>Diagramma</dc:title>
        <dc:description />
        <dc:subject>
          <rdf:Bag>
            <rdf:li>unsorted</rdf:li>
          </rdf:Bag>
        </dc:subject>
        <dc:publisher>
          <cc:Agent
             rdf:about="http://www.openclipart.org/">
            <dc:title>Open Clip Art Library</dc:title>
          </cc:Agent>
        </dc:publisher>
        <dc:creator>
          <cc:Agent>
            <dc:title>Architetto Francesco Rollandin</dc:title>
          </cc:Agent>
        </dc:creator>
        <dc:rights>
          <cc:Agent>
            <dc:title>Architetto Francesco Rollandin</dc:title>
          </cc:Agent>
        </dc:rights>
        <dc:date />
        <dc:format>image/svg+xml</dc:format>
        <dc:type
           rdf:resource="http://purl.org/dc/dcmitype/StillImage" />
        <cc:license
           rdf:resource="http://web.resource.org/cc/PublicDomain" />
        <dc:language>en</dc:language>
      </cc:Work>
      <cc:License
         rdf:about="http://web.resource.org/cc/PublicDomain">
        <cc:permits
           rdf:resource="http://web.resource.org/cc/Reproduction" />
        <cc:permits
           rdf:resource="http://web.resource.org/cc/Distribution" />
        <cc:permits
           rdf:resource="http://web.resource.org/cc/DerivativeWorks" />
      </cc:License>
    </rdf:RDF>
  </metadata>
  <defs
     id="defs39">
    <linearGradient
       id="linearGradient2250">
      <stop
         style="stop-color:#ff0000;stop-opacity:1;"
         offset="0"
         id="stop2252" />
      <stop
         style="stop-color:#850000;stop-opacity:1;"
         offset="1"
         id="stop2254" />
    </linearGradient>
    <linearGradient
       inkscape:collect="always"
       xlink:href="#linearGradient2250"
       id="linearGradient4975"
       gradientUnits="userSpaceOnUse"
       gradientTransform="matrix(0.4356374,0,0,0.470073,169.6779,-73.931795)"
       x1="-223.55299"
       y1="187.2412"
       x2="-93.461372"
       y2="304.79459" />
    <inkscape:perspective
       sodipodi:type="inkscape:persp3d"
       inkscape:vp_x="0 : 200 : 1"
       inkscape:vp_y="0 : 1000 : 0"
       inkscape:vp_z="400 : 200 : 1"
       inkscape:persp3d-origin="200 : 133.33333 : 1"
       id="perspective5168" />
    <linearGradient
       y2="448.80219"
       y1="448.80219"
       x2="-238.563"
       x1="-240.5889"
       id="XMLID_2_"
       gradientUnits="userSpaceOnUse"
       gradientTransform="matrix(577.9565,0,0,-725.3492,138642.1,325591.1)">
      <stop
         style="stop-color:#FFFFFF"
         offset="0"
         id="stop10" />
      <stop
         style="stop-color:#000000"
         offset="1"
         id="stop12" />
    </linearGradient>
    <linearGradient
       inkscape:collect="always"
       xlink:href="#XMLID_2_"
       id="linearGradient5494"
       gradientUnits="userSpaceOnUse"
       gradientTransform="matrix(501.47229,0,0,-671.45082,120315.19,301407.57)"
       x1="-240.5889"
       y1="448.80219"
       x2="-238.563"
       y2="448.80219" />
    <linearGradient
       inkscape:collect="always"
       xlink:href="#XMLID_2_"
       id="linearGradient2581"
       gradientUnits="userSpaceOnUse"
       gradientTransform="matrix(501.47229,0,0,-671.45082,120315.19,301407.57)"
       x1="-240.5889"
       y1="448.80219"
       x2="-238.563"
       y2="448.80219" />
  </defs>
  <sodipodi:namedview
     bordercolor="#666666"
     borderopacity="1.0"
     id="base"
     inkscape:current-layer="Layer_1"
     inkscape:cx="200"
     inkscape:cy="100.59737"
     inkscape:pageopacity="0.0"
     inkscape:pageshadow="2"
     inkscape:window-height="968"
     inkscape:window-width="1280"
     inkscape:window-x="0"
     inkscape:window-y="22"
     inkscape:zoom="1.9075"
     pagecolor="#ffffff"
     width="400px"
     height="400px"
     showgrid="false"
     showguides="true"
     inkscape:guide-bbox="true">
    <sodipodi:guide
       orientation="0,1"
       position="42,380"
       id="guide5170" />
    <sodipodi:guide
       orientation="1,0"
       position="40,244"
       id="guide5172" />
    <sodipodi:guide
       orientation="1,0"
       position="360,224"
       id="guide5174" />
    <sodipodi:guide
       orientation="1,0"
       position="20,337"
       id="guide5181" />
  </sodipodi:namedview>
  <g
     style="overflow:visible"
     id="g2553"
     transform="translate(-27.880308,0.2439311)">
    <path
       d="M 124.77013,92.000079 C 124.77013,98.417494 115.96229,96.560214 112.82744,96.560214 C 104.61561,96.560214 96.404469,96.560214 88.192636,96.560214 C 71.441896,96.560214 54.690456,96.560214 37.941117,96.560214 C 34.126204,96.560214 30.431755,96.608562 30.431755,90.375717 C 30.431755,81.970031 30.431755,73.568737 30.431755,65.163051 C 30.431755,46.614811 30.431755,28.067451 30.431755,9.5174521 C 30.431755,3.2195596 37.769526,4.8131504 40.964613,4.8131504 C 48.880891,4.8131504 56.798567,4.8131504 64.715546,4.8131504 C 81.859894,4.8131504 99.002141,4.8131504 116.14649,4.8131504 C 119.68687,4.8131504 124.77013,3.7856224 124.77013,10.222395 C 124.77013,17.970604 124.77013,25.717935 124.77013,33.465267 C 124.77013,52.795799 124.77013,72.125452 124.77013,91.453356 C 124.77013,91.637062 124.77013,91.818125 124.77013,92.000079"
       id="path2555"
       style="fill:#ffffff;fill-opacity:0.81775668" />
    <path
       d="M 34.258315,6.1966559 C 28.410255,6.1966559 30.116902,19.539366 30.116902,24.337199 C 30.116902,36.379073 30.116902,48.421883 30.116902,60.465632 C 30.116902,71.392102 30.116902,82.324191 30.116902,93.250667 C 30.116902,98.481172 29.483204,105.31689 35.005321,105.31689 C 63.628711,105.31689 92.2528,105.31689 120.8748,105.31689 C 126.49694,105.31689 125.35335,96.403946 125.35335,91.407579 C 125.35335,80.048428 125.35335,68.688347 125.35335,57.328263 C 125.35335,45.597317 125.35335,33.865433 125.35335,22.135423 C 125.35335,17.31605 126.8005,6.1966559 121.12659,6.1966559 C 92.608119,6.1966559 64.089646,6.1966559 35.571174,6.1966559 C 35.13472,6.1966559 34.696868,6.1966559 34.258315,6.1966559 M 31.138091,99.771719 C 31.138091,80.957796 31.138091,62.144827 31.138091,43.333729 C 31.138091,33.739937 31.138091,24.148957 31.138091,14.557039 C 31.138091,8.8685696 33.261607,7.5658592 37.137231,7.5658592 C 53.42171,7.5658592 69.705491,7.5658592 85.989969,7.5658592 C 94.458851,7.5658592 102.92913,7.5658592 111.39662,7.5658592 C 114.07619,7.5658592 121.18675,5.808933 123.41728,8.7908372 C 125.94997,12.179195 124.33355,23.845524 124.33355,27.927847 C 124.33355,40.327474 124.33355,52.726167 124.33355,65.125794 C 124.33355,75.295549 124.33355,85.469051 124.33355,95.639744 C 124.33355,100.87868 123.49352,103.94955 119.18773,103.94955 C 103.39916,103.94955 87.610584,103.94955 71.82411,103.94955 C 63.113919,103.94955 54.403032,103.94955 45.692142,103.94955 C 42.290042,103.94955 37.584176,105.10804 34.259014,103.94955 C 32.557963,103.94768 31.138091,102.04842 31.138091,99.771719"
       id="path2557"
       style="fill:url(#linearGradient2581);stroke:#000000;stroke-width:4.13502979;stroke-miterlimit:4;stroke-dasharray:none;stroke-opacity:1" />
    <path
       d="M 53.310728,63.575613 C 52.772144,48.638222 73.750315,53.354831 81.291193,53.354831 C 85.232173,53.354831 89.273306,53.022576 93.207281,53.354831 C 97.485139,53.354831 100.94636,56.159657 100.94636,61.83787 C 100.94636,64.774541 104.15196,64.513485 104.15196,61.379042 C 104.15196,45.398302 81.483096,50.07975 73.478571,50.07975 C 69.141182,50.07975 64.739358,49.801993 60.408272,50.07975 C 56.12201,50.07975 51.246038,52.364219 50.442714,58.310521 C 49.850201,62.687843 49.906932,63.575613 53.310728,63.575613"
       id="path2559"
       style="fill:#494848;stroke:#494848;stroke-width:1.40288901;stroke-miterlimit:4;stroke-dasharray:none;stroke-opacity:1" />
    <path
       d="M 79.011491,50.096451 C 76.981818,50.096451 75.707147,51.081788 75.707147,48.335854 C 75.707147,46.90751 74.929036,39.733276 75.707147,38.837593 C 80.099164,33.793128 79.011491,48.494949 79.011491,50.096451"
       id="path2561"
       style="fill:#494848;stroke:#494848;stroke-width:1.40288901;stroke-miterlimit:4;stroke-dasharray:none;stroke-opacity:1" />
    <path
       d="M 64.465514,85.474526 C 56.709623,85.474526 48.951629,85.474526 41.194333,85.474526 C 38.859301,85.474526 40.080746,78.873384 40.080746,76.521232 C 40.080746,74.186661 38.810276,63.344441 40.080746,61.669983 C 40.99683,60.467539 48.048851,61.669983 49.349437,61.669983 C 54.017401,61.669983 58.684663,61.669983 63.352627,61.669983 C 65.686959,61.669983 64.465514,68.273762 64.465514,70.624154 C 64.465514,75.574571 64.465514,80.526746 64.465514,85.474526"
       id="path2563"
       style="fill:#fed219" />
    <path
       d="M 40.080746,60.539616 C 38.486004,60.539616 38.315113,86.60841 40.155685,86.60841 C 44.390822,86.60841 48.627355,86.60841 52.863191,86.60841 C 55.254953,86.60841 62.413432,88.257375 64.465514,86.60841 C 66.060958,86.60841 66.231846,60.539616 64.391275,60.539616 C 56.287298,60.539616 48.184722,60.539616 40.080746,60.539616 M 63.562738,62.806505 C 63.562738,66.937712 63.562738,71.068039 63.562738,75.201005 C 63.562738,77.825639 64.763171,84.341519 62.27756,84.341519 C 55.179313,84.341519 48.082468,84.341519 40.984224,84.341519 C 40.984224,80.210313 40.984224,76.079106 40.984224,71.947019 C 40.984224,69.320627 39.783789,62.806505 42.269401,62.806505 C 49.366946,62.806505 56.463792,62.806505 63.562738,62.806505"
       id="path2565"
       style="fill:#ff9b02;fill-opacity:1" />
    <path
       d="M 55.225908,66.452548 C 55.225908,68.741119 40.686528,68.783218 40.686528,66.452548 C 40.686528,61.289374 55.225908,61.289374 55.225908,66.452548"
       id="path2567"
       style="fill:#ffffa1" />
    <path
       d="M 114.62878,85.474526 C 106.8715,85.474526 99.113499,85.474526 91.356906,85.474526 C 89.020472,85.474526 90.242616,78.873384 90.242616,76.521232 C 90.242616,74.186661 88.972147,63.344441 90.242616,61.669983 C 91.158701,60.467539 98.209322,61.669983 99.511304,61.669983 C 104.17857,61.669983 108.84583,61.669983 113.5138,61.669983 C 115.85024,61.669983 114.62808,68.273762 114.62808,70.624154 C 114.62878,75.574571 114.62878,80.526746 114.62878,85.474526"
       id="path2569"
       style="fill:#9cd305" />
    <path
       d="M 90.242616,60.539616 C 88.648577,60.539616 88.476986,86.60841 90.316855,86.60841 C 94.552692,86.60841 98.789229,86.60841 103.02437,86.60841 C 105.41612,86.60841 112.57601,88.257375 114.62808,86.60841 C 116.22213,86.60841 116.39372,60.539616 114.55315,60.539616 C 106.44986,60.539616 98.347295,60.539616 90.242616,60.539616 M 113.72531,62.806505 C 113.72531,66.937712 113.72531,71.068039 113.72531,75.201005 C 113.72531,77.825639 114.92574,84.341519 112.43944,84.341519 C 105.34119,84.341519 98.244341,84.341519 91.146794,84.341519 C 91.146794,80.210313 91.146794,76.079106 91.146794,71.947019 C 91.146794,69.320627 89.946362,62.806505 92.431272,62.806505 C 99.530216,62.806505 106.62636,62.806505 113.72531,62.806505"
       id="path2571"
       style="fill:#618c03;fill-opacity:1" />
    <path
       d="M 106.57926,66.658234 C 106.57926,69.068364 91.146094,69.112699 91.146094,66.658234 C 91.146578,61.220813 106.57926,61.220813 106.57926,66.658234"
       id="path2573"
       style="fill:#c2ef20" />
    <path
       d="M 90.41981,38.122105 C 82.464313,38.122105 74.506713,38.122105 66.551214,38.122105 C 64.304429,38.122105 65.478949,31.814542 65.478949,29.553804 C 65.478949,27.380088 64.221786,15.15699 65.478949,13.778748 C 66.754322,12.379412 73.970229,13.778748 75.623102,13.778748 C 80.198618,13.778748 84.773431,13.778748 89.348245,13.778748 C 91.59433,13.778748 90.41981,20.086311 90.41981,22.347047 C 90.41981,27.605985 90.41981,32.864045 90.41981,38.122105"
       id="path2575"
       style="fill:#d82a2a" />
    <path
       d="M 65.479649,12.618495 C 63.846388,12.618495 63.681801,39.281478 65.551787,39.281478 C 69.684668,39.281478 73.81825,39.281478 77.951132,39.281478 C 80.56631,39.281478 88.16252,41.049987 90.421211,39.281478 C 92.051671,39.281478 92.216259,12.618495 90.349074,12.618495 C 82.058798,12.618495 73.769224,12.618495 65.479649,12.618495 M 89.496024,14.937244 C 89.496024,19.391036 89.496024,23.849225 89.496024,28.304774 C 89.496024,30.952263 90.679649,36.961852 88.18213,36.961852 C 80.922098,36.961852 73.662069,36.961852 66.403437,36.961852 C 66.403437,32.5063 66.403437,28.049869 66.403437,23.592562 C 66.403437,20.946832 65.219813,14.937244 67.71733,14.937244 C 74.977362,14.937244 82.238093,14.937244 89.496024,14.937244"
       id="path2577"
       style="fill:#8e0a0a;fill-opacity:1" />
    <path
       d="M 82.342971,19.035626 C 82.342971,21.596173 66.403437,21.642193 66.403437,19.035626 C 66.403437,13.26289 82.342971,13.26289 82.342971,19.035626"
       id="path2579"
       style="fill:#fcabab;fill-opacity:1" />
  </g>
  <g
     id="g2538">
    <path
       d="M 124.77013,92.000079 C 124.77013,98.417494 115.96229,96.560214 112.82744,96.560214 C 104.61561,96.560214 96.404469,96.560214 88.192636,96.560214 C 71.441896,96.560214 54.690456,96.560214 37.941117,96.560214 C 34.126204,96.560214 30.431755,96.608562 30.431755,90.375717 C 30.431755,81.970031 30.431755,73.568737 30.431755,65.163051 C 30.431755,46.614811 30.431755,28.067451 30.431755,9.5174521 C 30.431755,3.2195596 37.769526,4.8131504 40.964613,4.8131504 C 48.880891,4.8131504 56.798567,4.8131504 64.715546,4.8131504 C 81.859894,4.8131504 99.002141,4.8131504 116.14649,4.8131504 C 119.68687,4.8131504 124.77013,3.7856224 124.77013,10.222395 C 124.77013,17.970604 124.77013,25.717935 124.77013,33.465267 C 124.77013,52.795799 124.77013,72.125452 124.77013,91.453356 C 124.77013,91.637062 124.77013,91.818125 124.77013,92.000079"
       id="path5"
       style="fill:#ffffff;fill-opacity:0.81775668" />
    <path
       d="M 34.258315,6.1966559 C 28.410255,6.1966559 30.116902,19.539366 30.116902,24.337199 C 30.116902,36.379073 30.116902,48.421883 30.116902,60.465632 C 30.116902,71.392102 30.116902,82.324191 30.116902,93.250667 C 30.116902,98.481172 29.483204,105.31689 35.005321,105.31689 C 63.628711,105.31689 92.2528,105.31689 120.8748,105.31689 C 126.49694,105.31689 125.35335,96.403946 125.35335,91.407579 C 125.35335,80.048428 125.35335,68.688347 125.35335,57.328263 C 125.35335,45.597317 125.35335,33.865433 125.35335,22.135423 C 125.35335,17.31605 126.8005,6.1966559 121.12659,6.1966559 C 92.608119,6.1966559 64.089646,6.1966559 35.571174,6.1966559 C 35.13472,6.1966559 34.696868,6.1966559 34.258315,6.1966559 M 31.138091,99.771719 C 31.138091,80.957796 31.138091,62.144827 31.138091,43.333729 C 31.138091,33.739937 31.138091,24.148957 31.138091,14.557039 C 31.138091,8.8685696 33.261607,7.5658592 37.137231,7.5658592 C 53.42171,7.5658592 69.705491,7.5658592 85.989969,7.5658592 C 94.458851,7.5658592 102.92913,7.5658592 111.39662,7.5658592 C 114.07619,7.5658592 121.18675,5.808933 123.41728,8.7908372 C 125.94997,12.179195 124.33355,23.845524 124.33355,27.927847 C 124.33355,40.327474 124.33355,52.726167 124.33355,65.125794 C 124.33355,75.295549 124.33355,85.469051 124.33355,95.639744 C 124.33355,100.87868 123.49352,103.94955 119.18773,103.94955 C 103.39916,103.94955 87.610584,103.94955 71.82411,103.94955 C 63.113919,103.94955 54.403032,103.94955 45.692142,103.94955 C 42.290042,103.94955 37.584176,105.10804 34.259014,103.94955 C 32.557963,103.94768 31.138091,102.04842 31.138091,99.771719"
       id="path14"
       style="fill:url(#linearGradient5494);stroke:#000000;stroke-width:4.13502979;stroke-miterlimit:4;stroke-dasharray:none;stroke-opacity:1" />
    <path
       d="M 53.310728,63.575613 C 52.772144,48.638222 73.750315,53.354831 81.291193,53.354831 C 85.232173,53.354831 89.273306,53.022576 93.207281,53.354831 C 97.485139,53.354831 100.94636,56.159657 100.94636,61.83787 C 100.94636,64.774541 104.15196,64.513485 104.15196,61.379042 C 104.15196,45.398302 81.483096,50.07975 73.478571,50.07975 C 69.141182,50.07975 64.739358,49.801993 60.408272,50.07975 C 56.12201,50.07975 51.246038,52.364219 50.442714,58.310521 C 49.850201,62.687843 49.906932,63.575613 53.310728,63.575613"
       id="path16"
       style="fill:#494848;stroke:#494848;stroke-width:1.40288901;stroke-miterlimit:4;stroke-dasharray:none;stroke-opacity:1" />
    <path
       d="M 79.011491,50.096451 C 76.981818,50.096451 75.707147,51.081788 75.707147,48.335854 C 75.707147,46.90751 74.929036,39.733276 75.707147,38.837593 C 80.099164,33.793128 79.011491,48.494949 79.011491,50.096451"
       id="path18"
       style="fill:#494848;stroke:#494848;stroke-width:1.40288901;stroke-miterlimit:4;stroke-dasharray:none;stroke-opacity:1" />
    <path
       d="M 64.465514,85.474526 C 56.709623,85.474526 48.951629,85.474526 41.194333,85.474526 C 38.859301,85.474526 40.080746,78.873384 40.080746,76.521232 C 40.080746,74.186661 38.810276,63.344441 40.080746,61.669983 C 40.99683,60.467539 48.048851,61.669983 49.349437,61.669983 C 54.017401,61.669983 58.684663,61.669983 63.352627,61.669983 C 65.686959,61.669983 64.465514,68.273762 64.465514,70.624154 C 64.465514,75.574571 64.465514,80.526746 64.465514,85.474526"
       id="path20"
       style="fill:#fed219" />
    <path
       d="M 40.080746,60.539616 C 38.486004,60.539616 38.315113,86.60841 40.155685,86.60841 C 44.390822,86.60841 48.627355,86.60841 52.863191,86.60841 C 55.254953,86.60841 62.413432,88.257375 64.465514,86.60841 C 66.060958,86.60841 66.231846,60.539616 64.391275,60.539616 C 56.287298,60.539616 48.184722,60.539616 40.080746,60.539616 M 63.562738,62.806505 C 63.562738,66.937712 63.562738,71.068039 63.562738,75.201005 C 63.562738,77.825639 64.763171,84.341519 62.27756,84.341519 C 55.179313,84.341519 48.082468,84.341519 40.984224,84.341519 C 40.984224,80.210313 40.984224,76.079106 40.984224,71.947019 C 40.984224,69.320627 39.783789,62.806505 42.269401,62.806505 C 49.366946,62.806505 56.463792,62.806505 63.562738,62.806505"
       id="path22"
       style="fill:#ff9b02;fill-opacity:1" />
    <path
       d="M 55.225908,66.452548 C 55.225908,68.741119 40.686528,68.783218 40.686528,66.452548 C 40.686528,61.289374 55.225908,61.289374 55.225908,66.452548"
       id="path24"
       style="fill:#ffffa1" />
    <path
       d="M 114.62878,85.474526 C 106.8715,85.474526 99.113499,85.474526 91.356906,85.474526 C 89.020472,85.474526 90.242616,78.873384 90.242616,76.521232 C 90.242616,74.186661 88.972147,63.344441 90.242616,61.669983 C 91.158701,60.467539 98.209322,61.669983 99.511304,61.669983 C 104.17857,61.669983 108.84583,61.669983 113.5138,61.669983 C 115.85024,61.669983 114.62808,68.273762 114.62808,70.624154 C 114.62878,75.574571 114.62878,80.526746 114.62878,85.474526"
       id="path26"
       style="fill:#9cd305" />
    <path
       d="M 90.242616,60.539616 C 88.648577,60.539616 88.476986,86.60841 90.316855,86.60841 C 94.552692,86.60841 98.789229,86.60841 103.02437,86.60841 C 105.41612,86.60841 112.57601,88.257375 114.62808,86.60841 C 116.22213,86.60841 116.39372,60.539616 114.55315,60.539616 C 106.44986,60.539616 98.347295,60.539616 90.242616,60.539616 M 113.72531,62.806505 C 113.72531,66.937712 113.72531,71.068039 113.72531,75.201005 C 113.72531,77.825639 114.92574,84.341519 112.43944,84.341519 C 105.34119,84.341519 98.244341,84.341519 91.146794,84.341519 C 91.146794,80.210313 91.146794,76.079106 91.146794,71.947019 C 91.146794,69.320627 89.946362,62.806505 92.431272,62.806505 C 99.530216,62.806505 106.62636,62.806505 113.72531,62.806505"
       id="path28"
       style="fill:#618c03;fill-opacity:1" />
    <path
       d="M 106.57926,66.658234 C 106.57926,69.068364 91.146094,69.112699 91.146094,66.658234 C 91.146578,61.220813 106.57926,61.220813 106.57926,66.658234"
       id="path30"
       style="fill:#c2ef20" />
    <path
       d="M 90.41981,38.122105 C 82.464313,38.122105 74.506713,38.122105 66.551214,38.122105 C 64.304429,38.122105 65.478949,31.814542 65.478949,29.553804 C 65.478949,27.380088 64.221786,15.15699 65.478949,13.778748 C 66.754322,12.379412 73.970229,13.778748 75.623102,13.778748 C 80.198618,13.778748 84.773431,13.778748 89.348245,13.778748 C 91.59433,13.778748 90.41981,20.086311 90.41981,22.347047 C 90.41981,27.605985 90.41981,32.864045 90.41981,38.122105"
       id="path32"
       style="fill:#d82a2a" />
    <path
       d="M 65.479649,12.618495 C 63.846388,12.618495 63.681801,39.281478 65.551787,39.281478 C 69.684668,39.281478 73.81825,39.281478 77.951132,39.281478 C 80.56631,39.281478 88.16252,41.049987 90.421211,39.281478 C 92.051671,39.281478 92.216259,12.618495 90.349074,12.618495 C 82.058798,12.618495 73.769224,12.618495 65.479649,12.618495 M 89.496024,14.937244 C 89.496024,19.391036 89.496024,23.849225 89.496024,28.304774 C 89.496024,30.952263 90.679649,36.961852 88.18213,36.961852 C 80.922098,36.961852 73.662069,36.961852 66.403437,36.961852 C 66.403437,32.5063 66.403437,28.049869 66.403437,23.592562 C 66.403437,20.946832 65.219813,14.937244 67.71733,14.937244 C 74.977362,14.937244 82.238093,14.937244 89.496024,14.937244"
       id="path34"
       style="fill:#8e0a0a;fill-opacity:1" />
    <path
       d="M 82.342971,19.035626 C 82.342971,21.596173 66.403437,21.642193 66.403437,19.035626 C 66.403437,13.26289 82.342971,13.26289 82.342971,19.035626"
       id="path36"
       style="fill:#fcabab;fill-opacity:1" />
  </g>
  <path
     style="fill:url(#linearGradient4975);fill-opacity:1;fill-rule:evenodd;stroke:#000000;stroke-width:7.07487488px;stroke-linecap:butt;stroke-linejoin:miter;stroke-opacity:1"
     d="M 115.63963,75.350423 L 98.818349,56.913566 L 79.493913,75.350423 L 60.98264,75.350423 L 60.98264,56.913566 L 79.493913,38.738762 L 60.98264,18.591974 L 60.98264,2.1390655 L 79.493913,2.1390655 L 96.72179,18.591974 L 115.63963,2.1390655 L 133.33169,2.1390655 L 133.33169,18.591974 L 115.63963,38.738762 L 133.02526,56.913566 L 133.33169,75.350423 L 115.63963,75.350423 z"
     id="path4214"
     sodipodi:nodetypes="ccccccccccccccccc" />
</svg>
