<?xml version="1.0" encoding="UTF-8" standalone="no"?>
<!-- Generator: Adobe Illustrator 12.0.0, SVG Export Plug-In . SVG Version: 6.00 Build 51448)  -->
<svg
   xmlns:dc="http://purl.org/dc/elements/1.1/"
   xmlns:cc="http://creativecommons.org/ns#"
   xmlns:rdf="http://www.w3.org/1999/02/22-rdf-syntax-ns#"
   xmlns:svg="http://www.w3.org/2000/svg"
   xmlns="http://www.w3.org/2000/svg"
   xmlns:xlink="http://www.w3.org/1999/xlink"
   xmlns:sodipodi="http://sodipodi.sourceforge.net/DTD/sodipodi-0.dtd"
   xmlns:inkscape="http://www.inkscape.org/namespaces/inkscape"
   height="160"
   id="Layer_1"
   inkscape:version="0.46"
   sodipodi:docbase="D:\Quelltexte\Projekte\phpsurveyor\source\original art"
   sodipodi:docname="conditions_delete.svg"
   sodipodi:version="0.32"
   space="preserve"
   style="overflow:visible"
   version="1.0"
   viewBox="0 0 136.728 105.837"
   width="160"
   inkscape:export-filename="D:\web\xampp\htdocs\limesurvey\images\conditions_delete.png"
   inkscape:export-xdpi="9"
   inkscape:export-ydpi="9"
   inkscape:output_extension="org.inkscape.output.svg.inkscape">
  <metadata
     id="metadata3">
    <rdf:RDF>
      <cc:Work
         rdf:about="">
        <dc:title>Diagramma</dc:title>
        <dc:description />
        <dc:subject>
          <rdf:Bag>
            <rdf:li>unsorted</rdf:li>
          </rdf:Bag>
        </dc:subject>
        <dc:publisher>
          <cc:Agent
             rdf:about="http://www.openclipart.org/">
            <dc:title>Open Clip Art Library</dc:title>
          </cc:Agent>
        </dc:publisher>
        <dc:creator>
          <cc:Agent>
            <dc:title>Architetto Francesco Rollandin</dc:title>
          </cc:Agent>
        </dc:creator>
        <dc:rights>
          <cc:Agent>
            <dc:title>Architetto Francesco Rollandin</dc:title>
          </cc:Agent>
        </dc:rights>
        <dc:date />
        <dc:format>image/svg+xml</dc:format>
        <dc:type
           rdf:resource="http://purl.org/dc/dcmitype/StillImage" />
        <cc:license
           rdf:resource="http://web.resource.org/cc/PublicDomain" />
        <dc:language>en</dc:language>
      </cc:Work>
      <cc:License
         rdf:about="http://web.resource.org/cc/PublicDomain">
        <cc:permits
           rdf:resource="http://web.resource.org/cc/Reproduction" />
        <cc:permits
           rdf:resource="http://web.resource.org/cc/Distribution" />
        <cc:permits
           rdf:resource="http://web.resource.org/cc/DerivativeWorks" />
      </cc:License>
    </rdf:RDF>
  </metadata>
  <defs
     id="defs39">
    <linearGradient
       id="linearGradient2250">
      <stop
         style="stop-color:#ff0000;stop-opacity:1;"
         offset="0"
         id="stop2252" />
      <stop
         style="stop-color:#850000;stop-opacity:1;"
         offset="1"
         id="stop2254" />
    </linearGradient>
    <linearGradient
       inkscape:collect="always"
       xlink:href="#linearGradient2250"
       id="linearGradient4975"
       gradientUnits="userSpaceOnUse"
       gradientTransform="matrix(0.550914,0,0,0.5944615,178.35959,-107.10271)"
       x1="-223.55299"
       y1="187.2412"
       x2="-93.461372"
       y2="304.79459" />
    <inkscape:perspective
       sodipodi:type="inkscape:persp3d"
       inkscape:vp_x="0 : 200 : 1"
       inkscape:vp_y="0 : 1000 : 0"
       inkscape:vp_z="400 : 200 : 1"
       inkscape:persp3d-origin="200 : 133.33333 : 1"
       id="perspective5168" />
    <linearGradient
       y2="448.80219"
       y1="448.80219"
       x2="-238.563"
       x1="-240.5889"
       id="XMLID_2_"
       gradientUnits="userSpaceOnUse"
       gradientTransform="matrix(577.9565,0,0,-725.3492,138642.1,325591.1)">
      <stop
         style="stop-color:#FFFFFF"
         offset="0"
         id="stop10" />
      <stop
         style="stop-color:#000000"
         offset="1"
         id="stop12" />
    </linearGradient>
    <linearGradient
       inkscape:collect="always"
       xlink:href="#XMLID_2_"
       id="linearGradient5494"
       gradientUnits="userSpaceOnUse"
       gradientTransform="matrix(630.00206,0,0,-843.5469,151117.47,378646.16)"
       x1="-240.5889"
       y1="448.80219"
       x2="-238.563"
       y2="448.80219" />
  </defs>
  <sodipodi:namedview
     bordercolor="#666666"
     borderopacity="1.0"
     id="base"
     inkscape:current-layer="Layer_1"
     inkscape:cx="200"
     inkscape:cy="100.59737"
     inkscape:pageopacity="0.0"
     inkscape:pageshadow="2"
     inkscape:window-height="968"
     inkscape:window-width="1280"
     inkscape:window-x="0"
     inkscape:window-y="22"
     inkscape:zoom="1.9075"
     pagecolor="#ffffff"
     width="400px"
     height="400px"
     showgrid="false"
     showguides="true"
     inkscape:guide-bbox="true">
    <sodipodi:guide
       orientation="0,1"
       position="42,380"
       id="guide5170" />
    <sodipodi:guide
       orientation="1,0"
       position="40,244"
       id="guide5172" />
    <sodipodi:guide
       orientation="1,0"
       position="360,224"
       id="guide5174" />
    <sodipodi:guide
       orientation="1,0"
       position="20,337"
       id="guide5181" />
  </sodipodi:namedview>
  <path
     style="fill:#ffffff;fill-opacity:0.81775668"
     id="path5"
     d="M 121.6691,101.96112 C 121.6691,110.02335 110.60377,107.69004 106.66544,107.69004 C 96.348873,107.69004 86.033179,107.69004 75.716613,107.69004 C 54.672577,107.69004 33.627662,107.69004 12.585385,107.69004 C 7.7926929,107.69004 3.1513373,107.75078 3.1513373,99.920426 C 3.1513373,89.360323 3.1513373,78.805737 3.1513373,68.245631 C 3.1513373,44.943388 3.1513373,21.642248 3.1513373,-1.6622055 C 3.1513373,-9.5742787 12.369815,-7.5722426 16.383818,-7.5722426 C 26.329077,-7.5722426 36.276093,-7.5722426 46.222231,-7.5722426 C 67.760758,-7.5722426 89.296647,-7.5722426 110.83517,-7.5722426 C 115.28297,-7.5722426 121.6691,-8.8631307 121.6691,-0.77658273 C 121.6691,8.957531 121.6691,18.690541 121.6691,28.423551 C 121.6691,52.708593 121.6691,76.99253 121.6691,101.27427 C 121.6691,101.50506 121.6691,101.73253 121.6691,101.96112" />
  <path
     style="fill:url(#linearGradient5494);stroke:#000000;stroke-width:5.19485807;stroke-miterlimit:4;stroke-dasharray:none;stroke-opacity:1"
     id="path14"
     d="M 7.9586634,-5.834138 C 0.61171725,-5.834138 2.7557862,10.928374 2.7557862,16.955915 C 2.7557862,32.08418 2.7557862,47.213621 2.7557862,62.344241 C 2.7557862,76.071219 2.7557862,89.805256 2.7557862,103.53224 C 2.7557862,110.10335 1.9596683,118.69109 8.8971316,118.69109 C 44.856836,118.69109 80.817418,118.69109 116.77537,118.69109 C 123.8385,118.69109 122.4018,107.49372 122.4018,101.21676 C 122.4018,86.946204 122.4018,72.674478 122.4018,58.40275 C 122.4018,43.665105 122.4018,28.926282 122.4018,14.189813 C 122.4018,8.135211 124.21986,-5.834138 117.0917,-5.834138 C 81.263807,-5.834138 45.435911,-5.834138 9.6080152,-5.834138 C 9.0596952,-5.834138 8.5096203,-5.834138 7.9586634,-5.834138 M 4.0387115,111.72467 C 4.0387115,88.088647 4.0387115,64.453822 4.0387115,40.821348 C 4.0387115,28.768621 4.0387115,16.719426 4.0387115,4.6690517 C 4.0387115,-2.4773998 6.7064943,-4.1140012 11.57546,-4.1140012 C 32.03373,-4.1140012 52.491123,-4.1140012 72.949393,-4.1140012 C 83.58889,-4.1140012 94.230141,-4.1140012 104.86789,-4.1140012 C 108.23425,-4.1140012 117.16728,-6.3212362 119.9695,-2.5750554 C 123.15133,1.6817549 121.12062,16.33822 121.12062,21.466864 C 121.12062,37.044576 121.12062,52.621114 121.12062,68.198825 C 121.12062,80.975139 121.12062,93.756159 121.12062,106.53365 C 121.12062,113.11535 120.06529,116.97329 114.65591,116.97329 C 94.820637,116.97329 74.985378,116.97329 55.152755,116.97329 C 44.210099,116.97329 33.266569,116.97329 22.323036,116.97329 C 18.048962,116.97329 12.136959,118.42872 7.959542,116.97329 C 5.822503,116.97095 4.0387115,114.5849 4.0387115,111.72467" />
  <path
     style="fill:#494848;stroke:#494848;stroke-width:1.7624563;stroke-miterlimit:4;stroke-dasharray:none;stroke-opacity:1"
     id="path16"
     d="M 31.894303,66.251325 C 31.217677,47.485409 57.572655,53.410907 67.046298,53.410907 C 71.99737,53.410907 77.074264,52.993495 82.016537,53.410907 C 87.390831,53.410907 91.739187,56.934623 91.739187,64.06819 C 91.739187,67.757544 95.766387,67.429579 95.766387,63.491762 C 95.766387,43.415081 67.287385,49.296407 57.231262,49.296407 C 51.78218,49.296407 46.252147,48.94746 40.810982,49.296407 C 35.426131,49.296407 29.300422,52.166397 28.291203,59.636765 C 27.546826,65.136016 27.618098,66.251325 31.894303,66.251325" />
  <path
     style="fill:#494848;stroke:#494848;stroke-width:1.7624563;stroke-miterlimit:4;stroke-dasharray:none;stroke-opacity:1"
     id="path18"
     d="M 64.182296,49.317389 C 61.632409,49.317389 60.031033,50.555272 60.031033,47.105542 C 60.031033,45.311107 59.053488,36.298081 60.031033,35.172831 C 65.548746,28.835444 64.182296,47.305414 64.182296,49.317389" />
  <path
     style="fill:#fed219"
     id="path20"
     d="M 45.908115,93.763036 C 36.164351,93.763036 26.417945,93.763036 16.672417,93.763036 C 13.738905,93.763036 15.273412,85.46999 15.273412,82.51497 C 15.273412,79.582038 13.677314,65.960903 15.273412,63.857274 C 16.424293,62.346637 25.283781,63.857274 26.917714,63.857274 C 32.7821,63.857274 38.645603,63.857274 44.50999,63.857274 C 47.442622,63.857274 45.908115,72.153633 45.908115,75.106443 C 45.908115,81.325675 45.908115,87.547116 45.908115,93.763036" />
  <path
     style="fill:#ff9b02;fill-opacity:1"
     id="path22"
     d="M 15.273412,62.437187 C 13.269931,62.437187 13.055239,95.18754 15.367559,95.18754 C 20.688181,95.18754 26.010559,95.18754 31.33206,95.18754 C 34.336843,95.18754 43.330074,97.259144 45.908115,95.18754 C 47.912478,95.18754 48.127166,62.437187 45.814848,62.437187 C 35.633783,62.437187 25.454477,62.437187 15.273412,62.437187 M 44.773952,65.285092 C 44.773952,70.475147 44.773952,75.664097 44.773952,80.856362 C 44.773952,84.153703 46.282063,92.339635 43.159377,92.339635 C 34.241816,92.339635 25.326014,92.339635 16.408455,92.339635 C 16.408455,87.14958 16.408455,81.959524 16.408455,76.768364 C 16.408455,73.468815 14.900343,65.285092 18.02303,65.285092 C 26.93971,65.285092 35.855512,65.285092 44.773952,65.285092" />
  <path
     style="fill:#ffffa1"
     id="path24"
     d="M 34.300353,69.865633 C 34.300353,72.740776 16.034459,72.793665 16.034459,69.865633 C 16.034459,63.379113 34.300353,63.379113 34.300353,69.865633" />
  <path
     style="fill:#9cd305"
     id="path26"
     d="M 108.92848,93.763036 C 99.182961,93.763036 89.436547,93.763036 79.691901,93.763036 C 76.756628,93.763036 78.292014,85.46999 78.292014,82.51497 C 78.292014,79.582038 76.695917,65.960903 78.292014,63.857274 C 79.442896,62.346637 88.300625,63.857274 89.936318,63.857274 C 95.79982,63.857274 101.66333,63.857274 107.52771,63.857274 C 110.46299,63.857274 108.9276,72.153633 108.9276,75.106443 C 108.92848,81.325675 108.92848,87.547116 108.92848,93.763036" />
  <path
     style="fill:#618c03;fill-opacity:1"
     id="path28"
     d="M 78.292014,62.437187 C 76.289414,62.437187 76.073844,95.18754 78.385281,95.18754 C 83.706783,95.18754 89.029164,95.18754 94.349784,95.18754 C 97.354562,95.18754 106.34956,97.259144 108.9276,95.18754 C 110.93021,95.18754 111.14577,62.437187 108.83346,62.437187 C 98.653263,62.437187 88.473961,62.437187 78.292014,62.437187 M 107.79344,65.285092 C 107.79344,70.475147 107.79344,75.664097 107.79344,80.856362 C 107.79344,84.153703 109.30154,92.339635 106.17799,92.339635 C 97.260421,92.339635 88.344619,92.339635 79.427937,92.339635 C 79.427937,87.14958 79.427937,81.959524 79.427937,76.768364 C 79.427937,73.468815 77.919828,65.285092 81.041633,65.285092 C 89.960074,65.285092 98.874998,65.285092 107.79344,65.285092" />
  <path
     style="fill:#c2ef20"
     id="path30"
     d="M 98.815828,70.124037 C 98.815828,73.151895 79.427058,73.207594 79.427058,70.124037 C 79.427666,63.292979 98.815828,63.292979 98.815828,70.124037" />
  <path
     style="fill:#d82a2a"
     id="path32"
     d="M 78.514624,34.273959 C 68.520094,34.273959 58.522922,34.273959 48.52839,34.273959 C 45.705744,34.273959 47.181298,26.349738 47.181298,23.509562 C 47.181298,20.778711 45.601918,5.4227723 47.181298,3.6912813 C 48.783555,1.9332887 57.848935,3.6912813 59.925447,3.6912813 C 65.67369,3.6912813 71.42105,3.6912813 77.168411,3.6912813 C 79.990178,3.6912813 78.514624,11.615503 78.514624,14.455677 C 78.514624,21.062507 78.514624,27.668233 78.514624,34.273959" />
  <path
     style="fill:#8e0a0a;fill-opacity:1"
     id="path34"
     d="M 47.182177,2.2336498 C 45.130304,2.2336498 44.923532,35.730486 47.272805,35.730486 C 52.464964,35.730486 57.658002,35.730486 62.850162,35.730486 C 66.135624,35.730486 75.678779,37.952272 78.516384,35.730486 C 80.564738,35.730486 80.771511,2.2336498 78.425757,2.2336498 C 68.010643,2.2336498 57.596411,2.2336498 47.182177,2.2336498 M 77.354066,5.1467055 C 77.354066,10.742026 77.354066,16.34287 77.354066,21.940399 C 77.354066,25.266453 78.84106,32.816328 75.703415,32.816328 C 66.582602,32.816328 57.461791,32.816328 48.342738,32.816328 C 48.342738,27.218796 48.342738,21.620161 48.342738,16.020423 C 48.342738,12.69658 46.855744,5.1467055 49.993387,5.1467055 C 59.1142,5.1467055 68.235892,5.1467055 77.354066,5.1467055" />
  <path
     style="fill:#fcabab;fill-opacity:1"
     id="path36"
     d="M 68.367651,10.295523 C 68.367651,13.512351 48.342738,13.570166 48.342738,10.295523 C 48.342738,3.0432069 68.367651,3.0432069 68.367651,10.295523" />
  <path
     style="fill:url(#linearGradient4975);fill-opacity:1;fill-rule:evenodd;stroke:#000000;stroke-width:8.9469986px;stroke-linecap:butt;stroke-linejoin:miter;stroke-opacity:1"
     d="M 110.02198,81.681929 L 88.749504,58.366389 L 64.311523,81.681929 L 40.901876,81.681929 L 40.901876,58.366389 L 64.311523,35.382245 L 40.901876,9.9042978 L 40.901876,-10.902309 L 64.311523,-10.902309 L 86.098164,9.9042978 L 110.02198,-10.902309 L 132.39563,-10.902309 L 132.39563,9.9042978 L 110.02198,35.382245 L 132.00812,58.366389 L 132.39563,81.681929 L 110.02198,81.681929 z"
     id="path4214"
     sodipodi:nodetypes="ccccccccccccccccc" />
</svg>
