<?xml version="1.0" encoding="UTF-8" standalone="no"?>
<!-- Generator: Adobe Illustrator 12.0.0, SVG Export Plug-In . SVG Version: 6.00 Build 51448)  -->
<svg
   xmlns:dc="http://purl.org/dc/elements/1.1/"
   xmlns:cc="http://creativecommons.org/ns#"
   xmlns:rdf="http://www.w3.org/1999/02/22-rdf-syntax-ns#"
   xmlns:svg="http://www.w3.org/2000/svg"
   xmlns="http://www.w3.org/2000/svg"
   xmlns:xlink="http://www.w3.org/1999/xlink"
   xmlns:sodipodi="http://sodipodi.sourceforge.net/DTD/sodipodi-0.dtd"
   xmlns:inkscape="http://www.inkscape.org/namespaces/inkscape"
   height="400"
   id="Layer_1"
   inkscape:version="0.46"
   sodipodi:docbase="D:\Quelltexte\Projekte\phpsurveyor\source\original art"
   sodipodi:docname="conditions_copy.svg"
   sodipodi:version="0.32"
   space="preserve"
   style="overflow:visible;enable-background:new 0 0 136.728 105.837;"
   version="1.0"
   viewBox="0 0 136.728 105.837"
   width="400"
   inkscape:export-filename="D:\web\xampp\htdocs\limesurvey\images\conditions_copy.png"
   inkscape:export-xdpi="9"
   inkscape:export-ydpi="9"
   inkscape:output_extension="org.inkscape.output.svg.inkscape">
  <metadata
     id="metadata3">
    <rdf:RDF>
      <cc:Work
         rdf:about="">
        <dc:title>Diagramma</dc:title>
        <dc:description />
        <dc:subject>
          <rdf:Bag>
            <rdf:li>unsorted</rdf:li>
          </rdf:Bag>
        </dc:subject>
        <dc:publisher>
          <cc:Agent
             rdf:about="http://www.openclipart.org/">
            <dc:title>Open Clip Art Library</dc:title>
          </cc:Agent>
        </dc:publisher>
        <dc:creator>
          <cc:Agent>
            <dc:title>Architetto Francesco Rollandin</dc:title>
          </cc:Agent>
        </dc:creator>
        <dc:rights>
          <cc:Agent>
            <dc:title>Architetto Francesco Rollandin</dc:title>
          </cc:Agent>
        </dc:rights>
        <dc:date />
        <dc:format>image/svg+xml</dc:format>
        <dc:type
           rdf:resource="http://purl.org/dc/dcmitype/StillImage" />
        <cc:license
           rdf:resource="http://web.resource.org/cc/PublicDomain" />
        <dc:language>en</dc:language>
      </cc:Work>
      <cc:License
         rdf:about="http://web.resource.org/cc/PublicDomain">
        <cc:permits
           rdf:resource="http://web.resource.org/cc/Reproduction" />
        <cc:permits
           rdf:resource="http://web.resource.org/cc/Distribution" />
        <cc:permits
           rdf:resource="http://web.resource.org/cc/DerivativeWorks" />
      </cc:License>
    </rdf:RDF>
  </metadata>
  <defs
     id="defs39">
    <linearGradient
       id="linearGradient2209"
       inkscape:collect="always">
      <stop
         id="stop2211"
         offset="0"
         style="stop-color:#ffe900;stop-opacity:1;" />
      <stop
         id="stop2213"
         offset="1"
         style="stop-color:#ffe900;stop-opacity:0;" />
    </linearGradient>
    <linearGradient
       inkscape:collect="always"
       xlink:href="#linearGradient2209"
       id="linearGradient2071"
       gradientUnits="userSpaceOnUse"
       gradientTransform="matrix(0.3480461,0,0,0.3572044,-18.933161,-73.01363)"
       x1="264.582"
       y1="296.37491"
       x2="380.6846"
       y2="553.74487" />
    <linearGradient
       id="linearGradient2250">
      <stop
         style="stop-color:#ff0000;stop-opacity:1;"
         offset="0"
         id="stop2252" />
      <stop
         style="stop-color:#850000;stop-opacity:1;"
         offset="1"
         id="stop2254" />
    </linearGradient>
    <linearGradient
       inkscape:collect="always"
       xlink:href="#linearGradient2250"
       id="linearGradient4975"
       gradientUnits="userSpaceOnUse"
       gradientTransform="matrix(0.3577057,0,0,0.3859808,99.008521,-68.124091)"
       x1="-223.55299"
       y1="187.2412"
       x2="-93.461372"
       y2="304.79459" />
    <inkscape:perspective
       sodipodi:type="inkscape:persp3d"
       inkscape:vp_x="0 : 200 : 1"
       inkscape:vp_y="0 : 1000 : 0"
       inkscape:vp_z="400 : 200 : 1"
       inkscape:persp3d-origin="200 : 133.33333 : 1"
       id="perspective5168" />
    <linearGradient
       y2="448.80219"
       y1="448.80219"
       x2="-238.563"
       x1="-240.5889"
       id="XMLID_2_"
       gradientUnits="userSpaceOnUse"
       gradientTransform="matrix(577.9565,0,0,-725.3492,138642.1,325591.1)">
      <stop
         style="stop-color:#FFFFFF"
         offset="0"
         id="stop10" />
      <stop
         style="stop-color:#000000"
         offset="1"
         id="stop12" />
    </linearGradient>
    <linearGradient
       inkscape:collect="always"
       xlink:href="#XMLID_2_"
       id="linearGradient5494"
       gradientUnits="userSpaceOnUse"
       gradientTransform="matrix(500.08117,0,0,-669.58816,119967.18,300565.53)"
       x1="-240.5889"
       y1="448.80219"
       x2="-238.563"
       y2="448.80219" />
    <linearGradient
       inkscape:collect="always"
       xlink:href="#XMLID_2_"
       id="linearGradient2861"
       gradientUnits="userSpaceOnUse"
       gradientTransform="matrix(500.08117,0,0,-669.58816,119967.18,300565.53)"
       x1="-240.5889"
       y1="448.80219"
       x2="-238.563"
       y2="448.80219" />
    <linearGradient
       inkscape:collect="always"
       xlink:href="#XMLID_2_"
       id="linearGradient2893"
       gradientUnits="userSpaceOnUse"
       gradientTransform="matrix(500.08117,0,0,-669.58816,119967.18,300565.53)"
       x1="-240.5889"
       y1="448.80219"
       x2="-238.563"
       y2="448.80219" />
  </defs>
  <sodipodi:namedview
     bordercolor="#666666"
     borderopacity="1.0"
     id="base"
     inkscape:current-layer="Layer_1"
     inkscape:cx="200"
     inkscape:cy="353.89841"
     inkscape:pageopacity="0.0"
     inkscape:pageshadow="2"
     inkscape:window-height="968"
     inkscape:window-width="1280"
     inkscape:window-x="-4"
     inkscape:window-y="-4"
     inkscape:zoom="1.9075"
     pagecolor="#ffffff"
     width="400px"
     height="400px"
     showgrid="false"
     showguides="true"
     inkscape:guide-bbox="true">
    <sodipodi:guide
       orientation="0,1"
       position="42,380"
       id="guide5170" />
    <sodipodi:guide
       orientation="1,0"
       position="40,244"
       id="guide5172" />
    <sodipodi:guide
       orientation="1,0"
       position="360,224"
       id="guide5174" />
    <sodipodi:guide
       orientation="1,0"
       position="20,337"
       id="guide5181" />
    <sodipodi:guide
       orientation="0,1"
       position="123.72215,360.15727"
       id="guide2800" />
    <sodipodi:guide
       orientation="1,0"
       position="329.75098,211.2713"
       id="guide2843" />
    <sodipodi:guide
       orientation="0,1"
       position="239.5806,29.882045"
       id="guide2895" />
  </sodipodi:namedview>
  <g
     id="g2845"
     transform="translate(-6.6303224,-6.8095203)">
    <path
       d="M 110.16978,84.854546 C 110.16978,91.254155 101.38637,89.402027 98.260218,89.402027 C 90.071163,89.402027 81.882803,89.402027 73.693749,89.402027 C 56.989476,89.402027 40.284506,89.402027 23.58163,89.402027 C 19.7773,89.402027 16.093098,89.450242 16.093098,83.234682 C 16.093098,74.852319 16.093098,66.47433 16.093098,58.091961 C 16.093098,39.595175 16.093098,21.099265 16.093098,2.6007247 C 16.093098,-3.6796978 23.410515,-2.0905274 26.596738,-2.0905274 C 34.491057,-2.0905274 42.38677,-2.0905274 50.281785,-2.0905274 C 67.378574,-2.0905274 84.473268,-2.0905274 101.57005,-2.0905274 C 105.10061,-2.0905274 110.16978,-3.1152048 110.16978,3.3037113 C 110.16978,11.030428 110.16978,18.756268 110.16978,26.482108 C 110.16978,45.759017 110.16978,65.035048 110.16978,84.309334 C 110.16978,84.49253 110.16978,84.673096 110.16978,84.854546"
       id="path5"
       style="fill:#ffffff;fill-opacity:0.8177568" />
    <path
       d="M 19.909044,0.26422081 C 14.077207,0.26422081 15.77912,13.569919 15.77912,18.354442 C 15.77912,30.362911 15.77912,42.372315 15.77912,54.382654 C 15.77912,65.278814 15.77912,76.180577 15.77912,87.076736 C 15.77912,92.292749 15.14718,99.109499 20.653979,99.109499 C 49.197967,99.109499 77.742652,99.109499 106.28525,99.109499 C 111.8918,99.109499 110.75138,90.221282 110.75138,85.238762 C 110.75138,73.911127 110.75138,62.582558 110.75138,51.253988 C 110.75138,39.555584 110.75138,27.856244 110.75138,16.158774 C 110.75138,11.35277 112.19451,0.26422081 106.53634,0.26422081 C 78.096985,0.26422081 49.657624,0.26422081 21.218262,0.26422081 C 20.783018,0.26422081 20.346381,0.26422081 19.909044,0.26422081 M 16.797477,93.579713 C 16.797477,74.817972 16.797477,56.05719 16.797477,37.298275 C 16.797477,27.731097 16.797477,18.166722 16.797477,8.6014122 C 16.797477,2.9287228 18.915101,1.6296263 22.779975,1.6296263 C 39.01928,1.6296263 55.257889,1.6296263 71.497194,1.6296263 C 79.942583,1.6296263 88.389363,1.6296263 96.833366,1.6296263 C 99.505502,1.6296263 106.59633,-0.1224262 108.82067,2.8512066 C 111.34634,6.2301647 109.7344,17.86413 109.7344,21.93513 C 109.7344,34.30036 109.7344,46.664658 109.7344,59.029888 C 109.7344,69.171432 109.7344,79.316713 109.7344,89.459192 C 109.7344,94.683602 108.89671,97.745948 104.60287,97.745948 C 88.858085,97.745948 73.113313,97.745948 57.370631,97.745948 C 48.684603,97.745948 39.997879,97.745948 31.311154,97.745948 C 27.918492,97.745948 23.22568,98.901231 19.909742,97.745948 C 18.213409,97.744088 16.797477,95.850095 16.797477,93.579713"
       id="path14"
       style="fill:url(#linearGradient2861);stroke:#000000;stroke-width:4.123559;stroke-miterlimit:4;stroke-dasharray:none;stroke-opacity:1" />
    <g
       transform="matrix(0.906894,0,0,0.906894,1.7431836,6.7013353)"
       id="g2810">
      <path
         style="fill:#494848;stroke:#494848;stroke-width:1.54262495;stroke-miterlimit:4;stroke-dasharray:none;stroke-opacity:1"
         id="path16"
         d="M 41.518592,62.543443 C 40.926361,46.118201 63.994081,51.304611 72.286076,51.304611 C 76.6196,51.304611 81.063253,50.939263 85.389076,51.304611 C 90.093034,51.304611 93.899019,54.388814 93.899019,60.63261 C 93.899019,63.861791 97.423906,63.574733 97.423906,60.12808 C 97.423906,42.555565 72.497092,47.703313 63.69527,47.703313 C 58.925852,47.703313 54.085581,47.39789 49.323093,47.703313 C 44.609895,47.703313 39.248246,50.215329 38.364907,56.753917 C 37.713376,61.567246 37.775758,62.543443 41.518592,62.543443" />
      <path
         style="fill:#494848;stroke:#494848;stroke-width:1.54262495;stroke-miterlimit:4;stroke-dasharray:none;stroke-opacity:1"
         id="path18"
         d="M 69.779301,47.721678 C 67.547462,47.721678 66.145825,48.80516 66.145825,45.785715 C 66.145825,44.2151 65.29021,36.326269 66.145825,35.341372 C 70.975314,29.794447 69.779301,45.960657 69.779301,47.721678" />
      <path
         style="fill:#fed219"
         id="path20"
         d="M 53.78446,86.623616 C 45.256036,86.623616 36.7253,86.623616 28.195333,86.623616 C 25.627718,86.623616 26.970826,79.364962 26.970826,76.778522 C 26.970826,74.211415 25.573809,62.289245 26.970826,60.448002 C 27.978157,59.125787 35.732601,60.448002 37.162733,60.448002 C 42.295654,60.448002 47.427802,60.448002 52.560723,60.448002 C 55.127568,60.448002 53.78446,67.709555 53.78446,70.294061 C 53.78446,75.737568 53.78446,81.183008 53.78446,86.623616" />
      <path
         style="fill:#ff9b02;fill-opacity:1"
         id="path22"
         d="M 26.970826,59.205042 C 25.217239,59.205042 25.029326,87.870441 27.05323,87.870441 C 31.71021,87.870441 36.368728,87.870441 41.026477,87.870441 C 43.656474,87.870441 51.527978,89.68365 53.78446,87.870441 C 55.538819,87.870441 55.726729,59.205042 53.702826,59.205042 C 44.791646,59.205042 35.882006,59.205042 26.970826,59.205042 M 52.791761,61.697728 C 52.791761,66.240427 52.791761,70.782159 52.791761,75.326792 C 52.791761,78.212856 54.111765,85.377756 51.378572,85.377756 C 43.573299,85.377756 35.769566,85.377756 27.964295,85.377756 C 27.964295,80.835057 27.964295,76.292357 27.964295,71.748691 C 27.964295,68.860695 26.64429,61.697728 29.377484,61.697728 C 37.181986,61.697728 44.985719,61.697728 52.791761,61.697728" />
      <path
         style="fill:#ffffa1"
         id="path24"
         d="M 43.624535,65.706938 C 43.624535,68.223464 27.636947,68.269756 27.636947,65.706938 C 27.636947,60.029482 43.624535,60.029482 43.624535,65.706938" />
      <path
         style="fill:#9cd305"
         id="path26"
         d="M 108.94429,86.623616 C 100.41433,86.623616 91.883587,86.623616 83.354392,86.623616 C 80.785236,86.623616 82.129113,79.364962 82.129113,76.778522 C 82.129113,74.211415 80.732097,62.289245 82.129113,60.448002 C 83.136445,59.125787 90.889349,60.448002 92.321022,60.448002 C 97.453169,60.448002 102.58532,60.448002 107.71824,60.448002 C 110.2874,60.448002 108.94352,67.709555 108.94352,70.294061 C 108.94429,75.737568 108.94429,81.183008 108.94429,86.623616" />
      <path
         style="fill:#618c03;fill-opacity:1"
         id="path28"
         d="M 82.129113,59.205042 C 80.376297,59.205042 80.187615,87.870441 82.210747,87.870441 C 86.868497,87.870441 91.527017,87.870441 96.183996,87.870441 C 98.813988,87.870441 106.68704,89.68365 108.94352,87.870441 C 110.69634,87.870441 110.88502,59.205042 108.86112,59.205042 C 99.950702,59.205042 91.041065,59.205042 82.129113,59.205042 M 107.95082,61.697728 C 107.95082,66.240427 107.95082,70.782159 107.95082,75.326792 C 107.95082,78.212856 109.27082,85.377756 106.53687,85.377756 C 98.731589,85.377756 90.927856,85.377756 83.123352,85.377756 C 83.123352,80.835057 83.123352,76.292357 83.123352,71.748691 C 83.123352,68.860695 81.80335,61.697728 84.535772,61.697728 C 92.341815,61.697728 100.14478,61.697728 107.95082,61.697728" />
      <path
         style="fill:#c2ef20"
         id="path30"
         d="M 100.09299,65.933111 C 100.09299,68.583304 83.122583,68.632056 83.122583,65.933111 C 83.123115,59.954091 100.09299,59.954091 100.09299,65.933111" />
      <path
         style="fill:#d82a2a"
         id="path32"
         d="M 82.323957,34.554616 C 73.576045,34.554616 64.825821,34.554616 56.077908,34.554616 C 53.607331,34.554616 54.898839,27.618784 54.898839,25.132863 C 54.898839,22.742631 53.516455,9.3020395 54.898839,7.7865181 C 56.301246,6.2477996 64.235901,7.7865181 66.053409,7.7865181 C 71.084673,7.7865181 76.115165,7.7865181 81.145657,7.7865181 C 83.615465,7.7865181 82.323957,14.722351 82.323957,17.20827 C 82.323957,22.991029 82.323957,28.772823 82.323957,34.554616" />
      <path
         style="fill:#8e0a0a;fill-opacity:1"
         id="path34"
         d="M 54.899608,6.5106963 C 53.103665,6.5106963 52.922684,35.82947 54.978932,35.82947 C 59.523473,35.82947 64.068783,35.82947 68.613324,35.82947 C 71.48899,35.82947 79.841827,37.774133 82.325497,35.82947 C 84.11836,35.82947 84.299342,6.5106963 82.246174,6.5106963 C 73.130138,6.5106963 64.014874,6.5106963 54.899608,6.5106963 M 81.308155,9.0604067 C 81.308155,13.957823 81.308155,18.860073 81.308155,23.759422 C 81.308155,26.670617 82.609676,33.278795 79.86339,33.278795 C 71.880217,33.278795 63.897045,33.278795 55.915412,33.278795 C 55.915412,28.379444 55.915412,23.479127 55.915412,18.577845 C 55.915412,15.668585 54.613891,9.0604067 57.360176,9.0604067 C 65.343349,9.0604067 73.327292,9.0604067 81.308155,9.0604067" />
      <path
         style="fill:#fcabab;fill-opacity:1"
         id="path36"
         d="M 73.442616,13.567012 C 73.442616,16.382605 55.915412,16.433209 55.915412,13.567012 C 55.915412,7.2192778 73.442616,7.2192778 73.442616,13.567012" />
    </g>
  </g>
  <g
     transform="translate(10.214281,10.035083)"
     id="g2863">
    <path
       style="fill:#ffffff;fill-opacity:0.81775668"
       id="path2865"
       d="M 110.16978,84.854546 C 110.16978,91.254155 101.38637,89.402027 98.260218,89.402027 C 90.071163,89.402027 81.882803,89.402027 73.693749,89.402027 C 56.989476,89.402027 40.284506,89.402027 23.58163,89.402027 C 19.7773,89.402027 16.093098,89.450242 16.093098,83.234682 C 16.093098,74.852319 16.093098,66.47433 16.093098,58.091961 C 16.093098,39.595175 16.093098,21.099265 16.093098,2.6007247 C 16.093098,-3.6796978 23.410515,-2.0905274 26.596738,-2.0905274 C 34.491057,-2.0905274 42.38677,-2.0905274 50.281785,-2.0905274 C 67.378574,-2.0905274 84.473268,-2.0905274 101.57005,-2.0905274 C 105.10061,-2.0905274 110.16978,-3.1152048 110.16978,3.3037113 C 110.16978,11.030428 110.16978,18.756268 110.16978,26.482108 C 110.16978,45.759017 110.16978,65.035048 110.16978,84.309334 C 110.16978,84.49253 110.16978,84.673096 110.16978,84.854546" />
    <path
       style="fill:url(#linearGradient2893);stroke:#000000;stroke-width:4.123559;stroke-miterlimit:4;stroke-dasharray:none;stroke-opacity:1"
       id="path2867"
       d="M 19.909044,0.26422081 C 14.077207,0.26422081 15.77912,13.569919 15.77912,18.354442 C 15.77912,30.362911 15.77912,42.372315 15.77912,54.382654 C 15.77912,65.278814 15.77912,76.180577 15.77912,87.076736 C 15.77912,92.292749 15.14718,99.109499 20.653979,99.109499 C 49.197967,99.109499 77.742652,99.109499 106.28525,99.109499 C 111.8918,99.109499 110.75138,90.221282 110.75138,85.238762 C 110.75138,73.911127 110.75138,62.582558 110.75138,51.253988 C 110.75138,39.555584 110.75138,27.856244 110.75138,16.158774 C 110.75138,11.35277 112.19451,0.26422081 106.53634,0.26422081 C 78.096985,0.26422081 49.657624,0.26422081 21.218262,0.26422081 C 20.783018,0.26422081 20.346381,0.26422081 19.909044,0.26422081 M 16.797477,93.579713 C 16.797477,74.817972 16.797477,56.05719 16.797477,37.298275 C 16.797477,27.731097 16.797477,18.166722 16.797477,8.6014122 C 16.797477,2.9287228 18.915101,1.6296263 22.779975,1.6296263 C 39.01928,1.6296263 55.257889,1.6296263 71.497194,1.6296263 C 79.942583,1.6296263 88.389363,1.6296263 96.833366,1.6296263 C 99.505502,1.6296263 106.59633,-0.1224262 108.82067,2.8512066 C 111.34634,6.2301647 109.7344,17.86413 109.7344,21.93513 C 109.7344,34.30036 109.7344,46.664658 109.7344,59.029888 C 109.7344,69.171432 109.7344,79.316713 109.7344,89.459192 C 109.7344,94.683602 108.89671,97.745948 104.60287,97.745948 C 88.858085,97.745948 73.113313,97.745948 57.370631,97.745948 C 48.684603,97.745948 39.997879,97.745948 31.311154,97.745948 C 27.918492,97.745948 23.22568,98.901231 19.909742,97.745948 C 18.213409,97.744088 16.797477,95.850095 16.797477,93.579713" />
    <g
       id="g2869"
       transform="matrix(0.906894,0,0,0.906894,1.7431836,6.7013353)">
      <path
         d="M 41.518592,62.543443 C 40.926361,46.118201 63.994081,51.304611 72.286076,51.304611 C 76.6196,51.304611 81.063253,50.939263 85.389076,51.304611 C 90.093034,51.304611 93.899019,54.388814 93.899019,60.63261 C 93.899019,63.861791 97.423906,63.574733 97.423906,60.12808 C 97.423906,42.555565 72.497092,47.703313 63.69527,47.703313 C 58.925852,47.703313 54.085581,47.39789 49.323093,47.703313 C 44.609895,47.703313 39.248246,50.215329 38.364907,56.753917 C 37.713376,61.567246 37.775758,62.543443 41.518592,62.543443"
         id="path2871"
         style="fill:#494848;stroke:#494848;stroke-width:1.54262495;stroke-miterlimit:4;stroke-dasharray:none;stroke-opacity:1" />
      <path
         d="M 69.779301,47.721678 C 67.547462,47.721678 66.145825,48.80516 66.145825,45.785715 C 66.145825,44.2151 65.29021,36.326269 66.145825,35.341372 C 70.975314,29.794447 69.779301,45.960657 69.779301,47.721678"
         id="path2873"
         style="fill:#494848;stroke:#494848;stroke-width:1.54262495;stroke-miterlimit:4;stroke-dasharray:none;stroke-opacity:1" />
      <path
         d="M 53.78446,86.623616 C 45.256036,86.623616 36.7253,86.623616 28.195333,86.623616 C 25.627718,86.623616 26.970826,79.364962 26.970826,76.778522 C 26.970826,74.211415 25.573809,62.289245 26.970826,60.448002 C 27.978157,59.125787 35.732601,60.448002 37.162733,60.448002 C 42.295654,60.448002 47.427802,60.448002 52.560723,60.448002 C 55.127568,60.448002 53.78446,67.709555 53.78446,70.294061 C 53.78446,75.737568 53.78446,81.183008 53.78446,86.623616"
         id="path2875"
         style="fill:#fed219" />
      <path
         d="M 26.970826,59.205042 C 25.217239,59.205042 25.029326,87.870441 27.05323,87.870441 C 31.71021,87.870441 36.368728,87.870441 41.026477,87.870441 C 43.656474,87.870441 51.527978,89.68365 53.78446,87.870441 C 55.538819,87.870441 55.726729,59.205042 53.702826,59.205042 C 44.791646,59.205042 35.882006,59.205042 26.970826,59.205042 M 52.791761,61.697728 C 52.791761,66.240427 52.791761,70.782159 52.791761,75.326792 C 52.791761,78.212856 54.111765,85.377756 51.378572,85.377756 C 43.573299,85.377756 35.769566,85.377756 27.964295,85.377756 C 27.964295,80.835057 27.964295,76.292357 27.964295,71.748691 C 27.964295,68.860695 26.64429,61.697728 29.377484,61.697728 C 37.181986,61.697728 44.985719,61.697728 52.791761,61.697728"
         id="path2877"
         style="fill:#ff9b02;fill-opacity:1" />
      <path
         d="M 43.624535,65.706938 C 43.624535,68.223464 27.636947,68.269756 27.636947,65.706938 C 27.636947,60.029482 43.624535,60.029482 43.624535,65.706938"
         id="path2879"
         style="fill:#ffffa1" />
      <path
         d="M 108.94429,86.623616 C 100.41433,86.623616 91.883587,86.623616 83.354392,86.623616 C 80.785236,86.623616 82.129113,79.364962 82.129113,76.778522 C 82.129113,74.211415 80.732097,62.289245 82.129113,60.448002 C 83.136445,59.125787 90.889349,60.448002 92.321022,60.448002 C 97.453169,60.448002 102.58532,60.448002 107.71824,60.448002 C 110.2874,60.448002 108.94352,67.709555 108.94352,70.294061 C 108.94429,75.737568 108.94429,81.183008 108.94429,86.623616"
         id="path2881"
         style="fill:#9cd305" />
      <path
         d="M 82.129113,59.205042 C 80.376297,59.205042 80.187615,87.870441 82.210747,87.870441 C 86.868497,87.870441 91.527017,87.870441 96.183996,87.870441 C 98.813988,87.870441 106.68704,89.68365 108.94352,87.870441 C 110.69634,87.870441 110.88502,59.205042 108.86112,59.205042 C 99.950702,59.205042 91.041065,59.205042 82.129113,59.205042 M 107.95082,61.697728 C 107.95082,66.240427 107.95082,70.782159 107.95082,75.326792 C 107.95082,78.212856 109.27082,85.377756 106.53687,85.377756 C 98.731589,85.377756 90.927856,85.377756 83.123352,85.377756 C 83.123352,80.835057 83.123352,76.292357 83.123352,71.748691 C 83.123352,68.860695 81.80335,61.697728 84.535772,61.697728 C 92.341815,61.697728 100.14478,61.697728 107.95082,61.697728"
         id="path2883"
         style="fill:#618c03;fill-opacity:1" />
      <path
         d="M 100.09299,65.933111 C 100.09299,68.583304 83.122583,68.632056 83.122583,65.933111 C 83.123115,59.954091 100.09299,59.954091 100.09299,65.933111"
         id="path2885"
         style="fill:#c2ef20" />
      <path
         d="M 82.323957,34.554616 C 73.576045,34.554616 64.825821,34.554616 56.077908,34.554616 C 53.607331,34.554616 54.898839,27.618784 54.898839,25.132863 C 54.898839,22.742631 53.516455,9.3020395 54.898839,7.7865181 C 56.301246,6.2477996 64.235901,7.7865181 66.053409,7.7865181 C 71.084673,7.7865181 76.115165,7.7865181 81.145657,7.7865181 C 83.615465,7.7865181 82.323957,14.722351 82.323957,17.20827 C 82.323957,22.991029 82.323957,28.772823 82.323957,34.554616"
         id="path2887"
         style="fill:#d82a2a" />
      <path
         d="M 54.899608,6.5106963 C 53.103665,6.5106963 52.922684,35.82947 54.978932,35.82947 C 59.523473,35.82947 64.068783,35.82947 68.613324,35.82947 C 71.48899,35.82947 79.841827,37.774133 82.325497,35.82947 C 84.11836,35.82947 84.299342,6.5106963 82.246174,6.5106963 C 73.130138,6.5106963 64.014874,6.5106963 54.899608,6.5106963 M 81.308155,9.0604067 C 81.308155,13.957823 81.308155,18.860073 81.308155,23.759422 C 81.308155,26.670617 82.609676,33.278795 79.86339,33.278795 C 71.880217,33.278795 63.897045,33.278795 55.915412,33.278795 C 55.915412,28.379444 55.915412,23.479127 55.915412,18.577845 C 55.915412,15.668585 54.613891,9.0604067 57.360176,9.0604067 C 65.343349,9.0604067 73.327292,9.0604067 81.308155,9.0604067"
         id="path2889"
         style="fill:#8e0a0a;fill-opacity:1" />
      <path
         d="M 73.442616,13.567012 C 73.442616,16.382605 55.915412,16.433209 55.915412,13.567012 C 55.915412,7.2192778 73.442616,7.2192778 73.442616,13.567012"
         id="path2891"
         style="fill:#fcabab;fill-opacity:1" />
    </g>
  </g>
</svg>
