<?xml version="1.0" encoding="UTF-8" standalone="no"?>
<!-- Generator: Adobe Illustrator 12.0.0, SVG Export Plug-In . SVG Version: 6.00 Build 51448)  -->
<svg
   xmlns:dc="http://purl.org/dc/elements/1.1/"
   xmlns:cc="http://web.resource.org/cc/"
   xmlns:rdf="http://www.w3.org/1999/02/22-rdf-syntax-ns#"
   xmlns:svg="http://www.w3.org/2000/svg"
   xmlns="http://www.w3.org/2000/svg"
   xmlns:xlink="http://www.w3.org/1999/xlink"
   xmlns:sodipodi="http://sodipodi.sourceforge.net/DTD/sodipodi-0.dtd"
   xmlns:inkscape="http://www.inkscape.org/namespaces/inkscape"
   height="400"
   id="Layer_1"
   inkscape:version="0.44"
   sodipodi:docbase="D:\Quelltexte\Projekte\phpsurveyor\source\original art"
   sodipodi:docname="conditions.svg"
   sodipodi:version="0.32"
   space="preserve"
   style="overflow:visible;enable-background:new 0 0 136.728 105.837;"
   version="1.0"
   viewBox="0 0 136.728 105.837"
   width="400"
   inkscape:export-filename="D:\xampp\xampp\htdocs\phpsurveyor\admin\images\conditions.png"
   inkscape:export-xdpi="9"
   inkscape:export-ydpi="9">
  <metadata
     id="metadata3">
    <rdf:RDF>
      <cc:Work
         rdf:about="">
        <dc:title>Diagramma</dc:title>
        <dc:description />
        <dc:subject>
          <rdf:Bag>
            <rdf:li>unsorted</rdf:li>
          </rdf:Bag>
        </dc:subject>
        <dc:publisher>
          <cc:Agent
             rdf:about="http://www.openclipart.org/">
            <dc:title>Open Clip Art Library</dc:title>
          </cc:Agent>
        </dc:publisher>
        <dc:creator>
          <cc:Agent>
            <dc:title>Architetto Francesco Rollandin</dc:title>
          </cc:Agent>
        </dc:creator>
        <dc:rights>
          <cc:Agent>
            <dc:title>Architetto Francesco Rollandin</dc:title>
          </cc:Agent>
        </dc:rights>
        <dc:date />
        <dc:format>image/svg+xml</dc:format>
        <dc:type
           rdf:resource="http://purl.org/dc/dcmitype/StillImage" />
        <cc:license
           rdf:resource="http://web.resource.org/cc/PublicDomain" />
        <dc:language>en</dc:language>
      </cc:Work>
      <cc:License
         rdf:about="http://web.resource.org/cc/PublicDomain">
        <cc:permits
           rdf:resource="http://web.resource.org/cc/Reproduction" />
        <cc:permits
           rdf:resource="http://web.resource.org/cc/Distribution" />
        <cc:permits
           rdf:resource="http://web.resource.org/cc/DerivativeWorks" />
      </cc:License>
    </rdf:RDF>
  </metadata>
  <defs
     id="defs39">
    <linearGradient
       y2="448.80219"
       y1="448.80219"
       x2="-238.563"
       x1="-240.5889"
       id="XMLID_2_"
       gradientUnits="userSpaceOnUse"
       gradientTransform="matrix(577.9565,0,0,-725.3492,138642.1,325591.1)">
      <stop
         style="stop-color:#FFFFFF"
         offset="0"
         id="stop10" />
      <stop
         style="stop-color:#000000"
         offset="1"
         id="stop12" />
    </linearGradient>
    <linearGradient
       inkscape:collect="always"
       xlink:href="#XMLID_2_"
       id="linearGradient5494"
       gradientUnits="userSpaceOnUse"
       gradientTransform="matrix(577.9565,0,0,-725.3492,138644.4,325594.7)"
       x1="-240.5889"
       y1="448.80219"
       x2="-238.563"
       y2="448.80219" />
  </defs>
  <sodipodi:namedview
     bordercolor="#666666"
     borderopacity="1.0"
     id="base"
     inkscape:current-layer="Layer_1"
     inkscape:cx="200"
     inkscape:cy="195.55119"
     inkscape:pageopacity="0.0"
     inkscape:pageshadow="2"
     inkscape:window-height="968"
     inkscape:window-width="1280"
     inkscape:window-x="-4"
     inkscape:window-y="-4"
     inkscape:zoom="0.9425"
     pagecolor="#ffffff"
     width="400px"
     height="400px" />
  <path
     style="fill:white;fill-opacity:0.81775701"
     id="path5"
     d="M 122.69244,100.46659 C 122.69244,107.85302 112.55464,105.71529 108.94643,105.71529 C 99.494628,105.71529 90.043627,105.71529 80.591824,105.71529 C 61.311758,105.71529 42.030886,105.71529 22.752432,105.71529 C 18.361476,105.71529 14.109172,105.77094 14.109172,98.596943 C 14.109172,88.922022 14.109172,79.252151 14.109172,69.577223 C 14.109172,48.228238 14.109172,26.880265 14.109172,5.5292564 C 14.109172,-1.7196051 22.554932,0.1146148 26.23247,0.1146148 C 35.344089,0.1146148 44.457319,0.1146148 53.569743,0.1146148 C 73.302851,0.1146148 93.033541,0.1146148 112.76665,0.1146148 C 116.84161,0.1146148 122.69244,-1.0680675 122.69244,6.3406433 C 122.69244,15.258817 122.69244,24.175979 122.69244,33.093141 C 122.69244,55.342543 122.69244,77.590932 122.69244,99.837306 C 122.69244,100.04875 122.69244,100.25716 122.69244,100.46659" />
  <path
     style="fill:url(#linearGradient5494);stroke:black;stroke-width:4.61391115;stroke-miterlimit:4;stroke-dasharray:none;stroke-opacity:1"
     id="path14"
     d="M 18.294567,-0.6198825 C 11.554565,-0.6198825 13.521508,13.793869 13.521508,18.976831 C 13.521508,31.985324 13.521508,44.99483 13.521508,58.005349 C 13.521508,69.808903 13.521508,81.618528 13.521508,93.422082 C 13.521508,99.072451 12.791159,106.45688 19.155507,106.45688 C 52.144517,106.45688 85.134332,106.45688 118.12173,106.45688 C 124.60136,106.45688 123.28335,96.828491 123.28335,91.431048 C 123.28335,79.160086 123.28335,66.888113 123.28335,54.616139 C 123.28335,41.943531 123.28335,29.269911 123.28335,16.598314 C 123.28335,11.392083 124.95121,-0.6198825 118.41193,-0.6198825 C 85.543843,-0.6198825 52.675753,-0.6198825 19.807662,-0.6198825 C 19.30464,-0.6198825 18.800007,-0.6198825 18.294567,-0.6198825 M 14.698449,100.46659 C 14.698449,80.142451 14.698449,59.819334 14.698449,39.498241 C 14.698449,29.134342 14.698449,18.773478 14.698449,8.411602 C 14.698449,2.26651 17.145841,0.8592293 21.612573,0.8592293 C 40.38075,0.8592293 59.148121,0.8592293 77.916298,0.8592293 C 87.676847,0.8592293 97.439006,0.8592293 107.19795,0.8592293 C 110.2862,0.8592293 118.48126,-1.0387282 121.05199,2.1825386 C 123.97096,5.8428847 122.10801,18.445686 122.10801,22.855706 C 122.10801,36.25067 122.10801,49.644625 122.10801,63.039589 C 122.10801,74.025687 122.10801,85.015831 122.10801,96.002942 C 122.10801,101.66241 121.13986,104.97978 116.17736,104.97978 C 97.980723,104.97978 79.784087,104.97978 61.589871,104.97978 C 51.551209,104.97978 41.511742,104.97978 31.472274,104.97978 C 27.551288,104.97978 22.127686,106.23127 18.295373,104.97978 C 16.334879,104.97776 14.698449,102.92604 14.698449,100.46659" />
  <path
     style="fill:#494848;stroke:#494848;stroke-width:1.61472225;stroke-miterlimit:4;stroke-dasharray:none;stroke-opacity:1"
     id="path16"
     d="M 40.442822,67.750085 C 39.822913,50.557181 63.968743,55.985987 72.648279,55.985987 C 77.184338,55.985987 81.835673,55.603563 86.363671,55.985987 C 91.287476,55.985987 95.271341,59.214335 95.271341,65.749946 C 95.271341,69.130049 98.96097,68.829574 98.96097,65.221836 C 98.96097,46.828039 72.869157,52.216376 63.655966,52.216376 C 58.663641,52.216376 53.597152,51.896678 48.612081,52.216376 C 43.678603,52.216376 38.066368,54.845795 37.141744,61.689976 C 36.459763,66.728264 36.52506,67.750085 40.442822,67.750085" />
  <path
     style="fill:#494848;stroke:#494848;stroke-width:1.61472225;stroke-miterlimit:4;stroke-dasharray:none;stroke-opacity:1"
     id="path18"
     d="M 70.024345,52.235599 C 67.688198,52.235599 66.221052,53.369719 66.221052,50.209155 C 66.221052,48.565135 65.325449,40.307605 66.221052,39.276678 C 71.276256,33.470507 70.024345,50.392273 70.024345,52.235599" />
  <path
     style="fill:#fed219"
     id="path20"
     d="M 53.281957,92.955687 C 44.354942,92.955687 35.425507,92.955687 26.496878,92.955687 C 23.80926,92.955687 25.215141,85.357787 25.215141,82.650466 C 25.215141,79.96338 23.752832,67.484007 25.215141,65.55671 C 26.269551,64.172699 34.386413,65.55671 35.883385,65.55671 C 41.256202,65.55671 46.62821,65.55671 52.001027,65.55671 C 54.687838,65.55671 53.281957,73.157645 53.281957,75.862942 C 53.281957,81.560861 53.281957,87.260803 53.281957,92.955687" />
  <path
     style="fill:#ff9b02;fill-opacity:1"
     id="path22"
     d="M 25.215141,64.255658 C 23.379597,64.255658 23.182902,94.260785 25.301396,94.260785 C 30.176028,94.260785 35.052271,94.260785 39.927708,94.260785 C 42.680622,94.260785 50.920015,96.158738 53.281957,94.260785 C 55.118309,94.260785 55.315002,64.255658 53.196508,64.255658 C 43.868848,64.255658 34.542801,64.255658 25.215141,64.255658 M 52.242863,66.864844 C 52.242863,71.619854 52.242863,76.373852 52.242863,81.130887 C 52.242863,84.151836 53.62456,91.6516 50.763626,91.6516 C 42.59356,91.6516 34.425106,91.6516 26.255041,91.6516 C 26.255041,86.89659 26.255041,82.141579 26.255041,77.385557 C 26.255041,74.362585 24.873344,66.864844 27.734278,66.864844 C 35.903538,66.864844 44.071992,66.864844 52.242863,66.864844" />
  <path
     style="fill:#ffffa1"
     id="path24"
     d="M 42.64719,71.061432 C 42.64719,73.695572 25.912394,73.744028 25.912394,71.061432 C 25.912394,65.11863 42.64719,65.11863 42.64719,71.061432" />
  <path
     style="fill:#9cd305"
     id="path26"
     d="M 111.01978,92.955687 C 102.09116,92.955687 93.161714,92.955687 84.233892,92.955687 C 81.544662,92.955687 82.951348,85.357787 82.951348,82.650466 C 82.951348,79.96338 81.48904,67.484007 82.951348,65.55671 C 84.005759,64.172699 92.121009,65.55671 93.619593,65.55671 C 98.991599,65.55671 104.36361,65.55671 109.73643,65.55671 C 112.42566,65.55671 111.01897,73.157645 111.01897,75.862942 C 111.01978,81.560861 111.01978,87.260803 111.01978,92.955687" />
  <path
     style="fill:#618c03;fill-opacity:1"
     id="path28"
     d="M 82.951348,64.255658 C 81.116611,64.255658 80.91911,94.260785 83.036797,94.260785 C 87.912235,94.260785 92.788479,94.260785 97.663107,94.260785 C 100.41602,94.260785 108.65703,96.158738 111.01897,94.260785 C 112.85371,94.260785 113.05121,64.255658 110.93272,64.255658 C 101.60586,64.255658 92.279815,64.255658 82.951348,64.255658 M 109.97988,66.864844 C 109.97988,71.619854 109.97988,76.373852 109.97988,81.130887 C 109.97988,84.151836 111.36157,91.6516 108.49984,91.6516 C 100.32977,91.6516 92.161315,91.6516 83.992054,91.6516 C 83.992054,86.89659 83.992054,82.141579 83.992054,77.385557 C 83.992054,74.362585 82.610359,66.864844 85.470486,66.864844 C 93.641358,66.864844 101.80901,66.864844 109.97988,66.864844" />
  <path
     style="fill:#c2ef20"
     id="path30"
     d="M 101.7548,71.298175 C 101.7548,74.07223 83.991249,74.12326 83.991249,71.298175 C 83.991806,65.039715 101.7548,65.039715 101.7548,71.298175" />
  <path
     style="fill:#d82a2a"
     id="path32"
     d="M 83.155298,38.453151 C 73.998537,38.453151 64.839356,38.453151 55.682594,38.453151 C 53.09655,38.453151 54.448419,31.193161 54.448419,28.591056 C 54.448419,26.089112 53.001427,12.020351 54.448419,10.433999 C 55.91637,8.8233658 64.221865,10.433999 66.124317,10.433999 C 71.390726,10.433999 76.656327,10.433999 81.921928,10.433999 C 84.507167,10.433999 83.155298,17.69399 83.155298,20.296093 C 83.155298,26.34912 83.155298,32.401136 83.155298,38.453151" />
  <path
     style="fill:#8e0a0a;fill-opacity:1"
     id="path34"
     d="M 54.449224,9.0985494 C 52.569344,9.0985494 52.379905,39.787588 54.532255,39.787588 C 59.289193,39.787588 64.046936,39.787588 68.803874,39.787588 C 71.81394,39.787588 80.557161,41.823138 83.15691,39.787588 C 85.033566,39.787588 85.223006,9.0985494 83.07388,9.0985494 C 73.53179,9.0985494 63.990508,9.0985494 54.449224,9.0985494 M 82.092021,11.767425 C 82.092021,16.893731 82.092021,22.025096 82.092021,27.153425 C 82.092021,30.200679 83.454371,37.117702 80.579732,37.117702 C 72.223451,37.117702 63.867172,37.117702 55.512503,37.117702 C 55.512503,31.989372 55.512503,26.86003 55.512503,21.729678 C 55.512503,18.684448 54.150153,11.767425 57.024791,11.767425 C 65.381071,11.767425 73.738158,11.767425 82.092021,11.767425" />
  <path
     style="fill:#fcabab;fill-opacity:1"
     id="path36"
     d="M 73.858872,16.484654 C 73.858872,19.431839 55.512503,19.484808 55.512503,16.484654 C 55.512503,9.8402477 73.858872,9.8402477 73.858872,16.484654" />
</svg>
