<?xml version="1.0" encoding="UTF-8" standalone="no"?>
<!-- Created with Inkscape (http://www.inkscape.org/) -->
<svg
   xmlns:dc="http://purl.org/dc/elements/1.1/"
   xmlns:cc="http://web.resource.org/cc/"
   xmlns:rdf="http://www.w3.org/1999/02/22-rdf-syntax-ns#"
   xmlns:svg="http://www.w3.org/2000/svg"
   xmlns="http://www.w3.org/2000/svg"
   xmlns:xlink="http://www.w3.org/1999/xlink"
   xmlns:sodipodi="http://sodipodi.sourceforge.net/DTD/sodipodi-0.dtd"
   xmlns:inkscape="http://www.inkscape.org/namespaces/inkscape"
   height="400"
   id="svg2"
   inkscape:version="0.44.1"
   sodipodi:docbase="C:\Documents and Settings\lemeur\Mes documents\Supélec\LimeSurvey\original art"
   sodipodi:docname="copyconditions.svg"
   sodipodi:version="0.32"
   width="400"
   version="1.0"
   inkscape:export-filename="D:\xampp\xampp\htdocs\phpsurveyor\admin\images\assessments.png"
   inkscape:export-xdpi="9"
   inkscape:export-ydpi="9">
  <metadata
     id="metadata3">
    <rdf:RDF>
      <cc:Work
         rdf:about="">
        <dc:title>Kitchen scales</dc:title>
        <dc:description>Scales used to weigh out quantities of food in a kitchen</dc:description>
        <dc:subject>
          <rdf:Bag>
            <rdf:li>kitchen scales  top pan balance weighing weight weigh</rdf:li>
          </rdf:Bag>
        </dc:subject>
        <dc:publisher>
          <cc:Agent
             rdf:about="http://www.openclipart.org/">
            <dc:title>Open Clip Art Library</dc:title>
          </cc:Agent>
        </dc:publisher>
        <dc:creator>
          <cc:Agent>
            <dc:title>Theresa Knott  (theresaknott@gmail.com)</dc:title>
          </cc:Agent>
        </dc:creator>
        <dc:rights>
          <cc:Agent>
            <dc:title>Theresa Knott  (theresaknott@gmail.com)</dc:title>
          </cc:Agent>
        </dc:rights>
        <dc:date>11.6.06</dc:date>
        <dc:format>image/svg+xml</dc:format>
        <dc:type
           rdf:resource="http://purl.org/dc/dcmitype/StillImage" />
        <cc:license
           rdf:resource="http://web.resource.org/cc/PublicDomain" />
        <dc:language>en</dc:language>
      </cc:Work>
      <cc:License
         rdf:about="http://web.resource.org/cc/PublicDomain">
        <cc:permits
           rdf:resource="http://web.resource.org/cc/Reproduction" />
        <cc:permits
           rdf:resource="http://web.resource.org/cc/Distribution" />
        <cc:permits
           rdf:resource="http://web.resource.org/cc/DerivativeWorks" />
      </cc:License>
    </rdf:RDF>
  </metadata>
  <defs
     id="defs4">
    <linearGradient
       id="linearGradient3132">
      <stop
         id="stop3134"
         offset="0"
         style="stop-color:#ffffff;stop-opacity:1;" />
      <stop
         id="stop3136"
         offset="1"
         style="stop-color:#8ea089;stop-opacity:1;" />
    </linearGradient>
    <linearGradient
       id="linearGradient2210"
       inkscape:collect="always">
      <stop
         id="stop2212"
         offset="0"
         style="stop-color:#1e1e1e;stop-opacity:1;" />
      <stop
         id="stop2214"
         offset="1"
         style="stop-color:#1e1e1e;stop-opacity:0;" />
    </linearGradient>
    <linearGradient
       id="linearGradient2200"
       inkscape:collect="always">
      <stop
         id="stop2202"
         offset="0"
         style="stop-color:#acacad;stop-opacity:1;" />
      <stop
         id="stop2204"
         offset="1"
         style="stop-color:#acacad;stop-opacity:0;" />
    </linearGradient>
    <linearGradient
       gradientUnits="userSpaceOnUse"
       id="linearGradient3170"
       inkscape:collect="always"
       x1="170.52892"
       x2="715.18542"
       xlink:href="#linearGradient2210"
       y1="387.79074"
       y2="346.36218" />
    <linearGradient
       gradientUnits="userSpaceOnUse"
       id="linearGradient3172"
       inkscape:collect="always"
       x1="107.70486"
       x2="616.58081"
       xlink:href="#linearGradient2200"
       y1="509.50507"
       y2="335.21936" />
    <radialGradient
       cx="517.55518"
       cy="650.80853"
       fx="474.73425"
       fy="695.37665"
       gradientTransform="matrix(2.054411,2.724652e-6,-1.665898e-6,1.256101,-731.3769,-172.9897)"
       gradientUnits="userSpaceOnUse"
       id="radialGradient3174"
       inkscape:collect="always"
       r="192.14655"
       xlink:href="#linearGradient3132" />
    <linearGradient
       inkscape:collect="always"
       xlink:href="#linearGradient3132"
       id="linearGradient1987"
       gradientUnits="userSpaceOnUse"
       x1="240.0363"
       y1="395.73727"
       x2="269.96268"
       y2="416.61166"
       gradientTransform="matrix(0.689116,0,0,0.807312,-58.52332,-251.0922)" />
    <linearGradient
       inkscape:collect="always"
       xlink:href="#linearGradient2210"
       id="linearGradient1993"
       gradientUnits="userSpaceOnUse"
       x1="170.52892"
       y1="387.79074"
       x2="715.18542"
       y2="346.36218"
       gradientTransform="matrix(0.69654,0,0,0.897294,-59.34606,-289.0953)" />
    <linearGradient
       inkscape:collect="always"
       xlink:href="#linearGradient3132"
       id="linearGradient6426"
       x1="92.758469"
       y1="161.32448"
       x2="147.91136"
       y2="216.76488"
       gradientUnits="userSpaceOnUse" />
    <linearGradient
       inkscape:collect="always"
       xlink:href="#linearGradient3132"
       id="linearGradient9104"
       x1="201.58067"
       y1="823.95905"
       x2="273.95602"
       y2="901.76709"
       gradientUnits="userSpaceOnUse" />
    <linearGradient
       inkscape:collect="always"
       xlink:href="#linearGradient2210"
       id="linearGradient2002"
       gradientUnits="userSpaceOnUse"
       gradientTransform="matrix(0.69654,0,0,0.897294,-59.34606,-289.0953)"
       x1="170.52892"
       y1="387.79074"
       x2="715.18542"
       y2="346.36218" />
    <linearGradient
       inkscape:collect="always"
       xlink:href="#linearGradient3132"
       id="linearGradient2004"
       gradientUnits="userSpaceOnUse"
       gradientTransform="matrix(0.689116,0,0,0.807312,-58.52332,-251.0922)"
       x1="240.0363"
       y1="395.73727"
       x2="269.96268"
       y2="416.61166" />
    <linearGradient
       inkscape:collect="always"
       xlink:href="#linearGradient3132"
       id="linearGradient2006"
       gradientUnits="userSpaceOnUse"
       x1="92.758469"
       y1="161.32448"
       x2="147.91136"
       y2="216.76488" />
    <linearGradient
       inkscape:collect="always"
       xlink:href="#linearGradient3132"
       id="linearGradient2008"
       gradientUnits="userSpaceOnUse"
       x1="201.58067"
       y1="823.95905"
       x2="273.95602"
       y2="901.76709" />
  </defs>
  <sodipodi:namedview
     bordercolor="#666666"
     borderopacity="1.0"
     id="base"
     inkscape:current-layer="layer1"
     inkscape:cx="200"
     inkscape:cy="476.17627"
     inkscape:document-units="px"
     inkscape:pageopacity="0.0"
     inkscape:pageshadow="2"
     inkscape:window-height="742"
     inkscape:window-width="1024"
     inkscape:window-x="-4"
     inkscape:window-y="-4"
     inkscape:zoom="0.4825"
     pagecolor="#ffffff"
     width="400px"
     height="400px" />
  <g
     id="layer1"
     inkscape:groupmode="layer"
     inkscape:label="Layer 1">
    <use
       height="1052.3622"
       id="use4224"
       inkscape:tiled-clone-of="#g4212"
       transform="matrix(0.866025,-0.5,0.5,0.866025,182.4945,404.1924)"
       width="744.09448"
       x="0"
       xlink:href="#g4212"
       y="0" />
    <g
       transform="translate(-37.66047,-268.7518)"
       id="g1919">
      <path
         style="fill:none;fill-opacity:1;fill-rule:evenodd;stroke:none;stroke-width:15.6341238px;stroke-linecap:butt;stroke-linejoin:miter;stroke-opacity:1"
         d="M 314.96269,585.72505 L 88.800675,580.24325 L 83.284615,317.11964 L 248.769,311.63783 L 320.47891,393.86397 L 314.96269,585.72505 z "
         id="path8703" />
      <path
         style="fill:#b1ffff;fill-opacity:1;fill-rule:evenodd;stroke:#b1ffff;stroke-width:16.55669403px;stroke-linecap:butt;stroke-linejoin:miter;stroke-opacity:1"
         d="M 89.823665,520.45164 L 312.53298,521.82205 L 89.823665,520.45164 z "
         id="path5980" />
      <path
         style="fill:#b1ffff;fill-opacity:1;fill-rule:evenodd;stroke:#b1ffff;stroke-width:16.55669403px;stroke-linecap:butt;stroke-linejoin:miter;stroke-opacity:1"
         d="M 90.285095,423.6368 L 312.99441,425.00721 L 90.285095,423.6368 z "
         id="path4226" />
      <path
         style="fill:#b1ffff;fill-opacity:1;fill-rule:evenodd;stroke:#b1ffff;stroke-width:16.55669403px;stroke-linecap:butt;stroke-linejoin:miter;stroke-opacity:1"
         d="M 92.637465,457.14107 L 315.34678,458.51148 L 92.637465,457.14107 z "
         id="path5976" />
      <path
         style="fill:#b1ffff;fill-opacity:1;fill-rule:evenodd;stroke:#b1ffff;stroke-width:16.55669403px;stroke-linecap:butt;stroke-linejoin:miter;stroke-opacity:1"
         d="M 91.934015,490.20326 L 314.64333,491.57367 L 91.934015,490.20326 z "
         id="path5978" />
      <path
         style="fill:#b1ffff;fill-opacity:1;fill-rule:evenodd;stroke:#b1ffff;stroke-width:16.55669403px;stroke-linecap:butt;stroke-linejoin:miter;stroke-opacity:1"
         d="M 90.527115,551.40346 L 313.23643,552.77387 L 90.527115,551.40346 z "
         id="path5982" />
      <path
         style="fill:#b1ffff;fill-opacity:1;fill-rule:evenodd;stroke:#b1ffff;stroke-width:15.9964962px;stroke-linecap:butt;stroke-linejoin:miter;stroke-opacity:1"
         d="M 86.836595,368.92645 L 294.73008,370.29685 L 86.836595,368.92645 z "
         id="path3590" />
      <path
         style="fill:#b1ffff;fill-opacity:1;fill-rule:evenodd;stroke:#b1ffff;stroke-width:15.37894344px;stroke-linecap:butt;stroke-linejoin:miter;stroke-opacity:1"
         d="M 83.266975,340.07636 L 275.41864,341.44677 L 83.266975,340.07636 z "
         id="path3592" />
      <path
         style="fill:#b1ffff;fill-opacity:1;fill-rule:evenodd;stroke:#b1ffff;stroke-width:16.55669403px;stroke-linecap:butt;stroke-linejoin:miter;stroke-opacity:1"
         d="M 92.361465,394.79196 L 315.07078,396.16236 L 92.361465,394.79196 z "
         id="path3588" />
      <path
         style="fill:#ffb1b1;fill-opacity:1;fill-rule:evenodd;stroke:#ffb1b1;stroke-width:18.90075493px;stroke-linecap:butt;stroke-linejoin:miter;stroke-opacity:1"
         d="M 131.66305,578.67245 L 127.526,324.2979 L 131.66305,578.67245 z "
         id="path3594" />
      <path
         style="fill:none;fill-opacity:1;fill-rule:evenodd;stroke:black;stroke-width:15.6341238px;stroke-linecap:butt;stroke-linejoin:miter;stroke-opacity:1"
         d="M 315.07241,587.33098 L 88.910395,581.84917 L 83.394335,318.72561 L 248.87872,313.2438 L 320.58863,395.46994 L 315.07241,587.33098 z "
         id="path4212" />
      <path
         style="fill:white;fill-opacity:1;fill-rule:evenodd;stroke:none;stroke-width:15.6341238px;stroke-linecap:butt;stroke-linejoin:miter;stroke-opacity:1"
         d="M 223.1689,313.80855 L 228.68512,341.21732 L 228.68496,397.40513 L 320.008,408.10283 L 319.9801,392.79863 L 253.50771,313.80855 L 223.1689,313.80855 z "
         id="path3596"
         sodipodi:nodetypes="ccccccc" />
      <path
         style="fill:none;fill-opacity:0.75;fill-rule:evenodd;stroke:black;stroke-width:15.6341238px;stroke-linecap:butt;stroke-linejoin:miter;stroke-opacity:1"
         d="M 219.04831,314.32263 L 224.56453,341.7314 L 224.56437,397.91919 L 315.88741,408.6169 L 315.85951,393.31274 L 249.38712,314.32263 L 219.04831,314.32263 z "
         id="path4216"
         sodipodi:nodetypes="ccccccc" />
      <path
         style="fill:white;fill-opacity:1;fill-rule:evenodd;stroke:none;stroke-width:15.6341238px;stroke-linecap:butt;stroke-linejoin:miter;stroke-opacity:1"
         d="M 393.62284,625.33743 L 167.46083,619.85563 L 161.94477,356.73209 L 327.42915,351.25028 L 399.13906,433.47642 L 393.62284,625.33743 z "
         id="path1566" />
      <path
         style="fill:none;fill-opacity:1;fill-rule:evenodd;stroke:none;stroke-width:15.6341238px;stroke-linecap:butt;stroke-linejoin:miter;stroke-opacity:1"
         d="M 392.51829,624.72633 L 166.35628,619.24453 L 160.84022,356.12095 L 326.3246,350.63914 L 398.03451,432.86528 L 392.51829,624.72633 z "
         id="path1540" />
      <path
         style="fill:#b1ffff;fill-opacity:1;fill-rule:evenodd;stroke:#b1ffff;stroke-width:16.55669403px;stroke-linecap:butt;stroke-linejoin:miter;stroke-opacity:1"
         d="M 167.37927,559.45295 L 390.08858,560.82336 L 167.37927,559.45295 z "
         id="path1542" />
      <path
         style="fill:#b1ffff;fill-opacity:1;fill-rule:evenodd;stroke:#b1ffff;stroke-width:16.55669403px;stroke-linecap:butt;stroke-linejoin:miter;stroke-opacity:1"
         d="M 167.8407,462.63811 L 390.55001,464.00852 L 167.8407,462.63811 z "
         id="path1544" />
      <path
         style="fill:#b1ffff;fill-opacity:1;fill-rule:evenodd;stroke:#b1ffff;stroke-width:16.55669403px;stroke-linecap:butt;stroke-linejoin:miter;stroke-opacity:1"
         d="M 170.19307,496.14238 L 392.90238,497.51279 L 170.19307,496.14238 z "
         id="path1546" />
      <path
         style="fill:#b1ffff;fill-opacity:1;fill-rule:evenodd;stroke:#b1ffff;stroke-width:16.55669403px;stroke-linecap:butt;stroke-linejoin:miter;stroke-opacity:1"
         d="M 169.48962,529.20457 L 392.19893,530.57498 L 169.48962,529.20457 z "
         id="path1548" />
      <path
         style="fill:#b1ffff;fill-opacity:1;fill-rule:evenodd;stroke:#b1ffff;stroke-width:16.55669403px;stroke-linecap:butt;stroke-linejoin:miter;stroke-opacity:1"
         d="M 168.08272,590.40477 L 390.79203,591.77518 L 168.08272,590.40477 z "
         id="path1550" />
      <path
         style="fill:#b1ffff;fill-opacity:1;fill-rule:evenodd;stroke:#b1ffff;stroke-width:15.9964962px;stroke-linecap:butt;stroke-linejoin:miter;stroke-opacity:1"
         d="M 164.3922,407.92776 L 372.28568,409.29816 L 164.3922,407.92776 z "
         id="path1552" />
      <path
         style="fill:#b1ffff;fill-opacity:1;fill-rule:evenodd;stroke:#b1ffff;stroke-width:15.37894344px;stroke-linecap:butt;stroke-linejoin:miter;stroke-opacity:1"
         d="M 160.82258,379.07767 L 352.97424,380.44808 L 160.82258,379.07767 z "
         id="path1554" />
      <path
         style="fill:#b1ffff;fill-opacity:1;fill-rule:evenodd;stroke:#b1ffff;stroke-width:16.55669403px;stroke-linecap:butt;stroke-linejoin:miter;stroke-opacity:1"
         d="M 169.91707,433.79327 L 392.62638,435.16367 L 169.91707,433.79327 z "
         id="path1556" />
      <path
         style="fill:#ffb1b1;fill-opacity:1;fill-rule:evenodd;stroke:#ffb1b1;stroke-width:18.90075493px;stroke-linecap:butt;stroke-linejoin:miter;stroke-opacity:1"
         d="M 209.21865,617.67373 L 205.0816,363.29921 L 209.21865,617.67373 z "
         id="path1558" />
      <path
         style="fill:none;fill-opacity:1;fill-rule:evenodd;stroke:black;stroke-width:15.6341238px;stroke-linecap:butt;stroke-linejoin:miter;stroke-opacity:1"
         d="M 392.62801,626.33233 L 166.466,620.85053 L 160.94994,357.72692 L 326.43432,352.24511 L 398.14423,434.47125 L 392.62801,626.33233 z "
         id="path1560" />
      <path
         style="fill:white;fill-opacity:1;fill-rule:evenodd;stroke:none;stroke-width:15.6341238px;stroke-linecap:butt;stroke-linejoin:miter;stroke-opacity:1"
         d="M 300.7245,352.80986 L 306.24072,380.21863 L 306.24056,436.40644 L 397.5636,447.10414 L 397.5357,431.79994 L 331.06331,352.80986 L 300.7245,352.80986 z "
         id="path1562"
         sodipodi:nodetypes="ccccccc" />
      <path
         style="fill:none;fill-opacity:0.75;fill-rule:evenodd;stroke:black;stroke-width:15.6341238px;stroke-linecap:butt;stroke-linejoin:miter;stroke-opacity:1"
         d="M 296.60391,353.32394 L 302.12013,380.73271 L 302.11997,436.9205 L 393.44301,447.61821 L 393.41511,432.31405 L 326.94272,353.32394 L 296.60391,353.32394 z "
         id="path1564"
         sodipodi:nodetypes="ccccccc" />
    </g>
    <g
       id="g2078"
       transform="matrix(1.253906,0,0,1.341747,27.49953,-555.4213)">
      <path
         d="M 124.84349,618.89159 C 123.74227,590.47985 166.63531,599.4511 182.05378,599.4511 C 190.11171,599.4511 198.37442,598.81913 206.41802,599.4511 C 215.16475,599.4511 222.24175,604.78603 222.24175,615.5863 C 222.24175,621.17202 228.79607,620.67547 228.79607,614.71359 C 228.79607,584.31734 182.44615,593.22171 166.07969,593.22171 C 157.21125,593.22171 148.21105,592.6934 139.35549,593.22171 C 130.59158,593.22171 120.62192,597.5669 118.9794,608.87709 C 117.76792,617.203 117.88392,618.89159 124.84349,618.89159"
         id="path16"
         style="fill:#494848;stroke:#494848;stroke-width:2.76658797;stroke-miterlimit:4;stroke-dasharray:none;stroke-opacity:1" />
      <path
         d="M 177.39258,593.25348 C 173.24261,593.25348 170.63635,595.12764 170.63635,589.90472 C 170.63635,587.18794 169.04539,573.54214 170.63635,571.83851 C 179.6165,562.24365 177.39258,590.20733 177.39258,593.25348"
         id="path18"
         style="fill:#494848;stroke:#494848;stroke-width:2.76658797;stroke-miterlimit:4;stroke-dasharray:none;stroke-opacity:1" />
      <path
         d="M 147.65114,660.54453 C 131.79304,660.54453 115.93065,660.54453 100.06969,660.54453 C 95.295364,660.54453 97.792794,647.9888 97.792794,643.51487 C 97.792794,639.07439 95.195124,618.45189 97.792794,615.26698 C 99.665864,612.97986 114.08479,615.26698 116.74403,615.26698 C 126.28839,615.26698 135.83131,615.26698 145.37567,615.26698 C 150.14857,615.26698 147.65114,627.82773 147.65114,632.29831 C 147.65114,641.71427 147.65114,651.13358 147.65114,660.54453"
         id="path20"
         style="fill:#fed219" />
      <path
         d="M 97.792794,613.11695 C 94.532104,613.11695 94.182694,662.70124 97.946024,662.70124 C 106.60539,662.70124 115.26763,662.70124 123.92843,662.70124 C 128.81875,662.70124 143.45534,665.83766 147.65114,662.70124 C 150.91326,662.70124 151.26267,613.11695 147.49934,613.11695 C 130.92954,613.11695 114.3626,613.11695 97.792794,613.11695 M 145.80527,617.4287 C 145.80527,625.28649 145.80527,633.1426 145.80527,641.00373 C 145.80527,645.99593 148.25974,658.38949 143.17753,658.38949 C 128.6641,658.38949 114.15352,658.38949 99.640094,658.38949 C 99.640094,650.53171 99.640094,642.67392 99.640094,634.81447 C 99.640094,629.81892 97.185624,617.4287 102.26783,617.4287 C 116.77983,617.4287 131.29041,617.4287 145.80527,617.4287"
         id="path22"
         style="fill:#ff9b02;fill-opacity:1" />
      <path
         d="M 128.75937,624.36368 C 128.75937,628.71667 99.031404,628.79674 99.031404,624.36368 C 99.031404,614.54304 128.75937,614.54304 128.75937,624.36368"
         id="path24"
         style="fill:#ffffa1" />
      <path
         d="M 250.21753,660.54453 C 234.35658,660.54453 218.49418,660.54453 202.63465,660.54453 C 197.85746,660.54453 200.35632,647.9888 200.35632,643.51487 C 200.35632,639.07439 197.75865,618.45189 200.35632,615.26698 C 202.22939,612.97986 216.64545,615.26698 219.30756,615.26698 C 228.85048,615.26698 238.39341,615.26698 247.93776,615.26698 C 252.71496,615.26698 250.2161,627.82773 250.2161,632.29831 C 250.21753,641.71427 250.21753,651.13358 250.21753,660.54453"
         id="path26"
         style="fill:#9cd305" />
      <path
         d="M 200.35632,613.11695 C 197.09706,613.11695 196.74622,662.70124 200.50811,662.70124 C 209.16892,662.70124 217.83116,662.70124 226.49053,662.70124 C 231.38084,662.70124 246.02031,665.83766 250.2161,662.70124 C 253.47536,662.70124 253.8262,613.11695 250.06288,613.11695 C 233.49449,613.11695 216.92756,613.11695 200.35632,613.11695 M 248.37023,617.4287 C 248.37023,625.28649 248.37023,633.1426 248.37023,641.00373 C 248.37023,645.99593 250.82469,658.38949 245.74108,658.38949 C 231.22763,658.38949 216.71705,658.38949 202.20505,658.38949 C 202.20505,650.53171 202.20505,642.67392 202.20505,634.81447 C 202.20505,629.81892 199.75058,617.4287 204.83136,617.4287 C 219.34622,617.4287 233.85537,617.4287 248.37023,617.4287"
         id="path28"
         style="fill:#618c03;fill-opacity:1" />
      <path
         d="M 233.75907,624.7549 C 233.75907,629.3391 202.20362,629.42343 202.20362,624.7549 C 202.2046,614.41263 233.75907,614.41263 233.75907,624.7549"
         id="path30"
         style="fill:#c2ef20" />
      <path
         d="M 200.71862,570.47761 C 184.4524,570.47761 168.18188,570.47761 151.91567,570.47761 C 147.32178,570.47761 149.72326,558.48028 149.72326,554.18023 C 149.72326,550.0457 147.1528,526.79669 149.72326,524.1752 C 152.33095,521.51358 167.08496,524.1752 170.46451,524.1752 C 179.81984,524.1752 189.17374,524.1752 198.52764,524.1752 C 203.1201,524.1752 200.71862,536.17253 200.71862,540.47257 C 200.71862,550.47537 200.71862,560.47649 200.71862,570.47761"
         id="path32"
         style="fill:#d82a2a" />
      <path
         d="M 149.72469,521.96833 C 146.38524,521.96833 146.04872,572.6828 149.87219,572.6828 C 158.32249,572.6828 166.77422,572.6828 175.22452,572.6828 C 180.57165,572.6828 196.10325,576.0466 200.72148,572.6828 C 204.0552,572.6828 204.39173,521.96833 200.57399,521.96833 C 183.62326,521.96833 166.67398,521.96833 149.72469,521.96833 M 198.8298,526.37872 C 198.8298,534.85008 198.8298,543.3298 198.8298,551.8045 C 198.8298,556.84017 201.2499,568.27074 196.14334,568.27074 C 181.29911,568.27074 166.45488,568.27074 151.61351,568.27074 C 151.61351,559.79604 151.61351,551.31966 151.61351,542.84161 C 151.61351,537.80929 149.19341,526.37872 154.29997,526.37872 C 169.1442,526.37872 183.98986,526.37872 198.8298,526.37872"
         id="path34"
         style="fill:#8e0a0a;fill-opacity:1" />
      <path
         d="M 184.2043,534.17407 C 184.2043,539.04437 151.61351,539.1319 151.61351,534.17407 C 151.61351,523.19401 184.2043,523.19401 184.2043,534.17407"
         id="path36"
         style="fill:#fcabab;fill-opacity:1" />
    </g>
  </g>
</svg>
