<?xml version="1.0" encoding="UTF-8" standalone="no"?>
<!-- Created with Inkscape (http://www.inkscape.org/) -->
<svg
   xmlns:dc="http://purl.org/dc/elements/1.1/"
   xmlns:cc="http://creativecommons.org/ns#"
   xmlns:rdf="http://www.w3.org/1999/02/22-rdf-syntax-ns#"
   xmlns:svg="http://www.w3.org/2000/svg"
   xmlns="http://www.w3.org/2000/svg"
   xmlns:xlink="http://www.w3.org/1999/xlink"
   xmlns:sodipodi="http://sodipodi.sourceforge.net/DTD/sodipodi-0.dtd"
   xmlns:inkscape="http://www.inkscape.org/namespaces/inkscape"
   version="1.0"
   width="400"
   height="400"
   id="svg2830"
   sodipodi:version="0.32"
   inkscape:version="0.46"
   sodipodi:docname="do.svg"
   inkscape:output_extension="org.inkscape.output.svg.inkscape"
   inkscape:export-filename="D:\web\xampp\htdocs\limesurvey\images\do.png"
   inkscape:export-xdpi="9"
   inkscape:export-ydpi="9">
  <metadata
     id="metadata187">
    <rdf:RDF>
      <cc:Work
         rdf:about="">
        <dc:format>image/svg+xml</dc:format>
        <dc:type
           rdf:resource="http://purl.org/dc/dcmitype/StillImage" />
      </cc:Work>
    </rdf:RDF>
  </metadata>
  <sodipodi:namedview
     inkscape:window-height="968"
     inkscape:window-width="1280"
     inkscape:pageshadow="2"
     inkscape:pageopacity="0.0"
     guidetolerance="10.0"
     gridtolerance="10.0"
     objecttolerance="10.0"
     borderopacity="1.0"
     bordercolor="#666666"
     pagecolor="#ffffff"
     id="base"
     showgrid="false"
     inkscape:zoom="1"
     inkscape:cx="200"
     inkscape:cy="200"
     inkscape:window-x="0"
     inkscape:window-y="22"
     inkscape:current-layer="svg2830"
     showguides="true"
     inkscape:guide-bbox="true">
    <sodipodi:guide
       orientation="1,0"
       position="40,422"
       id="guide2552" />
    <sodipodi:guide
       orientation="0,1"
       position="-91,380"
       id="guide2554" />
    <sodipodi:guide
       orientation="0,1"
       position="-88,20"
       id="guide2556" />
    <sodipodi:guide
       orientation="1,0"
       position="380,224"
       id="guide2558" />
    <sodipodi:guide
       orientation="0,1"
       position="-18,360"
       id="guide2560" />
  </sodipodi:namedview>
  <defs
     id="defs2832">
    <inkscape:perspective
       sodipodi:type="inkscape:persp3d"
       inkscape:vp_x="0 : 64 : 1"
       inkscape:vp_y="0 : 1000 : 0"
       inkscape:vp_z="128 : 64 : 1"
       inkscape:persp3d-origin="64 : 42.666667 : 1"
       id="perspective189" />
    <linearGradient
       id="linearGradient2940">
      <stop
         style="stop-color:black;stop-opacity:1"
         offset="0"
         id="stop2942" />
      <stop
         style="stop-color:black;stop-opacity:0"
         offset="1"
         id="stop2944" />
    </linearGradient>
    <linearGradient
       x1="-61.802711"
       y1="99.979607"
       x2="-136.51074"
       y2="112.70422"
       id="linearGradient7115"
       xlink:href="#linearGradient3342"
       gradientUnits="userSpaceOnUse"
       gradientTransform="translate(-40.5,-1.5)" />
    <linearGradient
       x1="-83.593941"
       y1="137.13324"
       x2="-138.0043"
       y2="92.603989"
       id="linearGradient7113"
       xlink:href="#linearGradient3342"
       gradientUnits="userSpaceOnUse"
       gradientTransform="translate(-40.5,-1.5)" />
    <filter
       id="filter3363"
       height="1.2042203"
       y="-0.10211017"
       width="1.1754827"
       x="-0.087741368">
      <feGaussianBlur
         id="feGaussianBlur3365"
         stdDeviation="3.0526685"
         inkscape:collect="always" />
    </filter>
    <linearGradient
       id="linearGradient3342">
      <stop
         style="stop-color:black;stop-opacity:1"
         offset="0"
         id="stop3344" />
      <stop
         style="stop-color:black;stop-opacity:0"
         offset="1"
         id="stop3347" />
    </linearGradient>
    <linearGradient
       x1="-73"
       y1="105.625"
       x2="-163"
       y2="86.125"
       id="linearGradient7111"
       xlink:href="#linearGradient3342"
       gradientUnits="userSpaceOnUse" />
    <linearGradient
       x1="-83.012932"
       y1="44.753052"
       x2="-158.92462"
       y2="72.881729"
       id="linearGradient7109"
       xlink:href="#linearGradient3326"
       gradientUnits="userSpaceOnUse" />
    <linearGradient
       x1="-132.51041"
       y1="39.803303"
       x2="-158.92462"
       y2="72.881729"
       id="linearGradient7107"
       xlink:href="#linearGradient3326"
       gradientUnits="userSpaceOnUse" />
    <filter
       id="filter3438">
      <feGaussianBlur
         id="feGaussianBlur3440"
         stdDeviation="1.3342697"
         inkscape:collect="always" />
    </filter>
    <linearGradient
       id="linearGradient3326">
      <stop
         style="stop-color:black;stop-opacity:1"
         offset="0"
         id="stop3328" />
      <stop
         style="stop-color:black;stop-opacity:0"
         offset="1"
         id="stop3330" />
    </linearGradient>
    <linearGradient
       x1="-151.43935"
       y1="37.68198"
       x2="-152.26776"
       y2="57.25"
       id="linearGradient7105"
       xlink:href="#linearGradient3326"
       gradientUnits="userSpaceOnUse" />
    <linearGradient
       id="linearGradient3825">
      <stop
         style="stop-color:white;stop-opacity:0"
         offset="0"
         id="stop3827" />
      <stop
         style="stop-color:white;stop-opacity:0.18705036"
         offset="0.5"
         id="stop3833" />
      <stop
         style="stop-color:white;stop-opacity:1"
         offset="1"
         id="stop3829" />
    </linearGradient>
    <radialGradient
       cx="-112.17241"
       cy="118.60459"
       r="59.995121"
       fx="-113.14772"
       fy="59.708473"
       id="radialGradient7103"
       xlink:href="#linearGradient3825"
       gradientUnits="userSpaceOnUse"
       gradientTransform="matrix(0.648428,0.101721,-3.125715e-2,0.199252,-4.56257,53.15916)" />
    <linearGradient
       x1="206.47243"
       y1="77.373238"
       x2="206.47243"
       y2="15.343517"
       id="linearGradient3462"
       xlink:href="#linearGradient3295"
       gradientUnits="userSpaceOnUse"
       gradientTransform="translate(-819.0889,-206.9062)" />
    <filter
       id="filter3639">
      <feGaussianBlur
         id="feGaussianBlur3641"
         stdDeviation="1.0580524"
         inkscape:collect="always" />
    </filter>
    <linearGradient
       id="linearGradient3295">
      <stop
         style="stop-color:#baff63;stop-opacity:1"
         offset="0"
         id="stop3297" />
      <stop
         style="stop-color:white;stop-opacity:0"
         offset="1"
         id="stop3299" />
    </linearGradient>
    <linearGradient
       x1="208.59375"
       y1="130.40625"
       x2="208.59375"
       y2="63.426777"
       id="linearGradient3613"
       xlink:href="#linearGradient3295"
       gradientUnits="userSpaceOnUse"
       gradientTransform="translate(-819.0889,-206.9062)" />
    <linearGradient
       x1="75.09375"
       y1="4.5317035"
       x2="75.09375"
       y2="80.172485"
       id="linearGradient3581"
       xlink:href="#linearGradient3260"
       gradientUnits="userSpaceOnUse"
       gradientTransform="translate(-682.0846,-206.9043)" />
    <linearGradient
       id="linearGradient3202">
      <stop
         style="stop-color:#cbff9c;stop-opacity:1"
         offset="0"
         id="stop3204" />
      <stop
         style="stop-color:#65c171;stop-opacity:0"
         offset="1"
         id="stop3206" />
    </linearGradient>
    <linearGradient
       x1="75.09375"
       y1="4.5317035"
       x2="75.09375"
       y2="73.898682"
       id="linearGradient3548"
       xlink:href="#linearGradient3202"
       gradientUnits="userSpaceOnUse"
       gradientTransform="translate(-682.0889,-206.9062)" />
    <linearGradient
       id="linearGradient3528">
      <stop
         style="stop-color:#62c734;stop-opacity:1"
         offset="0"
         id="stop3530" />
      <stop
         style="stop-color:#62c734;stop-opacity:0"
         offset="1"
         id="stop3532" />
    </linearGradient>
    <radialGradient
       cx="99.726295"
       cy="27.418272"
       r="56"
       fx="64.689766"
       fy="68.231934"
       id="radialGradient3535"
       xlink:href="#linearGradient3528"
       gradientUnits="userSpaceOnUse"
       gradientTransform="matrix(0.693735,5.867125e-2,-3.62428e-2,0.428539,-648.1495,-180.0253)" />
    <radialGradient
       cx="67.09375"
       cy="116.90625"
       r="56"
       fx="67.09375"
       fy="116.90625"
       id="radialGradient3524"
       xlink:href="#XMLID_4_"
       gradientUnits="userSpaceOnUse"
       gradientTransform="translate(-682.0889,-206.9062)" />
    <linearGradient
       id="linearGradient3344">
      <stop
         style="stop-color:#baff63;stop-opacity:1"
         offset="0"
         id="stop3346" />
      <stop
         style="stop-color:white;stop-opacity:0"
         offset="1"
         id="stop3348" />
    </linearGradient>
    <linearGradient
       x1="120.0625"
       y1="12.569496"
       x2="125.30366"
       y2="14.444496"
       id="linearGradient3771"
       xlink:href="#linearGradient3344"
       gradientUnits="userSpaceOnUse"
       spreadMethod="reflect" />
    <filter
       id="filter3738"
       height="1.2746474"
       y="-0.13732363"
       width="1.301924"
       x="-0.15096202">
      <feGaussianBlur
         id="feGaussianBlur3740"
         stdDeviation="0.39257441"
         inkscape:collect="always" />
    </filter>
    <linearGradient
       x1="120.0625"
       y1="12.569496"
       x2="125.30366"
       y2="14.444496"
       id="linearGradient3676"
       xlink:href="#linearGradient3260"
       gradientUnits="userSpaceOnUse"
       gradientTransform="translate(-682.0889,-206.9062)"
       spreadMethod="reflect" />
    <filter
       id="filter3630">
      <feGaussianBlur
         id="feGaussianBlur3632"
         stdDeviation="0.89883985"
         inkscape:collect="always" />
    </filter>
    <linearGradient
       id="linearGradient3260">
      <stop
         style="stop-color:white;stop-opacity:1"
         offset="0"
         id="stop3262" />
      <stop
         style="stop-color:white;stop-opacity:0"
         offset="1"
         id="stop3264" />
    </linearGradient>
    <radialGradient
       cx="64.088867"
       cy="7.4108429"
       r="59.995121"
       fx="64.088867"
       fy="7.4108429"
       id="radialGradient3767"
       xlink:href="#linearGradient3260"
       gradientUnits="userSpaceOnUse"
       gradientTransform="matrix(0.309387,0,0,0.477925,-637.8283,-203.0418)" />
    <radialGradient
       cx="72.684891"
       cy="48.228905"
       r="59.995121"
       fx="74.871155"
       fy="26.862719"
       id="radialGradient3744"
       xlink:href="#linearGradient3449"
       gradientUnits="userSpaceOnUse"
       gradientTransform="matrix(0.982366,1.671718e-2,-3.580115e-3,0.210384,-700.6523,-176.4285)" />
    <radialGradient
       cx="-10.165252"
       cy="66.906013"
       r="59.995121"
       fx="-10.165252"
       fy="66.906013"
       id="radialGradient3654"
       xlink:href="#linearGradient3449"
       gradientUnits="userSpaceOnUse"
       gradientTransform="matrix(0.458289,-2.103559e-8,4.590397e-8,1.000081,-661.6409,-206.9114)" />
    <linearGradient
       id="linearGradient3449">
      <stop
         style="stop-color:black;stop-opacity:0.67266184"
         offset="0"
         id="stop3451" />
      <stop
         style="stop-color:black;stop-opacity:0"
         offset="1"
         id="stop3453" />
    </linearGradient>
    <radialGradient
       cx="167.67001"
       cy="80.404922"
       r="59.995121"
       fx="167.67001"
       fy="80.404922"
       id="radialGradient3658"
       xlink:href="#linearGradient3449"
       gradientUnits="userSpaceOnUse"
       gradientTransform="matrix(0.26767,0.521376,-0.703747,0.361298,-573.095,-242.9692)" />
    <linearGradient
       id="linearGradient3751">
      <stop
         style="stop-color:#53be2c;stop-opacity:1"
         offset="0"
         id="stop3753" />
      <stop
         style="stop-color:#53be2c;stop-opacity:0"
         offset="1"
         id="stop3755" />
    </linearGradient>
    <radialGradient
       cx="66.01458"
       cy="126.69183"
       r="59.995121"
       fx="66.01458"
       fy="126.69183"
       id="radialGradient3757"
       xlink:href="#linearGradient3751"
       gradientUnits="userSpaceOnUse"
       gradientTransform="matrix(0.675025,0,0,0.358362,-662.5615,-165.9016)" />
    <radialGradient
       cx="48"
       cy="-0.2148"
       r="55.147999"
       id="XMLID_4_"
       gradientUnits="userSpaceOnUse"
       gradientTransform="matrix(0.9792,0,0,0.9725,133.0002,20.8762)">
      <stop
         style="stop-color:#547243;stop-opacity:1;"
         offset="0"
         id="stop3082" />
      <stop
         style="stop-color:#008700;stop-opacity:1;"
         offset="1"
         id="stop3090" />
    </radialGradient>
    <linearGradient
       x1="147.09375"
       y1="33.40625"
       x2="8.083992"
       y2="123.90625"
       id="linearGradient3516"
       xlink:href="#XMLID_4_"
       gradientUnits="userSpaceOnUse"
       gradientTransform="translate(-682.0889,-206.9062)" />
    <linearGradient
       x1="60.001499"
       y1="86"
       x2="60.001499"
       y2="34.0005"
       id="XMLID_27_"
       gradientUnits="userSpaceOnUse"
       gradientTransform="translate(145.7138,-238.2143)">
      <stop
         style="stop-color:#bbb;stop-opacity:1"
         offset="0"
         id="stop47" />
      <stop
         style="stop-color:#555;stop-opacity:1"
         offset="1"
         id="stop49" />
    </linearGradient>
    <linearGradient
       x1="60.001499"
       y1="92"
       x2="60.001499"
       y2="28.0005"
       id="XMLID_26_"
       gradientUnits="userSpaceOnUse"
       gradientTransform="translate(145.7138,-238.2143)">
      <stop
         style="stop-color:#e9e9f0;stop-opacity:1"
         offset="0.1953"
         id="stop30" />
      <stop
         style="stop-color:#dadae2;stop-opacity:1"
         offset="0.2597"
         id="stop32" />
      <stop
         style="stop-color:#b1b1bb;stop-opacity:1"
         offset="0.461"
         id="stop34" />
      <stop
         style="stop-color:#93939f;stop-opacity:1"
         offset="0.6437"
         id="stop36" />
      <stop
         style="stop-color:#81818e;stop-opacity:1"
         offset="0.7999"
         id="stop38" />
      <stop
         style="stop-color:#7a7a88;stop-opacity:1"
         offset="0.91119999"
         id="stop40" />
      <stop
         style="stop-color:#696975;stop-opacity:1"
         offset="1"
         id="stop42" />
    </linearGradient>
    <linearGradient
       x1="60.001499"
       y1="94"
       x2="60.001499"
       y2="26.0005"
       id="XMLID_25_"
       gradientUnits="userSpaceOnUse"
       gradientTransform="translate(145.7138,-238.2143)">
      <stop
         style="stop-color:#ffffff;stop-opacity:1;"
         offset="0.29589999"
         id="stop23" />
      <stop
         style="stop-color:#4a4a55;stop-opacity:1"
         offset="1"
         id="stop25" />
    </linearGradient>
    <linearGradient
       x1="60.0005"
       y1="12.8452"
       x2="60.0005"
       y2="120.2141"
       id="XMLID_24_"
       gradientUnits="userSpaceOnUse"
       gradientTransform="translate(145.7138,-238.2143)">
      <stop
         style="stop-color:white;stop-opacity:1"
         offset="0"
         id="stop16" />
      <stop
         style="stop-color:white;stop-opacity:0"
         offset="1"
         id="stop18" />
    </linearGradient>
    <radialGradient
       cx="59.5107"
       cy="124"
       r="125.1714"
       id="XMLID_23_"
       gradientUnits="userSpaceOnUse"
       gradientTransform="translate(145.7138,-238.2143)">
      <stop
         style="stop-color:#f0f0f0;stop-opacity:1"
         offset="0.17749999"
         id="stop9" />
      <stop
         style="stop-color:#a5a5bb;stop-opacity:1"
         offset="0.53250003"
         id="stop11" />
    </radialGradient>
    <filter
       id="filter2826">
      <feGaussianBlur
         id="feGaussianBlur2828"
         stdDeviation="2.40001"
         inkscape:collect="always" />
    </filter>
    <radialGradient
       cx="59.5107"
       cy="124"
       r="125.1714"
       id="radialGradient2894"
       xlink:href="#XMLID_23_"
       gradientUnits="userSpaceOnUse"
       gradientTransform="translate(145.7138,-238.2143)" />
    <linearGradient
       x1="60.0005"
       y1="12.8452"
       x2="60.0005"
       y2="120.2141"
       id="linearGradient2896"
       xlink:href="#XMLID_24_"
       gradientUnits="userSpaceOnUse"
       gradientTransform="translate(145.7138,-238.2143)" />
    <linearGradient
       x1="60.001499"
       y1="94"
       x2="60.001499"
       y2="26.0005"
       id="linearGradient2898"
       xlink:href="#XMLID_25_"
       gradientUnits="userSpaceOnUse"
       gradientTransform="translate(145.7138,-238.2143)" />
    <linearGradient
       x1="60.001499"
       y1="92"
       x2="60.001499"
       y2="28.0005"
       id="linearGradient2900"
       xlink:href="#XMLID_26_"
       gradientUnits="userSpaceOnUse"
       gradientTransform="matrix(1.000008,0,0,1,145.7128,-238.2143)" />
    <linearGradient
       x1="60.001499"
       y1="86"
       x2="60.001499"
       y2="34.0005"
       id="linearGradient2902"
       xlink:href="#XMLID_27_"
       gradientUnits="userSpaceOnUse"
       gradientTransform="translate(145.7138,-238.2143)" />
    <linearGradient
       x1="147.09375"
       y1="33.40625"
       x2="8.083992"
       y2="123.90625"
       id="linearGradient7176"
       xlink:href="#XMLID_4_"
       gradientUnits="userSpaceOnUse"
       gradientTransform="translate(-682.0889,-206.9062)" />
    <radialGradient
       cx="66.01458"
       cy="126.69183"
       r="59.995121"
       fx="66.01458"
       fy="126.69183"
       id="radialGradient7178"
       xlink:href="#linearGradient3751"
       gradientUnits="userSpaceOnUse"
       gradientTransform="matrix(0.675025,0,0,0.358362,-662.5615,-165.9016)" />
    <radialGradient
       cx="167.67001"
       cy="80.404922"
       r="59.995121"
       fx="167.67001"
       fy="80.404922"
       id="radialGradient7180"
       xlink:href="#linearGradient3449"
       gradientUnits="userSpaceOnUse"
       gradientTransform="matrix(0.26767,0.521376,-0.703747,0.361298,-573.095,-242.9692)" />
    <radialGradient
       cx="-10.165252"
       cy="66.906013"
       r="59.995121"
       fx="-10.165252"
       fy="66.906013"
       id="radialGradient7182"
       xlink:href="#linearGradient3449"
       gradientUnits="userSpaceOnUse"
       gradientTransform="matrix(0.458289,-2.103559e-8,4.590397e-8,1.000081,-661.6409,-206.9114)" />
    <radialGradient
       cx="72.684891"
       cy="48.228905"
       r="59.995121"
       fx="74.871155"
       fy="26.862719"
       id="radialGradient7184"
       xlink:href="#linearGradient3449"
       gradientUnits="userSpaceOnUse"
       gradientTransform="matrix(0.982366,1.671718e-2,-3.580115e-3,0.210384,-700.6523,-176.4285)" />
    <radialGradient
       cx="64.088867"
       cy="7.4108429"
       r="59.995121"
       fx="64.088867"
       fy="7.4108429"
       id="radialGradient7186"
       xlink:href="#linearGradient3260"
       gradientUnits="userSpaceOnUse"
       gradientTransform="matrix(0.309387,0,0,0.477925,-637.8283,-203.0418)" />
    <linearGradient
       x1="120.0625"
       y1="12.569496"
       x2="125.30366"
       y2="14.444496"
       id="linearGradient7188"
       xlink:href="#linearGradient3260"
       gradientUnits="userSpaceOnUse"
       gradientTransform="translate(-682.0889,-206.9062)"
       spreadMethod="reflect" />
    <linearGradient
       x1="120.0625"
       y1="12.569496"
       x2="125.30366"
       y2="14.444496"
       id="linearGradient7190"
       xlink:href="#linearGradient3344"
       gradientUnits="userSpaceOnUse"
       spreadMethod="reflect" />
    <radialGradient
       cx="67.09375"
       cy="116.90625"
       r="56"
       fx="67.09375"
       fy="116.90625"
       id="radialGradient7192"
       xlink:href="#XMLID_4_"
       gradientUnits="userSpaceOnUse"
       gradientTransform="translate(-682.0889,-206.9062)" />
    <radialGradient
       cx="99.726295"
       cy="27.418272"
       r="56"
       fx="64.689766"
       fy="68.231934"
       id="radialGradient7194"
       xlink:href="#linearGradient3528"
       gradientUnits="userSpaceOnUse"
       gradientTransform="matrix(0.693735,5.867125e-2,-3.62428e-2,0.428539,-648.1495,-180.0253)" />
    <linearGradient
       x1="75.09375"
       y1="4.5317035"
       x2="75.09375"
       y2="73.898682"
       id="linearGradient7196"
       xlink:href="#linearGradient3202"
       gradientUnits="userSpaceOnUse"
       gradientTransform="translate(-682.0889,-206.9062)" />
    <linearGradient
       x1="75.09375"
       y1="4.5317035"
       x2="75.09375"
       y2="80.172485"
       id="linearGradient7198"
       xlink:href="#linearGradient3260"
       gradientUnits="userSpaceOnUse"
       gradientTransform="translate(-682.0846,-206.9043)" />
    <linearGradient
       x1="208.59375"
       y1="130.40625"
       x2="208.59375"
       y2="63.426777"
       id="linearGradient7200"
       xlink:href="#linearGradient3295"
       gradientUnits="userSpaceOnUse"
       gradientTransform="translate(-819.0889,-206.9062)" />
    <linearGradient
       x1="206.47243"
       y1="77.373238"
       x2="206.47243"
       y2="15.343517"
       id="linearGradient7202"
       xlink:href="#linearGradient3295"
       gradientUnits="userSpaceOnUse"
       gradientTransform="translate(-819.0889,-206.9062)" />
    <radialGradient
       cx="-112.17241"
       cy="118.60459"
       r="59.995121"
       fx="-113.14772"
       fy="59.708473"
       id="radialGradient7238"
       xlink:href="#linearGradient3825"
       gradientUnits="userSpaceOnUse"
       gradientTransform="matrix(0.648428,0.101721,-3.125715e-2,0.199252,-4.56257,53.15916)" />
    <linearGradient
       x1="-151.43935"
       y1="37.68198"
       x2="-152.26776"
       y2="57.25"
       id="linearGradient7240"
       xlink:href="#linearGradient3326"
       gradientUnits="userSpaceOnUse" />
    <linearGradient
       x1="-132.51041"
       y1="39.803303"
       x2="-158.92462"
       y2="72.881729"
       id="linearGradient7242"
       xlink:href="#linearGradient3326"
       gradientUnits="userSpaceOnUse" />
    <linearGradient
       x1="-83.012932"
       y1="44.753052"
       x2="-158.92462"
       y2="72.881729"
       id="linearGradient7244"
       xlink:href="#linearGradient3326"
       gradientUnits="userSpaceOnUse" />
    <linearGradient
       x1="-73"
       y1="105.625"
       x2="-163"
       y2="86.125"
       id="linearGradient7246"
       xlink:href="#linearGradient3342"
       gradientUnits="userSpaceOnUse" />
    <linearGradient
       x1="-83.593941"
       y1="137.13324"
       x2="-138.0043"
       y2="92.603989"
       id="linearGradient7248"
       xlink:href="#linearGradient3342"
       gradientUnits="userSpaceOnUse"
       gradientTransform="translate(-40.5,-1.5)" />
    <linearGradient
       x1="-61.802711"
       y1="99.979607"
       x2="-136.51074"
       y2="112.70422"
       id="linearGradient7250"
       xlink:href="#linearGradient3342"
       gradientUnits="userSpaceOnUse"
       gradientTransform="translate(-40.5,-1.5)" />
    <linearGradient
       x1="147.09375"
       y1="33.40625"
       x2="8.083992"
       y2="123.90625"
       id="linearGradient7268"
       xlink:href="#XMLID_4_"
       gradientUnits="userSpaceOnUse"
       gradientTransform="translate(-682.0889,-206.9062)" />
    <radialGradient
       cx="66.01458"
       cy="126.69183"
       r="59.995121"
       fx="66.01458"
       fy="126.69183"
       id="radialGradient7270"
       xlink:href="#linearGradient3751"
       gradientUnits="userSpaceOnUse"
       gradientTransform="matrix(0.675025,0,0,0.358362,-662.5615,-165.9016)" />
    <radialGradient
       cx="167.67001"
       cy="80.404922"
       r="59.995121"
       fx="167.67001"
       fy="80.404922"
       id="radialGradient7272"
       xlink:href="#linearGradient3449"
       gradientUnits="userSpaceOnUse"
       gradientTransform="matrix(0.26767,0.521376,-0.703747,0.361298,-573.095,-242.9692)" />
    <radialGradient
       cx="-10.165252"
       cy="66.906013"
       r="59.995121"
       fx="-10.165252"
       fy="66.906013"
       id="radialGradient7274"
       xlink:href="#linearGradient3449"
       gradientUnits="userSpaceOnUse"
       gradientTransform="matrix(0.458289,-2.103559e-8,4.590397e-8,1.000081,-661.6409,-206.9114)" />
    <radialGradient
       cx="72.684891"
       cy="48.228905"
       r="59.995121"
       fx="74.871155"
       fy="26.862719"
       id="radialGradient7276"
       xlink:href="#linearGradient3449"
       gradientUnits="userSpaceOnUse"
       gradientTransform="matrix(0.982366,1.671718e-2,-3.580115e-3,0.210384,-700.6523,-176.4285)" />
    <radialGradient
       cx="64.088867"
       cy="7.4108429"
       r="59.995121"
       fx="64.088867"
       fy="7.4108429"
       id="radialGradient7278"
       xlink:href="#linearGradient3260"
       gradientUnits="userSpaceOnUse"
       gradientTransform="matrix(0.309387,0,0,0.477925,-637.8283,-203.0418)" />
    <linearGradient
       x1="120.0625"
       y1="12.569496"
       x2="125.30366"
       y2="14.444496"
       id="linearGradient7280"
       xlink:href="#linearGradient3260"
       gradientUnits="userSpaceOnUse"
       gradientTransform="translate(-682.0889,-206.9062)"
       spreadMethod="reflect" />
    <linearGradient
       x1="120.0625"
       y1="12.569496"
       x2="125.30366"
       y2="14.444496"
       id="linearGradient7282"
       xlink:href="#linearGradient3344"
       gradientUnits="userSpaceOnUse"
       spreadMethod="reflect" />
    <radialGradient
       cx="67.09375"
       cy="116.90625"
       r="56"
       fx="67.09375"
       fy="116.90625"
       id="radialGradient7284"
       xlink:href="#XMLID_4_"
       gradientUnits="userSpaceOnUse"
       gradientTransform="translate(-682.0889,-206.9062)" />
    <radialGradient
       cx="99.726295"
       cy="27.418272"
       r="56"
       fx="64.689766"
       fy="68.231934"
       id="radialGradient7286"
       xlink:href="#linearGradient3528"
       gradientUnits="userSpaceOnUse"
       gradientTransform="matrix(0.693735,5.867125e-2,-3.62428e-2,0.428539,-648.1495,-180.0253)" />
    <linearGradient
       x1="87.365479"
       y1="12.713522"
       x2="75.09375"
       y2="73.898682"
       id="linearGradient7288"
       xlink:href="#linearGradient3202"
       gradientUnits="userSpaceOnUse"
       gradientTransform="translate(-682.0889,-206.9062)" />
    <linearGradient
       x1="75.09375"
       y1="4.5317035"
       x2="75.09375"
       y2="80.172485"
       id="linearGradient7290"
       xlink:href="#linearGradient3260"
       gradientUnits="userSpaceOnUse"
       gradientTransform="translate(-682.0846,-206.9043)" />
    <linearGradient
       x1="208.59375"
       y1="130.40625"
       x2="208.59375"
       y2="63.426777"
       id="linearGradient7292"
       xlink:href="#linearGradient3295"
       gradientUnits="userSpaceOnUse"
       gradientTransform="translate(-819.0889,-206.9062)" />
    <linearGradient
       x1="206.47243"
       y1="77.373238"
       x2="206.47243"
       y2="15.343517"
       id="linearGradient7294"
       xlink:href="#linearGradient3295"
       gradientUnits="userSpaceOnUse"
       gradientTransform="translate(-819.0889,-206.9062)" />
    <radialGradient
       cx="-112.17241"
       cy="118.60459"
       r="59.995121"
       fx="-113.14772"
       fy="59.708473"
       id="radialGradient7316"
       xlink:href="#linearGradient3825"
       gradientUnits="userSpaceOnUse"
       gradientTransform="matrix(0.648428,0.101721,-3.125715e-2,0.199252,-4.56257,53.15916)" />
    <linearGradient
       x1="-151.43935"
       y1="37.68198"
       x2="-152.26776"
       y2="57.25"
       id="linearGradient7318"
       xlink:href="#linearGradient3326"
       gradientUnits="userSpaceOnUse" />
    <linearGradient
       x1="-132.51041"
       y1="39.803303"
       x2="-158.92462"
       y2="72.881729"
       id="linearGradient7320"
       xlink:href="#linearGradient3326"
       gradientUnits="userSpaceOnUse" />
    <linearGradient
       x1="-83.012932"
       y1="44.753052"
       x2="-158.92462"
       y2="72.881729"
       id="linearGradient7322"
       xlink:href="#linearGradient3326"
       gradientUnits="userSpaceOnUse" />
    <linearGradient
       x1="-73"
       y1="105.625"
       x2="-163"
       y2="86.125"
       id="linearGradient7324"
       xlink:href="#linearGradient3342"
       gradientUnits="userSpaceOnUse" />
    <linearGradient
       x1="-83.593941"
       y1="137.13324"
       x2="-138.0043"
       y2="92.603989"
       id="linearGradient7326"
       xlink:href="#linearGradient3342"
       gradientUnits="userSpaceOnUse"
       gradientTransform="translate(-40.5,-1.5)" />
    <linearGradient
       x1="-61.802711"
       y1="99.979607"
       x2="-136.51074"
       y2="112.70422"
       id="linearGradient7328"
       xlink:href="#linearGradient3342"
       gradientUnits="userSpaceOnUse"
       gradientTransform="translate(-40.5,-1.5)" />
    <mask
       id="mask7296">
      <g
         transform="translate(-514.5863,-206.91)"
         id="g7298">
        <g
           transform="translate(80.51637,30.88526)"
           id="g7300">
          <path
             d="M -184.42232,-32.47243 C -217.54751,-32.47243 -248.42232,-0.097625 -248.42232,33.02757 C -248.42232,66.15276 -217.04751,97.02757 -183.92232,97.02757 C -153.6332,97.02757 -128.58571,70.81131 -124.51607,41.68382 L -159.54732,36.65257 C -161.172,48.6137 -171.47739,57.62132 -183.92232,57.62132 C -197.49395,57.62132 -206.01607,46.0992 -206.01607,32.52757 C -206.01607,18.955936 -199.99395,12.43382 -186.42232,12.43382 C -179.6365,12.433819 -176.50103,10.198864 -172.04732,14.65257 L -176.8745,25.979749 C -178.93037,28.035619 -179.11822,29.285529 -178.55411,30.595278 C -178.04554,31.776057 -177.03338,33.12132 -174.34438,33.12132 L -130.39107,33.12132 C -126.54518,33.12132 -123.93208,30.466941 -123.93208,26.871189 L -124.00095,-17.206829 C -124.00095,-19.687584 -124.90346,-21.050058 -126.18242,-21.556444 C -127.49674,-22.076829 -129.21563,-21.679122 -131.28951,-19.605244 L -141.48482,-19.40993 C -152.34417,-30.269281 -167.85972,-32.47243 -184.42232,-32.47243 z"
             style="opacity:1;fill:url(#radialGradient7316);fill-opacity:1;stroke:none;stroke-width:2;stroke-linecap:round;stroke-linejoin:round;stroke-miterlimit:4;stroke-dashoffset:1.08779998;stroke-opacity:1"
             id="path7302" />
          <path
             d="M -161.5,34.5 C -162,37 -180,54 -180,54 L -132.5,80 L -112,38.5 L -161.5,34.5 z"
             style="fill:url(#linearGradient7318);fill-opacity:1;fill-rule:evenodd;stroke:none;stroke-width:1px;stroke-linecap:butt;stroke-linejoin:miter;stroke-opacity:1"
             id="path7304" />
          <path
             d="M -161.5,34.5 C -162,37 -181.27817,54.389087 -181.27817,54.389087 L -151.62742,97.591883 L -112,38.5 L -161.5,34.5 z"
             style="fill:url(#linearGradient7320);fill-opacity:1;fill-rule:evenodd;stroke:none;stroke-width:1px;stroke-linecap:butt;stroke-linejoin:miter;stroke-opacity:1"
             id="path7306" />
          <path
             d="M -161.5,34.5 C -162,37 -181.27817,54.389087 -181.27817,54.389087 L -151.62742,97.591883 L -112,38.5 L -161.5,34.5 z"
             style="fill:url(#linearGradient7322);fill-opacity:1;fill-rule:evenodd;stroke:none;stroke-width:1px;stroke-linecap:butt;stroke-linejoin:miter;stroke-opacity:1"
             id="path7308" />
        </g>
        <rect
           width="83.5"
           height="71.75"
           x="-119"
           y="69.75"
           style="opacity:1;fill:url(#linearGradient7324);fill-opacity:1;stroke:none;stroke-width:1;stroke-linecap:round;stroke-linejoin:round;stroke-miterlimit:4;stroke-dasharray:none;stroke-dashoffset:1.08779998;stroke-opacity:1"
           id="rect7310" />
        <path
           d="M -159.5,68.25 L -39.138259,55.983708 L -93.453327,162.55286 L -197.79465,128.96507 L -159.5,68.25 z"
           transform="matrix(0.639376,0.768894,-0.768894,0.639376,37.59764,128.0872)"
           style="fill:url(#linearGradient7326);fill-opacity:1;stroke:none;stroke-width:1;stroke-linecap:round;stroke-linejoin:round;stroke-miterlimit:4;stroke-dashoffset:1.08779998;stroke-opacity:1"
           id="path7312" />
        <path
           d="M -159.5,68.25 L -39.138259,55.983708 L -93.453327,162.55286 L -197.79465,128.96507 L -159.5,68.25 z"
           transform="matrix(0.639376,0.768894,-0.768894,0.639376,37.59764,128.0872)"
           style="fill:url(#linearGradient7328);fill-opacity:1;stroke:none;stroke-width:1;stroke-linecap:round;stroke-linejoin:round;stroke-miterlimit:4;stroke-dashoffset:1.08779998;stroke-opacity:1"
           id="path7314" />
      </g>
    </mask>
    <linearGradient
       x1="67.5625"
       y1="47.734375"
       x2="141.65625"
       y2="61.90625"
       id="linearGradient2946"
       xlink:href="#linearGradient2940"
       gradientUnits="userSpaceOnUse" />
    <linearGradient
       inkscape:collect="always"
       xlink:href="#linearGradient2940"
       id="linearGradient2578"
       gradientUnits="userSpaceOnUse"
       x1="67.5625"
       y1="47.734375"
       x2="141.65625"
       y2="61.90625"
       gradientTransform="matrix(0.8821632,0,0,0.8821632,2.5545482,2.1182707)" />
    <linearGradient
       inkscape:collect="always"
       xlink:href="#XMLID_4_"
       id="linearGradient2621"
       gradientUnits="userSpaceOnUse"
       gradientTransform="matrix(0.8821632,0,0,0.8821632,6.082349,5.6469234)"
       x1="60.001499"
       y1="92"
       x2="60.001499"
       y2="28.0005" />
    <linearGradient
       inkscape:collect="always"
       xlink:href="#XMLID_25_"
       id="linearGradient2624"
       gradientUnits="userSpaceOnUse"
       gradientTransform="matrix(0.8821561,0,0,0.8821632,6.0832312,5.6469234)"
       x1="60.001499"
       y1="94"
       x2="60.001499"
       y2="26.0005" />
    <linearGradient
       inkscape:collect="always"
       xlink:href="#XMLID_24_"
       id="linearGradient2627"
       gradientUnits="userSpaceOnUse"
       gradientTransform="matrix(0.8821561,0,0,0.8821632,6.0832312,5.6469234)"
       x1="60.0005"
       y1="12.8452"
       x2="60.0005"
       y2="120.2141" />
    <linearGradient
       inkscape:collect="always"
       xlink:href="#XMLID_24_"
       id="linearGradient2566"
       gradientUnits="userSpaceOnUse"
       gradientTransform="matrix(0.8821561,0,0,0.8821632,6.0832312,5.6469234)"
       x1="60.0005"
       y1="12.8452"
       x2="60.0005"
       y2="120.2141" />
    <linearGradient
       inkscape:collect="always"
       xlink:href="#XMLID_25_"
       id="linearGradient2568"
       gradientUnits="userSpaceOnUse"
       gradientTransform="matrix(0.8821561,0,0,0.8821632,6.0832312,5.6469234)"
       x1="60.001499"
       y1="94"
       x2="60.001499"
       y2="26.0005" />
    <linearGradient
       inkscape:collect="always"
       xlink:href="#XMLID_4_"
       id="linearGradient2570"
       gradientUnits="userSpaceOnUse"
       gradientTransform="matrix(0.8821632,0,0,0.8821632,6.082349,5.6469234)"
       x1="60.001499"
       y1="92"
       x2="60.001499"
       y2="28.0005" />
    <linearGradient
       inkscape:collect="always"
       xlink:href="#linearGradient2940"
       id="linearGradient2572"
       gradientUnits="userSpaceOnUse"
       gradientTransform="matrix(0.8821632,0,0,0.8821632,2.5545482,2.1182707)"
       x1="67.5625"
       y1="47.734375"
       x2="141.65625"
       y2="61.90625" />
    <linearGradient
       inkscape:collect="always"
       xlink:href="#linearGradient2940"
       id="linearGradient2558"
       gradientUnits="userSpaceOnUse"
       gradientTransform="matrix(1.8323129,-1.8323129,1.8323129,1.8323129,-26.050569,209.72266)"
       x1="67.5625"
       y1="47.734375"
       x2="141.65625"
       y2="61.90625" />
    <linearGradient
       inkscape:collect="always"
       xlink:href="#XMLID_4_"
       id="linearGradient2573"
       gradientUnits="userSpaceOnUse"
       gradientTransform="matrix(1.8323129,-1.8323129,1.8323129,1.8323129,-11.393836,209.72443)"
       x1="60.001499"
       y1="92"
       x2="60.001499"
       y2="28.0005" />
    <linearGradient
       inkscape:collect="always"
       xlink:href="#XMLID_25_"
       id="linearGradient2576"
       gradientUnits="userSpaceOnUse"
       gradientTransform="matrix(1.8322981,-1.8322981,1.8323129,1.8323129,-11.392003,209.7226)"
       x1="60.001499"
       y1="94"
       x2="60.001499"
       y2="26.0005" />
    <linearGradient
       inkscape:collect="always"
       xlink:href="#XMLID_24_"
       id="linearGradient2579"
       gradientUnits="userSpaceOnUse"
       gradientTransform="matrix(1.8322981,-1.8322981,1.8323129,1.8323129,-11.392003,209.7226)"
       x1="60.338055"
       y1="-32.289955"
       x2="60.0005"
       y2="120.2141" />
  </defs>
  <path
     d="M 331.25421,112.61367 L 309.26279,90.622248 L 285.71045,112.65377 C 277.13706,106.10325 267.91689,100.80418 258.2826,96.780401 L 265.58053,65.398553 L 235.5417,57.347269 L 226.16041,88.206925 C 215.64481,86.863796 204.99729,86.86192 194.47986,88.206788 L 185.09833,57.347068 L 155.06321,65.398094 L 162.36141,96.780019 C 152.7235,100.80372 143.50336,106.09905 134.9282,112.65134 L 111.37382,90.621439 L 89.386242,112.60902 L 111.41798,136.16156 C 104.86569,144.73672 99.568529,153.95869 95.544825,163.59294 L 64.164734,156.29657 L 56.115535,186.33353 L 86.97526,195.71505 C 85.632224,206.23065 85.632265,216.88001 86.975389,227.39928 L 56.115737,236.78056 L 64.16334,266.81574 L 95.548875,259.51779 C 99.570824,269.15391 104.86805,278.37592 111.42225,286.94931 L 89.387034,310.49801 L 111.37296,332.48759 L 134.92715,310.45422 C 143.50237,317.00657 152.72439,322.3038 162.35867,326.32759 L 155.06255,357.71129 L 185.09773,365.76256 L 194.48084,334.89741 C 204.99645,336.24053 215.64764,336.2424 226.16507,334.89754 L 235.54659,365.76092 L 265.58171,357.71355 L 258.28169,326.32614 C 267.91594,322.30244 277.13975,317.00711 285.71307,310.45299 L 309.26377,332.48654 L 331.25134,310.49896 L 309.21963,286.94643 C 315.77192,278.37128 321.0709,269.15113 325.09095,259.51688 L 356.4747,266.81691 L 364.52391,236.77998 L 333.66051,227.39477 C 335.00171,216.88101 335.0035,206.22982 333.66039,195.7142 L 364.52002,186.33294 L 356.47241,156.29409 L 325.08873,163.59386 C 321.06495,153.95958 315.77138,144.73756 309.21717,136.1642 L 331.25421,112.61367 z M 265.28818,266.52338 C 234.97831,296.83326 185.65997,296.83306 155.34986,266.52294 C 125.03974,236.21282 125.03954,186.89449 155.34941,156.58461 C 185.65929,126.27473 234.97763,126.27493 265.28775,156.58505 C 295.59786,186.89517 295.59806,236.2135 265.28818,266.52338 z"
     id="path6"
     style="stroke:#000000;stroke-width:32.26526642;stroke-linejoin:round;stroke-miterlimit:4;stroke-dasharray:none;stroke-opacity:1" />
  <path
     d="M 329.4219,110.78135 L 307.43048,88.789935 L 283.87814,110.82146 C 275.30475,104.27094 266.08458,98.971864 256.45029,94.948089 L 263.74822,63.566243 L 233.70939,55.514959 L 224.3281,86.374613 C 213.8125,85.031483 203.16497,85.029605 192.64755,86.374476 L 183.26602,55.514751 L 153.2309,63.56578 L 160.5291,94.947704 C 150.89119,98.971411 141.67105,104.26674 133.09588,110.81902 L 109.54151,88.789126 L 87.55393,110.7767 L 109.58566,134.32924 C 103.03338,142.90441 97.736216,152.12638 93.712514,161.76063 L 62.33242,154.46426 L 54.283221,184.50121 L 85.14295,193.88274 C 83.799911,204.39834 83.799953,215.0477 85.143074,225.56697 L 54.283424,234.94825 L 62.33103,264.98343 L 93.716562,257.68548 C 97.73851,267.32159 103.03574,276.54361 109.58993,285.11699 L 87.554721,308.6657 L 109.54064,330.65528 L 133.09484,308.6219 C 141.67006,315.17426 150.89207,320.47149 160.52635,324.49527 L 153.23024,355.87898 L 183.26542,363.93024 L 192.64853,333.0651 C 203.16414,334.40822 213.81533,334.41009 224.33277,333.06523 L 233.71429,363.92861 L 263.74941,355.88125 L 256.44938,324.49383 C 266.08363,320.47013 275.30744,315.17481 283.88077,308.62068 L 307.43146,330.65423 L 329.41904,308.66666 L 307.38732,285.11413 C 313.9396,276.53895 319.23859,267.31882 323.25864,257.68458 L 354.64237,264.98458 L 362.69157,234.94763 L 331.8282,225.56246 C 333.1694,215.04869 333.17119,204.3975 331.82807,193.88189 L 362.6877,184.50063 L 354.6401,154.46178 L 323.25641,161.76155 C 319.23264,152.12726 313.93907,142.90525 307.38486,134.33188 L 329.4219,110.78135 z M 263.45587,264.69107 C 233.146,295.00094 183.82766,295.00075 153.51754,264.69063 C 123.20742,234.38051 123.20723,185.06217 153.5171,154.7523 C 183.82698,124.44242 233.14532,124.44262 263.45543,154.75274 C 293.76555,185.06286 293.76575,234.38119 263.45587,264.69107 z"
     style="fill:#008000"
     id="path13" />
  <path
     d="M 91.158077,110.83718 C 94.071454,113.95211 111.48026,132.55925 111.48026,132.55925 C 112.34512,133.48273 112.41475,134.89727 111.64702,135.9032 C 105.3146,144.18886 100.08707,153.22394 96.10734,162.75924 C 95.619952,163.92825 94.359328,164.57322 93.129851,164.28554 C 93.129851,164.28554 68.340565,158.51918 64.188556,157.55537 C 63.188136,161.2896 58.438869,179.01531 57.438445,182.74954 C 61.518994,183.99003 85.901513,191.4018 85.901513,191.4018 C 86.32111,191.52823 86.687574,191.75544 86.978911,192.04678 C 87.530437,192.59831 87.823607,193.38986 87.719172,194.2089 C 86.405448,204.50096 86.405491,214.94143 87.719295,225.2335 C 87.880544,226.48679 87.11098,227.67413 85.903493,228.04241 C 85.903493,228.04241 61.5192,235.45582 57.440493,236.69445 C 58.440946,240.42869 63.19035,258.15443 64.190805,261.88868 C 68.342808,260.9249 93.132046,255.15873 93.132046,255.15873 C 94.028042,254.95168 94.936869,255.23386 95.554356,255.85135 C 95.787061,256.08406 95.979453,256.3644 96.11321,256.68506 C 100.09302,266.22405 105.32246,275.26101 111.6531,283.54122 C 112.42268,284.54532 112.35122,285.9617 111.48637,286.88518 C 111.48637,286.88518 94.079548,305.494 91.164363,308.60708 C 92.985681,310.42839 95.358528,312.80124 96.974626,314.41734 C 116.52344,301.42454 136.35809,286.62142 156.01683,270.38178 C 154.03061,268.61543 151.68524,266.52293 151.68524,266.52293 C 120.36552,235.2032 120.36532,184.23946 151.68479,152.91999 C 183.0061,121.59868 233.96801,121.60072 265.28773,152.92044 C 265.28773,152.92044 267.40039,155.28962 269.1759,157.28134 C 285.41737,137.65009 300.22964,117.82828 313.25177,98.275792 C 311.62651,96.65053 309.20602,94.230044 307.37187,92.395898 C 304.25696,95.30926 285.64997,112.71792 285.64997,112.71792 C 284.7265,113.58276 283.31011,113.65422 282.306,112.88465 C 274.02215,106.55398 264.98701,101.32639 255.45352,97.344743 C 255.13287,97.210984 254.85436,97.020423 254.62165,96.787719 C 254.00416,96.170229 253.72199,95.261402 253.92903,94.365415 C 253.92903,94.365415 259.69336,69.578015 260.65715,65.425991 C 256.92291,64.425543 239.19532,59.674314 235.46108,58.673863 C 234.22064,62.750722 226.80906,87.136845 226.80906,87.136845 C 226.44077,88.344342 225.25527,89.112072 224.00015,88.952645 C 213.70624,87.637019 203.26576,87.636978 192.97737,88.950703 C 192.1565,89.05697 191.36677,88.76563 190.81342,88.212274 C 190.52025,87.919102 190.29487,87.554475 190.16844,87.134874 C 190.16844,87.134874 182.75667,62.752354 181.51435,58.673639 C 177.78011,59.674061 160.05258,64.421494 156.31834,65.42192 C 157.28215,69.573927 163.04669,94.365041 163.04669,94.365041 C 163.33253,95.596352 162.68939,96.855144 161.52039,97.342535 C 151.98325,101.3241 142.94634,106.55346 134.66251,112.88404 C 133.65841,113.64994 132.24204,113.58214 131.32039,112.71546 C 131.32039,112.71546 112.71142,95.30848 109.59649,92.395103 C 106.8682,95.127058 93.891866,108.10339 91.158077,110.83718 z"
     style="fill:url(#linearGradient2579)"
     id="path20" />
  <path
     d="M 146.18785,147.42305 C 111.78279,181.82811 111.78301,237.61448 146.18835,272.01982 C 180.59552,306.42699 236.38006,306.42538 270.78512,272.02032 C 305.19202,237.61342 305.1918,181.83071 270.78463,147.42354 C 236.37929,113.01821 180.59475,113.01615 146.18785,147.42305 z M 254.29431,255.52951 C 229.03608,280.78773 187.93747,280.78757 162.67903,255.52914 C 137.4206,230.27071 137.42044,189.17209 162.67867,163.91387 C 187.9369,138.65563 229.03551,138.6558 254.29394,163.91423 C 279.55238,189.17266 279.55254,230.27127 254.29431,255.52951 z"
     style="fill:url(#linearGradient2576)"
     id="path27" />
  <path
     d="M 149.85156,151.08859 C 117.52039,183.41976 117.52038,236.02548 149.85153,268.35664 C 182.1827,300.6878 234.78841,300.68778 267.11958,268.35661 C 299.45074,236.02545 299.45075,183.41974 267.11959,151.08858 C 234.78843,118.75742 182.18272,118.75743 149.85156,151.08859 z M 254.29339,255.53042 C 229.03495,280.78887 187.93617,280.78887 162.67773,255.53044 C 137.4193,230.27201 137.4193,189.17323 162.67775,163.91478 C 187.93619,138.65635 229.03496,138.65635 254.29339,163.91478 C 279.55183,189.17321 279.55183,230.27199 254.29339,255.53042 z"
     style="fill:url(#linearGradient2573);fill-opacity:1"
     id="path44" />
  <path
     d="M 160.84635,162.08155 C 134.57853,188.34937 134.5787,231.0934 160.84674,257.36143 C 187.1166,283.6313 229.85879,283.62964 256.12662,257.36182 C 282.39628,231.09215 282.39611,188.3518 256.12624,162.08193 C 229.8582,135.81389 187.11601,135.81189 160.84635,162.08155 z M 252.46199,253.69719 C 228.21519,277.94399 188.75833,277.94383 164.51133,253.69684 C 140.26434,229.44984 140.26418,189.99298 164.51098,165.74618 C 188.75778,141.49937 228.21465,141.49953 252.46164,165.74653 C 276.70864,189.99352 276.7088,229.45039 252.46199,253.69719 z"
     style="fill:#000000;fill-opacity:1;stroke:#000000;stroke-width:13.44386005;stroke-miterlimit:4;stroke-dasharray:none;stroke-opacity:1"
     id="path51" />
  <path
     d="M 160.3193,325.39494 L 153.23024,355.87898 L 155.35571,356.44699 L 162.3605,326.32576 C 161.67155,326.03991 161.00092,325.69544 160.3193,325.39494 z"
     style="fill:#ffffff"
     id="path53" />
  <path
     d="M 64.164734,156.29657 L 95.546659,163.59477 C 99.568529,153.95869 104.86569,144.73672 111.41981,136.16339 L 89.386242,112.60902 L 111.37382,90.621439 L 134.92636,112.65317 C 143.50153,106.10088 152.7235,100.80372 162.35958,96.781853 L 155.06138,65.399928 L 183.92016,57.671377 L 183.26602,55.522081 L 153.2309,63.56578 L 160.5291,94.947704 C 150.89119,98.971411 141.67105,104.26674 133.09588,110.81902 L 109.54151,88.789126 L 87.55393,110.7767 L 109.58566,134.32924 C 103.03338,142.90441 97.736216,152.12638 93.712514,161.76063 L 62.33242,154.46426 L 54.283221,184.50121 L 56.432519,185.15535 L 64.164734,156.29657 z"
     style="fill:#ffffff"
     id="path55" />
  <path
     d="M 193.88802,86.262711 L 194.48169,88.212286 C 204.99729,86.869248 215.64665,86.869294 226.16225,88.212417 L 235.54353,57.352763 L 263.45507,64.834179 L 263.74822,63.569901 L 233.70939,55.518616 L 224.32811,86.378271 C 214.22477,85.091951 204.00234,85.071755 193.88802,86.262711 z"
     style="fill:#ffffff"
     id="path57" />
  <path
     d="M 224.92277,335.0148 L 233.71244,363.92676 L 234.89061,363.60978 L 226.16141,334.89387 C 225.75097,334.94884 225.33321,334.9635 224.92277,335.0148 z"
     style="fill:#ffffff"
     id="path59" />
  <path
     d="M 283.87997,110.82329 C 275.91676,104.74 267.38367,99.783592 258.49331,95.880742 L 258.28259,96.784078 C 267.91688,100.80785 277.13706,106.10325 285.71043,112.65745 L 309.26279,90.622248 L 307.43048,88.789935 L 283.87997,110.82329 z"
     style="fill:#ffffff"
     id="path63" />
  <path
     d="M 325.09056,163.59569 L 355.2118,156.59091 L 354.64377,154.46545 L 324.16158,161.55266 C 324.45841,162.23795 324.80471,162.90675 325.09056,163.59569 z"
     style="fill:#ffffff"
     id="path65" />
  <path
     d="M 56.115737,236.7769 L 86.975389,227.39561 C 85.632265,216.88001 85.632224,206.23065 86.975262,195.71139 L 85.023853,195.11955 C 83.834729,205.23204 83.851261,215.45813 85.141244,225.56147 L 54.281592,234.94275 L 62.329196,264.97793 L 63.593489,264.68477 L 56.115737,236.7769 z"
     style="fill:#ffffff"
     id="path67" />
  <path
     d="M 333.66051,227.39477 L 362.37276,236.12398 L 362.68976,234.94582 L 333.7796,226.15796 C 333.73014,226.56657 333.71548,226.98434 333.66051,227.39477 z"
     style="fill:#ffffff"
     id="path69" />
  <path
     d="M 89.387034,310.49801 L 111.41858,286.94564 C 104.86439,278.37226 99.568992,269.14841 95.545211,259.51413 L 94.643716,259.72301 C 98.546562,268.61337 103.50115,277.15194 109.58627,285.11333 L 87.554721,308.6657 L 109.54064,330.65528 L 109.54064,330.65528 L 89.387034,310.49801 z"
     style="fill:#ffffff"
     id="path71" />
  <path
     id="path2349"
     style="opacity:0.6;fill:url(#linearGradient2558);fill-opacity:1;fill-rule:evenodd;stroke:none;stroke-width:1px;stroke-linecap:butt;stroke-linejoin:miter;stroke-opacity:1"
     d="M 170.8658,135.80029 L 172.58359,158.93324 C 195.3924,142.78067 226.73729,143.85958 248.4528,162.08253 L 289.22175,113.98432 C 263.74189,94.925353 198.58228,121.724 170.8658,135.80029 z" />
</svg>
