<?xml version="1.0" encoding="UTF-8" standalone="no"?>
<!-- Created with Inkscape (http://www.inkscape.org/) -->
<svg
   xmlns:dc="http://purl.org/dc/elements/1.1/"
   xmlns:cc="http://web.resource.org/cc/"
   xmlns:rdf="http://www.w3.org/1999/02/22-rdf-syntax-ns#"
   xmlns:svg="http://www.w3.org/2000/svg"
   xmlns="http://www.w3.org/2000/svg"
   xmlns:xlink="http://www.w3.org/1999/xlink"
   xmlns:sodipodi="http://inkscape.sourceforge.net/DTD/sodipodi-0.dtd"
   xmlns:inkscape="http://www.inkscape.org/namespaces/inkscape"
   id="svg1577"
   sodipodi:version="0.32"
   inkscape:version="0.43"
   width="210mm"
   height="297mm"
   sodipodi:docbase="D:\down\PHPS Icons"
   sodipodi:docname="do_real.svg"
   inkscape:export-filename="D:\down\PHPS Icons\do_real.png"
   inkscape:export-xdpi="14.08"
   inkscape:export-ydpi="14.08">
  <metadata
     id="metadata1582">
    <rdf:RDF>
      <cc:Work
         rdf:about="">
        <dc:format>image/svg+xml</dc:format>
        <dc:type
           rdf:resource="http://purl.org/dc/dcmitype/StillImage" />
      </cc:Work>
    </rdf:RDF>
  </metadata>
  <defs
     id="defs1580">
    <linearGradient
       id="linearGradient3588">
      <stop
         style="stop-color:#71ff6a;stop-opacity:1;"
         offset="0"
         id="stop3590" />
      <stop
         style="stop-color:#487b43;stop-opacity:1;"
         offset="1"
         id="stop3592" />
    </linearGradient>
    <linearGradient
       inkscape:collect="always"
       xlink:href="#linearGradient3588"
       id="linearGradient3594"
       x1="296.30008"
       y1="541.70227"
       x2="93.441475"
       y2="318.43143"
       gradientUnits="userSpaceOnUse"
       gradientTransform="matrix(0,-1,1,0,-138.6101,624.021)" />
  </defs>
  <sodipodi:namedview
     inkscape:window-height="721"
     inkscape:window-width="1024"
     inkscape:pageshadow="2"
     inkscape:pageopacity="0.0"
     borderopacity="1.0"
     bordercolor="#666666"
     pagecolor="#ffffff"
     id="base"
     inkscape:zoom="0.35539095"
     inkscape:cx="661.91625"
     inkscape:cy="610.56901"
     inkscape:window-x="166"
     inkscape:window-y="143"
     inkscape:current-layer="svg1577" />
  <path
     style="fill:url(#linearGradient3594);fill-opacity:1;fill-rule:evenodd;stroke:#000000;stroke-width:10.85530853px;stroke-linecap:butt;stroke-linejoin:miter;stroke-opacity:1"
     d="M 185.24894,406.53616 L 186.26663,447.03788 L 210.96174,445.8181 L 222.51836,463.97644 L 193.79822,487.85956 L 219.51101,512.60038 L 246.31006,488.85439 L 261.30467,495.34544 L 260.30984,525.15183 L 297.87277,525.15183 L 298.89046,498.10498 L 315.85188,488.85439 L 340.95478,511.58269 L 365.71845,484.78365 L 341.63324,461.03766 L 354.13898,447.55995 L 378.90265,448.53192 L 378.94836,409.47494 L 352.44283,410.44692 L 337.90172,394.20967 L 361.64771,372.15982 L 337.90172,346.37846 L 313.13805,369.44599 L 293.12357,358.8842 L 290.90896,333.14855 L 257.64172,333.17141 L 258.63655,365.89372 L 245.29237,370.46368 L 222.56407,347.39615 L 198.47885,367.41062 L 217.31926,392.96703 L 208.99493,407.53099 L 185.24894,406.53616 z M 260.55765,431.52479 C 260.48915,430.85122 260.55765,430.18101 260.55765,429.48942 C 260.55765,418.4246 269.50731,409.47494 280.57212,409.47494 C 291.63694,409.47494 300.5866,418.4246 300.5866,429.48942 C 300.5866,440.55424 291.63694,449.5039 280.57212,449.5039 C 270.1989,449.5039 261.58478,441.62848 260.55765,431.52479 z "
     id="path1837"
     sodipodi:nodetypes="ccccccccccccccccccccccccccccccccccssssc" />
</svg>
