<?xml version="1.0" encoding="UTF-8" standalone="no"?>
<!-- Created with Inkscape (http://www.inkscape.org/) -->
<svg
   xmlns:dc="http://purl.org/dc/elements/1.1/"
   xmlns:cc="http://creativecommons.org/ns#"
   xmlns:rdf="http://www.w3.org/1999/02/22-rdf-syntax-ns#"
   xmlns:svg="http://www.w3.org/2000/svg"
   xmlns="http://www.w3.org/2000/svg"
   xmlns:xlink="http://www.w3.org/1999/xlink"
   xmlns:sodipodi="http://sodipodi.sourceforge.net/DTD/sodipodi-0.dtd"
   xmlns:inkscape="http://www.inkscape.org/namespaces/inkscape"
   version="1.0"
   width="128"
   height="128"
   id="svg2830"
   sodipodi:version="0.32"
   inkscape:version="0.46"
   sodipodi:docname="do.svg"
   inkscape:output_extension="org.inkscape.output.svg.inkscape"
   inkscape:export-filename="D:\web\xampp\htdocs\limesurvey\images\do.png"
   inkscape:export-xdpi="28"
   inkscape:export-ydpi="28">
  <metadata
     id="metadata187">
    <rdf:RDF>
      <cc:Work
         rdf:about="">
        <dc:format>image/svg+xml</dc:format>
        <dc:type
           rdf:resource="http://purl.org/dc/dcmitype/StillImage" />
      </cc:Work>
    </rdf:RDF>
  </metadata>
  <sodipodi:namedview
     inkscape:window-height="968"
     inkscape:window-width="1280"
     inkscape:pageshadow="2"
     inkscape:pageopacity="0.0"
     guidetolerance="10.0"
     gridtolerance="10.0"
     objecttolerance="10.0"
     borderopacity="1.0"
     bordercolor="#666666"
     pagecolor="#ffffff"
     id="base"
     showgrid="false"
     inkscape:zoom="3.609375"
     inkscape:cx="30.891775"
     inkscape:cy="64"
     inkscape:window-x="0"
     inkscape:window-y="22"
     inkscape:current-layer="svg2830" />
  <defs
     id="defs2832">
    <inkscape:perspective
       sodipodi:type="inkscape:persp3d"
       inkscape:vp_x="0 : 64 : 1"
       inkscape:vp_y="0 : 1000 : 0"
       inkscape:vp_z="128 : 64 : 1"
       inkscape:persp3d-origin="64 : 42.666667 : 1"
       id="perspective189" />
    <linearGradient
       id="linearGradient2940">
      <stop
         style="stop-color:black;stop-opacity:1"
         offset="0"
         id="stop2942" />
      <stop
         style="stop-color:black;stop-opacity:0"
         offset="1"
         id="stop2944" />
    </linearGradient>
    <linearGradient
       x1="-61.802711"
       y1="99.979607"
       x2="-136.51074"
       y2="112.70422"
       id="linearGradient7115"
       xlink:href="#linearGradient3342"
       gradientUnits="userSpaceOnUse"
       gradientTransform="translate(-40.5,-1.5)" />
    <linearGradient
       x1="-83.593941"
       y1="137.13324"
       x2="-138.0043"
       y2="92.603989"
       id="linearGradient7113"
       xlink:href="#linearGradient3342"
       gradientUnits="userSpaceOnUse"
       gradientTransform="translate(-40.5,-1.5)" />
    <filter
       id="filter3363"
       height="1.2042203"
       y="-0.10211017"
       width="1.1754827"
       x="-0.087741371">
      <feGaussianBlur
         id="feGaussianBlur3365"
         stdDeviation="3.0526685"
         inkscape:collect="always" />
    </filter>
    <linearGradient
       id="linearGradient3342">
      <stop
         style="stop-color:black;stop-opacity:1"
         offset="0"
         id="stop3344" />
      <stop
         style="stop-color:black;stop-opacity:0"
         offset="1"
         id="stop3347" />
    </linearGradient>
    <linearGradient
       x1="-73"
       y1="105.625"
       x2="-163"
       y2="86.125"
       id="linearGradient7111"
       xlink:href="#linearGradient3342"
       gradientUnits="userSpaceOnUse" />
    <linearGradient
       x1="-83.012932"
       y1="44.753052"
       x2="-158.92462"
       y2="72.881729"
       id="linearGradient7109"
       xlink:href="#linearGradient3326"
       gradientUnits="userSpaceOnUse" />
    <linearGradient
       x1="-132.51041"
       y1="39.803303"
       x2="-158.92462"
       y2="72.881729"
       id="linearGradient7107"
       xlink:href="#linearGradient3326"
       gradientUnits="userSpaceOnUse" />
    <filter
       id="filter3438">
      <feGaussianBlur
         id="feGaussianBlur3440"
         stdDeviation="1.3342697"
         inkscape:collect="always" />
    </filter>
    <linearGradient
       id="linearGradient3326">
      <stop
         style="stop-color:black;stop-opacity:1"
         offset="0"
         id="stop3328" />
      <stop
         style="stop-color:black;stop-opacity:0"
         offset="1"
         id="stop3330" />
    </linearGradient>
    <linearGradient
       x1="-151.43935"
       y1="37.68198"
       x2="-152.26776"
       y2="57.25"
       id="linearGradient7105"
       xlink:href="#linearGradient3326"
       gradientUnits="userSpaceOnUse" />
    <linearGradient
       id="linearGradient3825">
      <stop
         style="stop-color:white;stop-opacity:0"
         offset="0"
         id="stop3827" />
      <stop
         style="stop-color:white;stop-opacity:0.18705036"
         offset="0.5"
         id="stop3833" />
      <stop
         style="stop-color:white;stop-opacity:1"
         offset="1"
         id="stop3829" />
    </linearGradient>
    <radialGradient
       cx="-112.17241"
       cy="118.60459"
       r="59.995121"
       fx="-113.14772"
       fy="59.708473"
       id="radialGradient7103"
       xlink:href="#linearGradient3825"
       gradientUnits="userSpaceOnUse"
       gradientTransform="matrix(0.648428,0.101721,-3.125715e-2,0.199252,-4.56257,53.15916)" />
    <linearGradient
       x1="206.47243"
       y1="77.373238"
       x2="206.47243"
       y2="15.343517"
       id="linearGradient3462"
       xlink:href="#linearGradient3295"
       gradientUnits="userSpaceOnUse"
       gradientTransform="translate(-819.0889,-206.9062)" />
    <filter
       id="filter3639">
      <feGaussianBlur
         id="feGaussianBlur3641"
         stdDeviation="1.0580524"
         inkscape:collect="always" />
    </filter>
    <linearGradient
       id="linearGradient3295">
      <stop
         style="stop-color:#baff63;stop-opacity:1"
         offset="0"
         id="stop3297" />
      <stop
         style="stop-color:white;stop-opacity:0"
         offset="1"
         id="stop3299" />
    </linearGradient>
    <linearGradient
       x1="208.59375"
       y1="130.40625"
       x2="208.59375"
       y2="63.426777"
       id="linearGradient3613"
       xlink:href="#linearGradient3295"
       gradientUnits="userSpaceOnUse"
       gradientTransform="translate(-819.0889,-206.9062)" />
    <linearGradient
       x1="75.09375"
       y1="4.5317035"
       x2="75.09375"
       y2="80.172485"
       id="linearGradient3581"
       xlink:href="#linearGradient3260"
       gradientUnits="userSpaceOnUse"
       gradientTransform="translate(-682.0846,-206.9043)" />
    <linearGradient
       id="linearGradient3202">
      <stop
         style="stop-color:#cbff9c;stop-opacity:1"
         offset="0"
         id="stop3204" />
      <stop
         style="stop-color:#65c171;stop-opacity:0"
         offset="1"
         id="stop3206" />
    </linearGradient>
    <linearGradient
       x1="75.09375"
       y1="4.5317035"
       x2="75.09375"
       y2="73.898682"
       id="linearGradient3548"
       xlink:href="#linearGradient3202"
       gradientUnits="userSpaceOnUse"
       gradientTransform="translate(-682.0889,-206.9062)" />
    <linearGradient
       id="linearGradient3528">
      <stop
         style="stop-color:#62c734;stop-opacity:1"
         offset="0"
         id="stop3530" />
      <stop
         style="stop-color:#62c734;stop-opacity:0"
         offset="1"
         id="stop3532" />
    </linearGradient>
    <radialGradient
       cx="99.726295"
       cy="27.418272"
       r="56"
       fx="64.689766"
       fy="68.231934"
       id="radialGradient3535"
       xlink:href="#linearGradient3528"
       gradientUnits="userSpaceOnUse"
       gradientTransform="matrix(0.693735,5.867125e-2,-3.62428e-2,0.428539,-648.1495,-180.0253)" />
    <radialGradient
       cx="67.09375"
       cy="116.90625"
       r="56"
       fx="67.09375"
       fy="116.90625"
       id="radialGradient3524"
       xlink:href="#XMLID_4_"
       gradientUnits="userSpaceOnUse"
       gradientTransform="translate(-682.0889,-206.9062)" />
    <linearGradient
       id="linearGradient3344">
      <stop
         style="stop-color:#baff63;stop-opacity:1"
         offset="0"
         id="stop3346" />
      <stop
         style="stop-color:white;stop-opacity:0"
         offset="1"
         id="stop3348" />
    </linearGradient>
    <linearGradient
       x1="120.0625"
       y1="12.569496"
       x2="125.30366"
       y2="14.444496"
       id="linearGradient3771"
       xlink:href="#linearGradient3344"
       gradientUnits="userSpaceOnUse"
       spreadMethod="reflect" />
    <filter
       id="filter3738"
       height="1.2746473"
       y="-0.13732364"
       width="1.301924"
       x="-0.15096202">
      <feGaussianBlur
         id="feGaussianBlur3740"
         stdDeviation="0.39257441"
         inkscape:collect="always" />
    </filter>
    <linearGradient
       x1="120.0625"
       y1="12.569496"
       x2="125.30366"
       y2="14.444496"
       id="linearGradient3676"
       xlink:href="#linearGradient3260"
       gradientUnits="userSpaceOnUse"
       gradientTransform="translate(-682.0889,-206.9062)"
       spreadMethod="reflect" />
    <filter
       id="filter3630">
      <feGaussianBlur
         id="feGaussianBlur3632"
         stdDeviation="0.89883985"
         inkscape:collect="always" />
    </filter>
    <linearGradient
       id="linearGradient3260">
      <stop
         style="stop-color:white;stop-opacity:1"
         offset="0"
         id="stop3262" />
      <stop
         style="stop-color:white;stop-opacity:0"
         offset="1"
         id="stop3264" />
    </linearGradient>
    <radialGradient
       cx="64.088867"
       cy="7.4108429"
       r="59.995121"
       fx="64.088867"
       fy="7.4108429"
       id="radialGradient3767"
       xlink:href="#linearGradient3260"
       gradientUnits="userSpaceOnUse"
       gradientTransform="matrix(0.309387,0,0,0.477925,-637.8283,-203.0418)" />
    <radialGradient
       cx="72.684891"
       cy="48.228905"
       r="59.995121"
       fx="74.871155"
       fy="26.862719"
       id="radialGradient3744"
       xlink:href="#linearGradient3449"
       gradientUnits="userSpaceOnUse"
       gradientTransform="matrix(0.982366,1.671718e-2,-3.580115e-3,0.210384,-700.6523,-176.4285)" />
    <radialGradient
       cx="-10.165252"
       cy="66.906013"
       r="59.995121"
       fx="-10.165252"
       fy="66.906013"
       id="radialGradient3654"
       xlink:href="#linearGradient3449"
       gradientUnits="userSpaceOnUse"
       gradientTransform="matrix(0.458289,-2.103559e-8,4.590397e-8,1.000081,-661.6409,-206.9114)" />
    <linearGradient
       id="linearGradient3449">
      <stop
         style="stop-color:black;stop-opacity:0.67266184"
         offset="0"
         id="stop3451" />
      <stop
         style="stop-color:black;stop-opacity:0"
         offset="1"
         id="stop3453" />
    </linearGradient>
    <radialGradient
       cx="167.67001"
       cy="80.404922"
       r="59.995121"
       fx="167.67001"
       fy="80.404922"
       id="radialGradient3658"
       xlink:href="#linearGradient3449"
       gradientUnits="userSpaceOnUse"
       gradientTransform="matrix(0.26767,0.521376,-0.703747,0.361298,-573.095,-242.9692)" />
    <linearGradient
       id="linearGradient3751">
      <stop
         style="stop-color:#53be2c;stop-opacity:1"
         offset="0"
         id="stop3753" />
      <stop
         style="stop-color:#53be2c;stop-opacity:0"
         offset="1"
         id="stop3755" />
    </linearGradient>
    <radialGradient
       cx="66.01458"
       cy="126.69183"
       r="59.995121"
       fx="66.01458"
       fy="126.69183"
       id="radialGradient3757"
       xlink:href="#linearGradient3751"
       gradientUnits="userSpaceOnUse"
       gradientTransform="matrix(0.675025,0,0,0.358362,-662.5615,-165.9016)" />
    <radialGradient
       cx="48"
       cy="-0.2148"
       r="55.147999"
       id="XMLID_4_"
       gradientUnits="userSpaceOnUse"
       gradientTransform="matrix(0.9792,0,0,0.9725,133.0002,20.8762)">
      <stop
         style="stop-color:#547243;stop-opacity:1;"
         offset="0"
         id="stop3082" />
      <stop
         style="stop-color:#008700;stop-opacity:1;"
         offset="1"
         id="stop3090" />
    </radialGradient>
    <linearGradient
       x1="147.09375"
       y1="33.40625"
       x2="8.083992"
       y2="123.90625"
       id="linearGradient3516"
       xlink:href="#XMLID_4_"
       gradientUnits="userSpaceOnUse"
       gradientTransform="translate(-682.0889,-206.9062)" />
    <linearGradient
       x1="60.001499"
       y1="86"
       x2="60.001499"
       y2="34.0005"
       id="XMLID_27_"
       gradientUnits="userSpaceOnUse"
       gradientTransform="translate(145.7138,-238.2143)">
      <stop
         style="stop-color:#bbb;stop-opacity:1"
         offset="0"
         id="stop47" />
      <stop
         style="stop-color:#555;stop-opacity:1"
         offset="1"
         id="stop49" />
    </linearGradient>
    <linearGradient
       x1="60.001499"
       y1="92"
       x2="60.001499"
       y2="28.0005"
       id="XMLID_26_"
       gradientUnits="userSpaceOnUse"
       gradientTransform="translate(145.7138,-238.2143)">
      <stop
         style="stop-color:#e9e9f0;stop-opacity:1"
         offset="0.1953"
         id="stop30" />
      <stop
         style="stop-color:#dadae2;stop-opacity:1"
         offset="0.2597"
         id="stop32" />
      <stop
         style="stop-color:#b1b1bb;stop-opacity:1"
         offset="0.461"
         id="stop34" />
      <stop
         style="stop-color:#93939f;stop-opacity:1"
         offset="0.6437"
         id="stop36" />
      <stop
         style="stop-color:#81818e;stop-opacity:1"
         offset="0.7999"
         id="stop38" />
      <stop
         style="stop-color:#7a7a88;stop-opacity:1"
         offset="0.91119999"
         id="stop40" />
      <stop
         style="stop-color:#696975;stop-opacity:1"
         offset="1"
         id="stop42" />
    </linearGradient>
    <linearGradient
       x1="60.001499"
       y1="94"
       x2="60.001499"
       y2="26.0005"
       id="XMLID_25_"
       gradientUnits="userSpaceOnUse"
       gradientTransform="translate(145.7138,-238.2143)">
      <stop
         style="stop-color:#ffffff;stop-opacity:1;"
         offset="0.29589999"
         id="stop23" />
      <stop
         style="stop-color:#4a4a55;stop-opacity:1"
         offset="1"
         id="stop25" />
    </linearGradient>
    <linearGradient
       x1="60.0005"
       y1="12.8452"
       x2="60.0005"
       y2="120.2141"
       id="XMLID_24_"
       gradientUnits="userSpaceOnUse"
       gradientTransform="translate(145.7138,-238.2143)">
      <stop
         style="stop-color:white;stop-opacity:1"
         offset="0"
         id="stop16" />
      <stop
         style="stop-color:white;stop-opacity:0"
         offset="1"
         id="stop18" />
    </linearGradient>
    <radialGradient
       cx="59.5107"
       cy="124"
       r="125.1714"
       id="XMLID_23_"
       gradientUnits="userSpaceOnUse"
       gradientTransform="translate(145.7138,-238.2143)">
      <stop
         style="stop-color:#f0f0f0;stop-opacity:1"
         offset="0.17749999"
         id="stop9" />
      <stop
         style="stop-color:#a5a5bb;stop-opacity:1"
         offset="0.53250003"
         id="stop11" />
    </radialGradient>
    <filter
       id="filter2826">
      <feGaussianBlur
         id="feGaussianBlur2828"
         stdDeviation="2.40001"
         inkscape:collect="always" />
    </filter>
    <radialGradient
       cx="59.5107"
       cy="124"
       r="125.1714"
       id="radialGradient2894"
       xlink:href="#XMLID_23_"
       gradientUnits="userSpaceOnUse"
       gradientTransform="translate(145.7138,-238.2143)" />
    <linearGradient
       x1="60.0005"
       y1="12.8452"
       x2="60.0005"
       y2="120.2141"
       id="linearGradient2896"
       xlink:href="#XMLID_24_"
       gradientUnits="userSpaceOnUse"
       gradientTransform="translate(145.7138,-238.2143)" />
    <linearGradient
       x1="60.001499"
       y1="94"
       x2="60.001499"
       y2="26.0005"
       id="linearGradient2898"
       xlink:href="#XMLID_25_"
       gradientUnits="userSpaceOnUse"
       gradientTransform="translate(145.7138,-238.2143)" />
    <linearGradient
       x1="60.001499"
       y1="92"
       x2="60.001499"
       y2="28.0005"
       id="linearGradient2900"
       xlink:href="#XMLID_26_"
       gradientUnits="userSpaceOnUse"
       gradientTransform="matrix(1.000008,0,0,1,145.7128,-238.2143)" />
    <linearGradient
       x1="60.001499"
       y1="86"
       x2="60.001499"
       y2="34.0005"
       id="linearGradient2902"
       xlink:href="#XMLID_27_"
       gradientUnits="userSpaceOnUse"
       gradientTransform="translate(145.7138,-238.2143)" />
    <linearGradient
       x1="147.09375"
       y1="33.40625"
       x2="8.083992"
       y2="123.90625"
       id="linearGradient7176"
       xlink:href="#XMLID_4_"
       gradientUnits="userSpaceOnUse"
       gradientTransform="translate(-682.0889,-206.9062)" />
    <radialGradient
       cx="66.01458"
       cy="126.69183"
       r="59.995121"
       fx="66.01458"
       fy="126.69183"
       id="radialGradient7178"
       xlink:href="#linearGradient3751"
       gradientUnits="userSpaceOnUse"
       gradientTransform="matrix(0.675025,0,0,0.358362,-662.5615,-165.9016)" />
    <radialGradient
       cx="167.67001"
       cy="80.404922"
       r="59.995121"
       fx="167.67001"
       fy="80.404922"
       id="radialGradient7180"
       xlink:href="#linearGradient3449"
       gradientUnits="userSpaceOnUse"
       gradientTransform="matrix(0.26767,0.521376,-0.703747,0.361298,-573.095,-242.9692)" />
    <radialGradient
       cx="-10.165252"
       cy="66.906013"
       r="59.995121"
       fx="-10.165252"
       fy="66.906013"
       id="radialGradient7182"
       xlink:href="#linearGradient3449"
       gradientUnits="userSpaceOnUse"
       gradientTransform="matrix(0.458289,-2.103559e-8,4.590397e-8,1.000081,-661.6409,-206.9114)" />
    <radialGradient
       cx="72.684891"
       cy="48.228905"
       r="59.995121"
       fx="74.871155"
       fy="26.862719"
       id="radialGradient7184"
       xlink:href="#linearGradient3449"
       gradientUnits="userSpaceOnUse"
       gradientTransform="matrix(0.982366,1.671718e-2,-3.580115e-3,0.210384,-700.6523,-176.4285)" />
    <radialGradient
       cx="64.088867"
       cy="7.4108429"
       r="59.995121"
       fx="64.088867"
       fy="7.4108429"
       id="radialGradient7186"
       xlink:href="#linearGradient3260"
       gradientUnits="userSpaceOnUse"
       gradientTransform="matrix(0.309387,0,0,0.477925,-637.8283,-203.0418)" />
    <linearGradient
       x1="120.0625"
       y1="12.569496"
       x2="125.30366"
       y2="14.444496"
       id="linearGradient7188"
       xlink:href="#linearGradient3260"
       gradientUnits="userSpaceOnUse"
       gradientTransform="translate(-682.0889,-206.9062)"
       spreadMethod="reflect" />
    <linearGradient
       x1="120.0625"
       y1="12.569496"
       x2="125.30366"
       y2="14.444496"
       id="linearGradient7190"
       xlink:href="#linearGradient3344"
       gradientUnits="userSpaceOnUse"
       spreadMethod="reflect" />
    <radialGradient
       cx="67.09375"
       cy="116.90625"
       r="56"
       fx="67.09375"
       fy="116.90625"
       id="radialGradient7192"
       xlink:href="#XMLID_4_"
       gradientUnits="userSpaceOnUse"
       gradientTransform="translate(-682.0889,-206.9062)" />
    <radialGradient
       cx="99.726295"
       cy="27.418272"
       r="56"
       fx="64.689766"
       fy="68.231934"
       id="radialGradient7194"
       xlink:href="#linearGradient3528"
       gradientUnits="userSpaceOnUse"
       gradientTransform="matrix(0.693735,5.867125e-2,-3.62428e-2,0.428539,-648.1495,-180.0253)" />
    <linearGradient
       x1="75.09375"
       y1="4.5317035"
       x2="75.09375"
       y2="73.898682"
       id="linearGradient7196"
       xlink:href="#linearGradient3202"
       gradientUnits="userSpaceOnUse"
       gradientTransform="translate(-682.0889,-206.9062)" />
    <linearGradient
       x1="75.09375"
       y1="4.5317035"
       x2="75.09375"
       y2="80.172485"
       id="linearGradient7198"
       xlink:href="#linearGradient3260"
       gradientUnits="userSpaceOnUse"
       gradientTransform="translate(-682.0846,-206.9043)" />
    <linearGradient
       x1="208.59375"
       y1="130.40625"
       x2="208.59375"
       y2="63.426777"
       id="linearGradient7200"
       xlink:href="#linearGradient3295"
       gradientUnits="userSpaceOnUse"
       gradientTransform="translate(-819.0889,-206.9062)" />
    <linearGradient
       x1="206.47243"
       y1="77.373238"
       x2="206.47243"
       y2="15.343517"
       id="linearGradient7202"
       xlink:href="#linearGradient3295"
       gradientUnits="userSpaceOnUse"
       gradientTransform="translate(-819.0889,-206.9062)" />
    <radialGradient
       cx="-112.17241"
       cy="118.60459"
       r="59.995121"
       fx="-113.14772"
       fy="59.708473"
       id="radialGradient7238"
       xlink:href="#linearGradient3825"
       gradientUnits="userSpaceOnUse"
       gradientTransform="matrix(0.648428,0.101721,-3.125715e-2,0.199252,-4.56257,53.15916)" />
    <linearGradient
       x1="-151.43935"
       y1="37.68198"
       x2="-152.26776"
       y2="57.25"
       id="linearGradient7240"
       xlink:href="#linearGradient3326"
       gradientUnits="userSpaceOnUse" />
    <linearGradient
       x1="-132.51041"
       y1="39.803303"
       x2="-158.92462"
       y2="72.881729"
       id="linearGradient7242"
       xlink:href="#linearGradient3326"
       gradientUnits="userSpaceOnUse" />
    <linearGradient
       x1="-83.012932"
       y1="44.753052"
       x2="-158.92462"
       y2="72.881729"
       id="linearGradient7244"
       xlink:href="#linearGradient3326"
       gradientUnits="userSpaceOnUse" />
    <linearGradient
       x1="-73"
       y1="105.625"
       x2="-163"
       y2="86.125"
       id="linearGradient7246"
       xlink:href="#linearGradient3342"
       gradientUnits="userSpaceOnUse" />
    <linearGradient
       x1="-83.593941"
       y1="137.13324"
       x2="-138.0043"
       y2="92.603989"
       id="linearGradient7248"
       xlink:href="#linearGradient3342"
       gradientUnits="userSpaceOnUse"
       gradientTransform="translate(-40.5,-1.5)" />
    <linearGradient
       x1="-61.802711"
       y1="99.979607"
       x2="-136.51074"
       y2="112.70422"
       id="linearGradient7250"
       xlink:href="#linearGradient3342"
       gradientUnits="userSpaceOnUse"
       gradientTransform="translate(-40.5,-1.5)" />
    <linearGradient
       x1="147.09375"
       y1="33.40625"
       x2="8.083992"
       y2="123.90625"
       id="linearGradient7268"
       xlink:href="#XMLID_4_"
       gradientUnits="userSpaceOnUse"
       gradientTransform="translate(-682.0889,-206.9062)" />
    <radialGradient
       cx="66.01458"
       cy="126.69183"
       r="59.995121"
       fx="66.01458"
       fy="126.69183"
       id="radialGradient7270"
       xlink:href="#linearGradient3751"
       gradientUnits="userSpaceOnUse"
       gradientTransform="matrix(0.675025,0,0,0.358362,-662.5615,-165.9016)" />
    <radialGradient
       cx="167.67001"
       cy="80.404922"
       r="59.995121"
       fx="167.67001"
       fy="80.404922"
       id="radialGradient7272"
       xlink:href="#linearGradient3449"
       gradientUnits="userSpaceOnUse"
       gradientTransform="matrix(0.26767,0.521376,-0.703747,0.361298,-573.095,-242.9692)" />
    <radialGradient
       cx="-10.165252"
       cy="66.906013"
       r="59.995121"
       fx="-10.165252"
       fy="66.906013"
       id="radialGradient7274"
       xlink:href="#linearGradient3449"
       gradientUnits="userSpaceOnUse"
       gradientTransform="matrix(0.458289,-2.103559e-8,4.590397e-8,1.000081,-661.6409,-206.9114)" />
    <radialGradient
       cx="72.684891"
       cy="48.228905"
       r="59.995121"
       fx="74.871155"
       fy="26.862719"
       id="radialGradient7276"
       xlink:href="#linearGradient3449"
       gradientUnits="userSpaceOnUse"
       gradientTransform="matrix(0.982366,1.671718e-2,-3.580115e-3,0.210384,-700.6523,-176.4285)" />
    <radialGradient
       cx="64.088867"
       cy="7.4108429"
       r="59.995121"
       fx="64.088867"
       fy="7.4108429"
       id="radialGradient7278"
       xlink:href="#linearGradient3260"
       gradientUnits="userSpaceOnUse"
       gradientTransform="matrix(0.309387,0,0,0.477925,-637.8283,-203.0418)" />
    <linearGradient
       x1="120.0625"
       y1="12.569496"
       x2="125.30366"
       y2="14.444496"
       id="linearGradient7280"
       xlink:href="#linearGradient3260"
       gradientUnits="userSpaceOnUse"
       gradientTransform="translate(-682.0889,-206.9062)"
       spreadMethod="reflect" />
    <linearGradient
       x1="120.0625"
       y1="12.569496"
       x2="125.30366"
       y2="14.444496"
       id="linearGradient7282"
       xlink:href="#linearGradient3344"
       gradientUnits="userSpaceOnUse"
       spreadMethod="reflect" />
    <radialGradient
       cx="67.09375"
       cy="116.90625"
       r="56"
       fx="67.09375"
       fy="116.90625"
       id="radialGradient7284"
       xlink:href="#XMLID_4_"
       gradientUnits="userSpaceOnUse"
       gradientTransform="translate(-682.0889,-206.9062)" />
    <radialGradient
       cx="99.726295"
       cy="27.418272"
       r="56"
       fx="64.689766"
       fy="68.231934"
       id="radialGradient7286"
       xlink:href="#linearGradient3528"
       gradientUnits="userSpaceOnUse"
       gradientTransform="matrix(0.693735,5.867125e-2,-3.62428e-2,0.428539,-648.1495,-180.0253)" />
    <linearGradient
       x1="87.365479"
       y1="12.713522"
       x2="75.09375"
       y2="73.898682"
       id="linearGradient7288"
       xlink:href="#linearGradient3202"
       gradientUnits="userSpaceOnUse"
       gradientTransform="translate(-682.0889,-206.9062)" />
    <linearGradient
       x1="75.09375"
       y1="4.5317035"
       x2="75.09375"
       y2="80.172485"
       id="linearGradient7290"
       xlink:href="#linearGradient3260"
       gradientUnits="userSpaceOnUse"
       gradientTransform="translate(-682.0846,-206.9043)" />
    <linearGradient
       x1="208.59375"
       y1="130.40625"
       x2="208.59375"
       y2="63.426777"
       id="linearGradient7292"
       xlink:href="#linearGradient3295"
       gradientUnits="userSpaceOnUse"
       gradientTransform="translate(-819.0889,-206.9062)" />
    <linearGradient
       x1="206.47243"
       y1="77.373238"
       x2="206.47243"
       y2="15.343517"
       id="linearGradient7294"
       xlink:href="#linearGradient3295"
       gradientUnits="userSpaceOnUse"
       gradientTransform="translate(-819.0889,-206.9062)" />
    <radialGradient
       cx="-112.17241"
       cy="118.60459"
       r="59.995121"
       fx="-113.14772"
       fy="59.708473"
       id="radialGradient7316"
       xlink:href="#linearGradient3825"
       gradientUnits="userSpaceOnUse"
       gradientTransform="matrix(0.648428,0.101721,-3.125715e-2,0.199252,-4.56257,53.15916)" />
    <linearGradient
       x1="-151.43935"
       y1="37.68198"
       x2="-152.26776"
       y2="57.25"
       id="linearGradient7318"
       xlink:href="#linearGradient3326"
       gradientUnits="userSpaceOnUse" />
    <linearGradient
       x1="-132.51041"
       y1="39.803303"
       x2="-158.92462"
       y2="72.881729"
       id="linearGradient7320"
       xlink:href="#linearGradient3326"
       gradientUnits="userSpaceOnUse" />
    <linearGradient
       x1="-83.012932"
       y1="44.753052"
       x2="-158.92462"
       y2="72.881729"
       id="linearGradient7322"
       xlink:href="#linearGradient3326"
       gradientUnits="userSpaceOnUse" />
    <linearGradient
       x1="-73"
       y1="105.625"
       x2="-163"
       y2="86.125"
       id="linearGradient7324"
       xlink:href="#linearGradient3342"
       gradientUnits="userSpaceOnUse" />
    <linearGradient
       x1="-83.593941"
       y1="137.13324"
       x2="-138.0043"
       y2="92.603989"
       id="linearGradient7326"
       xlink:href="#linearGradient3342"
       gradientUnits="userSpaceOnUse"
       gradientTransform="translate(-40.5,-1.5)" />
    <linearGradient
       x1="-61.802711"
       y1="99.979607"
       x2="-136.51074"
       y2="112.70422"
       id="linearGradient7328"
       xlink:href="#linearGradient3342"
       gradientUnits="userSpaceOnUse"
       gradientTransform="translate(-40.5,-1.5)" />
    <mask
       id="mask7296">
      <g
         transform="translate(-514.5863,-206.91)"
         id="g7298">
        <g
           transform="translate(80.51637,30.88526)"
           id="g7300">
          <path
             d="M -184.42232,-32.47243 C -217.54751,-32.47243 -248.42232,-0.097625 -248.42232,33.02757 C -248.42232,66.15276 -217.04751,97.02757 -183.92232,97.02757 C -153.6332,97.02757 -128.58571,70.81131 -124.51607,41.68382 L -159.54732,36.65257 C -161.172,48.6137 -171.47739,57.62132 -183.92232,57.62132 C -197.49395,57.62132 -206.01607,46.0992 -206.01607,32.52757 C -206.01607,18.955936 -199.99395,12.43382 -186.42232,12.43382 C -179.6365,12.433819 -176.50103,10.198864 -172.04732,14.65257 L -176.8745,25.979749 C -178.93037,28.035619 -179.11822,29.285529 -178.55411,30.595278 C -178.04554,31.776057 -177.03338,33.12132 -174.34438,33.12132 L -130.39107,33.12132 C -126.54518,33.12132 -123.93208,30.466941 -123.93208,26.871189 L -124.00095,-17.206829 C -124.00095,-19.687584 -124.90346,-21.050058 -126.18242,-21.556444 C -127.49674,-22.076829 -129.21563,-21.679122 -131.28951,-19.605244 L -141.48482,-19.40993 C -152.34417,-30.269281 -167.85972,-32.47243 -184.42232,-32.47243 z "
             style="opacity:1;fill:url(#radialGradient7316);fill-opacity:1;stroke:none;stroke-width:2;stroke-linecap:round;stroke-linejoin:round;stroke-miterlimit:4;stroke-dashoffset:1.08779998;stroke-opacity:1"
             id="path7302" />
          <path
             d="M -161.5,34.5 C -162,37 -180,54 -180,54 L -132.5,80 L -112,38.5 L -161.5,34.5 z "
             style="fill:url(#linearGradient7318);fill-opacity:1;fill-rule:evenodd;stroke:none;stroke-width:1px;stroke-linecap:butt;stroke-linejoin:miter;stroke-opacity:1"
             id="path7304" />
          <path
             d="M -161.5,34.5 C -162,37 -181.27817,54.389087 -181.27817,54.389087 L -151.62742,97.591883 L -112,38.5 L -161.5,34.5 z "
             style="fill:url(#linearGradient7320);fill-opacity:1;fill-rule:evenodd;stroke:none;stroke-width:1px;stroke-linecap:butt;stroke-linejoin:miter;stroke-opacity:1"
             id="path7306" />
          <path
             d="M -161.5,34.5 C -162,37 -181.27817,54.389087 -181.27817,54.389087 L -151.62742,97.591883 L -112,38.5 L -161.5,34.5 z "
             style="fill:url(#linearGradient7322);fill-opacity:1;fill-rule:evenodd;stroke:none;stroke-width:1px;stroke-linecap:butt;stroke-linejoin:miter;stroke-opacity:1"
             id="path7308" />
        </g>
        <rect
           width="83.5"
           height="71.75"
           x="-119"
           y="69.75"
           style="opacity:1;fill:url(#linearGradient7324);fill-opacity:1;stroke:none;stroke-width:1;stroke-linecap:round;stroke-linejoin:round;stroke-miterlimit:4;stroke-dasharray:none;stroke-dashoffset:1.08779998;stroke-opacity:1"
           id="rect7310" />
        <path
           d="M -159.5,68.25 L -39.138259,55.983708 L -93.453327,162.55286 L -197.79465,128.96507 L -159.5,68.25 z "
           transform="matrix(0.639376,0.768894,-0.768894,0.639376,37.59764,128.0872)"
           style="fill:url(#linearGradient7326);fill-opacity:1;stroke:none;stroke-width:1;stroke-linecap:round;stroke-linejoin:round;stroke-miterlimit:4;stroke-dashoffset:1.08779998;stroke-opacity:1"
           id="path7312" />
        <path
           d="M -159.5,68.25 L -39.138259,55.983708 L -93.453327,162.55286 L -197.79465,128.96507 L -159.5,68.25 z "
           transform="matrix(0.639376,0.768894,-0.768894,0.639376,37.59764,128.0872)"
           style="fill:url(#linearGradient7328);fill-opacity:1;stroke:none;stroke-width:1;stroke-linecap:round;stroke-linejoin:round;stroke-miterlimit:4;stroke-dashoffset:1.08779998;stroke-opacity:1"
           id="path7314" />
      </g>
    </mask>
    <linearGradient
       x1="67.5625"
       y1="47.734375"
       x2="141.65625"
       y2="61.90625"
       id="linearGradient2946"
       xlink:href="#linearGradient2940"
       gradientUnits="userSpaceOnUse" />
    <linearGradient
       inkscape:collect="always"
       xlink:href="#linearGradient2940"
       id="linearGradient2578"
       gradientUnits="userSpaceOnUse"
       x1="67.5625"
       y1="47.734375"
       x2="141.65625"
       y2="61.90625"
       gradientTransform="matrix(0.8821632,0,0,0.8821632,2.5545482,2.1182707)" />
    <linearGradient
       inkscape:collect="always"
       xlink:href="#XMLID_4_"
       id="linearGradient2621"
       gradientUnits="userSpaceOnUse"
       gradientTransform="matrix(0.8821632,0,0,0.8821632,6.082349,5.6469234)"
       x1="60.001499"
       y1="92"
       x2="60.001499"
       y2="28.0005" />
    <linearGradient
       inkscape:collect="always"
       xlink:href="#XMLID_25_"
       id="linearGradient2624"
       gradientUnits="userSpaceOnUse"
       gradientTransform="matrix(0.8821561,0,0,0.8821632,6.0832312,5.6469234)"
       x1="60.001499"
       y1="94"
       x2="60.001499"
       y2="26.0005" />
    <linearGradient
       inkscape:collect="always"
       xlink:href="#XMLID_24_"
       id="linearGradient2627"
       gradientUnits="userSpaceOnUse"
       gradientTransform="matrix(0.8821561,0,0,0.8821632,6.0832312,5.6469234)"
       x1="60.0005"
       y1="12.8452"
       x2="60.0005"
       y2="120.2141" />
    <linearGradient
       inkscape:collect="always"
       xlink:href="#XMLID_24_"
       id="linearGradient2566"
       gradientUnits="userSpaceOnUse"
       gradientTransform="matrix(0.8821561,0,0,0.8821632,6.0832312,5.6469234)"
       x1="60.0005"
       y1="12.8452"
       x2="60.0005"
       y2="120.2141" />
    <linearGradient
       inkscape:collect="always"
       xlink:href="#XMLID_25_"
       id="linearGradient2568"
       gradientUnits="userSpaceOnUse"
       gradientTransform="matrix(0.8821561,0,0,0.8821632,6.0832312,5.6469234)"
       x1="60.001499"
       y1="94"
       x2="60.001499"
       y2="26.0005" />
    <linearGradient
       inkscape:collect="always"
       xlink:href="#XMLID_4_"
       id="linearGradient2570"
       gradientUnits="userSpaceOnUse"
       gradientTransform="matrix(0.8821632,0,0,0.8821632,6.082349,5.6469234)"
       x1="60.001499"
       y1="92"
       x2="60.001499"
       y2="28.0005" />
    <linearGradient
       inkscape:collect="always"
       xlink:href="#linearGradient2940"
       id="linearGradient2572"
       gradientUnits="userSpaceOnUse"
       gradientTransform="matrix(0.8821632,0,0,0.8821632,2.5545482,2.1182707)"
       x1="67.5625"
       y1="47.734375"
       x2="141.65625"
       y2="61.90625" />
  </defs>
  <g
     id="g2547"
     transform="matrix(0.6651901,-0.6651901,0.6651901,0.6651901,-14.806336,63.703421)"
     inkscape:export-xdpi="28"
     inkscape:export-ydpi="28">
    <path
       style="stroke:#000000;stroke-width:10.98422813;stroke-linejoin:round;stroke-miterlimit:4;stroke-dasharray:none;stroke-opacity:1"
       id="path6"
       d="M 111.94283,64.75363 L 111.94283,54.165907 L 100.9697,53.799809 C 100.48275,50.159121 99.538846,46.663991 98.188262,43.376169 L 107.49941,37.578592 L 102.20648,28.409388 L 92.519522,33.579747 C 90.311489,30.725067 87.748826,28.161501 84.893287,25.953446 L 90.063601,16.266412 L 80.895355,10.974316 L 75.097825,20.285548 C 71.809147,18.934074 68.314927,17.989278 64.673386,17.502323 L 64.306408,6.5290954 L 53.720535,6.5290954 L 53.354441,17.502323 C 49.712901,17.989278 46.217797,18.934074 42.930002,20.284665 L 37.132472,10.974316 L 27.964223,16.267295 L 33.13454,25.954328 C 30.279883,28.162383 27.716337,30.725949 25.507418,33.581512 L 15.820462,28.411153 L 10.527525,37.578592 L 19.839566,43.377051 C 18.488102,46.664874 17.543312,50.160004 17.057244,53.801574 L 6.0841045,54.165907 L 6.0832223,64.751865 L 17.057244,65.117963 C 17.544195,68.759533 18.488985,72.254663 19.839566,75.542486 L 10.528407,81.340944 L 15.820462,90.509266 L 25.509182,85.338025 C 27.717219,88.192705 30.280765,90.757153 33.136304,92.965209 L 27.965105,102.65312 L 37.132472,107.9461 L 42.930884,98.633107 C 46.21868,99.983701 49.713783,100.92938 53.355323,101.41545 L 53.720535,112.38867 L 64.306408,112.38867 L 64.672504,101.41545 C 68.314044,100.9285 71.809147,99.984579 75.09606,98.633107 L 80.893591,107.94522 L 90.061837,102.65225 L 84.891522,92.963443 C 87.745297,90.755389 90.309724,88.191823 92.517764,85.337144 L 102.20471,90.507502 L 107.49853,81.339179 L 98.186496,75.541603 C 99.53708,72.253781 100.48275,68.759533 100.96881,65.117963 L 111.94283,64.75363 z M 59.013471,85.923782 C 44.420846,85.923782 32.548788,74.051629 32.548788,59.458886 C 32.548788,44.866142 44.420846,32.993991 59.013471,32.993991 C 73.606099,32.993991 85.478156,44.866142 85.478156,59.458886 C 85.478156,74.051629 73.606099,85.923782 59.013471,85.923782 z" />
    <path
       id="path13"
       style="fill:#008000"
       d="M 111.94283,63.871466 L 111.94283,53.283744 L 100.9697,52.917646 C 100.48275,49.276959 99.538846,45.781828 98.188262,42.494006 L 107.49941,36.69643 L 102.20648,27.527226 L 92.519522,32.697584 C 90.311489,29.842904 87.748826,27.279337 84.893287,25.071283 L 90.063603,15.384249 L 80.895355,10.092152 L 75.097825,19.403384 C 71.809147,18.051911 68.314927,17.107114 64.673386,16.620159 L 64.306408,5.6469323 L 53.720535,5.6469323 L 53.354441,16.620159 C 49.712901,17.107114 46.217797,18.051911 42.930002,19.402503 L 37.132472,10.092152 L 27.964223,15.385131 L 33.13454,25.072166 C 30.279883,27.28022 27.716337,29.843786 25.507418,32.699348 L 15.820462,27.52899 L 10.527525,36.69643 L 19.839566,42.494888 C 18.488102,45.78271 17.543312,49.277841 17.057244,52.91941 L 6.0841045,53.283744 L 6.0832223,63.869702 L 17.057244,64.2358 C 17.544195,67.877369 18.488985,71.3725 19.839566,74.660322 L 10.528407,80.458781 L 15.820462,89.627102 L 25.509182,84.455862 C 27.717219,87.310542 30.280765,89.874991 33.136304,92.083048 L 27.965105,101.77096 L 37.132472,107.06394 L 42.930884,97.750946 C 46.21868,99.101539 49.713783,100.04722 53.355323,100.53329 L 53.720535,111.50651 L 64.306408,111.50651 L 64.672504,100.53329 C 68.314044,100.04633 71.809147,99.102418 75.09606,97.750946 L 80.893591,107.06305 L 90.061839,101.77007 L 84.891522,92.081281 C 87.745297,89.873226 90.309724,87.30966 92.517764,84.45498 L 102.20471,89.625338 L 107.49853,80.457017 L 98.186496,74.65944 C 99.53708,71.371618 100.48275,67.877369 100.96881,64.2358 L 111.94283,63.871466 z M 59.013471,85.041618 C 44.420846,85.041618 32.548788,73.169467 32.548788,58.576723 C 32.548788,43.98398 44.420846,32.111827 59.013471,32.111827 C 73.606099,32.111827 85.478156,43.98398 85.478156,58.576723 C 85.478156,73.169467 73.606099,85.041618 59.013471,85.041618 z" />
    <path
       id="path20"
       style="fill:url(#linearGradient2566)"
       d="M 54.573581,6.5290954 C 54.525062,7.9802539 54.236597,16.650154 54.236597,16.650154 C 54.222483,17.080649 53.898731,17.437925 53.471767,17.495266 C 49.952847,17.965459 46.519495,18.882026 43.266103,20.219386 C 42.867369,20.383468 42.408647,20.235265 42.181934,19.870049 C 42.181934,19.870049 37.60266,12.514573 36.835185,11.283072 C 35.69544,11.941167 30.285176,15.064906 29.14543,15.723 C 29.829101,17.003901 33.914366,24.657549 33.914366,24.657549 C 33.984938,24.788991 34.01846,24.931902 34.01846,25.072166 C 34.01846,25.337697 33.898487,25.598816 33.676184,25.770839 C 30.882395,27.932138 28.369133,30.445421 26.20785,33.239232 C 25.944968,33.579747 25.473896,33.680314 25.09457,33.478298 C 25.09457,33.478298 17.440101,29.393 16.160092,28.709324 C 15.502003,29.849079 12.378288,35.259385 11.720199,36.399141 C 12.95169,37.166623 20.307108,41.745932 20.307108,41.745932 C 20.572637,41.911778 20.723486,42.198482 20.723486,42.49577 C 20.723486,42.607805 20.702314,42.721604 20.657323,42.830992 C 19.319093,46.085292 18.402533,49.519554 17.933226,53.036738 C 17.876768,53.463705 17.518613,53.787459 17.088119,53.801574 C 17.088119,53.801574 8.4182895,54.090923 6.9671428,54.13856 C 6.9671428,55.01543 6.9671428,56.157832 6.9671428,56.935899 C 14.80069,58.514089 23.13883,59.725299 31.78043,60.548357 C 31.727501,59.645023 31.666632,58.576723 31.666632,58.576723 C 31.666632,43.497908 43.934778,31.229664 59.013471,31.229664 C 74.09305,31.229664 86.360312,43.497908 86.360312,58.576723 C 86.360312,58.576723 86.298562,59.655609 86.246514,60.562472 C 94.881936,59.746471 103.21919,58.540554 111.06068,56.96854 C 111.06068,56.186061 111.06068,55.020723 111.06068,54.137677 C 109.60953,54.089159 100.9397,53.800691 100.9397,53.800691 C 100.50921,53.786577 100.15105,53.462823 100.09459,53.035856 C 99.624413,49.517789 98.707844,46.08441 97.371384,42.830992 C 97.326394,42.721604 97.305222,42.608687 97.305222,42.496652 C 97.305222,42.199363 97.456072,41.91266 97.721597,41.746814 C 97.721597,41.746814 105.07613,37.167505 106.30763,36.400022 C 105.64954,35.260268 102.52582,29.849079 101.86773,28.709324 C 100.58773,29.392119 92.933261,33.478298 92.933261,33.478298 C 92.55393,33.680314 92.083741,33.579747 91.819982,33.239232 C 89.658694,30.444539 87.145431,27.931256 84.352524,25.770839 C 84.129339,25.598816 84.009366,25.338578 84.009366,25.072166 C 84.009366,24.931019 84.042887,24.788991 84.113461,24.657549 C 84.113461,24.657549 88.198726,17.003901 88.881514,15.723 C 87.741769,15.064906 82.331505,11.940284 81.191759,11.282191 C 80.424283,12.51369 75.84413,19.869167 75.84413,19.869167 C 75.616533,20.234382 75.158694,20.382586 74.759959,20.218504 C 71.505685,18.881144 68.071451,17.964577 64.553413,17.494383 C 64.127332,17.437043 63.802698,17.079767 63.789465,16.649271 C 63.789465,16.649271 63.500118,7.9793717 63.451599,6.5282133 C 62.137187,6.5290954 55.889758,6.5290954 54.573581,6.5290954 z" />
    <path
       id="path27"
       style="fill:url(#linearGradient2568)"
       d="M 59.013471,28.583174 C 42.449226,28.583174 29.020163,42.012345 29.020163,58.576723 C 29.020163,75.141983 42.449226,88.570271 59.013471,88.570271 C 75.5786,88.570271 89.006781,75.141983 89.006781,58.576723 C 89.006781,42.012345 75.5786,28.583174 59.013471,28.583174 z M 59.013471,80.630803 C 46.85295,80.630803 36.959569,70.737343 36.959569,58.576723 C 36.959569,46.416104 46.85295,36.522644 59.013471,36.522644 C 71.173995,36.522644 81.067375,46.416104 81.067375,58.576723 C 81.067375,70.737343 71.173995,80.630803 59.013471,80.630803 z" />
    <path
       id="path44"
       style="fill:url(#linearGradient2570);fill-opacity:1"
       d="M 59.013031,30.347501 C 43.447254,30.347501 30.783796,43.010954 30.783796,58.576723 C 30.783796,74.142493 43.447254,86.805944 59.013031,86.805944 C 74.5788,86.805944 87.242256,74.142493 87.242256,58.576723 C 87.242256,43.010954 74.5788,30.347501 59.013031,30.347501 z M 59.013031,80.630803 C 46.852404,80.630803 36.958943,70.737343 36.958943,58.576723 C 36.958943,46.416104 46.852404,36.522644 59.013031,36.522644 C 71.173651,36.522644 81.067111,46.416104 81.067111,58.576723 C 81.067111,70.737343 71.173651,80.630803 59.013031,80.630803 z" />
    <path
       id="path51"
       style="fill:#000000;fill-opacity:1;stroke:#000000;stroke-width:4.57676172;stroke-miterlimit:4;stroke-dasharray:none;stroke-opacity:1"
       d="M 59.013471,35.64048 C 46.366882,35.64048 36.077413,45.930032 36.077413,58.576723 C 36.077413,71.224296 46.366882,81.512965 59.013471,81.512965 C 71.660945,81.512965 81.949531,71.224296 81.949531,58.576723 C 81.949531,45.930032 71.660945,35.64048 59.013471,35.64048 z M 59.013471,79.748639 C 47.3399,79.748639 37.841725,70.250388 37.841725,58.576723 C 37.841725,46.903058 47.3399,37.404806 59.013471,37.404806 C 70.687044,37.404806 80.185219,46.903058 80.185219,58.576723 C 80.185219,70.250388 70.687044,79.748639 59.013471,79.748639 z" />
    <path
       id="path53"
       style="fill:#ffffff"
       d="M 19.573154,74.827051 L 10.528407,80.458781 L 10.903324,81.10717 L 19.840447,75.542486 C 19.74341,75.30783 19.664898,75.063471 19.573154,74.827051 z" />
    <path
       id="path55"
       style="fill:#ffffff"
       d="M 37.132472,10.974316 L 42.930002,20.285548 C 46.217797,18.934074 49.712901,17.989278 53.354441,17.503205 L 53.720535,6.5290954 L 64.306408,6.5290954 L 64.672504,17.502323 C 68.314044,17.989278 71.809147,18.934074 75.096942,20.285548 L 80.894472,10.974316 L 89.701919,16.060868 L 90.061839,15.386014 L 80.895355,10.092152 L 75.097825,19.403384 C 71.809147,18.051911 68.314927,17.107114 64.673386,16.620159 L 64.306408,5.6469323 L 53.720535,5.6469323 L 53.354441,16.620159 C 49.712901,17.107114 46.217797,18.051911 42.930002,19.402503 L 37.132472,10.092152 L 27.964223,15.385131 L 28.324143,16.059986 L 37.132472,10.974316 z" />
    <path
       id="path57"
       style="fill:#ffffff"
       d="M 85.218802,25.342989 L 84.892405,25.955211 C 87.747062,28.163265 90.310607,30.726832 92.518643,33.581512 L 102.2056,28.411153 L 107.12362,36.931085 L 107.49853,36.697311 L 102.2056,27.528107 L 92.518643,32.698466 C 90.396176,29.956703 87.940253,27.491057 85.218802,25.342989 z" />
    <path
       id="path59"
       style="fill:#ffffff"
       d="M 32.809024,92.694384 L 27.965105,101.77007 L 28.325026,101.97738 L 33.136304,92.963443 C 33.02427,92.877875 32.920177,92.780839 32.809024,92.694384 z" />
    <path
       id="path61"
       style="opacity:0.5;fill:#ffffff"
       d="M 97.811576,59.797637 C 97.464008,80.901626 80.198451,97.966191 59.013471,97.966191 C 37.82761,97.966191 20.562933,80.901626 20.215364,59.797637 C 20.211835,60.012885 20.198603,60.22725 20.198603,60.44338 C 20.198603,81.846424 37.6106,99.258558 59.013471,99.258558 C 80.416344,99.258558 97.828337,81.846424 97.828337,60.44338 C 97.828337,60.22725 97.815101,60.012885 97.811576,59.797637 z" />
    <path
       id="path63"
       style="fill:#ffffff"
       d="M 100.9697,52.918528 C 100.51716,49.537197 99.656167,46.289954 98.455554,43.210322 L 98.187374,43.377051 C 99.537958,46.664874 100.48275,50.159121 100.96881,53.800691 L 111.94283,54.165907 L 111.94283,53.283744 L 100.9697,52.918528 z" />
    <path
       id="path65"
       style="fill:#ffffff"
       d="M 98.186496,75.542486 L 107.12362,81.10717 L 107.49853,80.458781 L 98.454676,74.827051 C 98.361163,75.063471 98.283532,75.30783 98.186496,75.542486 z" />
    <path
       id="path67"
       style="fill:#ffffff"
       d="M 15.821344,28.410271 L 25.508301,33.580629 C 27.716337,30.725949 30.279883,28.162383 33.135423,25.953446 L 32.808142,25.341225 C 30.087573,27.489293 27.629886,29.954939 25.508301,32.697584 L 15.821344,27.527226 L 10.528407,36.694665 L 10.903324,36.928439 L 15.821344,28.410271 z" />
    <path
       id="path69"
       style="fill:#ffffff"
       d="M 84.891522,92.963443 L 89.701919,101.9765 L 90.061839,101.7692 L 85.21792,92.694384 C 85.107651,92.780839 85.003556,92.877875 84.891522,92.963443 z" />
    <path
       id="path71"
       style="fill:#ffffff"
       d="M 6.0841045,54.165907 L 17.057244,53.799809 C 17.543312,50.15824 18.488985,46.663109 19.839566,43.375287 L 19.572272,43.208558 C 18.371657,46.28819 17.508909,49.536315 17.057244,52.917646 L 6.0841045,53.283744 L 6.0832223,63.869702 L 6.0832223,63.869702 L 6.0841045,54.165907 z" />
    <path
       d="M 67.751921,31.725873 L 62.59678,37.708042 C 71.975716,39.310358 79.261464,47.115541 80.102206,56.729685 L 101.49466,54.965358 C 99.948997,44.243795 77.812442,35.009394 67.751921,31.725873 z"
       style="opacity:0.6;fill:url(#linearGradient2572);fill-opacity:1;fill-rule:evenodd;stroke:none;stroke-width:1px;stroke-linecap:butt;stroke-linejoin:miter;stroke-opacity:1"
       id="path2349" />
  </g>
</svg>
