<?xml version="1.0" encoding="UTF-8" standalone="no"?>
<!-- Created with Inkscape (http://www.inkscape.org/) -->
<svg
   xmlns:dc="http://purl.org/dc/elements/1.1/"
   xmlns:cc="http://creativecommons.org/ns#"
   xmlns:rdf="http://www.w3.org/1999/02/22-rdf-syntax-ns#"
   xmlns:svg="http://www.w3.org/2000/svg"
   xmlns="http://www.w3.org/2000/svg"
   xmlns:xlink="http://www.w3.org/1999/xlink"
   xmlns:sodipodi="http://sodipodi.sourceforge.net/DTD/sodipodi-0.dtd"
   xmlns:inkscape="http://www.inkscape.org/namespaces/inkscape"
   version="1.0"
   width="339.99985"
   height="340.00031"
   id="svg2830"
   sodipodi:version="0.32"
   inkscape:version="0.46"
   sodipodi:docname="do.svg"
   inkscape:output_extension="org.inkscape.output.svg.inkscape"
   inkscape:export-filename="D:\web\xampp\htdocs\limesurvey\images\do.png"
   inkscape:export-xdpi="9"
   inkscape:export-ydpi="9">
  <metadata
     id="metadata187">
    <rdf:RDF>
      <cc:Work
         rdf:about="">
        <dc:format>image/svg+xml</dc:format>
        <dc:type
           rdf:resource="http://purl.org/dc/dcmitype/StillImage" />
      </cc:Work>
    </rdf:RDF>
  </metadata>
  <sodipodi:namedview
     inkscape:window-height="968"
     inkscape:window-width="1280"
     inkscape:pageshadow="2"
     inkscape:pageopacity="0.0"
     guidetolerance="10.0"
     gridtolerance="10.0"
     objecttolerance="10.0"
     borderopacity="1.0"
     bordercolor="#666666"
     pagecolor="#ffffff"
     id="base"
     showgrid="false"
     inkscape:zoom="1"
     inkscape:cx="200"
     inkscape:cy="187.09538"
     inkscape:window-x="0"
     inkscape:window-y="22"
     inkscape:current-layer="svg2830"
     showguides="true"
     inkscape:guide-bbox="true">
    <sodipodi:guide
       orientation="1,0"
       position="40,422"
       id="guide2552" />
    <sodipodi:guide
       orientation="0,1"
       position="-91,380"
       id="guide2554" />
    <sodipodi:guide
       orientation="0,1"
       position="-88,20"
       id="guide2556" />
    <sodipodi:guide
       orientation="1,0"
       position="380,224"
       id="guide2558" />
    <sodipodi:guide
       orientation="0,1"
       position="-18,360"
       id="guide2560" />
  </sodipodi:namedview>
  <defs
     id="defs2832">
    <inkscape:perspective
       sodipodi:type="inkscape:persp3d"
       inkscape:vp_x="0 : 64 : 1"
       inkscape:vp_y="0 : 1000 : 0"
       inkscape:vp_z="128 : 64 : 1"
       inkscape:persp3d-origin="64 : 42.666667 : 1"
       id="perspective189" />
    <linearGradient
       id="linearGradient2940">
      <stop
         style="stop-color:black;stop-opacity:1"
         offset="0"
         id="stop2942" />
      <stop
         style="stop-color:black;stop-opacity:0"
         offset="1"
         id="stop2944" />
    </linearGradient>
    <linearGradient
       x1="-61.802711"
       y1="99.979607"
       x2="-136.51074"
       y2="112.70422"
       id="linearGradient7115"
       xlink:href="#linearGradient3342"
       gradientUnits="userSpaceOnUse"
       gradientTransform="translate(-40.5,-1.5)" />
    <linearGradient
       x1="-83.593941"
       y1="137.13324"
       x2="-138.0043"
       y2="92.603989"
       id="linearGradient7113"
       xlink:href="#linearGradient3342"
       gradientUnits="userSpaceOnUse"
       gradientTransform="translate(-40.5,-1.5)" />
    <filter
       id="filter3363"
       height="1.2042203"
       y="-0.10211017"
       width="1.1754827"
       x="-0.087741368">
      <feGaussianBlur
         id="feGaussianBlur3365"
         stdDeviation="3.0526685"
         inkscape:collect="always" />
    </filter>
    <linearGradient
       id="linearGradient3342">
      <stop
         style="stop-color:black;stop-opacity:1"
         offset="0"
         id="stop3344" />
      <stop
         style="stop-color:black;stop-opacity:0"
         offset="1"
         id="stop3347" />
    </linearGradient>
    <linearGradient
       x1="-73"
       y1="105.625"
       x2="-163"
       y2="86.125"
       id="linearGradient7111"
       xlink:href="#linearGradient3342"
       gradientUnits="userSpaceOnUse" />
    <linearGradient
       x1="-83.012932"
       y1="44.753052"
       x2="-158.92462"
       y2="72.881729"
       id="linearGradient7109"
       xlink:href="#linearGradient3326"
       gradientUnits="userSpaceOnUse" />
    <linearGradient
       x1="-132.51041"
       y1="39.803303"
       x2="-158.92462"
       y2="72.881729"
       id="linearGradient7107"
       xlink:href="#linearGradient3326"
       gradientUnits="userSpaceOnUse" />
    <filter
       id="filter3438">
      <feGaussianBlur
         id="feGaussianBlur3440"
         stdDeviation="1.3342697"
         inkscape:collect="always" />
    </filter>
    <linearGradient
       id="linearGradient3326">
      <stop
         style="stop-color:black;stop-opacity:1"
         offset="0"
         id="stop3328" />
      <stop
         style="stop-color:black;stop-opacity:0"
         offset="1"
         id="stop3330" />
    </linearGradient>
    <linearGradient
       x1="-151.43935"
       y1="37.68198"
       x2="-152.26776"
       y2="57.25"
       id="linearGradient7105"
       xlink:href="#linearGradient3326"
       gradientUnits="userSpaceOnUse" />
    <linearGradient
       id="linearGradient3825">
      <stop
         style="stop-color:white;stop-opacity:0"
         offset="0"
         id="stop3827" />
      <stop
         style="stop-color:white;stop-opacity:0.18705036"
         offset="0.5"
         id="stop3833" />
      <stop
         style="stop-color:white;stop-opacity:1"
         offset="1"
         id="stop3829" />
    </linearGradient>
    <radialGradient
       cx="-112.17241"
       cy="118.60459"
       r="59.995121"
       fx="-113.14772"
       fy="59.708473"
       id="radialGradient7103"
       xlink:href="#linearGradient3825"
       gradientUnits="userSpaceOnUse"
       gradientTransform="matrix(0.648428,0.101721,-3.125715e-2,0.199252,-4.56257,53.15916)" />
    <linearGradient
       x1="206.47243"
       y1="77.373238"
       x2="206.47243"
       y2="15.343517"
       id="linearGradient3462"
       xlink:href="#linearGradient3295"
       gradientUnits="userSpaceOnUse"
       gradientTransform="translate(-819.0889,-206.9062)" />
    <filter
       id="filter3639">
      <feGaussianBlur
         id="feGaussianBlur3641"
         stdDeviation="1.0580524"
         inkscape:collect="always" />
    </filter>
    <linearGradient
       id="linearGradient3295">
      <stop
         style="stop-color:#baff63;stop-opacity:1"
         offset="0"
         id="stop3297" />
      <stop
         style="stop-color:white;stop-opacity:0"
         offset="1"
         id="stop3299" />
    </linearGradient>
    <linearGradient
       x1="208.59375"
       y1="130.40625"
       x2="208.59375"
       y2="63.426777"
       id="linearGradient3613"
       xlink:href="#linearGradient3295"
       gradientUnits="userSpaceOnUse"
       gradientTransform="translate(-819.0889,-206.9062)" />
    <linearGradient
       x1="75.09375"
       y1="4.5317035"
       x2="75.09375"
       y2="80.172485"
       id="linearGradient3581"
       xlink:href="#linearGradient3260"
       gradientUnits="userSpaceOnUse"
       gradientTransform="translate(-682.0846,-206.9043)" />
    <linearGradient
       id="linearGradient3202">
      <stop
         style="stop-color:#cbff9c;stop-opacity:1"
         offset="0"
         id="stop3204" />
      <stop
         style="stop-color:#65c171;stop-opacity:0"
         offset="1"
         id="stop3206" />
    </linearGradient>
    <linearGradient
       x1="75.09375"
       y1="4.5317035"
       x2="75.09375"
       y2="73.898682"
       id="linearGradient3548"
       xlink:href="#linearGradient3202"
       gradientUnits="userSpaceOnUse"
       gradientTransform="translate(-682.0889,-206.9062)" />
    <linearGradient
       id="linearGradient3528">
      <stop
         style="stop-color:#62c734;stop-opacity:1"
         offset="0"
         id="stop3530" />
      <stop
         style="stop-color:#62c734;stop-opacity:0"
         offset="1"
         id="stop3532" />
    </linearGradient>
    <radialGradient
       cx="99.726295"
       cy="27.418272"
       r="56"
       fx="64.689766"
       fy="68.231934"
       id="radialGradient3535"
       xlink:href="#linearGradient3528"
       gradientUnits="userSpaceOnUse"
       gradientTransform="matrix(0.693735,5.867125e-2,-3.62428e-2,0.428539,-648.1495,-180.0253)" />
    <radialGradient
       cx="67.09375"
       cy="116.90625"
       r="56"
       fx="67.09375"
       fy="116.90625"
       id="radialGradient3524"
       xlink:href="#XMLID_4_"
       gradientUnits="userSpaceOnUse"
       gradientTransform="translate(-682.0889,-206.9062)" />
    <linearGradient
       id="linearGradient3344">
      <stop
         style="stop-color:#baff63;stop-opacity:1"
         offset="0"
         id="stop3346" />
      <stop
         style="stop-color:white;stop-opacity:0"
         offset="1"
         id="stop3348" />
    </linearGradient>
    <linearGradient
       x1="120.0625"
       y1="12.569496"
       x2="125.30366"
       y2="14.444496"
       id="linearGradient3771"
       xlink:href="#linearGradient3344"
       gradientUnits="userSpaceOnUse"
       spreadMethod="reflect" />
    <filter
       id="filter3738"
       height="1.2746474"
       y="-0.13732363"
       width="1.301924"
       x="-0.15096202">
      <feGaussianBlur
         id="feGaussianBlur3740"
         stdDeviation="0.39257441"
         inkscape:collect="always" />
    </filter>
    <linearGradient
       x1="120.0625"
       y1="12.569496"
       x2="125.30366"
       y2="14.444496"
       id="linearGradient3676"
       xlink:href="#linearGradient3260"
       gradientUnits="userSpaceOnUse"
       gradientTransform="translate(-682.0889,-206.9062)"
       spreadMethod="reflect" />
    <filter
       id="filter3630">
      <feGaussianBlur
         id="feGaussianBlur3632"
         stdDeviation="0.89883985"
         inkscape:collect="always" />
    </filter>
    <linearGradient
       id="linearGradient3260">
      <stop
         style="stop-color:white;stop-opacity:1"
         offset="0"
         id="stop3262" />
      <stop
         style="stop-color:white;stop-opacity:0"
         offset="1"
         id="stop3264" />
    </linearGradient>
    <radialGradient
       cx="64.088867"
       cy="7.4108429"
       r="59.995121"
       fx="64.088867"
       fy="7.4108429"
       id="radialGradient3767"
       xlink:href="#linearGradient3260"
       gradientUnits="userSpaceOnUse"
       gradientTransform="matrix(0.309387,0,0,0.477925,-637.8283,-203.0418)" />
    <radialGradient
       cx="72.684891"
       cy="48.228905"
       r="59.995121"
       fx="74.871155"
       fy="26.862719"
       id="radialGradient3744"
       xlink:href="#linearGradient3449"
       gradientUnits="userSpaceOnUse"
       gradientTransform="matrix(0.982366,1.671718e-2,-3.580115e-3,0.210384,-700.6523,-176.4285)" />
    <radialGradient
       cx="-10.165252"
       cy="66.906013"
       r="59.995121"
       fx="-10.165252"
       fy="66.906013"
       id="radialGradient3654"
       xlink:href="#linearGradient3449"
       gradientUnits="userSpaceOnUse"
       gradientTransform="matrix(0.458289,-2.103559e-8,4.590397e-8,1.000081,-661.6409,-206.9114)" />
    <linearGradient
       id="linearGradient3449">
      <stop
         style="stop-color:black;stop-opacity:0.67266184"
         offset="0"
         id="stop3451" />
      <stop
         style="stop-color:black;stop-opacity:0"
         offset="1"
         id="stop3453" />
    </linearGradient>
    <radialGradient
       cx="167.67001"
       cy="80.404922"
       r="59.995121"
       fx="167.67001"
       fy="80.404922"
       id="radialGradient3658"
       xlink:href="#linearGradient3449"
       gradientUnits="userSpaceOnUse"
       gradientTransform="matrix(0.26767,0.521376,-0.703747,0.361298,-573.095,-242.9692)" />
    <linearGradient
       id="linearGradient3751">
      <stop
         style="stop-color:#53be2c;stop-opacity:1"
         offset="0"
         id="stop3753" />
      <stop
         style="stop-color:#53be2c;stop-opacity:0"
         offset="1"
         id="stop3755" />
    </linearGradient>
    <radialGradient
       cx="66.01458"
       cy="126.69183"
       r="59.995121"
       fx="66.01458"
       fy="126.69183"
       id="radialGradient3757"
       xlink:href="#linearGradient3751"
       gradientUnits="userSpaceOnUse"
       gradientTransform="matrix(0.675025,0,0,0.358362,-662.5615,-165.9016)" />
    <radialGradient
       cx="48"
       cy="-0.2148"
       r="55.147999"
       id="XMLID_4_"
       gradientUnits="userSpaceOnUse"
       gradientTransform="matrix(0.9792,0,0,0.9725,133.0002,20.8762)">
      <stop
         style="stop-color:#547243;stop-opacity:1;"
         offset="0"
         id="stop3082" />
      <stop
         style="stop-color:#008700;stop-opacity:1;"
         offset="1"
         id="stop3090" />
    </radialGradient>
    <linearGradient
       x1="147.09375"
       y1="33.40625"
       x2="8.083992"
       y2="123.90625"
       id="linearGradient3516"
       xlink:href="#XMLID_4_"
       gradientUnits="userSpaceOnUse"
       gradientTransform="translate(-682.0889,-206.9062)" />
    <linearGradient
       x1="60.001499"
       y1="86"
       x2="60.001499"
       y2="34.0005"
       id="XMLID_27_"
       gradientUnits="userSpaceOnUse"
       gradientTransform="translate(145.7138,-238.2143)">
      <stop
         style="stop-color:#bbb;stop-opacity:1"
         offset="0"
         id="stop47" />
      <stop
         style="stop-color:#555;stop-opacity:1"
         offset="1"
         id="stop49" />
    </linearGradient>
    <linearGradient
       x1="60.001499"
       y1="92"
       x2="60.001499"
       y2="28.0005"
       id="XMLID_26_"
       gradientUnits="userSpaceOnUse"
       gradientTransform="translate(145.7138,-238.2143)">
      <stop
         style="stop-color:#e9e9f0;stop-opacity:1"
         offset="0.1953"
         id="stop30" />
      <stop
         style="stop-color:#dadae2;stop-opacity:1"
         offset="0.2597"
         id="stop32" />
      <stop
         style="stop-color:#b1b1bb;stop-opacity:1"
         offset="0.461"
         id="stop34" />
      <stop
         style="stop-color:#93939f;stop-opacity:1"
         offset="0.6437"
         id="stop36" />
      <stop
         style="stop-color:#81818e;stop-opacity:1"
         offset="0.7999"
         id="stop38" />
      <stop
         style="stop-color:#7a7a88;stop-opacity:1"
         offset="0.91119999"
         id="stop40" />
      <stop
         style="stop-color:#696975;stop-opacity:1"
         offset="1"
         id="stop42" />
    </linearGradient>
    <linearGradient
       x1="60.001499"
       y1="94"
       x2="60.001499"
       y2="26.0005"
       id="XMLID_25_"
       gradientUnits="userSpaceOnUse"
       gradientTransform="translate(145.7138,-238.2143)">
      <stop
         style="stop-color:#ffffff;stop-opacity:1;"
         offset="0.29589999"
         id="stop23" />
      <stop
         style="stop-color:#4a4a55;stop-opacity:1"
         offset="1"
         id="stop25" />
    </linearGradient>
    <linearGradient
       x1="60.0005"
       y1="12.8452"
       x2="60.0005"
       y2="120.2141"
       id="XMLID_24_"
       gradientUnits="userSpaceOnUse"
       gradientTransform="translate(145.7138,-238.2143)">
      <stop
         style="stop-color:white;stop-opacity:1"
         offset="0"
         id="stop16" />
      <stop
         style="stop-color:white;stop-opacity:0"
         offset="1"
         id="stop18" />
    </linearGradient>
    <radialGradient
       cx="59.5107"
       cy="124"
       r="125.1714"
       id="XMLID_23_"
       gradientUnits="userSpaceOnUse"
       gradientTransform="translate(145.7138,-238.2143)">
      <stop
         style="stop-color:#f0f0f0;stop-opacity:1"
         offset="0.17749999"
         id="stop9" />
      <stop
         style="stop-color:#a5a5bb;stop-opacity:1"
         offset="0.53250003"
         id="stop11" />
    </radialGradient>
    <filter
       id="filter2826">
      <feGaussianBlur
         id="feGaussianBlur2828"
         stdDeviation="2.40001"
         inkscape:collect="always" />
    </filter>
    <radialGradient
       cx="59.5107"
       cy="124"
       r="125.1714"
       id="radialGradient2894"
       xlink:href="#XMLID_23_"
       gradientUnits="userSpaceOnUse"
       gradientTransform="translate(145.7138,-238.2143)" />
    <linearGradient
       x1="60.0005"
       y1="12.8452"
       x2="60.0005"
       y2="120.2141"
       id="linearGradient2896"
       xlink:href="#XMLID_24_"
       gradientUnits="userSpaceOnUse"
       gradientTransform="translate(145.7138,-238.2143)" />
    <linearGradient
       x1="60.001499"
       y1="94"
       x2="60.001499"
       y2="26.0005"
       id="linearGradient2898"
       xlink:href="#XMLID_25_"
       gradientUnits="userSpaceOnUse"
       gradientTransform="translate(145.7138,-238.2143)" />
    <linearGradient
       x1="60.001499"
       y1="92"
       x2="60.001499"
       y2="28.0005"
       id="linearGradient2900"
       xlink:href="#XMLID_26_"
       gradientUnits="userSpaceOnUse"
       gradientTransform="matrix(1.000008,0,0,1,145.7128,-238.2143)" />
    <linearGradient
       x1="60.001499"
       y1="86"
       x2="60.001499"
       y2="34.0005"
       id="linearGradient2902"
       xlink:href="#XMLID_27_"
       gradientUnits="userSpaceOnUse"
       gradientTransform="translate(145.7138,-238.2143)" />
    <linearGradient
       x1="147.09375"
       y1="33.40625"
       x2="8.083992"
       y2="123.90625"
       id="linearGradient7176"
       xlink:href="#XMLID_4_"
       gradientUnits="userSpaceOnUse"
       gradientTransform="translate(-682.0889,-206.9062)" />
    <radialGradient
       cx="66.01458"
       cy="126.69183"
       r="59.995121"
       fx="66.01458"
       fy="126.69183"
       id="radialGradient7178"
       xlink:href="#linearGradient3751"
       gradientUnits="userSpaceOnUse"
       gradientTransform="matrix(0.675025,0,0,0.358362,-662.5615,-165.9016)" />
    <radialGradient
       cx="167.67001"
       cy="80.404922"
       r="59.995121"
       fx="167.67001"
       fy="80.404922"
       id="radialGradient7180"
       xlink:href="#linearGradient3449"
       gradientUnits="userSpaceOnUse"
       gradientTransform="matrix(0.26767,0.521376,-0.703747,0.361298,-573.095,-242.9692)" />
    <radialGradient
       cx="-10.165252"
       cy="66.906013"
       r="59.995121"
       fx="-10.165252"
       fy="66.906013"
       id="radialGradient7182"
       xlink:href="#linearGradient3449"
       gradientUnits="userSpaceOnUse"
       gradientTransform="matrix(0.458289,-2.103559e-8,4.590397e-8,1.000081,-661.6409,-206.9114)" />
    <radialGradient
       cx="72.684891"
       cy="48.228905"
       r="59.995121"
       fx="74.871155"
       fy="26.862719"
       id="radialGradient7184"
       xlink:href="#linearGradient3449"
       gradientUnits="userSpaceOnUse"
       gradientTransform="matrix(0.982366,1.671718e-2,-3.580115e-3,0.210384,-700.6523,-176.4285)" />
    <radialGradient
       cx="64.088867"
       cy="7.4108429"
       r="59.995121"
       fx="64.088867"
       fy="7.4108429"
       id="radialGradient7186"
       xlink:href="#linearGradient3260"
       gradientUnits="userSpaceOnUse"
       gradientTransform="matrix(0.309387,0,0,0.477925,-637.8283,-203.0418)" />
    <linearGradient
       x1="120.0625"
       y1="12.569496"
       x2="125.30366"
       y2="14.444496"
       id="linearGradient7188"
       xlink:href="#linearGradient3260"
       gradientUnits="userSpaceOnUse"
       gradientTransform="translate(-682.0889,-206.9062)"
       spreadMethod="reflect" />
    <linearGradient
       x1="120.0625"
       y1="12.569496"
       x2="125.30366"
       y2="14.444496"
       id="linearGradient7190"
       xlink:href="#linearGradient3344"
       gradientUnits="userSpaceOnUse"
       spreadMethod="reflect" />
    <radialGradient
       cx="67.09375"
       cy="116.90625"
       r="56"
       fx="67.09375"
       fy="116.90625"
       id="radialGradient7192"
       xlink:href="#XMLID_4_"
       gradientUnits="userSpaceOnUse"
       gradientTransform="translate(-682.0889,-206.9062)" />
    <radialGradient
       cx="99.726295"
       cy="27.418272"
       r="56"
       fx="64.689766"
       fy="68.231934"
       id="radialGradient7194"
       xlink:href="#linearGradient3528"
       gradientUnits="userSpaceOnUse"
       gradientTransform="matrix(0.693735,5.867125e-2,-3.62428e-2,0.428539,-648.1495,-180.0253)" />
    <linearGradient
       x1="75.09375"
       y1="4.5317035"
       x2="75.09375"
       y2="73.898682"
       id="linearGradient7196"
       xlink:href="#linearGradient3202"
       gradientUnits="userSpaceOnUse"
       gradientTransform="translate(-682.0889,-206.9062)" />
    <linearGradient
       x1="75.09375"
       y1="4.5317035"
       x2="75.09375"
       y2="80.172485"
       id="linearGradient7198"
       xlink:href="#linearGradient3260"
       gradientUnits="userSpaceOnUse"
       gradientTransform="translate(-682.0846,-206.9043)" />
    <linearGradient
       x1="208.59375"
       y1="130.40625"
       x2="208.59375"
       y2="63.426777"
       id="linearGradient7200"
       xlink:href="#linearGradient3295"
       gradientUnits="userSpaceOnUse"
       gradientTransform="translate(-819.0889,-206.9062)" />
    <linearGradient
       x1="206.47243"
       y1="77.373238"
       x2="206.47243"
       y2="15.343517"
       id="linearGradient7202"
       xlink:href="#linearGradient3295"
       gradientUnits="userSpaceOnUse"
       gradientTransform="translate(-819.0889,-206.9062)" />
    <radialGradient
       cx="-112.17241"
       cy="118.60459"
       r="59.995121"
       fx="-113.14772"
       fy="59.708473"
       id="radialGradient7238"
       xlink:href="#linearGradient3825"
       gradientUnits="userSpaceOnUse"
       gradientTransform="matrix(0.648428,0.101721,-3.125715e-2,0.199252,-4.56257,53.15916)" />
    <linearGradient
       x1="-151.43935"
       y1="37.68198"
       x2="-152.26776"
       y2="57.25"
       id="linearGradient7240"
       xlink:href="#linearGradient3326"
       gradientUnits="userSpaceOnUse" />
    <linearGradient
       x1="-132.51041"
       y1="39.803303"
       x2="-158.92462"
       y2="72.881729"
       id="linearGradient7242"
       xlink:href="#linearGradient3326"
       gradientUnits="userSpaceOnUse" />
    <linearGradient
       x1="-83.012932"
       y1="44.753052"
       x2="-158.92462"
       y2="72.881729"
       id="linearGradient7244"
       xlink:href="#linearGradient3326"
       gradientUnits="userSpaceOnUse" />
    <linearGradient
       x1="-73"
       y1="105.625"
       x2="-163"
       y2="86.125"
       id="linearGradient7246"
       xlink:href="#linearGradient3342"
       gradientUnits="userSpaceOnUse" />
    <linearGradient
       x1="-83.593941"
       y1="137.13324"
       x2="-138.0043"
       y2="92.603989"
       id="linearGradient7248"
       xlink:href="#linearGradient3342"
       gradientUnits="userSpaceOnUse"
       gradientTransform="translate(-40.5,-1.5)" />
    <linearGradient
       x1="-61.802711"
       y1="99.979607"
       x2="-136.51074"
       y2="112.70422"
       id="linearGradient7250"
       xlink:href="#linearGradient3342"
       gradientUnits="userSpaceOnUse"
       gradientTransform="translate(-40.5,-1.5)" />
    <linearGradient
       x1="147.09375"
       y1="33.40625"
       x2="8.083992"
       y2="123.90625"
       id="linearGradient7268"
       xlink:href="#XMLID_4_"
       gradientUnits="userSpaceOnUse"
       gradientTransform="translate(-682.0889,-206.9062)" />
    <radialGradient
       cx="66.01458"
       cy="126.69183"
       r="59.995121"
       fx="66.01458"
       fy="126.69183"
       id="radialGradient7270"
       xlink:href="#linearGradient3751"
       gradientUnits="userSpaceOnUse"
       gradientTransform="matrix(0.675025,0,0,0.358362,-662.5615,-165.9016)" />
    <radialGradient
       cx="167.67001"
       cy="80.404922"
       r="59.995121"
       fx="167.67001"
       fy="80.404922"
       id="radialGradient7272"
       xlink:href="#linearGradient3449"
       gradientUnits="userSpaceOnUse"
       gradientTransform="matrix(0.26767,0.521376,-0.703747,0.361298,-573.095,-242.9692)" />
    <radialGradient
       cx="-10.165252"
       cy="66.906013"
       r="59.995121"
       fx="-10.165252"
       fy="66.906013"
       id="radialGradient7274"
       xlink:href="#linearGradient3449"
       gradientUnits="userSpaceOnUse"
       gradientTransform="matrix(0.458289,-2.103559e-8,4.590397e-8,1.000081,-661.6409,-206.9114)" />
    <radialGradient
       cx="72.684891"
       cy="48.228905"
       r="59.995121"
       fx="74.871155"
       fy="26.862719"
       id="radialGradient7276"
       xlink:href="#linearGradient3449"
       gradientUnits="userSpaceOnUse"
       gradientTransform="matrix(0.982366,1.671718e-2,-3.580115e-3,0.210384,-700.6523,-176.4285)" />
    <radialGradient
       cx="64.088867"
       cy="7.4108429"
       r="59.995121"
       fx="64.088867"
       fy="7.4108429"
       id="radialGradient7278"
       xlink:href="#linearGradient3260"
       gradientUnits="userSpaceOnUse"
       gradientTransform="matrix(0.309387,0,0,0.477925,-637.8283,-203.0418)" />
    <linearGradient
       x1="120.0625"
       y1="12.569496"
       x2="125.30366"
       y2="14.444496"
       id="linearGradient7280"
       xlink:href="#linearGradient3260"
       gradientUnits="userSpaceOnUse"
       gradientTransform="translate(-682.0889,-206.9062)"
       spreadMethod="reflect" />
    <linearGradient
       x1="120.0625"
       y1="12.569496"
       x2="125.30366"
       y2="14.444496"
       id="linearGradient7282"
       xlink:href="#linearGradient3344"
       gradientUnits="userSpaceOnUse"
       spreadMethod="reflect" />
    <radialGradient
       cx="67.09375"
       cy="116.90625"
       r="56"
       fx="67.09375"
       fy="116.90625"
       id="radialGradient7284"
       xlink:href="#XMLID_4_"
       gradientUnits="userSpaceOnUse"
       gradientTransform="translate(-682.0889,-206.9062)" />
    <radialGradient
       cx="99.726295"
       cy="27.418272"
       r="56"
       fx="64.689766"
       fy="68.231934"
       id="radialGradient7286"
       xlink:href="#linearGradient3528"
       gradientUnits="userSpaceOnUse"
       gradientTransform="matrix(0.693735,5.867125e-2,-3.62428e-2,0.428539,-648.1495,-180.0253)" />
    <linearGradient
       x1="87.365479"
       y1="12.713522"
       x2="75.09375"
       y2="73.898682"
       id="linearGradient7288"
       xlink:href="#linearGradient3202"
       gradientUnits="userSpaceOnUse"
       gradientTransform="translate(-682.0889,-206.9062)" />
    <linearGradient
       x1="75.09375"
       y1="4.5317035"
       x2="75.09375"
       y2="80.172485"
       id="linearGradient7290"
       xlink:href="#linearGradient3260"
       gradientUnits="userSpaceOnUse"
       gradientTransform="translate(-682.0846,-206.9043)" />
    <linearGradient
       x1="208.59375"
       y1="130.40625"
       x2="208.59375"
       y2="63.426777"
       id="linearGradient7292"
       xlink:href="#linearGradient3295"
       gradientUnits="userSpaceOnUse"
       gradientTransform="translate(-819.0889,-206.9062)" />
    <linearGradient
       x1="206.47243"
       y1="77.373238"
       x2="206.47243"
       y2="15.343517"
       id="linearGradient7294"
       xlink:href="#linearGradient3295"
       gradientUnits="userSpaceOnUse"
       gradientTransform="translate(-819.0889,-206.9062)" />
    <radialGradient
       cx="-112.17241"
       cy="118.60459"
       r="59.995121"
       fx="-113.14772"
       fy="59.708473"
       id="radialGradient7316"
       xlink:href="#linearGradient3825"
       gradientUnits="userSpaceOnUse"
       gradientTransform="matrix(0.648428,0.101721,-3.125715e-2,0.199252,-4.56257,53.15916)" />
    <linearGradient
       x1="-151.43935"
       y1="37.68198"
       x2="-152.26776"
       y2="57.25"
       id="linearGradient7318"
       xlink:href="#linearGradient3326"
       gradientUnits="userSpaceOnUse" />
    <linearGradient
       x1="-132.51041"
       y1="39.803303"
       x2="-158.92462"
       y2="72.881729"
       id="linearGradient7320"
       xlink:href="#linearGradient3326"
       gradientUnits="userSpaceOnUse" />
    <linearGradient
       x1="-83.012932"
       y1="44.753052"
       x2="-158.92462"
       y2="72.881729"
       id="linearGradient7322"
       xlink:href="#linearGradient3326"
       gradientUnits="userSpaceOnUse" />
    <linearGradient
       x1="-73"
       y1="105.625"
       x2="-163"
       y2="86.125"
       id="linearGradient7324"
       xlink:href="#linearGradient3342"
       gradientUnits="userSpaceOnUse" />
    <linearGradient
       x1="-83.593941"
       y1="137.13324"
       x2="-138.0043"
       y2="92.603989"
       id="linearGradient7326"
       xlink:href="#linearGradient3342"
       gradientUnits="userSpaceOnUse"
       gradientTransform="translate(-40.5,-1.5)" />
    <linearGradient
       x1="-61.802711"
       y1="99.979607"
       x2="-136.51074"
       y2="112.70422"
       id="linearGradient7328"
       xlink:href="#linearGradient3342"
       gradientUnits="userSpaceOnUse"
       gradientTransform="translate(-40.5,-1.5)" />
    <mask
       id="mask7296">
      <g
         transform="translate(-514.5863,-206.91)"
         id="g7298">
        <g
           transform="translate(80.51637,30.88526)"
           id="g7300">
          <path
             d="M -184.42232,-32.47243 C -217.54751,-32.47243 -248.42232,-0.097625 -248.42232,33.02757 C -248.42232,66.15276 -217.04751,97.02757 -183.92232,97.02757 C -153.6332,97.02757 -128.58571,70.81131 -124.51607,41.68382 L -159.54732,36.65257 C -161.172,48.6137 -171.47739,57.62132 -183.92232,57.62132 C -197.49395,57.62132 -206.01607,46.0992 -206.01607,32.52757 C -206.01607,18.955936 -199.99395,12.43382 -186.42232,12.43382 C -179.6365,12.433819 -176.50103,10.198864 -172.04732,14.65257 L -176.8745,25.979749 C -178.93037,28.035619 -179.11822,29.285529 -178.55411,30.595278 C -178.04554,31.776057 -177.03338,33.12132 -174.34438,33.12132 L -130.39107,33.12132 C -126.54518,33.12132 -123.93208,30.466941 -123.93208,26.871189 L -124.00095,-17.206829 C -124.00095,-19.687584 -124.90346,-21.050058 -126.18242,-21.556444 C -127.49674,-22.076829 -129.21563,-21.679122 -131.28951,-19.605244 L -141.48482,-19.40993 C -152.34417,-30.269281 -167.85972,-32.47243 -184.42232,-32.47243 z"
             style="opacity:1;fill:url(#radialGradient7316);fill-opacity:1;stroke:none;stroke-width:2;stroke-linecap:round;stroke-linejoin:round;stroke-miterlimit:4;stroke-dashoffset:1.08779998;stroke-opacity:1"
             id="path7302" />
          <path
             d="M -161.5,34.5 C -162,37 -180,54 -180,54 L -132.5,80 L -112,38.5 L -161.5,34.5 z"
             style="fill:url(#linearGradient7318);fill-opacity:1;fill-rule:evenodd;stroke:none;stroke-width:1px;stroke-linecap:butt;stroke-linejoin:miter;stroke-opacity:1"
             id="path7304" />
          <path
             d="M -161.5,34.5 C -162,37 -181.27817,54.389087 -181.27817,54.389087 L -151.62742,97.591883 L -112,38.5 L -161.5,34.5 z"
             style="fill:url(#linearGradient7320);fill-opacity:1;fill-rule:evenodd;stroke:none;stroke-width:1px;stroke-linecap:butt;stroke-linejoin:miter;stroke-opacity:1"
             id="path7306" />
          <path
             d="M -161.5,34.5 C -162,37 -181.27817,54.389087 -181.27817,54.389087 L -151.62742,97.591883 L -112,38.5 L -161.5,34.5 z"
             style="fill:url(#linearGradient7322);fill-opacity:1;fill-rule:evenodd;stroke:none;stroke-width:1px;stroke-linecap:butt;stroke-linejoin:miter;stroke-opacity:1"
             id="path7308" />
        </g>
        <rect
           width="83.5"
           height="71.75"
           x="-119"
           y="69.75"
           style="opacity:1;fill:url(#linearGradient7324);fill-opacity:1;stroke:none;stroke-width:1;stroke-linecap:round;stroke-linejoin:round;stroke-miterlimit:4;stroke-dasharray:none;stroke-dashoffset:1.08779998;stroke-opacity:1"
           id="rect7310" />
        <path
           d="M -159.5,68.25 L -39.138259,55.983708 L -93.453327,162.55286 L -197.79465,128.96507 L -159.5,68.25 z"
           transform="matrix(0.639376,0.768894,-0.768894,0.639376,37.59764,128.0872)"
           style="fill:url(#linearGradient7326);fill-opacity:1;stroke:none;stroke-width:1;stroke-linecap:round;stroke-linejoin:round;stroke-miterlimit:4;stroke-dashoffset:1.08779998;stroke-opacity:1"
           id="path7312" />
        <path
           d="M -159.5,68.25 L -39.138259,55.983708 L -93.453327,162.55286 L -197.79465,128.96507 L -159.5,68.25 z"
           transform="matrix(0.639376,0.768894,-0.768894,0.639376,37.59764,128.0872)"
           style="fill:url(#linearGradient7328);fill-opacity:1;stroke:none;stroke-width:1;stroke-linecap:round;stroke-linejoin:round;stroke-miterlimit:4;stroke-dashoffset:1.08779998;stroke-opacity:1"
           id="path7314" />
      </g>
    </mask>
    <linearGradient
       x1="67.5625"
       y1="47.734375"
       x2="141.65625"
       y2="61.90625"
       id="linearGradient2946"
       xlink:href="#linearGradient2940"
       gradientUnits="userSpaceOnUse" />
    <linearGradient
       inkscape:collect="always"
       xlink:href="#linearGradient2940"
       id="linearGradient2578"
       gradientUnits="userSpaceOnUse"
       x1="67.5625"
       y1="47.734375"
       x2="141.65625"
       y2="61.90625"
       gradientTransform="matrix(0.8821632,0,0,0.8821632,2.5545482,2.1182707)" />
    <linearGradient
       inkscape:collect="always"
       xlink:href="#XMLID_4_"
       id="linearGradient2621"
       gradientUnits="userSpaceOnUse"
       gradientTransform="matrix(0.8821632,0,0,0.8821632,6.082349,5.6469234)"
       x1="60.001499"
       y1="92"
       x2="60.001499"
       y2="28.0005" />
    <linearGradient
       inkscape:collect="always"
       xlink:href="#XMLID_25_"
       id="linearGradient2624"
       gradientUnits="userSpaceOnUse"
       gradientTransform="matrix(0.8821561,0,0,0.8821632,6.0832312,5.6469234)"
       x1="60.001499"
       y1="94"
       x2="60.001499"
       y2="26.0005" />
    <linearGradient
       inkscape:collect="always"
       xlink:href="#XMLID_24_"
       id="linearGradient2627"
       gradientUnits="userSpaceOnUse"
       gradientTransform="matrix(0.8821561,0,0,0.8821632,6.0832312,5.6469234)"
       x1="60.0005"
       y1="12.8452"
       x2="60.0005"
       y2="120.2141" />
    <linearGradient
       inkscape:collect="always"
       xlink:href="#XMLID_24_"
       id="linearGradient2566"
       gradientUnits="userSpaceOnUse"
       gradientTransform="matrix(0.8821561,0,0,0.8821632,6.0832312,5.6469234)"
       x1="60.0005"
       y1="12.8452"
       x2="60.0005"
       y2="120.2141" />
    <linearGradient
       inkscape:collect="always"
       xlink:href="#XMLID_25_"
       id="linearGradient2568"
       gradientUnits="userSpaceOnUse"
       gradientTransform="matrix(0.8821561,0,0,0.8821632,6.0832312,5.6469234)"
       x1="60.001499"
       y1="94"
       x2="60.001499"
       y2="26.0005" />
    <linearGradient
       inkscape:collect="always"
       xlink:href="#XMLID_4_"
       id="linearGradient2570"
       gradientUnits="userSpaceOnUse"
       gradientTransform="matrix(0.8821632,0,0,0.8821632,6.082349,5.6469234)"
       x1="60.001499"
       y1="92"
       x2="60.001499"
       y2="28.0005" />
    <linearGradient
       inkscape:collect="always"
       xlink:href="#linearGradient2940"
       id="linearGradient2572"
       gradientUnits="userSpaceOnUse"
       gradientTransform="matrix(0.8821632,0,0,0.8821632,2.5545482,2.1182707)"
       x1="67.5625"
       y1="47.734375"
       x2="141.65625"
       y2="61.90625" />
    <linearGradient
       inkscape:collect="always"
       xlink:href="#linearGradient2940"
       id="linearGradient2558"
       gradientUnits="userSpaceOnUse"
       gradientTransform="matrix(1.8286908,-1.8286512,1.8286908,1.8286512,-65.903108,168.17165)"
       x1="67.5625"
       y1="47.734375"
       x2="141.65625"
       y2="61.90625" />
    <linearGradient
       inkscape:collect="always"
       xlink:href="#XMLID_4_"
       id="linearGradient2573"
       gradientUnits="userSpaceOnUse"
       gradientTransform="matrix(1.8286908,-1.8286512,1.8286908,1.8286512,-51.275348,168.17342)"
       x1="60.001499"
       y1="92"
       x2="60.001499"
       y2="28.0005" />
    <linearGradient
       inkscape:collect="always"
       xlink:href="#XMLID_25_"
       id="linearGradient2576"
       gradientUnits="userSpaceOnUse"
       gradientTransform="matrix(1.828676,-1.8286364,1.8286908,1.8286512,-51.273519,168.17159)"
       x1="60.001499"
       y1="94"
       x2="60.001499"
       y2="26.0005" />
    <linearGradient
       inkscape:collect="always"
       xlink:href="#XMLID_24_"
       id="linearGradient2579"
       gradientUnits="userSpaceOnUse"
       gradientTransform="matrix(1.828676,-1.8286364,1.8286908,1.8286512,-51.273519,168.17159)"
       x1="60.338055"
       y1="-32.289955"
       x2="60.0005"
       y2="120.2141" />
  </defs>
  <path
     d="M 290.69536,71.256726 L 268.7474,49.309253 L 245.24162,71.296747 C 236.68519,64.759316 227.48324,59.470836 217.86799,55.455099 L 225.1515,24.135965 L 195.17204,16.10077 L 185.80931,46.898756 C 175.31449,45.558312 164.68801,45.55644 154.19138,46.898619 L 144.82839,16.100569 L 114.85264,24.135507 L 122.13642,55.454718 C 112.51755,59.470377 103.31564,64.755125 94.757438,71.294322 L 71.24962,49.308445 L 49.305506,71.252085 L 71.293693,94.757558 C 64.754356,103.31559 59.467665,112.51912 55.451915,122.13412 L 24.133857,114.85234 L 16.100569,144.82928 L 46.899291,154.19204 C 45.558911,164.68663 45.558952,175.3147 46.89942,185.81295 L 16.100771,195.17549 L 24.132466,225.15064 L 55.455957,217.86727 C 59.469955,227.48414 64.75671,236.68772 71.297955,245.24397 L 49.306296,268.74562 L 71.248761,290.69125 L 94.75639,268.70193 C 103.31465,275.24117 112.51844,280.52781 122.13368,284.54356 L 114.85198,315.86455 L 144.82779,323.89973 L 154.19235,293.09625 C 164.68717,294.4367 175.31731,294.43857 185.81395,293.09638 L 195.17693,323.8981 L 225.15268,315.8668 L 217.86708,284.54212 C 227.4823,280.52646 236.68787,275.24171 245.24425,268.70069 L 268.74838,290.6902 L 290.6925,268.74657 L 268.70433,245.24109 C 275.24367,236.68309 280.53218,227.48137 284.54427,217.86636 L 315.86598,225.15181 L 323.89928,195.17491 L 293.09689,185.80845 C 294.43543,175.3157 294.43722,164.6858 293.09677,154.19119 L 323.8954,144.82869 L 315.86369,114.84986 L 284.54205,122.13504 C 280.52624,112.52 275.24313,103.31643 268.70187,94.760193 L 290.69536,71.256726 z M 224.85973,224.85887 C 194.60977,255.10818 145.38892,255.10798 115.13872,224.85843 C 84.888526,194.60886 84.888326,145.38912 115.13827,115.1398 C 145.38823,84.890486 194.60909,84.890685 224.8593,115.14024 C 255.10948,145.38979 255.10968,194.60954 224.85973,224.85887 z"
     id="path6"
     style="stroke:#000000;stroke-width:32.20113754;stroke-linejoin:round;stroke-miterlimit:4;stroke-dasharray:none;stroke-opacity:1" />
  <path
     d="M 288.86665,69.428068 L 266.91871,47.480601 L 243.41294,69.468096 C 234.85649,62.930669 225.65455,57.642182 216.0393,53.626448 L 223.3228,22.307317 L 193.34337,14.272122 L 183.9806,45.070105 C 173.4858,43.729659 162.8593,43.727785 152.36269,45.069969 L 142.99971,14.271914 L 113.02396,22.306855 L 120.30774,53.626064 C 110.68887,57.64173 101.48696,62.926476 92.928739,69.465661 L 69.420933,47.479793 L 47.476818,69.423428 L 69.464996,92.928901 C 62.925668,101.48695 57.638975,110.69047 53.623228,120.30548 L 22.305165,113.02369 L 14.271878,143.00062 L 45.070603,152.36339 C 43.73022,162.85798 43.730262,173.48606 45.070727,183.98431 L 14.27208,193.34683 L 22.303778,223.32199 L 53.627268,216.03863 C 57.641264,225.65549 62.928023,234.85907 69.469257,243.41532 L 47.477608,266.91698 L 69.420065,288.86262 L 92.927701,266.87325 C 101.48597,273.41252 110.68975,278.69917 120.305,282.7149 L 113.0233,314.03591 L 142.99911,322.07106 L 152.36367,291.2676 C 162.85848,292.60804 173.48863,292.60991 183.98526,291.26773 L 193.34826,322.06944 L 223.32399,314.03817 L 216.03839,282.71346 C 225.6536,278.69781 234.85917,273.41307 243.41556,266.87204 L 266.91969,288.86157 L 288.8638,266.91793 L 266.87564,243.41246 C 273.41497,234.85442 278.70348,225.65273 282.71559,216.03773 L 314.03728,223.32314 L 322.07056,193.34621 L 291.26821,183.97981 C 292.60676,173.48705 292.60854,162.85714 291.26808,152.36254 L 322.0667,143.00004 L 314.03502,113.02121 L 282.71336,120.3064 C 278.69755,110.69135 273.41444,101.48779 266.87319,92.931535 L 288.86665,69.428068 z M 223.03103,223.03022 C 192.78108,253.27951 143.56024,253.27932 113.31003,223.02978 C 83.059828,192.78023 83.059639,143.56046 113.3096,113.31116 C 143.55956,83.061838 192.7804,83.062037 223.03059,113.3116 C 253.28079,143.56115 253.28099,192.78091 223.03103,223.03022 z"
     style="fill:#008000"
     id="path13" />
  <path
     d="M 51.07384,69.483786 C 53.981458,72.592491 71.355851,91.162448 71.355851,91.162448 C 72.219,92.084081 72.288493,93.495794 71.522281,94.499714 C 65.202379,102.76883 59.985182,111.78585 56.013318,121.30209 C 55.526895,122.46876 54.268762,123.11244 53.041715,122.82534 C 53.041715,122.82534 28.301433,117.07051 24.157631,116.10863 C 23.15919,119.83538 18.41931,137.52568 17.420864,141.25244 C 21.493346,142.49046 45.827667,149.88741 45.827667,149.88741 C 46.246435,150.01359 46.612174,150.24034 46.902935,150.5311 C 47.453371,151.08153 47.745961,151.87149 47.641733,152.6889 C 46.330605,162.9604 46.330648,173.38001 47.641856,183.6515 C 47.802786,184.90229 47.034743,186.08725 45.829643,186.45479 C 45.829643,186.45479 21.493551,193.85339 17.422908,195.08955 C 18.421385,198.81632 23.1614,216.50663 24.159877,220.23343 C 28.30367,219.27158 53.043905,213.51692 53.043905,213.51692 C 53.938131,213.31029 54.845162,213.59191 55.461428,214.20816 C 55.693672,214.4404 55.885684,214.72019 56.019176,215.04021 C 59.99112,224.56014 65.210223,233.57903 71.528349,241.8427 C 72.296407,242.84479 72.225086,244.25833 71.361948,245.17998 C 71.361948,245.17998 53.989536,263.75161 51.080113,266.85846 C 52.897831,268.67614 55.265987,271.04424 56.87889,272.65712 C 76.389061,259.69029 96.184501,244.91674 115.80437,228.70955 C 113.82208,226.94674 111.48135,224.85842 111.48135,224.85842 C 80.223546,193.60127 80.223346,142.73939 111.4809,111.48251 C 142.7403,80.22378 193.60146,80.225816 224.85928,111.48295 C 224.85928,111.48295 226.96775,113.8474 228.73975,115.83514 C 244.94912,96.243112 259.7321,76.460915 272.7285,56.947501 C 271.10646,55.325486 268.69075,52.909838 266.86022,51.079358 C 263.75147,53.986898 245.18126,71.360767 245.18126,71.360767 C 244.25963,72.22388 242.84603,72.295197 241.8439,71.527164 C 233.57643,65.209146 224.55916,59.992002 215.0445,56.018314 C 214.72449,55.884821 214.44652,55.694641 214.21428,55.462401 C 213.59801,54.846146 213.3164,53.939136 213.52304,53.044939 C 213.52304,53.044939 219.27596,28.307075 220.23784,24.163348 C 216.51099,23.164899 198.81844,18.423164 195.09159,17.424712 C 193.8536,21.493424 186.45668,45.830814 186.45668,45.830814 C 186.08912,47.035899 184.90595,47.802094 183.6533,47.642986 C 173.37974,46.329989 162.95991,46.329948 152.69185,47.641048 C 151.8726,47.747101 151.08444,47.456345 150.53219,46.904094 C 150.2396,46.611507 150.01466,46.24761 149.88848,45.828847 C 149.88848,45.828847 142.49136,21.495053 141.25149,17.424489 C 137.52464,18.422912 119.83215,23.160858 116.10529,24.159285 C 117.06719,28.302995 122.82033,53.044565 122.82033,53.044565 C 123.10562,54.273414 122.46375,55.529692 121.29707,56.01611 C 111.77878,59.989717 102.75973,65.208627 94.492273,71.526555 C 93.490158,72.290926 92.076587,72.223261 91.156759,71.358312 C 91.156759,71.358312 72.584577,53.98612 69.475804,51.078565 C 66.752907,53.80506 53.802223,66.755459 51.07384,69.483786 z"
     style="fill:url(#linearGradient2579)"
     id="path20" />
  <path
     d="M 105.99483,105.99655 C 71.657782,140.33285 71.658001,196.00773 105.99533,230.34432 C 140.33449,264.68273 196.00876,264.68113 230.3458,230.34482 C 264.68468,196.00668 264.68446,140.33545 230.34531,105.99704 C 196.00799,71.660458 140.33372,71.658402 105.99483,105.99655 z M 213.88759,213.88697 C 188.67929,239.09471 147.66193,239.09455 122.45341,213.8866 C 97.24491,188.67864 97.244751,147.66215 122.45305,122.45441 C 147.66136,97.246643 188.67872,97.246812 213.88722,122.45477 C 239.09573,147.66272 239.09589,188.67919 213.88759,213.88697 z"
     style="fill:url(#linearGradient2576)"
     id="path27" />
  <path
     d="M 109.6513,109.65476 C 77.38404,141.92132 77.38403,194.42191 109.65127,226.68846 C 141.91853,258.95501 194.42025,258.95499 226.6875,226.68843 C 258.95475,194.42188 258.95476,141.9213 226.68751,109.65475 C 194.42027,77.388198 141.91855,77.388208 109.6513,109.65476 z M 213.88667,213.88787 C 188.67816,239.09585 147.66063,239.09585 122.45211,213.88789 C 97.243613,188.67993 97.243613,147.66329 122.45213,122.45532 C 147.66065,97.247361 188.67817,97.247361 213.88667,122.45532 C 239.09518,147.66327 239.09518,188.67991 213.88667,213.88787 z"
     style="fill:url(#linearGradient2573);fill-opacity:1"
     id="path44" />
  <path
     d="M 120.62436,120.62576 C 94.408459,146.84108 94.408629,189.4997 120.62475,215.71523 C 146.84268,241.9326 189.50036,241.93094 215.71628,215.71562 C 241.93401,189.49845 241.93384,146.8435 215.7159,120.62613 C 189.49977,94.410582 146.84209,94.408586 120.62436,120.62576 z M 212.05888,212.05831 C 187.86002,236.25666 148.48116,236.2565 124.28209,212.05796 C 100.08303,187.85941 100.08287,148.48141 124.28175,124.28306 C 148.48061,100.0847 187.85948,100.08486 212.05853,124.28341 C 236.2576,148.48195 236.25776,187.85996 212.05888,212.05831 z"
     style="fill:#000000;fill-opacity:1;stroke:#000000;stroke-width:13.41713905;stroke-miterlimit:4;stroke-dasharray:none;stroke-opacity:1"
     id="path51" />
  <path
     d="M 120.09834,283.61279 L 113.0233,314.03591 L 115.14456,314.60278 L 122.13551,284.54174 C 121.44792,284.25646 120.77862,283.91268 120.09834,283.61279 z"
     style="fill:#ffffff"
     id="path53" />
  <path
     d="M 24.133857,114.85234 L 55.453746,122.13595 C 59.467665,112.51912 64.754356,103.31559 71.29552,94.759384 L 49.305506,71.252085 L 71.24962,49.308445 L 94.755602,71.296148 C 103.31381,64.756951 112.51755,59.470377 122.13459,55.456548 L 114.85081,24.137337 L 143.65255,16.424232 L 142.99971,14.279229 L 113.02396,22.306855 L 120.30774,53.626064 C 110.68887,57.64173 101.48696,62.926476 92.928739,69.465661 L 69.420933,47.479793 L 47.476818,69.423428 L 69.464996,92.928901 C 62.925668,101.48695 57.638975,110.69047 53.623228,120.30548 L 22.305165,113.02369 L 14.271878,143.00062 L 16.416928,143.65344 L 24.133857,114.85234 z"
     style="fill:#ffffff"
     id="path55" />
  <path
     d="M 153.60071,44.958428 L 154.1932,46.904106 C 164.68801,45.563753 175.31633,45.563799 185.81114,46.904237 L 195.17387,16.106253 L 223.03023,23.572719 L 223.3228,22.310967 L 193.34337,14.275772 L 183.98061,45.073757 C 173.89726,43.790006 163.69503,43.769851 153.60071,44.958428 z"
     style="fill:#ffffff"
     id="path57" />
  <path
     d="M 184.5741,293.21341 L 193.34641,322.06759 L 194.52225,321.75125 L 185.81031,293.09272 C 185.40068,293.14759 184.98373,293.16222 184.5741,293.21341 z"
     style="fill:#ffffff"
     id="path59" />
  <path
     d="M 243.41476,69.469923 C 235.4673,63.398792 226.95107,58.452288 218.07828,54.557238 L 217.86798,55.458767 C 227.48323,59.474499 236.68519,64.759316 245.2416,71.30042 L 268.7474,49.309253 L 266.91871,47.480601 L 243.41476,69.469923 z"
     style="fill:#ffffff"
     id="path63" />
  <path
     d="M 284.54388,122.13687 L 314.60557,115.14609 L 314.03868,113.02487 L 283.61675,120.09791 C 283.91298,120.78184 284.25859,121.4493 284.54388,122.13687 z"
     style="fill:#ffffff"
     id="path65" />
  <path
     d="M 16.100771,195.17183 L 46.89942,185.80929 C 45.558952,175.3147 45.558911,164.68663 46.899293,154.18839 L 44.951742,153.59773 C 43.764969,163.69002 43.781468,173.89567 45.068901,183.97882 L 14.270252,193.34134 L 22.301948,223.3165 L 23.563741,223.02393 L 16.100771,195.17183 z"
     style="fill:#ffffff"
     id="path67" />
  <path
     d="M 293.09689,185.80845 L 321.75239,194.52021 L 322.06876,193.34441 L 293.21576,184.57412 C 293.16638,184.9819 293.15175,185.39884 293.09689,185.80845 z"
     style="fill:#ffffff"
     id="path69" />
  <path
     d="M 49.306296,268.74562 L 71.294292,245.24031 C 64.753059,236.68407 59.468127,227.47865 55.452301,217.86362 L 54.552588,218.07209 C 58.44772,226.94468 63.392512,235.46619 69.465604,243.41166 L 47.477608,266.91698 L 69.420065,288.86262 L 69.420065,288.86262 L 49.306296,268.74562 z"
     style="fill:#ffffff"
     id="path71" />
  <path
     id="path2349"
     style="opacity:0.6;fill:url(#linearGradient2558);fill-opacity:1;fill-rule:evenodd;stroke:none;stroke-width:1px;stroke-linecap:butt;stroke-linejoin:miter;stroke-opacity:1"
     d="M 130.624,94.397009 L 132.33839,117.48374 C 155.10211,101.36344 186.38505,102.4402 208.05762,120.62673 L 248.74597,72.624637 C 223.3165,53.603757 158.28569,80.34885 130.624,94.397009 z" />
</svg>
