<?xml version="1.0" encoding="UTF-8" standalone="no"?>
<!-- Created with Inkscape (http://www.inkscape.org/) -->
<svg
   xmlns:dc="http://purl.org/dc/elements/1.1/"
   xmlns:cc="http://web.resource.org/cc/"
   xmlns:rdf="http://www.w3.org/1999/02/22-rdf-syntax-ns#"
   xmlns:svg="http://www.w3.org/2000/svg"
   xmlns="http://www.w3.org/2000/svg"
   xmlns:xlink="http://www.w3.org/1999/xlink"
   xmlns:sodipodi="http://sodipodi.sourceforge.net/DTD/sodipodi-0.dtd"
   xmlns:inkscape="http://www.inkscape.org/namespaces/inkscape"
   id="svg1577"
   sodipodi:version="0.32"
   inkscape:version="0.44"
   width="400"
   height="400"
   sodipodi:docbase="D:\Quelltexte\Projekte\phpsurveyor\source\original art"
   sodipodi:docname="do.svg"
   inkscape:export-filename="D:\xampp\xampp\htdocs\phpsurveyor\admin\images\do.png"
   inkscape:export-xdpi="9"
   inkscape:export-ydpi="9"
   version="1.0">
  <metadata
     id="metadata1582">
    <rdf:RDF>
      <cc:Work
         rdf:about="">
        <dc:format>image/svg+xml</dc:format>
        <dc:type
           rdf:resource="http://purl.org/dc/dcmitype/StillImage" />
      </cc:Work>
    </rdf:RDF>
  </metadata>
  <defs
     id="defs1580">
    <linearGradient
       id="linearGradient3588">
      <stop
         style="stop-color:#71ff6a;stop-opacity:1;"
         offset="0"
         id="stop3590" />
      <stop
         style="stop-color:#487b43;stop-opacity:1;"
         offset="1"
         id="stop3592" />
    </linearGradient>
    <linearGradient
       inkscape:collect="always"
       xlink:href="#linearGradient3588"
       id="linearGradient3594"
       x1="296.30008"
       y1="318.43137"
       x2="93.441536"
       y2="522.98602"
       gradientUnits="userSpaceOnUse"
       gradientTransform="matrix(0,-1.619009,1.619009,0,-476.4121,514.7979)" />
  </defs>
  <sodipodi:namedview
     inkscape:window-height="721"
     inkscape:window-width="1024"
     inkscape:pageshadow="2"
     inkscape:pageopacity="0.0"
     borderopacity="1.0"
     bordercolor="#666666"
     pagecolor="#ffffff"
     id="base"
     inkscape:zoom="0.35539095"
     inkscape:cx="661.91625"
     inkscape:cy="-332.96454"
     inkscape:window-x="166"
     inkscape:window-y="143"
     inkscape:current-layer="svg1577"
     width="400px"
     height="400px" />
  <path
     style="fill:url(#linearGradient3594);fill-opacity:1;fill-rule:evenodd;stroke:black;stroke-width:17.57483673px;stroke-linecap:butt;stroke-linejoin:miter;stroke-opacity:1"
     d="M 47.918571,162.68801 L 49.56622,228.26064 L 89.547814,226.28581 L 108.25808,255.68432 L 61.759929,294.35129 L 103.38916,334.40689 L 146.77704,295.96193 L 171.05344,306.47099 L 169.4428,354.72779 L 230.2575,354.72779 L 231.90515,310.93871 L 259.36584,295.96193 L 300.00765,332.75924 L 340.10024,289.37137 L 301.10608,250.92641 L 321.35298,229.10588 L 361.44557,230.67951 L 361.51958,167.44592 L 318.6069,169.01957 L 295.06471,142.73132 L 333.50968,107.03242 L 295.06471,65.292174 L 254.97212,102.6387 L 222.56851,85.539074 L 218.98304,43.872837 L 165.12309,43.909848 L 166.73373,96.887547 L 145.12939,104.28635 L 108.33209,66.939823 L 69.337908,99.343421 L 99.840693,140.71947 L 86.363532,164.29865 L 47.918571,162.68801 z M 169.84401,203.14482 C 169.7331,202.0543 169.84401,200.96923 169.84401,199.84954 C 169.84401,181.9355 184.33358,167.44592 202.2476,167.44592 C 220.16164,167.44592 234.65122,181.9355 234.65122,199.84954 C 234.65122,217.76357 220.16164,232.25315 202.2476,232.25315 C 185.45327,232.25315 171.50694,219.50278 169.84401,203.14482 z "
     id="path1837"
     sodipodi:nodetypes="ccccccccccccccccccccccccccccccccccssssc" />
</svg>
