<?xml version="1.0" encoding="UTF-8" standalone="no"?>
<!-- Created with Sodipodi ("http://www.sodipodi.com/") -->
<svg
   xmlns:dc="http://purl.org/dc/elements/1.1/"
   xmlns:cc="http://creativecommons.org/ns#"
   xmlns:rdf="http://www.w3.org/1999/02/22-rdf-syntax-ns#"
   xmlns:svg="http://www.w3.org/2000/svg"
   xmlns="http://www.w3.org/2000/svg"
   xmlns:xlink="http://www.w3.org/1999/xlink"
   xmlns:sodipodi="http://sodipodi.sourceforge.net/DTD/sodipodi-0.dtd"
   xmlns:inkscape="http://www.inkscape.org/namespaces/inkscape"
   height="400"
   id="svg32"
   sodipodi:docbase="D:\Quelltexte\Projekte\phpsurveyor\source\original art"
   sodipodi:docname="home.svg"
   sodipodi:version="0.32"
   style="fill:#000000;fill-opacity:0.5;stroke:none"
   width="400"
   inkscape:version="0.46"
   inkscape:export-filename="D:\web\xampp\htdocs\limesurvey_dev\images\home.png"
   inkscape:export-xdpi="9"
   inkscape:export-ydpi="9"
   version="1.0"
   inkscape:output_extension="org.inkscape.output.svg.inkscape">
  <metadata
     id="metadata2268">
    <rdf:RDF>
      <cc:Work
         rdf:about="">
        <dc:title>Homes Clipart</dc:title>
        <dc:description />
        <dc:subject>
          <rdf:Bag>
            <rdf:li>house</rdf:li>
            <rdf:li />
            <rdf:li>building</rdf:li>
            <rdf:li>home</rdf:li>
          </rdf:Bag>
        </dc:subject>
        <dc:publisher>
          <cc:Agent
             rdf:about="http://www.openclipart.org">
            <dc:title>Jose Hevia </dc:title>
          </cc:Agent>
        </dc:publisher>
        <dc:creator>
          <cc:Agent>
            <dc:title>Jose Hevia</dc:title>
          </cc:Agent>
        </dc:creator>
        <dc:rights>
          <cc:Agent>
            <dc:title>Jose Hevia </dc:title>
          </cc:Agent>
        </dc:rights>
        <dc:date />
        <dc:format>image/svg+xml</dc:format>
        <dc:type
           rdf:resource="http://purl.org/dc/dcmitype/StillImage" />
        <cc:license
           rdf:resource="http://web.resource.org/cc/PublicDomain" />
        <dc:language>en</dc:language>
      </cc:Work>
      <cc:License
         rdf:about="http://web.resource.org/cc/PublicDomain">
        <cc:permits
           rdf:resource="http://web.resource.org/cc/Reproduction" />
        <cc:permits
           rdf:resource="http://web.resource.org/cc/Distribution" />
        <cc:permits
           rdf:resource="http://web.resource.org/cc/DerivativeWorks" />
      </cc:License>
    </rdf:RDF>
  </metadata>
  <defs
     id="defs34">
    <inkscape:perspective
       sodipodi:type="inkscape:persp3d"
       inkscape:vp_x="0 : 200 : 1"
       inkscape:vp_y="0 : 1000 : 0"
       inkscape:vp_z="400 : 200 : 1"
       inkscape:persp3d-origin="200 : 133.33333 : 1"
       id="perspective49" />
    <linearGradient
       id="linearGradient60">
      <stop
         id="stop61"
         offset="0.000000"
         style="stop-color:#ffffb2;stop-opacity:0.960784;" />
      <stop
         id="stop62"
         offset="1.000000"
         style="stop-color:#000000;stop-opacity:0.458824;" />
    </linearGradient>
    <linearGradient
       id="linearGradient57">
      <stop
         id="stop58"
         offset="0.000000"
         style="stop-color:#ffff9f;stop-opacity:0.960784;" />
      <stop
         id="stop59"
         offset="1.000000"
         style="stop-color:#000000;stop-opacity:0.458824;" />
    </linearGradient>
    <linearGradient
       id="linearGradient129">
      <stop
         id="stop130"
         offset="0.000000"
         style="stop-color:#ffffff;stop-opacity:0.270588;" />
      <stop
         id="stop131"
         offset="1.000000"
         style="stop-color:#000000;stop-opacity:0.678431;" />
    </linearGradient>
    <linearGradient
       id="linearGradient132"
       x1="263.77655"
       x2="360.86487"
       xlink:href="#linearGradient129"
       y1="143.78529"
       y2="240.87363"
       gradientTransform="scale(0.692146,1.444783)"
       gradientUnits="userSpaceOnUse" />
    <linearGradient
       id="linearGradient142"
       x1="211.92114"
       x2="282.52576"
       xlink:href="#linearGradient57"
       y1="253.85275"
       y2="324.45737"
       gradientTransform="scale(1.202247,0.831776)"
       gradientUnits="userSpaceOnUse" />
    <linearGradient
       id="linearGradient48"
       x1="0"
       x2="1"
       xlink:href="#linearGradient129"
       y1="0"
       y2="1" />
    <linearGradient
       id="linearGradient49"
       x1="73.753273"
       x2="144.42528"
       xlink:href="#linearGradient57"
       y1="247.72217"
       y2="318.39417"
       gradientTransform="scale(1.201518,0.83228)"
       gradientUnits="userSpaceOnUse" />
    <linearGradient
       id="linearGradient50"
       x1="0.45062399"
       x2="0.40768901"
       xlink:href="#linearGradient129"
       y1="0.42857099"
       y2="0.47428599" />
    <linearGradient
       id="linearGradient53"
       x1="-0.33721501"
       x2="0.46689001"
       xlink:href="#linearGradient129"
       y1="0.54857099"
       y2="0.56" />
    <linearGradient
       id="linearGradient54"
       x1="1.09466"
       x2="0.41306201"
       xlink:href="#linearGradient129"
       y1="0.125"
       y2="0.8125" />
    <linearGradient
       inkscape:collect="always"
       xlink:href="#linearGradient57"
       id="linearGradient2609"
       gradientUnits="userSpaceOnUse"
       gradientTransform="matrix(1.0391905,0,0,0.84212,162.53205,16.306424)"
       x1="73.753273"
       y1="247.72217"
       x2="144.42528"
       y2="318.39417" />
    <linearGradient
       inkscape:collect="always"
       xlink:href="#linearGradient129"
       id="linearGradient2614"
       gradientUnits="userSpaceOnUse"
       gradientTransform="matrix(0.6946257,0,0,1.4499591,-14.403708,16.675478)"
       x1="263.77655"
       y1="143.78529"
       x2="360.86487"
       y2="240.87363" />
    <linearGradient
       inkscape:collect="always"
       xlink:href="#linearGradient57"
       id="linearGradient2619"
       gradientUnits="userSpaceOnUse"
       gradientTransform="matrix(1.0391905,0,0,0.84212,9.491979,14.740796)"
       x1="73.753273"
       y1="247.72217"
       x2="144.42528"
       y2="318.39417" />
    <linearGradient
       inkscape:collect="always"
       xlink:href="#linearGradient57"
       id="linearGradient4882"
       gradientUnits="userSpaceOnUse"
       gradientTransform="matrix(1.0391905,0,0,0.84212,162.53205,16.306424)"
       x1="73.753273"
       y1="247.72217"
       x2="144.42528"
       y2="318.39417" />
    <linearGradient
       inkscape:collect="always"
       xlink:href="#linearGradient129"
       id="linearGradient4887"
       gradientUnits="userSpaceOnUse"
       gradientTransform="matrix(0.6946257,0,0,1.4499591,-14.403708,16.675478)"
       x1="263.77655"
       y1="143.78529"
       x2="360.86487"
       y2="240.87363" />
    <linearGradient
       inkscape:collect="always"
       xlink:href="#linearGradient57"
       id="linearGradient4892"
       gradientUnits="userSpaceOnUse"
       gradientTransform="matrix(1.0391905,0,0,0.84212,9.491979,14.740796)"
       x1="73.753273"
       y1="247.72217"
       x2="144.42528"
       y2="318.39417" />
  </defs>
  <sodipodi:namedview
     id="base"
     width="400px"
     height="400px"
     inkscape:zoom="1"
     inkscape:cx="200"
     inkscape:cy="200"
     inkscape:window-width="1280"
     inkscape:window-height="968"
     inkscape:window-x="-4"
     inkscape:window-y="-4"
     inkscape:current-layer="svg32"
     showgrid="false"
     showguides="true"
     inkscape:guide-bbox="true">
    <sodipodi:guide
       orientation="1,0"
       position="70.208885,415.45092"
       id="guide2422" />
    <sodipodi:guide
       orientation="1,0"
       position="360,514"
       id="guide2424" />
    <sodipodi:guide
       orientation="0,1"
       position="106,360"
       id="guide2464" />
    <sodipodi:guide
       orientation="1,0"
       position="40,236"
       id="guide2466" />
  </sodipodi:namedview>
  <path
     d=""
     id="path68"
     style="font-size:12px;fill:#7f7f7f;fill-opacity:1;fill-rule:evenodd;stroke:black;stroke-width:0.99701399" />
  <path
     d=""
     id="path47"
     style="font-size:12px;fill:#7f7f7f;fill-opacity:1;fill-rule:evenodd;stroke:black;stroke-width:0.99701399" />
  <path
     sodipodi:nodetypes="ccccc"
     d="M 75.711653,179.44196 C 75.711653,198.44707 75.637969,356.46557 75.711653,356.2427 C 75.691259,356.27817 236.08378,356.2427 328.46523,356.2427 C 328.50841,356.43244 328.46523,195.34749 328.46523,179.44196 C 332.02831,166.65612 79.133808,175.48359 75.711653,179.44196 z"
     id="path77"
     style="font-size:12px;fill:#ffffff;fill-opacity:1;fill-rule:evenodd;stroke:#000000;stroke-width:20.20217705;stroke-miterlimit:4;stroke-dasharray:none" />
  <path
     sodipodi:nodetypes="cccss"
     d="M 63.66818,50.102046 C 63.063034,50.102893 73.945059,143.61594 28.812257,219.00741 C 149.04713,181.30663 261.804,178.01508 371.18774,219.00741 C 336.93096,167.36812 340.01767,50.105749 339.03278,50.102046 C 267.85571,49.83218 167.54954,49.957404 63.66818,50.102046 z"
     id="path48"
     style="font-size:12px;fill:#eede70;fill-opacity:1;fill-rule:evenodd;stroke:#000000;stroke-width:20;stroke-linejoin:round;stroke-miterlimit:4;stroke-dasharray:none"
     inkscape:export-xdpi="9"
     inkscape:export-ydpi="9" />
  <path
     d="M 83.92087,83.661375 C 84.323598,103.85032 79.817534,149.01015 69.097309,187.62528 C 67.589656,192.24499 69.814721,192.61648 71.143543,188.54642 C 76.908132,182.79324 86.068964,157.52826 90.231722,129.02522 C 93.199002,108.32973 84.823552,81.704162 83.92087,83.661375 z"
     id="path49"
     style="fill:#ffffff;fill-opacity:0.53846196;fill-rule:evenodd;stroke:none;stroke-width:1px;stroke-linecap:butt;stroke-linejoin:miter;stroke-opacity:1" />
  <path
     d="M 115.51818,75.168008 C 115.92094,95.356935 111.4148,140.51679 100.69456,179.13193 C 99.186942,183.75164 101.41194,184.12321 102.74084,180.05306 C 108.50537,174.2998 117.66635,149.03491 121.82906,120.53198 C 124.79631,99.83636 116.42083,73.210779 115.51818,75.168008 z"
     id="path50"
     style="fill:#ffffff;fill-opacity:0.53846196;fill-rule:evenodd;stroke:none;stroke-width:1px;stroke-linecap:butt;stroke-linejoin:miter;stroke-opacity:1" />
  <path
     d="M 151.34255,75.290701 C 151.74522,95.479628 147.23916,140.63949 136.51892,179.25461 C 135.0113,183.87424 137.2364,184.2459 138.56512,180.17558 C 144.32974,174.42257 153.49063,149.1576 157.65334,120.65463 C 160.62068,99.95905 152.24519,73.333472 151.34255,75.290701 z"
     id="path51"
     style="fill:#ffffff;fill-opacity:0.53846196;fill-rule:evenodd;stroke:none;stroke-width:1px;stroke-linecap:butt;stroke-linejoin:miter;stroke-opacity:1" />
  <path
     d="M 187.05076,69.604875 C 187.45342,89.793812 182.94737,134.95369 172.22712,173.56873 C 170.71951,178.18844 172.9446,178.5601 174.27332,174.48987 C 180.03794,168.7366 189.19873,143.47171 193.36154,114.96883 C 196.32879,94.273231 187.95339,67.647655 187.05076,69.604875 z"
     id="path52"
     style="fill:#ffffff;fill-opacity:0.53846196;fill-rule:evenodd;stroke:none;stroke-width:1px;stroke-linecap:butt;stroke-linejoin:miter;stroke-opacity:1" />
  <path
     d="M 212.97433,73.834942 C 213.37699,94.023887 219.67974,138.9283 231.92976,177.00101 C 233.62021,181.54531 231.41209,182.0216 229.92217,178.01795 C 223.93361,172.54232 213.77384,147.73363 208.47837,119.4541 C 204.68856,98.9181 211.99439,71.922196 212.97433,73.834942 z"
     id="path53"
     style="fill:#ffffff;fill-opacity:0.53846196;fill-rule:evenodd;stroke:none;stroke-width:1px;stroke-linecap:butt;stroke-linejoin:miter;stroke-opacity:1" />
  <path
     d="M 248.18049,76.876724 C 248.58324,97.065669 254.88599,141.97017 267.13593,180.04287 C 268.82646,184.58699 266.61826,185.06329 265.12842,181.05972 C 259.13978,175.58409 248.9801,150.7754 243.68463,122.49585 C 239.89481,101.95989 247.20065,74.96397 248.18049,76.876724 z"
     id="path54"
     style="fill:#ffffff;fill-opacity:0.53846196;fill-rule:evenodd;stroke:none;stroke-width:1px;stroke-linecap:butt;stroke-linejoin:miter;stroke-opacity:1" />
  <path
     d="M 280.70475,80.950095 C 281.1075,101.13902 287.41016,146.04362 299.66027,184.11624 C 301.35072,188.66044 299.14251,189.13674 297.65268,185.13299 C 291.66403,179.65736 281.50435,154.84885 276.2088,126.56927 C 272.41907,106.03325 279.72481,79.037331 280.70475,80.950095 z"
     id="path55"
     style="fill:#ffffff;fill-opacity:0.53846196;fill-rule:evenodd;stroke:none;stroke-width:1px;stroke-linecap:butt;stroke-linejoin:miter;stroke-opacity:1" />
  <path
     d="M 311.16287,83.136877 C 311.56562,103.3258 317.86828,148.23029 330.1184,186.30291 C 331.80885,190.84721 329.60064,191.3235 328.1108,187.31994 C 322.12224,181.84431 311.96248,157.03561 306.66701,128.75612 C 302.87719,108.22002 310.18293,81.224095 311.16287,83.136877 z"
     id="path56"
     style="fill:#ffffff;fill-opacity:0.53846196;fill-rule:evenodd;stroke:none;stroke-width:1px;stroke-linecap:butt;stroke-linejoin:miter;stroke-opacity:1" />
  <path
     d="M 175.63607,356.37912 C 175.63607,350.58744 172.67109,247.2058 170.97513,230.84399 C 180.08685,230.84399 212.54553,229.31604 226.54942,233.02166 C 229.21704,251.08907 229.89418,323.48379 229.89418,360.27512 C 222.79484,360.27512 178.15025,360.70696 175.63607,356.37912 z"
     id="path58"
     sodipodi:nodetypes="ccccc"
     style="font-size:12px;fill:#7f470e;fill-opacity:1;fill-rule:evenodd;stroke:none;stroke-width:10.9625597" />
  <path
     sodipodi:nodetypes="ccccc"
     d="M 156.0728,276.31676 C 141.78058,276.31676 116.57401,276.31676 92.625802,276.31676 C 92.625802,261.70503 92.625802,242.22018 92.625802,226.51514 C 108.48999,226.51514 146.28846,226.44218 156.0728,226.51514 C 156.0728,240.97481 156.0728,260.40038 156.0728,276.31676 z"
     id="path67"
     style="font-size:12px;fill:url(#linearGradient4892);fill-opacity:1;fill-rule:evenodd;stroke:#000000;stroke-width:5.84675264;stroke-dasharray:none" />
  <path
     sodipodi:nodetypes="cs"
     d="M 123.83134,227.71131 C 123.83134,245.52402 123.83134,258.76436 123.83134,276.07716"
     id="path70"
     style="font-size:12px;fill:none;fill-opacity:1;fill-rule:evenodd;stroke:#000000;stroke-width:5.84675264;stroke-dasharray:none" />
  <path
     sodipodi:nodetypes="cc"
     d="M 157.18868,251.52275 C 148.10993,251.52275 102.44286,251.52275 91.495592,251.52275"
     id="path73"
     style="font-size:12px;fill:none;fill-opacity:1;fill-rule:evenodd;stroke:#000000;stroke-width:5.84675264;stroke-dasharray:none" />
  <path
     d="M 174.46731,359.1009 C 174.46731,353.30924 174.46731,247.59924 174.46731,230.84399 C 183.57913,230.84399 214.07043,230.84399 230.04148,230.84399 C 230.04148,249.95841 230.04148,315.11503 230.04148,359.1009 C 222.94214,359.1009 190.7007,359.1009 174.46731,359.1009 z"
     id="path76"
     sodipodi:nodetypes="ccccc"
     style="font-size:12px;fill:url(#linearGradient4887);fill-opacity:1;fill-rule:evenodd;stroke:#000000;stroke-width:11.29030228;stroke-dasharray:none" />
  <path
     d="M 77.418055,63.372342 C 140.80875,77.546816 211.21801,76.723914 268.37876,67.965277 C 222.07673,155.15643 91.680232,150.07536 59.603714,194.63477 C 66.963718,157.87602 81.694086,93.414608 77.418055,63.372342 z"
     id="path78"
     sodipodi:nodetypes="cccc"
     style="fill:#ffffff;fill-opacity:0.66346196;fill-rule:evenodd;stroke:none;stroke-width:1px;stroke-linecap:butt;stroke-linejoin:miter;stroke-opacity:1" />
  <path
     d="M 63.898396,207.57556 C 130.02706,184.93003 286.09107,182.64538 343.57145,208.26021 C 339.45917,233.92422 339.57058,254.46445 337.07305,273.57397 C 248.29394,217.62012 113.92158,230.15427 67.965554,263.31744 C 63.573214,224.79062 64.858593,241.3148 63.898396,207.57556 z"
     id="path190"
     sodipodi:nodetypes="ccccc"
     style="fill:#000059;fill-opacity:0.334975;fill-rule:evenodd;stroke:none;stroke-width:1px;stroke-linecap:butt;stroke-linejoin:miter;stroke-opacity:1" />
  <path
     style="font-size:12px;fill:url(#linearGradient4882);fill-opacity:1;fill-rule:evenodd;stroke:#000000;stroke-width:5.84675264;stroke-dasharray:none"
     id="path2456"
     d="M 309.11285,277.88239 C 294.82063,277.88239 269.61406,277.88239 245.66585,277.88239 C 245.66585,263.27066 245.66585,243.78581 245.66585,228.08077 C 261.53005,228.08077 299.32852,228.00781 309.11285,228.08077 C 309.11285,242.54044 309.11285,261.966 309.11285,277.88239 z"
     sodipodi:nodetypes="ccccc" />
  <path
     style="font-size:12px;fill:none;fill-opacity:1;fill-rule:evenodd;stroke:#000000;stroke-width:5.84675264;stroke-dasharray:none"
     id="path2458"
     d="M 276.87139,229.27694 C 276.87139,247.08965 276.87139,260.32999 276.87139,277.64279"
     sodipodi:nodetypes="cs" />
  <path
     style="font-size:12px;fill:none;fill-opacity:1;fill-rule:evenodd;stroke:#000000;stroke-width:5.84675264;stroke-dasharray:none"
     id="path2460"
     d="M 310.22874,253.08838 C 301.14999,253.08838 255.48292,253.08838 244.53565,253.08838"
     sodipodi:nodetypes="cc" />
</svg>
