<?xml version="1.0" encoding="UTF-8" standalone="no"?>
<!-- Created with Sodipodi ("http://www.sodipodi.com/") -->
<svg
   xmlns:dc="http://purl.org/dc/elements/1.1/"
   xmlns:cc="http://creativecommons.org/ns#"
   xmlns:rdf="http://www.w3.org/1999/02/22-rdf-syntax-ns#"
   xmlns:svg="http://www.w3.org/2000/svg"
   xmlns="http://www.w3.org/2000/svg"
   xmlns:xlink="http://www.w3.org/1999/xlink"
   xmlns:sodipodi="http://sodipodi.sourceforge.net/DTD/sodipodi-0.dtd"
   xmlns:inkscape="http://www.inkscape.org/namespaces/inkscape"
   height="400"
   id="svg32"
   sodipodi:docbase="D:\Quelltexte\Projekte\phpsurveyor\source\original art"
   sodipodi:docname="home.svg"
   sodipodi:version="0.32"
   style="fill:#000000;fill-opacity:0.5;stroke:none"
   width="400"
   inkscape:version="0.46"
   inkscape:export-filename="D:\web\xampp\htdocs\limesurvey\images\home.png"
   inkscape:export-xdpi="9"
   inkscape:export-ydpi="9"
   version="1.0"
   inkscape:output_extension="org.inkscape.output.svg.inkscape">
  <metadata
     id="metadata2268">
    <rdf:RDF>
      <cc:Work
         rdf:about="">
        <dc:title>Homes Clipart</dc:title>
        <dc:description />
        <dc:subject>
          <rdf:Bag>
            <rdf:li>house</rdf:li>
            <rdf:li />
            <rdf:li>building</rdf:li>
            <rdf:li>home</rdf:li>
          </rdf:Bag>
        </dc:subject>
        <dc:publisher>
          <cc:Agent
             rdf:about="http://www.openclipart.org">
            <dc:title>Jose Hevia </dc:title>
          </cc:Agent>
        </dc:publisher>
        <dc:creator>
          <cc:Agent>
            <dc:title>Jose Hevia</dc:title>
          </cc:Agent>
        </dc:creator>
        <dc:rights>
          <cc:Agent>
            <dc:title>Jose Hevia </dc:title>
          </cc:Agent>
        </dc:rights>
        <dc:date />
        <dc:format>image/svg+xml</dc:format>
        <dc:type
           rdf:resource="http://purl.org/dc/dcmitype/StillImage" />
        <cc:license
           rdf:resource="http://web.resource.org/cc/PublicDomain" />
        <dc:language>en</dc:language>
      </cc:Work>
      <cc:License
         rdf:about="http://web.resource.org/cc/PublicDomain">
        <cc:permits
           rdf:resource="http://web.resource.org/cc/Reproduction" />
        <cc:permits
           rdf:resource="http://web.resource.org/cc/Distribution" />
        <cc:permits
           rdf:resource="http://web.resource.org/cc/DerivativeWorks" />
      </cc:License>
    </rdf:RDF>
  </metadata>
  <defs
     id="defs34">
    <inkscape:perspective
       sodipodi:type="inkscape:persp3d"
       inkscape:vp_x="0 : 200 : 1"
       inkscape:vp_y="0 : 1000 : 0"
       inkscape:vp_z="400 : 200 : 1"
       inkscape:persp3d-origin="200 : 133.33333 : 1"
       id="perspective49" />
    <linearGradient
       id="linearGradient60">
      <stop
         id="stop61"
         offset="0.000000"
         style="stop-color:#ffffb2;stop-opacity:0.960784;" />
      <stop
         id="stop62"
         offset="1.000000"
         style="stop-color:#000000;stop-opacity:0.458824;" />
    </linearGradient>
    <linearGradient
       id="linearGradient57">
      <stop
         id="stop58"
         offset="0.000000"
         style="stop-color:#ffff9f;stop-opacity:0.960784;" />
      <stop
         id="stop59"
         offset="1.000000"
         style="stop-color:#000000;stop-opacity:0.458824;" />
    </linearGradient>
    <linearGradient
       id="linearGradient129">
      <stop
         id="stop130"
         offset="0.000000"
         style="stop-color:#ffffff;stop-opacity:0.270588;" />
      <stop
         id="stop131"
         offset="1.000000"
         style="stop-color:#000000;stop-opacity:0.678431;" />
    </linearGradient>
    <linearGradient
       id="linearGradient132"
       x1="263.77655"
       x2="360.86487"
       xlink:href="#linearGradient129"
       y1="143.78529"
       y2="240.87363"
       gradientTransform="scale(0.692146,1.444783)"
       gradientUnits="userSpaceOnUse" />
    <linearGradient
       id="linearGradient142"
       x1="211.92114"
       x2="282.52576"
       xlink:href="#linearGradient57"
       y1="253.85275"
       y2="324.45737"
       gradientTransform="scale(1.202247,0.831776)"
       gradientUnits="userSpaceOnUse" />
    <linearGradient
       id="linearGradient48"
       x1="0"
       x2="1"
       xlink:href="#linearGradient129"
       y1="0"
       y2="1" />
    <linearGradient
       id="linearGradient49"
       x1="73.753273"
       x2="144.42528"
       xlink:href="#linearGradient57"
       y1="247.72217"
       y2="318.39417"
       gradientTransform="scale(1.201518,0.83228)"
       gradientUnits="userSpaceOnUse" />
    <linearGradient
       id="linearGradient50"
       x1="0.45062399"
       x2="0.40768901"
       xlink:href="#linearGradient129"
       y1="0.42857099"
       y2="0.47428599" />
    <linearGradient
       id="linearGradient53"
       x1="-0.33721501"
       x2="0.46689001"
       xlink:href="#linearGradient129"
       y1="0.54857099"
       y2="0.56" />
    <linearGradient
       id="linearGradient54"
       x1="1.09466"
       x2="0.41306201"
       xlink:href="#linearGradient129"
       y1="0.125"
       y2="0.8125" />
    <linearGradient
       inkscape:collect="always"
       xlink:href="#linearGradient129"
       id="linearGradient2429"
       gradientUnits="userSpaceOnUse"
       gradientTransform="matrix(0.5829766,0,0,1.2169032,16.594188,42.71181)"
       x1="263.77655"
       y1="143.78529"
       x2="360.86487"
       y2="240.87363" />
    <linearGradient
       inkscape:collect="always"
       xlink:href="#linearGradient57"
       id="linearGradient2435"
       gradientUnits="userSpaceOnUse"
       gradientTransform="matrix(0.8721586,0,0,0.7067638,36.649056,41.088095)"
       x1="73.753273"
       y1="247.72217"
       x2="144.42528"
       y2="318.39417" />
    <linearGradient
       inkscape:collect="always"
       xlink:href="#linearGradient57"
       id="linearGradient2441"
       gradientUnits="userSpaceOnUse"
       gradientTransform="matrix(1.0126214,0,0,0.7005833,17.5117,19.71181)"
       x1="211.92114"
       y1="253.85275"
       x2="282.52576"
       y2="324.45737" />
    <linearGradient
       inkscape:collect="always"
       xlink:href="#linearGradient57"
       id="linearGradient2462"
       gradientUnits="userSpaceOnUse"
       gradientTransform="matrix(0.8721586,0,0,0.7067638,165.09058,42.402075)"
       x1="73.753273"
       y1="247.72217"
       x2="144.42528"
       y2="318.39417" />
    <linearGradient
       inkscape:collect="always"
       xlink:href="#linearGradient57"
       id="linearGradient2468"
       gradientUnits="userSpaceOnUse"
       gradientTransform="matrix(0.8721586,0,0,0.7067638,171.09058,42.402075)"
       x1="73.753273"
       y1="247.72217"
       x2="144.42528"
       y2="318.39417" />
    <linearGradient
       inkscape:collect="always"
       xlink:href="#linearGradient129"
       id="linearGradient2470"
       gradientUnits="userSpaceOnUse"
       gradientTransform="matrix(0.5829766,0,0,1.2169032,22.594188,42.71181)"
       x1="263.77655"
       y1="143.78529"
       x2="360.86487"
       y2="240.87363" />
    <linearGradient
       inkscape:collect="always"
       xlink:href="#linearGradient57"
       id="linearGradient2472"
       gradientUnits="userSpaceOnUse"
       gradientTransform="matrix(0.8721586,0,0,0.7067638,42.649056,41.088095)"
       x1="73.753273"
       y1="247.72217"
       x2="144.42528"
       y2="318.39417" />
    <linearGradient
       inkscape:collect="always"
       xlink:href="#linearGradient57"
       id="linearGradient2519"
       gradientUnits="userSpaceOnUse"
       gradientTransform="matrix(0.8721586,0,0,0.7067638,42.649056,41.088095)"
       x1="73.753273"
       y1="247.72217"
       x2="144.42528"
       y2="318.39417" />
    <linearGradient
       inkscape:collect="always"
       xlink:href="#linearGradient129"
       id="linearGradient2521"
       gradientUnits="userSpaceOnUse"
       gradientTransform="matrix(0.5829766,0,0,1.2169032,22.594188,42.71181)"
       x1="263.77655"
       y1="143.78529"
       x2="360.86487"
       y2="240.87363" />
    <linearGradient
       inkscape:collect="always"
       xlink:href="#linearGradient57"
       id="linearGradient2523"
       gradientUnits="userSpaceOnUse"
       gradientTransform="matrix(0.8721586,0,0,0.7067638,171.09058,42.402075)"
       x1="73.753273"
       y1="247.72217"
       x2="144.42528"
       y2="318.39417" />
    <linearGradient
       inkscape:collect="always"
       xlink:href="#linearGradient57"
       id="linearGradient2546"
       gradientUnits="userSpaceOnUse"
       gradientTransform="matrix(0.8721586,0,0,0.7067638,42.649056,41.088095)"
       x1="73.753273"
       y1="247.72217"
       x2="144.42528"
       y2="318.39417" />
    <linearGradient
       inkscape:collect="always"
       xlink:href="#linearGradient129"
       id="linearGradient2548"
       gradientUnits="userSpaceOnUse"
       gradientTransform="matrix(0.5829766,0,0,1.2169032,22.594188,42.71181)"
       x1="263.77655"
       y1="143.78529"
       x2="360.86487"
       y2="240.87363" />
    <linearGradient
       inkscape:collect="always"
       xlink:href="#linearGradient57"
       id="linearGradient2550"
       gradientUnits="userSpaceOnUse"
       gradientTransform="matrix(0.8721586,0,0,0.7067638,171.09058,42.402075)"
       x1="73.753273"
       y1="247.72217"
       x2="144.42528"
       y2="318.39417" />
    <linearGradient
       inkscape:collect="always"
       xlink:href="#linearGradient57"
       id="linearGradient2555"
       gradientUnits="userSpaceOnUse"
       gradientTransform="matrix(1.0391905,0,0,0.84212,173.03205,18.306424)"
       x1="73.753273"
       y1="247.72217"
       x2="144.42528"
       y2="318.39417" />
    <linearGradient
       inkscape:collect="always"
       xlink:href="#linearGradient129"
       id="linearGradient2560"
       gradientUnits="userSpaceOnUse"
       gradientTransform="matrix(0.6946257,0,0,1.4499591,-3.9037104,18.675478)"
       x1="263.77655"
       y1="143.78529"
       x2="360.86487"
       y2="240.87363" />
    <linearGradient
       inkscape:collect="always"
       xlink:href="#linearGradient57"
       id="linearGradient2565"
       gradientUnits="userSpaceOnUse"
       gradientTransform="matrix(1.0391905,0,0,0.84212,19.991977,16.740796)"
       x1="73.753273"
       y1="247.72217"
       x2="144.42528"
       y2="318.39417" />
    <linearGradient
       inkscape:collect="always"
       xlink:href="#linearGradient57"
       id="linearGradient2600"
       gradientUnits="userSpaceOnUse"
       gradientTransform="matrix(1.0391905,0,0,0.84212,19.991977,16.740796)"
       x1="73.753273"
       y1="247.72217"
       x2="144.42528"
       y2="318.39417" />
    <linearGradient
       inkscape:collect="always"
       xlink:href="#linearGradient129"
       id="linearGradient2602"
       gradientUnits="userSpaceOnUse"
       gradientTransform="matrix(0.6946257,0,0,1.4499591,-3.9037104,18.675478)"
       x1="263.77655"
       y1="143.78529"
       x2="360.86487"
       y2="240.87363" />
    <linearGradient
       inkscape:collect="always"
       xlink:href="#linearGradient57"
       id="linearGradient2604"
       gradientUnits="userSpaceOnUse"
       gradientTransform="matrix(1.0391905,0,0,0.84212,173.03205,18.306424)"
       x1="73.753273"
       y1="247.72217"
       x2="144.42528"
       y2="318.39417" />
  </defs>
  <sodipodi:namedview
     id="base"
     width="400px"
     height="400px"
     inkscape:zoom="1"
     inkscape:cx="200"
     inkscape:cy="200"
     inkscape:window-width="1280"
     inkscape:window-height="968"
     inkscape:window-x="-4"
     inkscape:window-y="-4"
     inkscape:current-layer="svg32"
     showgrid="false"
     showguides="true"
     inkscape:guide-bbox="true">
    <sodipodi:guide
       orientation="1,0"
       position="70.208885,415.45092"
       id="guide2422" />
    <sodipodi:guide
       orientation="1,0"
       position="360,514"
       id="guide2424" />
    <sodipodi:guide
       orientation="0,1"
       position="106,360"
       id="guide2464" />
    <sodipodi:guide
       orientation="1,0"
       position="40,236"
       id="guide2466" />
  </sodipodi:namedview>
  <path
     d=""
     id="path68"
     style="font-size:12px;fill:#7f7f7f;fill-opacity:1;fill-rule:evenodd;stroke:black;stroke-width:0.99701399" />
  <path
     d=""
     id="path47"
     style="font-size:12px;fill:#7f7f7f;fill-opacity:1;fill-rule:evenodd;stroke:black;stroke-width:0.99701399" />
  <g
     id="g2578"
     transform="translate(-10.499998,0)">
    <path
       style="font-size:12px;fill:#ffffff;fill-opacity:1;fill-rule:evenodd;stroke:#000000;stroke-width:25.59135246;stroke-miterlimit:4;stroke-dasharray:none"
       id="path77"
       d="M 86.110589,181.20285 C 86.110589,199.81459 86.036846,354.56237 86.110589,354.34411 C 86.090179,354.37885 246.61096,354.34411 339.06629,354.34411 C 339.1095,354.52993 339.06629,196.77916 339.06629,181.20285 C 342.63222,168.68165 89.535481,177.32641 86.110589,181.20285 z"
       sodipodi:nodetypes="ccccc" />
    <path
       style="font-size:12px;fill:#ffc900;fill-opacity:1;fill-rule:evenodd;stroke:#000000;stroke-width:23.14460945;stroke-linejoin:round;stroke-miterlimit:4;stroke-dasharray:none"
       id="path48"
       d="M 74.168178,52.102046 C 73.563032,52.102893 84.445057,145.61594 39.312255,221.00741 C 159.54713,183.30663 272.304,180.01508 381.68774,221.00741 C 347.43096,169.36812 350.51767,52.105749 349.53278,52.102046 C 278.35571,51.83218 178.04954,51.957404 74.168178,52.102046 z"
       sodipodi:nodetypes="cccss" />
    <path
       style="fill:#ffffff;fill-opacity:0.53846196;fill-rule:evenodd;stroke:none;stroke-width:1px;stroke-linecap:butt;stroke-linejoin:miter;stroke-opacity:1"
       id="path49"
       d="M 94.420868,85.661375 C 94.823596,105.85032 90.317532,151.01015 79.597307,189.62528 C 78.089654,194.24499 80.314719,194.61648 81.643541,190.54642 C 87.40813,184.79324 96.568962,159.52826 100.73172,131.02522 C 103.699,110.32973 95.32355,83.704162 94.420868,85.661375 z" />
    <path
       style="fill:#ffffff;fill-opacity:0.53846196;fill-rule:evenodd;stroke:none;stroke-width:1px;stroke-linecap:butt;stroke-linejoin:miter;stroke-opacity:1"
       id="path50"
       d="M 126.01818,77.168008 C 126.42094,97.356935 121.9148,142.51679 111.19456,181.13193 C 109.68694,185.75164 111.91194,186.12321 113.24084,182.05306 C 119.00537,176.2998 128.16635,151.03491 132.32906,122.53198 C 135.29631,101.83636 126.92083,75.210779 126.01818,77.168008 z" />
    <path
       style="fill:#ffffff;fill-opacity:0.53846196;fill-rule:evenodd;stroke:none;stroke-width:1px;stroke-linecap:butt;stroke-linejoin:miter;stroke-opacity:1"
       id="path51"
       d="M 161.84255,77.290701 C 162.24522,97.479628 157.73916,142.63949 147.01892,181.25461 C 145.5113,185.87424 147.7364,186.2459 149.06512,182.17558 C 154.82974,176.42257 163.99063,151.1576 168.15334,122.65463 C 171.12068,101.95905 162.74519,75.333472 161.84255,77.290701 z" />
    <path
       style="fill:#ffffff;fill-opacity:0.53846196;fill-rule:evenodd;stroke:none;stroke-width:1px;stroke-linecap:butt;stroke-linejoin:miter;stroke-opacity:1"
       id="path52"
       d="M 197.55076,71.604875 C 197.95342,91.793812 193.44737,136.95369 182.72712,175.56873 C 181.21951,180.18844 183.4446,180.5601 184.77332,176.48987 C 190.53794,170.7366 199.69873,145.47171 203.86154,116.96883 C 206.82879,96.273231 198.45339,69.647655 197.55076,71.604875 z" />
    <path
       style="fill:#ffffff;fill-opacity:0.53846196;fill-rule:evenodd;stroke:none;stroke-width:1px;stroke-linecap:butt;stroke-linejoin:miter;stroke-opacity:1"
       id="path53"
       d="M 223.47433,75.834942 C 223.87699,96.023887 230.17974,140.9283 242.42976,179.00101 C 244.12021,183.54531 241.91209,184.0216 240.42217,180.01795 C 234.43361,174.54232 224.27384,149.73363 218.97837,121.4541 C 215.18856,100.9181 222.49439,73.922196 223.47433,75.834942 z" />
    <path
       style="fill:#ffffff;fill-opacity:0.53846196;fill-rule:evenodd;stroke:none;stroke-width:1px;stroke-linecap:butt;stroke-linejoin:miter;stroke-opacity:1"
       id="path54"
       d="M 258.68049,78.876724 C 259.08324,99.065669 265.38599,143.97017 277.63593,182.04287 C 279.32646,186.58699 277.11826,187.06329 275.62842,183.05972 C 269.63978,177.58409 259.4801,152.7754 254.18463,124.49585 C 250.39481,103.95989 257.70065,76.96397 258.68049,78.876724 z" />
    <path
       style="fill:#ffffff;fill-opacity:0.53846196;fill-rule:evenodd;stroke:none;stroke-width:1px;stroke-linecap:butt;stroke-linejoin:miter;stroke-opacity:1"
       id="path55"
       d="M 291.20475,82.950095 C 291.6075,103.13902 297.91016,148.04362 310.16027,186.11624 C 311.85072,190.66044 309.64251,191.13674 308.15268,187.13299 C 302.16403,181.65736 292.00435,156.84885 286.7088,128.56927 C 282.91907,108.03325 290.22481,81.037331 291.20475,82.950095 z" />
    <path
       style="fill:#ffffff;fill-opacity:0.53846196;fill-rule:evenodd;stroke:none;stroke-width:1px;stroke-linecap:butt;stroke-linejoin:miter;stroke-opacity:1"
       id="path56"
       d="M 321.66287,85.136877 C 322.06562,105.3258 328.36828,150.23029 340.6184,188.30291 C 342.30885,192.84721 340.10064,193.3235 338.6108,189.31994 C 332.62224,183.84431 322.46248,159.03561 317.16701,130.75612 C 313.37719,110.22002 320.68293,83.224095 321.66287,85.136877 z" />
    <path
       style="font-size:12px;fill:#7f470e;fill-opacity:1;fill-rule:evenodd;stroke:none;stroke-width:10.9625597"
       sodipodi:nodetypes="ccccc"
       id="path58"
       d="M 186.13607,358.37912 C 186.13607,352.58744 183.17109,249.2058 181.47513,232.84399 C 190.58685,232.84399 223.04553,231.31604 237.04942,235.02166 C 239.71704,253.08907 240.39418,325.48379 240.39418,362.27512 C 233.29484,362.27512 188.65025,362.70696 186.13607,358.37912 z" />
    <path
       style="font-size:12px;fill:url(#linearGradient2600);fill-opacity:1;fill-rule:evenodd;stroke:#000000;stroke-width:5.84675264;stroke-dasharray:none"
       id="path67"
       d="M 166.5728,278.31676 C 152.28058,278.31676 127.07401,278.31676 103.1258,278.31676 C 103.1258,263.70503 103.1258,244.22018 103.1258,228.51514 C 118.98999,228.51514 156.78846,228.44218 166.5728,228.51514 C 166.5728,242.97481 166.5728,262.40038 166.5728,278.31676 z"
       sodipodi:nodetypes="ccccc" />
    <path
       style="font-size:12px;fill:none;fill-opacity:1;fill-rule:evenodd;stroke:#000000;stroke-width:5.84675264;stroke-dasharray:none"
       id="path70"
       d="M 134.33134,229.71131 C 134.33134,247.52402 134.33134,260.76436 134.33134,278.07716"
       sodipodi:nodetypes="cs" />
    <path
       style="font-size:12px;fill:none;fill-opacity:1;fill-rule:evenodd;stroke:#000000;stroke-width:5.84675264;stroke-dasharray:none"
       id="path73"
       d="M 167.68868,253.52275 C 158.60993,253.52275 112.94286,253.52275 101.99559,253.52275"
       sodipodi:nodetypes="cc" />
    <path
       style="font-size:12px;fill:url(#linearGradient2602);fill-opacity:1;fill-rule:evenodd;stroke:#000000;stroke-width:11.29030228;stroke-dasharray:none"
       sodipodi:nodetypes="ccccc"
       id="path76"
       d="M 184.96731,361.1009 C 184.96731,355.30924 184.96731,249.59924 184.96731,232.84399 C 194.07913,232.84399 224.57043,232.84399 240.54148,232.84399 C 240.54148,251.95841 240.54148,317.11503 240.54148,361.1009 C 233.44214,361.1009 201.2007,361.1009 184.96731,361.1009 z" />
    <path
       style="fill:#ffffff;fill-opacity:0.66346196;fill-rule:evenodd;stroke:none;stroke-width:1px;stroke-linecap:butt;stroke-linejoin:miter;stroke-opacity:1"
       sodipodi:nodetypes="cccc"
       id="path78"
       d="M 87.918053,65.372342 C 151.30875,79.546816 221.71801,78.723914 278.87876,69.965277 C 232.57673,157.15643 102.18023,152.07536 70.103712,196.63477 C 77.463716,159.87602 92.194084,95.414608 87.918053,65.372342 z" />
    <path
       style="fill:#000059;fill-opacity:0.334975;fill-rule:evenodd;stroke:none;stroke-width:1px;stroke-linecap:butt;stroke-linejoin:miter;stroke-opacity:1"
       sodipodi:nodetypes="ccccc"
       id="path190"
       d="M 74.398394,209.57556 C 140.52706,186.93003 296.59107,184.64538 354.07145,210.26021 C 349.95917,235.92422 350.07058,256.46445 347.57305,275.57397 C 258.79394,219.62012 124.42158,232.15427 78.465552,265.31744 C 74.073212,226.79062 75.358591,243.3148 74.398394,209.57556 z" />
    <path
       sodipodi:nodetypes="ccccc"
       d="M 319.61285,279.88239 C 305.32063,279.88239 280.11406,279.88239 256.16585,279.88239 C 256.16585,265.27066 256.16585,245.78581 256.16585,230.08077 C 272.03005,230.08077 309.82852,230.00781 319.61285,230.08077 C 319.61285,244.54044 319.61285,263.966 319.61285,279.88239 z"
       id="path2456"
       style="font-size:12px;fill:url(#linearGradient2604);fill-opacity:1;fill-rule:evenodd;stroke:#000000;stroke-width:5.84675264;stroke-dasharray:none" />
    <path
       sodipodi:nodetypes="cs"
       d="M 287.37139,231.27694 C 287.37139,249.08965 287.37139,262.32999 287.37139,279.64279"
       id="path2458"
       style="font-size:12px;fill:none;fill-opacity:1;fill-rule:evenodd;stroke:#000000;stroke-width:5.84675264;stroke-dasharray:none" />
    <path
       sodipodi:nodetypes="cc"
       d="M 320.72874,255.08838 C 311.64999,255.08838 265.98292,255.08838 255.03565,255.08838"
       id="path2460"
       style="font-size:12px;fill:none;fill-opacity:1;fill-rule:evenodd;stroke:#000000;stroke-width:5.84675264;stroke-dasharray:none" />
  </g>
</svg>
