<?xml version="1.0" encoding="UTF-8" standalone="no"?>
<!-- Created with Inkscape (http://www.inkscape.org/) -->
<svg
   xmlns:dc="http://purl.org/dc/elements/1.1/"
   xmlns:cc="http://creativecommons.org/ns#"
   xmlns:rdf="http://www.w3.org/1999/02/22-rdf-syntax-ns#"
   xmlns:svg="http://www.w3.org/2000/svg"
   xmlns="http://www.w3.org/2000/svg"
   xmlns:xlink="http://www.w3.org/1999/xlink"
   xmlns:sodipodi="http://sodipodi.sourceforge.net/DTD/sodipodi-0.dtd"
   xmlns:inkscape="http://www.inkscape.org/namespaces/inkscape"
   id="svg1340"
   sodipodi:version="0.32"
   inkscape:version="0.46"
   width="400"
   height="400"
   sodipodi:docbase="D:\Quelltexte\Projekte\phpsurveyor\source\original art"
   sodipodi:docname="iterate.svg"
   inkscape:export-filename="D:\web\xampp\htdocs\limesurvey\images\iterate.png"
   inkscape:export-xdpi="9.8595886"
   inkscape:export-ydpi="9.8595886"
   version="1.0"
   inkscape:output_extension="org.inkscape.output.svg.inkscape">
  <metadata
     id="metadata1345">
    <rdf:RDF>
      <cc:Work
         rdf:about="">
        <dc:format>image/svg+xml</dc:format>
        <dc:type
           rdf:resource="http://purl.org/dc/dcmitype/StillImage" />
      </cc:Work>
    </rdf:RDF>
  </metadata>
  <defs
     id="defs1343">
    <linearGradient
       id="linearGradient2078">
      <stop
         style="stop-color:#5e89de;stop-opacity:1;"
         offset="0"
         id="stop2080" />
      <stop
         style="stop-color:#62ff4d;stop-opacity:1;"
         offset="1"
         id="stop2082" />
    </linearGradient>
    <linearGradient
       inkscape:collect="always"
       xlink:href="#linearGradient2078"
       id="linearGradient2233"
       gradientUnits="userSpaceOnUse"
       gradientTransform="matrix(3.532542,0,0,3.769063,96.24932,128.6691)"
       x1="16.887327"
       y1="6.2155557"
       x2="60.902569"
       y2="65.818466" />
    <linearGradient
       id="linearGradient2116">
      <stop
         style="stop-color:#abb7ce;stop-opacity:1.0000000;"
         offset="0.0000000"
         id="stop2118" />
      <stop
         style="stop-color:#8dba87;stop-opacity:1.0000000;"
         offset="1.0000000"
         id="stop2120" />
    </linearGradient>
    <linearGradient
       inkscape:collect="always"
       xlink:href="#linearGradient2116"
       id="linearGradient2236"
       gradientUnits="userSpaceOnUse"
       gradientTransform="matrix(3.532542,0,0,3.769063,102.293,132.318)"
       x1="16.887327"
       y1="6.2155557"
       x2="60.902569"
       y2="65.818466" />
    <inkscape:perspective
       sodipodi:type="inkscape:persp3d"
       inkscape:vp_x="0 : 200 : 1"
       inkscape:vp_y="0 : 1000 : 0"
       inkscape:vp_z="400 : 200 : 1"
       inkscape:persp3d-origin="200 : 133.33333 : 1"
       id="perspective2779" />
    <linearGradient
       id="linearGradient3307">
      <stop
         style="stop-color:#b2b10d;stop-opacity:1;"
         offset="0"
         id="stop3309" />
      <stop
         style="stop-color:#b77a16;stop-opacity:1;"
         offset="1"
         id="stop3311" />
    </linearGradient>
    <linearGradient
       id="linearGradient17275">
      <stop
         style="stop-color:#ffb300;stop-opacity:1;"
         offset="0"
         id="stop17277" />
      <stop
         style="stop-color:#978b71;stop-opacity:1;"
         offset="1"
         id="stop17279" />
    </linearGradient>
    <linearGradient
       id="linearGradient17267">
      <stop
         style="stop-color:#ffeb00;stop-opacity:1;"
         offset="0"
         id="stop17269" />
      <stop
         style="stop-color:#e3ad1a;stop-opacity:1;"
         offset="1"
         id="stop17271" />
    </linearGradient>
    <linearGradient
       id="linearGradient9578">
      <stop
         style="stop-color:#ffffff;stop-opacity:1;"
         offset="0"
         id="stop9580" />
      <stop
         style="stop-color:#d3d3d3;stop-opacity:1;"
         offset="1"
         id="stop9582" />
    </linearGradient>
    <linearGradient
       id="linearGradient2250">
      <stop
         style="stop-color:#ff0000;stop-opacity:1;"
         offset="0"
         id="stop2252" />
      <stop
         style="stop-color:#850000;stop-opacity:1;"
         offset="1"
         id="stop2254" />
    </linearGradient>
    <linearGradient
       id="linearGradient2244">
      <stop
         id="stop2246"
         offset="0"
         style="stop-color:#6fff58;stop-opacity:1;" />
      <stop
         id="stop2248"
         offset="1"
         style="stop-color:#327e29;stop-opacity:1;" />
    </linearGradient>
    <linearGradient
       id="linearGradient2232">
      <stop
         style="stop-color:#0030ff;stop-opacity:1;"
         offset="0"
         id="stop2234" />
      <stop
         style="stop-color:#02116f;stop-opacity:1;"
         offset="1"
         id="stop2236" />
    </linearGradient>
    <linearGradient
       inkscape:collect="always"
       xlink:href="#linearGradient17267"
       id="linearGradient17273"
       x1="301.05109"
       y1="880.0976"
       x2="383.5105"
       y2="938.79254"
       gradientUnits="userSpaceOnUse" />
    <linearGradient
       inkscape:collect="always"
       xlink:href="#linearGradient17275"
       id="linearGradient17281"
       x1="250.02434"
       y1="938.76123"
       x2="297.12656"
       y2="1022.3269"
       gradientUnits="userSpaceOnUse" />
    <linearGradient
       inkscape:collect="always"
       xlink:href="#linearGradient3307"
       id="linearGradient3313"
       x1="262.13498"
       y1="928.00848"
       x2="365.60242"
       y2="928.00848"
       gradientUnits="userSpaceOnUse" />
  </defs>
  <sodipodi:namedview
     inkscape:window-height="721"
     inkscape:window-width="1021"
     inkscape:pageshadow="2"
     inkscape:pageopacity="0.0"
     borderopacity="1.0"
     bordercolor="#666666"
     pagecolor="#ffffff"
     id="base"
     inkscape:zoom="1.3125"
     inkscape:cx="326.60005"
     inkscape:cy="200"
     inkscape:window-x="136"
     inkscape:window-y="168"
     inkscape:current-layer="svg1340"
     width="400px"
     height="400px"
     showgrid="false"
     showguides="true"
     inkscape:guide-bbox="true">
    <sodipodi:guide
       orientation="0,1"
       position="74,380"
       id="guide3239" />
    <sodipodi:guide
       orientation="1,0"
       position="40,155"
       id="guide3241" />
    <sodipodi:guide
       orientation="0,1"
       position="-40,360"
       id="guide5205" />
  </sodipodi:namedview>
  <path
     style="fill:#ffffff;fill-opacity:1;stroke:none;stroke-width:20;stroke-linejoin:round;stroke-miterlimit:4;stroke-opacity:1"
     d="M 47.017557,51.441371 L 248.59538,50.649266 L 327.2307,141.7412 L 325.63405,370.65925 L 47.017557,370.65925 L 47.017557,51.441371 z"
     id="rect3309"
     sodipodi:nodetypes="cccccc" />
  <path
     style="fill:#b1ffff;fill-opacity:1;fill-rule:evenodd;stroke:#b1ffff;stroke-width:19.40088272px;stroke-linecap:butt;stroke-linejoin:miter;stroke-opacity:1"
     d="M 59.291469,250.12162 L 321.28215,250.12162 L 59.291469,250.12162 z"
     id="path2657"
     sodipodi:nodetypes="ccc" />
  <path
     sodipodi:nodetypes="ccc"
     id="path2655"
     d="M 61.296264,329.766 L 323.28694,329.766 L 61.296264,329.766 z"
     style="fill:#b1ffff;fill-opacity:1;fill-rule:evenodd;stroke:#b1ffff;stroke-width:19.40088272px;stroke-linecap:butt;stroke-linejoin:miter;stroke-opacity:1" />
  <path
     style="fill:#b1ffff;fill-opacity:1;fill-rule:evenodd;stroke:#b1ffff;stroke-width:19.40088272px;stroke-linecap:butt;stroke-linejoin:miter;stroke-opacity:1"
     d="M 61.296264,289.94381 L 323.28694,289.94381 L 61.296264,289.94381 z"
     id="path5980"
     sodipodi:nodetypes="ccc" />
  <path
     sodipodi:nodetypes="ccc"
     id="path2659"
     d="M 61.296264,210.29943 L 323.28694,210.29943 L 61.296264,210.29943 z"
     style="fill:#b1ffff;fill-opacity:1;fill-rule:evenodd;stroke:#b1ffff;stroke-width:19.40088272px;stroke-linecap:butt;stroke-linejoin:miter;stroke-opacity:1" />
  <path
     style="fill:none;fill-opacity:1;fill-rule:evenodd;stroke:none;stroke-width:15.6341238px;stroke-linecap:butt;stroke-linejoin:miter;stroke-opacity:1"
     d="M 322.84941,368.32201 L 56.797036,361.92361 L 50.308055,54.803639 L 244.98052,48.405227 L 329.33857,144.38024 L 322.84941,368.32201 z"
     id="path3228" />
  <path
     style="fill:#b1ffff;fill-opacity:1;fill-rule:evenodd;stroke:#b1ffff;stroke-width:19.40088272px;stroke-linecap:butt;stroke-linejoin:miter;stroke-opacity:1"
     d="M 61.296264,170.47724 L 323.28694,170.47724 L 61.296264,170.47724 z"
     id="path2661"
     sodipodi:nodetypes="ccc" />
  <path
     style="fill:#b1ffff;fill-opacity:1;fill-rule:evenodd;stroke:#b1ffff;stroke-width:19.40088272px;stroke-linecap:butt;stroke-linejoin:miter;stroke-opacity:1"
     d="M 61.296264,90.832857 L 273.16706,90.832857 L 61.296264,90.832857 z"
     id="path2665"
     sodipodi:nodetypes="ccc" />
  <path
     sodipodi:nodetypes="ccc"
     id="path2663"
     d="M 61.296264,130.65504 L 323.28694,130.65504 L 61.296264,130.65504 z"
     style="fill:#b1ffff;fill-opacity:1;fill-rule:evenodd;stroke:#b1ffff;stroke-width:19.40088272px;stroke-linecap:butt;stroke-linejoin:miter;stroke-opacity:1" />
  <path
     style="fill:#ffb1b1;fill-opacity:1;fill-rule:evenodd;stroke:#ffb1b1;stroke-width:22.14761734px;stroke-linecap:butt;stroke-linejoin:miter;stroke-opacity:1"
     d="M 102.3527,363.25858 L 102.3527,58.429538 L 102.3527,363.25858 z"
     id="path3594"
     sodipodi:nodetypes="ccc" />
  <path
     style="fill:#ffffff;fill-opacity:1;fill-rule:evenodd;stroke:none;stroke-width:15.6341238px;stroke-linecap:butt;stroke-linejoin:miter;stroke-opacity:1"
     d="M 214.86507,50.938908 L 221.35423,82.930642 L 221.35405,148.5135 L 323.99464,145.94997 L 328.75177,143.13674 L 250.55502,50.938908 L 214.86507,50.938908 z"
     id="path3234"
     sodipodi:nodetypes="ccccccc" />
  <path
     style="fill:none;fill-opacity:0.75;fill-rule:evenodd;stroke:#000000;stroke-width:18.31982613px;stroke-linecap:butt;stroke-linejoin:miter;stroke-opacity:1"
     d="M 214.15275,51.538946 L 214.15275,142.88532 L 319.19655,142.95831 L 245.70765,51.538946 L 214.15275,51.538946 z"
     id="path4216"
     sodipodi:nodetypes="ccccc" />
  <path
     style="fill:#ffffff;fill-opacity:0.4626168;stroke:none;stroke-width:17;stroke-linecap:butt;stroke-linejoin:round;stroke-miterlimit:17.89999962;stroke-dashoffset:0;stroke-opacity:1"
     d="M 225.60503,54.163854 C 226.05552,61.07604 233.19093,119.27638 232.46223,126.53357 C 223.7105,213.69375 119.94303,261.61676 53.704645,268.39769 C 46.257409,269.16007 55.381929,267.4821 47.934706,266.71942 L 59.58017,58.334439 L 225.60503,54.163854 z"
     id="path3886"
     sodipodi:nodetypes="cssccc" />
  <path
     style="fill:none;fill-opacity:1;fill-rule:evenodd;stroke:#000000;stroke-width:20.51641464;stroke-linecap:butt;stroke-linejoin:miter;stroke-miterlimit:4;stroke-dasharray:none;stroke-opacity:1"
     d="M 329.46764,370.02625 L 50.648969,370.02625 L 50.437128,50.44994 L 245.10955,50.44994 L 329.46764,146.25474 L 329.46764,370.02625 z"
     id="path4212"
     sodipodi:nodetypes="cccccc" />
  <path
     style="fill:none;fill-opacity:1;fill-rule:evenodd;stroke:none;stroke-width:15.6341238px;stroke-linecap:butt;stroke-linejoin:miter;stroke-opacity:1"
     d="M 326.52199,350.89056 L 76.336811,345.18861 L 70.234829,71.49788 L 253.29714,65.795918 L 332.62415,151.32429 L 326.52199,350.89056 z"
     id="path8703" />
  <path
     style="fill:none;fill-opacity:1;fill-rule:evenodd;stroke:none;stroke-width:15.6341238px;stroke-linecap:butt;stroke-linejoin:miter;stroke-opacity:1"
     d="M 330.93227,364.13582 L 69.625918,357.97043 L 63.252692,62.035135 L 254.45244,55.869739 L 337.30568,148.34954 L 330.93227,364.13582 z"
     id="path2783" />
  <g
     id="g3469"
     transform="translate(-13.850871,-19.672717)">
    <path
       style="fill:url(#linearGradient2236);fill-opacity:1;stroke:none;stroke-width:0.375;stroke-miterlimit:4;stroke-opacity:1"
       id="path2112"
       d="M 174.80296,138.41266 C 174.28623,139.23483 196.58317,180.74523 197.03682,181.60381 C 197.49046,182.46239 219.15134,224.2266 220.12172,224.26298 C 220.80912,224.28882 231.24565,207.33923 238.73858,195.32709 C 260.55069,205.65023 275.75954,227.67564 275.75954,253.41168 C 275.75954,289.11523 246.78277,318.09199 211.07924,318.09199 C 175.37572,318.09199 146.39894,289.11523 146.39894,253.41168 C 146.39894,238.63493 151.5599,225.15798 159.90947,214.2631 C 148.93481,200.09845 138.10633,194.72521 130.33526,192.45476 C 117.48688,209.47806 109.59076,230.4527 109.59076,253.41168 C 109.59076,309.47248 155.01846,354.90018 211.07924,354.90018 C 267.14004,354.90018 312.67412,309.47248 312.67412,253.41168 C 312.67412,214.47897 290.4423,181.08348 258.2065,164.15713 C 264.97922,153.36701 272.06608,142.48894 271.8234,142.02966 C 271.36976,141.17108 224.28357,139.72568 223.31318,139.68926 C 222.3428,139.65285 175.3197,137.5905 174.80296,138.41266 z" />
    <path
       style="fill:url(#linearGradient2233);fill-opacity:1;stroke:#000000;stroke-width:18.24443436;stroke-linejoin:round;stroke-miterlimit:4;stroke-dasharray:none;stroke-opacity:1"
       id="path1301"
       d="M 168.75949,134.76378 C 168.24276,135.58594 190.5397,177.09634 190.99335,177.95492 C 191.44699,178.8135 213.10787,220.57772 214.07825,220.61409 C 214.76565,220.63993 225.20218,203.69034 232.69512,191.6782 C 254.50722,202.00134 269.71607,224.02675 269.71607,249.76279 C 269.71607,285.46635 240.7393,314.44311 205.03578,314.44311 C 169.33225,314.44311 140.35547,285.46635 140.35547,249.76279 C 140.35547,234.98604 145.51642,221.50909 153.866,210.61421 C 142.89134,196.44956 132.06286,191.07632 124.29179,188.80587 C 111.44341,205.82917 103.54729,226.80381 103.54729,249.76279 C 103.54729,305.8236 148.97498,351.25129 205.03578,351.25129 C 261.09657,351.25129 306.63065,305.8236 306.63065,249.76279 C 306.63065,210.83008 284.39883,177.43459 252.16303,160.50824 C 258.93575,149.71812 266.02261,138.84006 265.77993,138.38077 C 265.32629,137.52219 218.2401,136.07679 217.26972,136.04038 C 216.29933,136.00396 169.27623,133.94161 168.75949,134.76378 z" />
    <path
       style="fill:#d7f1ff;fill-opacity:1;fill-rule:evenodd;stroke:none;stroke-width:1px;stroke-linecap:butt;stroke-linejoin:miter;stroke-opacity:1"
       id="path2136"
       d="M 177.9304,140.89218 C 177.9304,140.89218 206.51334,142.71663 211.98667,142.71663 C 217.46,142.71663 235.70444,139.06774 246.6511,142.71663 C 257.59776,146.36551 263.07109,146.36551 250.29999,146.36551 C 237.52888,146.36551 182.79558,144.54107 182.79558,144.54107 C 182.79558,144.54107 208.33779,177.38105 208.33779,191.9766 C 208.33779,206.57215 177.9304,140.89218 177.9304,140.89218 z" />
    <path
       style="fill:#daf0fe;fill-opacity:1;fill-rule:evenodd;stroke:none;stroke-width:1px;stroke-linecap:butt;stroke-linejoin:miter;stroke-opacity:1"
       id="path2138"
       d="M 126.17778,199.94254 C 126.17778,199.94254 134.08371,200.5507 132.25927,204.19959 C 130.43482,207.84847 110.36595,251.63512 121.31261,282.65066 C 132.25927,313.6662 110.36595,266.23067 110.36595,266.23067 C 110.36595,266.23067 101.85189,230.34996 126.17778,199.94254 z" />
  </g>
</svg>
