<?xml version="1.0" encoding="UTF-8" standalone="no"?>
<!-- Created with Inkscape (http://www.inkscape.org/) -->

<svg
   xmlns:dc="http://purl.org/dc/elements/1.1/"
   xmlns:cc="http://creativecommons.org/ns#"
   xmlns:rdf="http://www.w3.org/1999/02/22-rdf-syntax-ns#"
   xmlns:svg="http://www.w3.org/2000/svg"
   xmlns="http://www.w3.org/2000/svg"
   xmlns:xlink="http://www.w3.org/1999/xlink"
   xmlns:sodipodi="http://sodipodi.sourceforge.net/DTD/sodipodi-0.dtd"
   xmlns:inkscape="http://www.inkscape.org/namespaces/inkscape"
   id="svg1340"
   sodipodi:version="0.32"
   inkscape:version="0.48.1 "
   width="400"
   height="400"
   sodipodi:docname="organize.svg"
   version="1.0"
   inkscape:export-filename="D:\web\xampp\htdocs\limesurvey_ci\images\organize.png"
   inkscape:export-xdpi="9.5600004"
   inkscape:export-ydpi="9.5600004"
   inkscape:output_extension="org.inkscape.output.svg.inkscape">
  <metadata
     id="metadata1345">
    <rdf:RDF>
      <cc:Work
         rdf:about="">
        <dc:format>image/svg+xml</dc:format>
        <dc:type
           rdf:resource="http://purl.org/dc/dcmitype/StillImage" />
        <dc:title></dc:title>
      </cc:Work>
    </rdf:RDF>
  </metadata>
  <defs
     id="defs1343">
    <inkscape:perspective
       sodipodi:type="inkscape:persp3d"
       inkscape:vp_x="0 : 200 : 1"
       inkscape:vp_y="0 : 1000 : 0"
       inkscape:vp_z="400 : 200 : 1"
       inkscape:persp3d-origin="200 : 133.33333 : 1"
       id="perspective5698" />
    <marker
       inkscape:stockid="Arrow2Send"
       orient="auto"
       refY="0.0"
       refX="0.0"
       id="Arrow2Send"
       style="overflow:visible;">
      <path
         id="path8423"
         style="font-size:12.0;fill-rule:evenodd;stroke-width:0.62500000;stroke-linejoin:round;"
         d="M 8.7185878,4.0337352 L -2.2072895,0.016013256 L 8.7185884,-4.0017078 C 6.9730900,-1.6296469 6.9831476,1.6157441 8.7185878,4.0337352 z "
         transform="scale(0.3) rotate(180) translate(-2.3,0)" />
    </marker>
    <marker
       inkscape:stockid="Arrow1Mend"
       orient="auto"
       refY="0.0"
       refX="0.0"
       id="Arrow1Mend"
       style="overflow:visible;">
      <path
         id="path8447"
         d="M 0.0,0.0 L 5.0,-5.0 L -12.5,0.0 L 5.0,5.0 L 0.0,0.0 z "
         style="fill-rule:evenodd;stroke:#000000;stroke-width:1.0pt;marker-start:none;"
         transform="scale(0.4) rotate(180) translate(10,0)" />
    </marker>
    <marker
       inkscape:stockid="Arrow1Send"
       orient="auto"
       refY="0.0"
       refX="0.0"
       id="Arrow1Send"
       style="overflow:visible;">
      <path
         id="path8441"
         d="M 0.0,0.0 L 5.0,-5.0 L -12.5,0.0 L 5.0,5.0 L 0.0,0.0 z "
         style="fill-rule:evenodd;stroke:#000000;stroke-width:1.0pt;marker-start:none;"
         transform="scale(0.2) rotate(180) translate(6,0)" />
    </marker>
    <marker
       inkscape:stockid="Arrow2Mend"
       orient="auto"
       refY="0.0"
       refX="0.0"
       id="Arrow2Mend"
       style="overflow:visible;">
      <path
         id="path8429"
         style="font-size:12.0;fill-rule:evenodd;stroke-width:0.62500000;stroke-linejoin:round;"
         d="M 8.7185878,4.0337352 L -2.2072895,0.016013256 L 8.7185884,-4.0017078 C 6.9730900,-1.6296469 6.9831476,1.6157441 8.7185878,4.0337352 z "
         transform="scale(0.6) rotate(180) translate(0,0)" />
    </marker>
    <marker
       inkscape:stockid="Arrow2Lend"
       orient="auto"
       refY="0.0"
       refX="0.0"
       id="Arrow2Lend"
       style="overflow:visible;">
      <path
         id="path8435"
         style="font-size:12.0;fill-rule:evenodd;stroke-width:0.62500000;stroke-linejoin:round;"
         d="M 8.7185878,4.0337352 L -2.2072895,0.016013256 L 8.7185884,-4.0017078 C 6.9730900,-1.6296469 6.9831476,1.6157441 8.7185878,4.0337352 z "
         transform="scale(1.1) rotate(180) translate(1,0)" />
    </marker>
    <linearGradient
       id="linearGradient9578">
      <stop
         style="stop-color:#ffffff;stop-opacity:1;"
         offset="0"
         id="stop9580" />
      <stop
         style="stop-color:#d3d3d3;stop-opacity:1;"
         offset="1"
         id="stop9582" />
    </linearGradient>
    <linearGradient
       inkscape:collect="always"
       xlink:href="#linearGradient2250"
       id="linearGradient3336"
       x1="-231.19771"
       y1="227.09267"
       x2="-54.282185"
       y2="245.46019"
       gradientUnits="userSpaceOnUse"
       gradientTransform="translate(308.8946,-111.4211)" />
    <linearGradient
       id="linearGradient2250">
      <stop
         style="stop-color:#ff0000;stop-opacity:1;"
         offset="0"
         id="stop2252" />
      <stop
         style="stop-color:#850000;stop-opacity:1;"
         offset="1"
         id="stop2254" />
    </linearGradient>
    <linearGradient
       id="linearGradient2244">
      <stop
         id="stop2246"
         offset="0"
         style="stop-color:#6fff58;stop-opacity:1;" />
      <stop
         id="stop2248"
         offset="1"
         style="stop-color:#327e29;stop-opacity:1;" />
    </linearGradient>
    <linearGradient
       id="linearGradient2232">
      <stop
         style="stop-color:#0030ff;stop-opacity:1;"
         offset="0"
         id="stop2234" />
      <stop
         style="stop-color:#02116f;stop-opacity:1;"
         offset="1"
         id="stop2236" />
    </linearGradient>
    <linearGradient
       inkscape:collect="always"
       xlink:href="#linearGradient2250"
       id="linearGradient1913"
       gradientUnits="userSpaceOnUse"
       gradientTransform="translate(308.8946,-111.4211)"
       x1="-231.19771"
       y1="227.09267"
       x2="-54.282185"
       y2="245.46019" />
    <linearGradient
       inkscape:collect="always"
       xlink:href="#linearGradient2250"
       id="linearGradient1899"
       gradientUnits="userSpaceOnUse"
       gradientTransform="matrix(1.046474,0,0,1.129193,304.9935,-155.0627)"
       x1="-231.19771"
       y1="227.09267"
       x2="-54.282185"
       y2="245.46019" />
    <filter
       color-interpolation-filters="sRGB"
       inkscape:collect="always"
       id="filter4355"
       x="-0.17575964"
       width="1.3515193"
       y="-0.044710785"
       height="1.0894216">
      <feGaussianBlur
         inkscape:collect="always"
         stdDeviation="0.19910273"
         id="feGaussianBlur4357" />
    </filter>
    <filter
       color-interpolation-filters="sRGB"
       inkscape:collect="always"
       id="filter4018"
       x="-0.31561387"
       width="1.6312277"
       y="-0.31561387"
       height="1.6312277">
      <feGaussianBlur
         inkscape:collect="always"
         stdDeviation="0.33494911"
         id="feGaussianBlur4020" />
    </filter>
    <filter
       color-interpolation-filters="sRGB"
       inkscape:collect="always"
       id="filter4022"
       x="-0.31561387"
       width="1.6312277"
       y="-0.31561387"
       height="1.6312277">
      <feGaussianBlur
         inkscape:collect="always"
         stdDeviation="0.33494911"
         id="feGaussianBlur4024" />
    </filter>
    <filter
       color-interpolation-filters="sRGB"
       inkscape:collect="always"
       id="filter4026"
       x="-0.31561387"
       width="1.6312277"
       y="-0.31561387"
       height="1.6312277">
      <feGaussianBlur
         inkscape:collect="always"
         stdDeviation="0.33494911"
         id="feGaussianBlur4028" />
    </filter>
    <filter
       color-interpolation-filters="sRGB"
       inkscape:collect="always"
       id="filter4030"
       x="-0.31561387"
       width="1.6312277"
       y="-0.31561387"
       height="1.6312277">
      <feGaussianBlur
         inkscape:collect="always"
         stdDeviation="0.33494911"
         id="feGaussianBlur4032" />
    </filter>
    <filter
       color-interpolation-filters="sRGB"
       inkscape:collect="always"
       id="filter24810-2">
      <feGaussianBlur
         inkscape:collect="always"
         stdDeviation="2.9870091"
         id="feGaussianBlur24812-4" />
    </filter>
    <radialGradient
       inkscape:collect="always"
       xlink:href="#linearGradient20172-3"
       id="radialGradient7507"
       gradientUnits="userSpaceOnUse"
       gradientTransform="matrix(0.131681,1.11929,-1.53073,0.180085,1405.42,303.648)"
       cx="66.73613"
       cy="617.74969"
       fx="66.73613"
       fy="617.74969"
       r="75.940727" />
    <linearGradient
       id="linearGradient20172-3">
      <stop
         style="stop-color:#264773;stop-opacity:1;"
         offset="0"
         id="stop20174-4" />
      <stop
         style="stop-color:#3c6eb4;stop-opacity:0;"
         offset="1"
         id="stop20176-2" />
    </linearGradient>
    <radialGradient
       inkscape:collect="always"
       xlink:href="#linearGradient20180-1"
       id="radialGradient7509"
       gradientUnits="userSpaceOnUse"
       gradientTransform="matrix(1.49685,-0.70451,0.297478,0.632044,44.2577,197.374)"
       cx="146.07985"
       cy="640.98853"
       fx="146.07985"
       fy="640.98853"
       r="69.302994" />
    <linearGradient
       id="linearGradient20180-1">
      <stop
         style="stop-color:#f0f4fa;stop-opacity:1;"
         offset="0"
         id="stop20182-8" />
      <stop
         style="stop-color:#3c6eb4;stop-opacity:0;"
         offset="1"
         id="stop20184-1" />
    </linearGradient>
    <linearGradient
       inkscape:collect="always"
       xlink:href="#linearGradient24764-4"
       id="linearGradient7511"
       gradientUnits="userSpaceOnUse"
       gradientTransform="translate(648.598,-217.77)"
       x1="-195"
       y1="767.36218"
       x2="-265"
       y2="687.36218" />
    <linearGradient
       inkscape:collect="always"
       id="linearGradient24764-4">
      <stop
         style="stop-color:#1f395e;stop-opacity:1;"
         offset="0"
         id="stop24766-3" />
      <stop
         style="stop-color:#1f395e;stop-opacity:0;"
         offset="1"
         id="stop24768-0" />
    </linearGradient>
    <filter
       color-interpolation-filters="sRGB"
       inkscape:collect="always"
       id="filter24784-1">
      <feGaussianBlur
         inkscape:collect="always"
         stdDeviation="0.37336074"
         id="feGaussianBlur24786-8" />
    </filter>
    <radialGradient
       inkscape:collect="always"
       xlink:href="#linearGradient24826-7"
       id="radialGradient7513"
       gradientUnits="userSpaceOnUse"
       gradientTransform="matrix(1.05292,-2.27197e-8,0,0.0438717,662.622,489.646)"
       cx="-265"
       cy="773.77344"
       fx="-265"
       fy="773.77344"
       r="56.984375" />
    <linearGradient
       id="linearGradient24826-7">
      <stop
         style="stop-color:#ffffff;stop-opacity:1;"
         offset="0"
         id="stop24828-7" />
      <stop
         style="stop-color:#c8d7ed;stop-opacity:0;"
         offset="1"
         id="stop24830-1" />
    </linearGradient>
    <filter
       color-interpolation-filters="sRGB"
       inkscape:collect="always"
       id="filter24877-4"
       x="-0.01252646"
       width="1.0250529"
       y="-0.28552499"
       height="1.57105">
      <feGaussianBlur
         inkscape:collect="always"
         stdDeviation="0.59484375"
         id="feGaussianBlur24879-9" />
    </filter>
    <linearGradient
       inkscape:collect="always"
       xlink:href="#linearGradient24857-0"
       id="linearGradient7515"
       gradientUnits="userSpaceOnUse"
       gradientTransform="translate(648.598,-217.77)"
       x1="-230"
       y1="787.36218"
       x2="-245"
       y2="727.36218" />
    <linearGradient
       id="linearGradient24857-0">
      <stop
         style="stop-color:#ffffff;stop-opacity:1;"
         offset="0"
         id="stop24859-6" />
      <stop
         style="stop-color:#234069;stop-opacity:0;"
         offset="1"
         id="stop24861-6" />
    </linearGradient>
    <filter
       color-interpolation-filters="sRGB"
       inkscape:collect="always"
       id="filter24869-1">
      <feGaussianBlur
         inkscape:collect="always"
         stdDeviation="0.9547516"
         id="feGaussianBlur24871-0" />
    </filter>
    <linearGradient
       inkscape:collect="always"
       xlink:href="#linearGradient24764-4"
       id="linearGradient7517"
       gradientUnits="userSpaceOnUse"
       x1="-262.0282"
       y1="685.58344"
       x2="-189.94577"
       y2="767.6225" />
    <radialGradient
       inkscape:collect="always"
       xlink:href="#linearGradient24826-7"
       id="radialGradient7519"
       gradientUnits="userSpaceOnUse"
       gradientTransform="matrix(1.05292,-2.27197e-8,0,0.0438717,14.0239,707.415)"
       cx="-265"
       cy="773.77344"
       fx="-265"
       fy="773.77344"
       r="56.984375" />
    <linearGradient
       id="linearGradient3218">
      <stop
         style="stop-color:#ffffff;stop-opacity:1;"
         offset="0"
         id="stop3220" />
      <stop
         style="stop-color:#c8d7ed;stop-opacity:0;"
         offset="1"
         id="stop3222" />
    </linearGradient>
    <linearGradient
       inkscape:collect="always"
       xlink:href="#linearGradient24857-0"
       id="linearGradient7521"
       gradientUnits="userSpaceOnUse"
       x1="333.62012"
       y1="514.15173"
       x2="311.1402"
       y2="454.93262" />
    <linearGradient
       id="linearGradient3229">
      <stop
         style="stop-color:#ffffff;stop-opacity:1;"
         offset="0"
         id="stop3231" />
      <stop
         style="stop-color:#234069;stop-opacity:0;"
         offset="1"
         id="stop3233" />
    </linearGradient>
    <filter
       inkscape:collect="always"
       id="filter7474"
       color-interpolation-filters="sRGB">
      <feGaussianBlur
         inkscape:collect="always"
         stdDeviation="1.0575489"
         id="feGaussianBlur7476" />
    </filter>
    <radialGradient
       inkscape:collect="always"
       xlink:href="#linearGradient20180-1"
       id="radialGradient7523"
       gradientUnits="userSpaceOnUse"
       gradientTransform="matrix(1.37135,-0.359923,0.210589,0.802371,-185.951,246.766)"
       cx="303.95639"
       cy="396.59784"
       fx="303.95639"
       fy="396.59784"
       r="75.938049" />
    <linearGradient
       id="linearGradient3238">
      <stop
         style="stop-color:#f0f4fa;stop-opacity:1;"
         offset="0"
         id="stop3240" />
      <stop
         style="stop-color:#3c6eb4;stop-opacity:0;"
         offset="1"
         id="stop3242" />
    </linearGradient>
    <radialGradient
       r="75.938049"
       fy="396.59784"
       fx="303.95639"
       cy="396.59784"
       cx="303.95639"
       gradientTransform="matrix(1.37135,-0.359923,0.210589,0.802371,-185.951,246.766)"
       gradientUnits="userSpaceOnUse"
       id="radialGradient3259"
       xlink:href="#linearGradient20180-1"
       inkscape:collect="always" />
    <radialGradient
       inkscape:collect="always"
       xlink:href="#linearGradient20180-1"
       id="radialGradient3245"
       gradientUnits="userSpaceOnUse"
       gradientTransform="matrix(1.37135,-0.359923,0.210589,0.802371,-314.97755,40.1905)"
       cx="303.95639"
       cy="396.59784"
       fx="303.95639"
       fy="396.59784"
       r="75.938049" />
    <linearGradient
       inkscape:collect="always"
       xlink:href="#linearGradient24857-0"
       id="linearGradient3249"
       gradientUnits="userSpaceOnUse"
       x1="333.62012"
       y1="514.15173"
       x2="311.1402"
       y2="454.93262"
       gradientTransform="translate(-129.02655,-206.5755)" />
    <linearGradient
       inkscape:collect="always"
       xlink:href="#linearGradient24857-0"
       id="linearGradient3256"
       gradientUnits="userSpaceOnUse"
       gradientTransform="translate(519.57145,-424.3455)"
       x1="-230"
       y1="787.36218"
       x2="-245"
       y2="727.36218" />
    <radialGradient
       inkscape:collect="always"
       xlink:href="#linearGradient24826-7"
       id="radialGradient3260"
       gradientUnits="userSpaceOnUse"
       gradientTransform="matrix(1.05292,-2.27197e-8,0,0.0438717,533.59545,283.0705)"
       cx="-265"
       cy="773.77344"
       fx="-265"
       fy="773.77344"
       r="56.984375" />
    <linearGradient
       inkscape:collect="always"
       xlink:href="#linearGradient24764-4"
       id="linearGradient3263"
       gradientUnits="userSpaceOnUse"
       gradientTransform="translate(519.57145,-424.3455)"
       x1="-195"
       y1="767.36218"
       x2="-265"
       y2="687.36218" />
    <radialGradient
       inkscape:collect="always"
       xlink:href="#linearGradient20180-1"
       id="radialGradient3266"
       gradientUnits="userSpaceOnUse"
       gradientTransform="matrix(1.49685,-0.70451,0.297478,0.632044,-84.76885,-9.2015)"
       cx="146.07985"
       cy="640.98853"
       fx="146.07985"
       fy="640.98853"
       r="69.302994" />
    <radialGradient
       inkscape:collect="always"
       xlink:href="#linearGradient20172-3"
       id="radialGradient3269"
       gradientUnits="userSpaceOnUse"
       gradientTransform="matrix(0.131681,1.11929,-1.53073,0.180085,1276.3935,97.0725)"
       cx="66.73613"
       cy="617.74969"
       fx="66.73613"
       fy="617.74969"
       r="75.940727" />
    <radialGradient
       inkscape:collect="always"
       xlink:href="#linearGradient20172-3"
       id="radialGradient3327"
       gradientUnits="userSpaceOnUse"
       gradientTransform="matrix(0.131681,1.11929,-1.53073,0.180085,1276.3935,97.0725)"
       cx="66.73613"
       cy="617.74969"
       fx="66.73613"
       fy="617.74969"
       r="75.940727" />
    <radialGradient
       inkscape:collect="always"
       xlink:href="#linearGradient20180-1"
       id="radialGradient3329"
       gradientUnits="userSpaceOnUse"
       gradientTransform="matrix(1.49685,-0.70451,0.297478,0.632044,-84.76885,-9.2015)"
       cx="146.07985"
       cy="640.98853"
       fx="146.07985"
       fy="640.98853"
       r="69.302994" />
    <linearGradient
       inkscape:collect="always"
       xlink:href="#linearGradient24764-4"
       id="linearGradient3331"
       gradientUnits="userSpaceOnUse"
       gradientTransform="translate(519.57145,-424.3455)"
       x1="-195"
       y1="767.36218"
       x2="-265"
       y2="687.36218" />
    <radialGradient
       inkscape:collect="always"
       xlink:href="#linearGradient24826-7"
       id="radialGradient3333"
       gradientUnits="userSpaceOnUse"
       gradientTransform="matrix(1.05292,-2.27197e-8,0,0.0438717,533.59545,283.0705)"
       cx="-265"
       cy="773.77344"
       fx="-265"
       fy="773.77344"
       r="56.984375" />
    <linearGradient
       inkscape:collect="always"
       xlink:href="#linearGradient24857-0"
       id="linearGradient3335"
       gradientUnits="userSpaceOnUse"
       gradientTransform="translate(519.57145,-424.3455)"
       x1="-230"
       y1="787.36218"
       x2="-245"
       y2="727.36218" />
    <filter
       color-interpolation-filters="sRGB"
       inkscape:collect="always"
       id="filter24810-2-6">
      <feGaussianBlur
         inkscape:collect="always"
         stdDeviation="2.9870091"
         id="feGaussianBlur24812-4-3" />
    </filter>
    <linearGradient
       id="linearGradient20172-3-1">
      <stop
         style="stop-color:#264773;stop-opacity:1;"
         offset="0"
         id="stop20174-4-4" />
      <stop
         style="stop-color:#3c6eb4;stop-opacity:0;"
         offset="1"
         id="stop20176-2-7" />
    </linearGradient>
    <linearGradient
       id="linearGradient20180-1-0">
      <stop
         style="stop-color:#f0f4fa;stop-opacity:1;"
         offset="0"
         id="stop20182-8-0" />
      <stop
         style="stop-color:#3c6eb4;stop-opacity:0;"
         offset="1"
         id="stop20184-1-5" />
    </linearGradient>
    <filter
       color-interpolation-filters="sRGB"
       inkscape:collect="always"
       id="filter24784-1-9">
      <feGaussianBlur
         inkscape:collect="always"
         stdDeviation="0.37336074"
         id="feGaussianBlur24786-8-8" />
    </filter>
    <linearGradient
       id="linearGradient24826-7-5">
      <stop
         style="stop-color:#ffffff;stop-opacity:1;"
         offset="0"
         id="stop24828-7-6" />
      <stop
         style="stop-color:#c8d7ed;stop-opacity:0;"
         offset="1"
         id="stop24830-1-0" />
    </linearGradient>
    <filter
       color-interpolation-filters="sRGB"
       inkscape:collect="always"
       id="filter24877-4-6"
       x="-0.01252646"
       width="1.0250529"
       y="-0.28552499"
       height="1.57105">
      <feGaussianBlur
         inkscape:collect="always"
         stdDeviation="0.59484375"
         id="feGaussianBlur24879-9-0" />
    </filter>
    <linearGradient
       inkscape:collect="always"
       xlink:href="#linearGradient24857-0-7"
       id="linearGradient3335-4"
       gradientUnits="userSpaceOnUse"
       gradientTransform="translate(519.57145,-424.3455)"
       x1="-230"
       y1="787.36218"
       x2="-245"
       y2="727.36218" />
    <linearGradient
       id="linearGradient24857-0-7">
      <stop
         style="stop-color:#ffffff;stop-opacity:1;"
         offset="0"
         id="stop24859-6-8" />
      <stop
         style="stop-color:#234069;stop-opacity:0;"
         offset="1"
         id="stop24861-6-6" />
    </linearGradient>
    <filter
       color-interpolation-filters="sRGB"
       inkscape:collect="always"
       id="filter24869-1-4">
      <feGaussianBlur
         inkscape:collect="always"
         stdDeviation="0.9547516"
         id="feGaussianBlur24871-0-0" />
    </filter>
  </defs>
  <sodipodi:namedview
     inkscape:window-height="721"
     inkscape:window-width="1021"
     inkscape:pageshadow="2"
     inkscape:pageopacity="0.0"
     borderopacity="1.0"
     bordercolor="#666666"
     pagecolor="#ffffff"
     id="base"
     inkscape:zoom="1.3"
     inkscape:cx="200"
     inkscape:cy="200"
     inkscape:window-x="261"
     inkscape:window-y="130"
     inkscape:current-layer="svg1340"
     width="400px"
     height="400px"
     showgrid="false"
     showguides="true"
     inkscape:guide-bbox="true"
     inkscape:window-maximized="0">
    <sodipodi:guide
       orientation="0,1"
       position="58,360"
       id="guide5700" />
    <sodipodi:guide
       orientation="1,0"
       position="40,258"
       id="guide5702" />
  </sodipodi:namedview>
  <path
     style="fill:#ffffff;fill-opacity:1;stroke:none;stroke-width:20;stroke-linejoin:round;stroke-miterlimit:4;stroke-opacity:1"
     d="M 47.06517,51.203276 L 248.643,50.411171 L 327.27832,141.50311 L 325.68167,370.42115 L 47.06517,370.42115 L 47.06517,51.203276 z"
     id="rect3309"
     sodipodi:nodetypes="cccccc" />
  <path
     style="fill:#b1ffff;fill-opacity:1;fill-rule:evenodd;stroke:#b1ffff;stroke-width:19.40088272px;stroke-linecap:butt;stroke-linejoin:miter;stroke-opacity:1"
     d="M 59.33909,249.88353 L 321.32977,249.88353 L 59.33909,249.88353 z"
     id="path2657"
     sodipodi:nodetypes="ccc" />
  <path
     sodipodi:nodetypes="ccc"
     id="path2655"
     d="M 61.34388,329.52791 L 323.33456,329.52791 L 61.34388,329.52791 z"
     style="fill:#b1ffff;fill-opacity:1;fill-rule:evenodd;stroke:#b1ffff;stroke-width:19.40088272px;stroke-linecap:butt;stroke-linejoin:miter;stroke-opacity:1" />
  <path
     style="fill:#b1ffff;fill-opacity:1;fill-rule:evenodd;stroke:#b1ffff;stroke-width:19.40088272px;stroke-linecap:butt;stroke-linejoin:miter;stroke-opacity:1"
     d="M 61.34388,289.70571 L 323.33456,289.70571 L 61.34388,289.70571 z"
     id="path5718"
     sodipodi:nodetypes="ccc" />
  <path
     sodipodi:nodetypes="ccc"
     id="path2659"
     d="M 61.34388,210.06134 L 323.33456,210.06134 L 61.34388,210.06134 z"
     style="fill:#b1ffff;fill-opacity:1;fill-rule:evenodd;stroke:#b1ffff;stroke-width:19.40088272px;stroke-linecap:butt;stroke-linejoin:miter;stroke-opacity:1" />
  <path
     style="fill:none;fill-opacity:1;fill-rule:evenodd;stroke:none;stroke-width:15.6341238px;stroke-linecap:butt;stroke-linejoin:miter;stroke-opacity:1"
     d="M 322.89703,368.08391 L 56.84465,361.68552 L 50.35567,54.565544 L 245.02814,48.167132 L 329.38619,144.14214 L 322.89703,368.08391 z"
     id="path3228" />
  <path
     style="fill:#b1ffff;fill-opacity:1;fill-rule:evenodd;stroke:#b1ffff;stroke-width:19.40088272px;stroke-linecap:butt;stroke-linejoin:miter;stroke-opacity:1"
     d="M 61.34388,170.23915 L 323.33456,170.23915 L 61.34388,170.23915 z"
     id="path2661"
     sodipodi:nodetypes="ccc" />
  <path
     style="fill:#b1ffff;fill-opacity:1;fill-rule:evenodd;stroke:#b1ffff;stroke-width:19.40088272px;stroke-linecap:butt;stroke-linejoin:miter;stroke-opacity:1"
     d="M 61.34388,90.59476 L 273.21468,90.59476 L 61.34388,90.59476 z"
     id="path2665"
     sodipodi:nodetypes="ccc" />
  <path
     sodipodi:nodetypes="ccc"
     id="path2663"
     d="M 61.34388,130.41695 L 323.33456,130.41695 L 61.34388,130.41695 z"
     style="fill:#b1ffff;fill-opacity:1;fill-rule:evenodd;stroke:#b1ffff;stroke-width:19.40088272px;stroke-linecap:butt;stroke-linejoin:miter;stroke-opacity:1" />
  <path
     style="fill:#ffffff;fill-opacity:1;fill-rule:evenodd;stroke:none;stroke-width:15.6341238px;stroke-linecap:butt;stroke-linejoin:miter;stroke-opacity:1"
     d="M 214.91269,50.700813 L 221.40185,82.69255 L 221.40167,148.27541 L 324.04226,145.71188 L 328.79939,142.89865 L 250.60264,50.700813 L 214.91269,50.700813 z"
     id="path3234"
     sodipodi:nodetypes="ccccccc" />
  <path
     style="fill:none;fill-opacity:0.75;fill-rule:evenodd;stroke:#000000;stroke-width:18.31982613px;stroke-linecap:butt;stroke-linejoin:miter;stroke-opacity:1"
     d="M 214.20037,51.300851 L 214.20037,142.64723 L 319.24417,142.72022 L 245.75527,51.300851 L 214.20037,51.300851 z"
     id="path5732"
     sodipodi:nodetypes="ccccc" />
  <path
     style="fill:#ffffff;fill-opacity:0.4626168;stroke:none;stroke-width:17;stroke-linecap:butt;stroke-linejoin:round;stroke-miterlimit:17.89999962;stroke-dashoffset:0;stroke-opacity:1"
     d="M 225.65265,53.925759 C 226.10314,60.837945 233.23855,119.03829 232.50985,126.29548 C 223.75812,213.45566 119.99065,261.37867 53.75226,268.1596 C 46.30503,268.92198 55.42955,267.24401 47.98232,266.48133 L 59.62779,58.096344 L 225.65265,53.925759 z"
     id="path3886"
     sodipodi:nodetypes="cssccc" />
  <path
     style="fill:none;fill-opacity:1;fill-rule:evenodd;stroke:#000000;stroke-width:20.51641464;stroke-linecap:butt;stroke-linejoin:miter;stroke-miterlimit:4;stroke-dasharray:none;stroke-opacity:1"
     d="M 329.51526,369.78816 L 50.69659,369.78816 L 50.48474,50.211845 L 245.15717,50.211845 L 329.51526,146.01665 L 329.51526,369.78816 z"
     id="path5735"
     sodipodi:nodetypes="cccccc" />
  <path
     style="fill:none;fill-opacity:1;fill-rule:evenodd;stroke:none;stroke-width:15.6341238px;stroke-linecap:butt;stroke-linejoin:miter;stroke-opacity:1"
     d="M 326.56961,350.65247 L 76.38443,344.95051 L 70.28244,71.259785 L 253.34476,65.557823 L 332.67177,151.0862 L 326.56961,350.65247 z"
     id="path5737" />
  <path
     style="fill:none;fill-opacity:1;fill-rule:evenodd;stroke:none;stroke-width:15.6341238px;stroke-linecap:butt;stroke-linejoin:miter;stroke-opacity:1"
     d="M 330.97989,363.89773 L 69.67353,357.73234 L 63.30031,61.79704 L 254.50006,55.631644 L 337.3533,148.11145 L 330.97989,363.89773 z"
     id="path2783" />
  <path
     sodipodi:type="arc"
     style="fill:#3a3a3a;fill-opacity:1;stroke:#303030;stroke-width:0.69999999;stroke-linecap:round;stroke-linejoin:bevel;stroke-miterlimit:4;stroke-opacity:1;stroke-dasharray:none;stroke-dashoffset:0;display:inline;filter:url(#filter4030)"
     id="path3810"
     sodipodi:cx="3.0408416"
     sodipodi:cy="2.0121286"
     sodipodi:rx="0.92351484"
     sodipodi:ry="0.92351484"
     d="m 3.9643564,2.0121286 a 0.92351484,0.92351484 0 1 1 -1.8470297,0 0.92351484,0.92351484 0 1 1 1.8470297,0 z"
     transform="matrix(21.079647,0,0,21.079647,44.356239,61.04115)" />
  <path
     transform="matrix(21.079647,0,0,21.079647,119.3855,136.07042)"
     d="m 3.9643564,2.0121286 a 0.92351484,0.92351484 0 1 1 -1.8470297,0 0.92351484,0.92351484 0 1 1 1.8470297,0 z"
     sodipodi:ry="0.92351484"
     sodipodi:rx="0.92351484"
     sodipodi:cy="2.0121286"
     sodipodi:cx="3.0408416"
     id="path3812"
     style="fill:#3a3a3a;fill-opacity:1;stroke:#303030;stroke-width:0.69999999;stroke-linecap:round;stroke-linejoin:bevel;stroke-miterlimit:4;stroke-opacity:1;stroke-dasharray:none;stroke-dashoffset:0;display:inline;filter:url(#filter4026)"
     sodipodi:type="arc" />
  <path
     sodipodi:type="arc"
     style="fill:#3a3a3a;fill-opacity:1;stroke:#303030;stroke-width:0.69999999;stroke-linecap:round;stroke-linejoin:bevel;stroke-miterlimit:4;stroke-opacity:1;stroke-dasharray:none;stroke-dashoffset:0;display:inline;filter:url(#filter4022)"
     id="path3814"
     sodipodi:cx="3.0408416"
     sodipodi:cy="2.0121286"
     sodipodi:rx="0.92351484"
     sodipodi:ry="0.92351484"
     d="m 3.9643564,2.0121286 a 0.92351484,0.92351484 0 1 1 -1.8470297,0 0.92351484,0.92351484 0 1 1 1.8470297,0 z"
     transform="matrix(21.079647,0,0,21.079647,119.3855,211.09967)" />
  <path
     transform="matrix(21.079647,0,0,21.079647,119.3855,286.12893)"
     d="m 3.9643564,2.0121286 a 0.92351484,0.92351484 0 1 1 -1.8470297,0 0.92351484,0.92351484 0 1 1 1.8470297,0 z"
     sodipodi:ry="0.92351484"
     sodipodi:rx="0.92351484"
     sodipodi:cy="2.0121286"
     sodipodi:cx="3.0408416"
     id="path3816"
     style="fill:#3a3a3a;fill-opacity:1;stroke:#303030;stroke-width:0.69999999;stroke-linecap:round;stroke-linejoin:bevel;stroke-miterlimit:4;stroke-opacity:1;stroke-dasharray:none;stroke-dashoffset:0;display:inline;filter:url(#filter4018)"
     sodipodi:type="arc" />
  <g
     id="g3076"
     transform="translate(-8,0)">
    <path
       transform="matrix(18.757314,0,0,18.757314,-4524.6003,-5504.9807)"
       id="path4317"
       d="m 246.42429,300.78249 0,10.1875 0,0.5 0.5,0 2.21875,0 0,-1 -1.71875,0 0,-3.0625 1.6875,0 0,-1 -1.6875,0 0,-3 1.6875,0 0,-1 -1.6875,0 0,-1.625 -1,0 z"
       style="fill:#1c1c1c;fill-opacity:1;fill-rule:evenodd;stroke:none;display:inline;filter:url(#filter4355)"
       inkscape:connector-curvature="0" />
    <path
       transform="matrix(21.079647,0,0,21.079647,41.134112,54.438934)"
       d="m 3.9643564,2.0121286 c 0,0.5100432 -0.4134717,0.9235148 -0.9235148,0.9235148 -0.5100432,0 -0.9235149,-0.4134716 -0.9235149,-0.9235148 0,-0.5100432 0.4134717,-0.9235149 0.9235149,-0.9235149 0.5100431,0 0.9235148,0.4134717 0.9235148,0.9235149 z"
       sodipodi:ry="0.92351484"
       sodipodi:rx="0.92351484"
       sodipodi:cy="2.0121286"
       sodipodi:cx="3.0408416"
       id="path3755"
       style="fill:#e5a000;fill-opacity:1;stroke:#e50000;stroke-width:0.69999999;stroke-linecap:round;stroke-linejoin:bevel;stroke-miterlimit:4;stroke-opacity:1;stroke-dasharray:none;stroke-dashoffset:0;display:inline"
       sodipodi:type="arc" />
    <path
       sodipodi:type="arc"
       style="fill:#e5a000;fill-opacity:1;stroke:#e50000;stroke-width:0.69999999;stroke-linecap:round;stroke-linejoin:bevel;stroke-miterlimit:4;stroke-opacity:1;stroke-dasharray:none;stroke-dashoffset:0;display:inline"
       id="path3757"
       sodipodi:cx="3.0408416"
       sodipodi:cy="2.0121286"
       sodipodi:rx="0.92351484"
       sodipodi:ry="0.92351484"
       d="m 3.9643564,2.0121286 c 0,0.5100432 -0.4134717,0.9235148 -0.9235148,0.9235148 -0.5100432,0 -0.9235149,-0.4134716 -0.9235149,-0.9235148 0,-0.5100432 0.4134717,-0.9235149 0.9235149,-0.9235149 0.5100431,0 0.9235148,0.4134717 0.9235148,0.9235149 z"
       transform="matrix(21.079647,0,0,21.079647,116.16337,129.46819)" />
    <path
       transform="matrix(21.079647,0,0,21.079647,116.16337,204.49746)"
       d="m 3.9643564,2.0121286 c 0,0.5100432 -0.4134717,0.9235148 -0.9235148,0.9235148 -0.5100432,0 -0.9235149,-0.4134716 -0.9235149,-0.9235148 0,-0.5100432 0.4134717,-0.9235149 0.9235149,-0.9235149 0.5100431,0 0.9235148,0.4134717 0.9235148,0.9235149 z"
       sodipodi:ry="0.92351484"
       sodipodi:rx="0.92351484"
       sodipodi:cy="2.0121286"
       sodipodi:cx="3.0408416"
       id="path3759"
       style="fill:#e5a000;fill-opacity:1;stroke:#e50000;stroke-width:0.69999999;stroke-linecap:round;stroke-linejoin:bevel;stroke-miterlimit:4;stroke-opacity:1;stroke-dasharray:none;stroke-dashoffset:0;display:inline"
       sodipodi:type="arc" />
    <path
       sodipodi:type="arc"
       style="fill:#e5a000;fill-opacity:1;stroke:#e50000;stroke-width:0.69999999;stroke-linecap:round;stroke-linejoin:bevel;stroke-miterlimit:4;stroke-opacity:1;stroke-dasharray:none;stroke-dashoffset:0;display:inline"
       id="path3761"
       sodipodi:cx="3.0408416"
       sodipodi:cy="2.0121286"
       sodipodi:rx="0.92351484"
       sodipodi:ry="0.92351484"
       d="m 3.9643564,2.0121286 c 0,0.5100432 -0.4134717,0.9235148 -0.9235148,0.9235148 -0.5100432,0 -0.9235149,-0.4134716 -0.9235149,-0.9235148 0,-0.5100432 0.4134717,-0.9235149 0.9235149,-0.9235149 0.5100431,0 0.9235148,0.4134717 0.9235148,0.9235149 z"
       transform="matrix(21.079647,0,0,21.079647,116.16337,279.52671)" />
    <path
       id="path3763"
       d="m 94.446168,132.98031 0,191.09014 0,9.37868 9.378632,0 41.6178,0 0,-18.75735 -32.23913,0 0,-57.44424 31.65295,0 0,-18.75734 -31.65295,0 0,-56.27192 31.65295,0 0,-18.7573 -31.65295,0 0,-30.48067 -18.757302,0 z"
       style="fill:#000000;fill-opacity:1;fill-rule:evenodd;stroke:none;display:inline"
       inkscape:connector-curvature="0" />
  </g>
  <g
     id="g3291"
     transform="matrix(0.58950964,-0.63735527,0.63735527,0.58950964,-121.79803,248.59037)">
    <path
       inkscape:connector-curvature="0"
       id="path24788-9"
       style="opacity:0.69199997;fill:#234069;fill-opacity:1;stroke:none;filter:url(#filter24810-2)"
       d="m 314.39565,342.58172 -39.12961,0 0,39.12962 -58.69443,-58.69443 0,0 58.69443,-58.69442 0,39.12962 39.12961,0 c 30.81278,-1.09477 34.68055,-33.96717 25.25817,-58.56644 -2.17854,-3.76615 -3.30786,-7.04939 -6.53805,-9.99378 11.20528,4.71974 21.1354,13.02147 27.74306,24.44443 15.14222,26.17705 7.14374,61.42915 -19.56477,76.62886 -8.34197,4.74732 -17.6986,6.89554 -26.89841,6.61654 z"
       sodipodi:nodetypes="ccccccccccssc" />
    <path
       inkscape:connector-curvature="0"
       sodipodi:nodetypes="ccccccccccssc"
       d="m 312.39565,337.58172 -39.12961,0 0,39.12962 -58.69443,-58.69443 0,0 58.69443,-58.69442 0,39.12962 39.12961,0 c 30.81278,-1.09477 34.68055,-33.96717 25.25817,-58.56644 -2.17854,-3.76615 -3.30786,-7.04939 -6.53805,-9.99378 11.20528,4.71974 21.1354,13.02147 27.74306,24.44443 15.14222,26.17705 7.14374,61.42915 -19.56477,76.62886 -8.34197,4.74732 -17.6986,6.89554 -26.89841,6.61654 z"
       style="fill:#3c6eb4;fill-opacity:1;stroke:none"
       id="path20226-9" />
    <path
       inkscape:connector-curvature="0"
       sodipodi:nodetypes="ccsscssccccccccc"
       d="m 214.57161,318.01691 92.2739,-0.0423 c 7.88505,0.23909 15.90451,-1.60208 23.05435,-5.67097 22.89161,-13.02754 29.74704,-43.24175 16.76876,-65.67785 -3.7125,-6.418 -8.64866,-11.68638 -14.93354,-16.21395 10.58597,4.19975 20.51609,12.50148 27.12375,23.92444 15.14222,26.17705 7.14374,61.42915 -19.56477,76.62886 -8.34197,4.74732 -17.6986,6.89554 -26.89841,6.61654 l 0,0 0,0 -39.12961,0 0,39.12962 -58.69443,-58.69443 m 0,0 0,0 0,0"
       style="fill:url(#radialGradient3327);fill-opacity:1;stroke:none"
       id="path24750-5" />
    <path
       inkscape:connector-curvature="0"
       sodipodi:nodetypes="cccccccsscc"
       d="m 214.57161,318.01691 0,0 58.69443,-58.69442 0,39.12962 39.12961,0 c 30.81278,-1.09477 34.68055,-33.96717 25.25817,-58.56644 -2.17854,-3.76615 -3.30786,-7.04939 -5.91874,-9.47379 6.28488,4.52757 11.22104,9.79595 14.93354,16.21395 12.97828,22.4361 6.12285,52.65031 -16.76876,65.67785 -7.14984,4.06889 -15.1693,5.91006 -23.05435,5.67097 l -92.2739,0.0423"
       style="fill:url(#radialGradient3329);fill-opacity:1;stroke:none"
       id="path24746-6" />
    <path
       inkscape:connector-curvature="0"
       sodipodi:nodetypes="cccccccccssccssccccccccsssccsc"
       id="path24754-7"
       d="m 331.10286,229.89191 c 3.23019,2.94439 4.35271,6.2026 6.53125,9.96875 9.42238,24.59927 5.56278,57.46773 -25.25,58.5625 l -39.125,0 0,-39.125 -58.6875,58.71875 58.6875,58.6875 0,-39.125 39.125,0 c 9.19981,0.279 18.56428,-1.87768 26.90625,-6.625 26.70851,-15.19971 34.70472,-50.44795 19.5625,-76.625 -6.60766,-11.42296 -16.54472,-19.71776 -27.75,-24.4375 z m 6.84375,6.125 c 7.5928,4.67323 14.30084,11.0893 19.09375,19.375 14.56965,25.18722 6.83399,59.12343 -18.8125,73.71875 -7.9915,4.54788 -16.92361,6.64267 -25.75,6.375 -0.0312,-0.003 -0.0626,-0.003 -0.0937,0 l -41.125,0.0809 -0.0937,36.04407 -53.59375,-53.59375 53.59375,-53.625 0.0937,36.17468 41.125,-0.0497 c 0.0312,0.003 0.0626,0.003 0.0937,0 0.0109,-3.9e-4 0.0204,3.9e-4 0.0312,0 16.13898,-0.58544 25.75288,-9.87364 29.59375,-21.9375 3.84028,-12.06199 2.3573,-26.78767 -2.5,-39.46875 l -0.0937,0.0312 c 0.0176,-0.11727 -0.005,-0.24019 -0.0625,-0.34375 -0.54137,-0.93589 -1.01485,-1.85082 -1.5,-2.78125 z"
       style="opacity:0.728;fill:url(#linearGradient3331);fill-opacity:1;stroke:none;filter:url(#filter24784-1)" />
    <path
       inkscape:connector-curvature="0"
       sodipodi:nodetypes="ccccc"
       id="rect24814-0"
       d="m 215.57161,317.01691 -1,1.01282 92.28125,-0.0625 c 7.39223,0.22415 14.88629,-1.38344 21.6875,-4.9375 l -112.96875,3.98718 z"
       style="fill:url(#radialGradient3333);fill-opacity:1;stroke:none;filter:url(#filter24877-4)" />
    <path
       inkscape:connector-curvature="0"
       sodipodi:nodetypes="cccccccccc"
       id="path24854-0"
       d="m 218.94661,319.84223 52.5,52.5 0,-36.5625 40.9375,0 c 21.08029,0.51778 37.47233,-12.68091 41.1875,-19.76282 -9.75787,10.38699 -24.27988,17.82204 -41.09375,18.23157 l -32.875,0 -9.6875,-0.0625 0,34.5 -50.96875,-48.84375 z"
       style="fill:url(#linearGradient3335);fill-opacity:1;stroke:none;filter:url(#filter24869-1)" />
  </g>
  <path
     style="fill:#d9e4f2;fill-opacity:1;stroke:none"
     d="m 149.09845,317.76825 c 0.0113,0.0224 0.0125,0.0258 0.0312,0.0625 -0.0139,-0.0275 -0.0191,-0.0386 -0.0312,-0.0625 z"
     id="path7422"
     inkscape:connector-curvature="0" />
</svg>
