<?xml version="1.0" encoding="UTF-8" standalone="no"?>
<!-- Created with Inkscape (http://www.inkscape.org/) -->
<svg
   xmlns:dc="http://purl.org/dc/elements/1.1/"
   xmlns:cc="http://web.resource.org/cc/"
   xmlns:rdf="http://www.w3.org/1999/02/22-rdf-syntax-ns#"
   xmlns:svg="http://www.w3.org/2000/svg"
   xmlns="http://www.w3.org/2000/svg"
   xmlns:xlink="http://www.w3.org/1999/xlink"
   xmlns:sodipodi="http://sodipodi.sourceforge.net/DTD/sodipodi-0.dtd"
   xmlns:inkscape="http://www.inkscape.org/namespaces/inkscape"
   width="400"
   height="400"
   id="svg2"
   sodipodi:version="0.32"
   inkscape:version="0.44"
   sodipodi:docbase="D:\Quelltexte\Projekte\phpsurveyor\source\original art"
   sodipodi:docname="remind.svg"
   version="1.0"
   inkscape:export-filename="D:\xampp\xampp\htdocs\phpsurveyor\admin\images\remind.png"
   inkscape:export-xdpi="9"
   inkscape:export-ydpi="9">
  <defs
     id="defs4">
    <linearGradient
       id="linearGradient2078">
      <stop
         style="stop-color:#5e89de;stop-opacity:1;"
         offset="0"
         id="stop2080" />
      <stop
         style="stop-color:#62ff4d;stop-opacity:1;"
         offset="1"
         id="stop2082" />
    </linearGradient>
    <linearGradient
       y2="65.818466"
       y1="6.2155557"
       xlink:href="#linearGradient2078"
       x2="60.902569"
       x1="16.887327"
       id="linearGradient2084"
       gradientUnits="userSpaceOnUse"
       gradientTransform="matrix(0.968115,0,0,1.032935,1.34375,1)" />
    <linearGradient
       id="linearGradient2116">
      <stop
         style="stop-color:#abb7ce;stop-opacity:1.0000000;"
         offset="0.0000000"
         id="stop2118" />
      <stop
         style="stop-color:#8dba87;stop-opacity:1.0000000;"
         offset="1.0000000"
         id="stop2120" />
    </linearGradient>
    <linearGradient
       y2="65.818466"
       y1="6.2155557"
       xlink:href="#linearGradient2116"
       x2="60.902569"
       x1="16.887327"
       id="linearGradient2114"
       gradientUnits="userSpaceOnUse"
       gradientTransform="matrix(0.968115,0,0,1.032935,3,2)" />
    <linearGradient
       id="linearGradient6503">
      <stop
         id="stop6505"
         offset="0"
         style="stop-color:#cfc66b;stop-opacity:1;" />
      <stop
         id="stop6507"
         offset="1.0000000"
         style="stop-color:#000000;stop-opacity:1.0000000;" />
    </linearGradient>
    <linearGradient
       id="linearGradient5753">
      <stop
         style="stop-color:#000000;stop-opacity:1.0000000;"
         offset="0.00000000"
         id="stop5755" />
      <stop
         style="stop-color:#e09d17;stop-opacity:1.0000000"
         offset="1.0000000"
         id="stop5757" />
    </linearGradient>
    <linearGradient
       id="linearGradient5739">
      <stop
         id="stop5741"
         offset="0"
         style="stop-color:#cfc66b;stop-opacity:1;" />
      <stop
         id="stop5743"
         offset="1.0000000"
         style="stop-color:#f2d30f;stop-opacity:1.0000000;" />
    </linearGradient>
    <linearGradient
       id="linearGradient4985">
      <stop
         style="stop-color:#000000;stop-opacity:0.56701028;"
         offset="0.00000000"
         id="stop4987" />
      <stop
         style="stop-color:#cfc66b;stop-opacity:0;"
         offset="1"
         id="stop4989" />
    </linearGradient>
    <linearGradient
       id="linearGradient2789">
      <stop
         style="stop-color:#cfc66b;stop-opacity:1;"
         offset="0"
         id="stop2791" />
      <stop
         style="stop-color:#cfc66b;stop-opacity:0;"
         offset="1"
         id="stop2793" />
    </linearGradient>
    <linearGradient
       id="linearGradient2055">
      <stop
         style="stop-color:#cfc66b;stop-opacity:1;"
         offset="0"
         id="stop2057" />
      <stop
         style="stop-color:#ffffd3;stop-opacity:1.0000000;"
         offset="1.0000000"
         id="stop2059" />
    </linearGradient>
    <linearGradient
       inkscape:collect="always"
       xlink:href="#linearGradient2055"
       id="linearGradient2061"
       x1="350.92859"
       y1="522.36218"
       x2="259.07144"
       y2="348.07648"
       gradientUnits="userSpaceOnUse"
       gradientTransform="translate(-22.02455,218.5294)" />
    <linearGradient
       inkscape:collect="always"
       xlink:href="#linearGradient4985"
       id="linearGradient4991"
       x1="186.6947"
       y1="590.36292"
       x2="280"
       y2="664.50507"
       gradientUnits="userSpaceOnUse"
       gradientTransform="translate(4.23946,200.3466)" />
    <linearGradient
       inkscape:collect="always"
       xlink:href="#linearGradient4985"
       id="linearGradient5721"
       gradientUnits="userSpaceOnUse"
       x1="170.53227"
       y1="592.38324"
       x2="269.89847"
       y2="660.46448"
       gradientTransform="matrix(-1,0,0,1,631.8339,204.5098)" />
    <linearGradient
       inkscape:collect="always"
       xlink:href="#linearGradient6503"
       id="linearGradient6493"
       x1="934.40405"
       y1="484.11993"
       x2="1456.3741"
       y2="888.18097"
       gradientUnits="userSpaceOnUse"
       gradientTransform="translate(-502.8571,194.2857)" />
    <linearGradient
       inkscape:collect="always"
       xlink:href="#linearGradient6503"
       id="linearGradient6501"
       x1="558.69043"
       y1="429.98175"
       x2="1200.0996"
       y2="1019.991"
       gradientUnits="userSpaceOnUse"
       gradientTransform="translate(-502.8571,194.2857)" />
    <linearGradient
       inkscape:collect="always"
       xlink:href="#linearGradient4985"
       id="linearGradient1906"
       gradientUnits="userSpaceOnUse"
       gradientTransform="matrix(-1,0,0,1,631.8339,204.5098)"
       x1="170.53227"
       y1="592.38324"
       x2="269.89847"
       y2="660.46448" />
    <linearGradient
       inkscape:collect="always"
       xlink:href="#linearGradient6503"
       id="linearGradient1908"
       gradientUnits="userSpaceOnUse"
       gradientTransform="translate(-502.8571,194.2857)"
       x1="934.40405"
       y1="484.11993"
       x2="1456.3741"
       y2="888.18097" />
    <linearGradient
       inkscape:collect="always"
       xlink:href="#linearGradient4985"
       id="linearGradient1910"
       gradientUnits="userSpaceOnUse"
       gradientTransform="translate(4.23946,200.3466)"
       x1="186.6947"
       y1="590.36292"
       x2="280"
       y2="664.50507" />
    <linearGradient
       inkscape:collect="always"
       xlink:href="#linearGradient6503"
       id="linearGradient1912"
       gradientUnits="userSpaceOnUse"
       gradientTransform="translate(-502.8571,194.2857)"
       x1="558.69043"
       y1="429.98175"
       x2="1200.0996"
       y2="1019.991" />
    <linearGradient
       inkscape:collect="always"
       xlink:href="#linearGradient2055"
       id="linearGradient1914"
       gradientUnits="userSpaceOnUse"
       gradientTransform="translate(-22.02455,218.5294)"
       x1="350.92859"
       y1="522.36218"
       x2="259.07144"
       y2="348.07648" />
    <linearGradient
       inkscape:collect="always"
       xlink:href="#linearGradient2078"
       id="linearGradient2233"
       gradientUnits="userSpaceOnUse"
       gradientTransform="matrix(3.532542,0,0,3.769063,96.24932,128.6691)"
       x1="16.887327"
       y1="6.2155557"
       x2="60.902569"
       y2="65.818466" />
    <linearGradient
       inkscape:collect="always"
       xlink:href="#linearGradient2116"
       id="linearGradient2236"
       gradientUnits="userSpaceOnUse"
       gradientTransform="matrix(3.532542,0,0,3.769063,102.293,132.318)"
       x1="16.887327"
       y1="6.2155557"
       x2="60.902569"
       y2="65.818466" />
  </defs>
  <sodipodi:namedview
     id="base"
     pagecolor="#ffffff"
     bordercolor="#666666"
     borderopacity="1.0"
     inkscape:pageopacity="0.0"
     inkscape:pageshadow="2"
     inkscape:zoom="1.29"
     inkscape:cx="200"
     inkscape:cy="134.64337"
     inkscape:document-units="px"
     inkscape:current-layer="layer1"
     inkscape:window-width="1024"
     inkscape:window-height="712"
     inkscape:window-x="150"
     inkscape:window-y="153"
     width="400px"
     height="400px" />
  <metadata
     id="metadata7">
    <rdf:RDF>
      <cc:Work
         rdf:about="">
        <dc:format>image/svg+xml</dc:format>
        <dc:type
           rdf:resource="http://purl.org/dc/dcmitype/StillImage" />
      </cc:Work>
    </rdf:RDF>
  </metadata>
  <g
     inkscape:label="Layer 1"
     inkscape:groupmode="layer"
     id="layer1">
    <g
       id="g1898"
       transform="matrix(0.796947,0,0,0.796947,-53.51239,-402.1742)">
      <path
         id="path1324"
         d="M 124.2815,893.51411 L 522.49576,896.72841 L 519.63866,612.44267 L 117.13865,613.5141 L 124.2815,893.51411 z "
         style="fill:#cfc66b;fill-opacity:1;fill-rule:evenodd;stroke:black;stroke-width:36.40000153;stroke-linecap:butt;stroke-linejoin:miter;stroke-miterlimit:4;stroke-dasharray:none;stroke-opacity:1" />
      <path
         id="path5719"
         d="M 488.97692,878.30051 L 361.83406,756.87196 L 318.97692,804.01482 L 396.11977,881.15771 L 488.97692,878.30051 z "
         style="fill:url(#linearGradient1906);fill-opacity:1;fill-rule:evenodd;stroke:none;stroke-width:1px;stroke-linecap:butt;stroke-linejoin:miter;stroke-opacity:1" />
      <path
         sodipodi:nodetypes="ccccc"
         id="path1318"
         d="M 342.26118,735.5239 L 520.83266,898.38101 L 517.97546,626.95247 L 393.68976,624.09533 L 342.26118,735.5239 z "
         style="fill:url(#linearGradient1908);fill-opacity:1;fill-rule:evenodd;stroke:black;stroke-width:12.80000019;stroke-linecap:butt;stroke-linejoin:miter;stroke-miterlimit:4;stroke-dasharray:none;stroke-opacity:1" />
      <path
         id="path4257"
         d="M 147.09658,874.13737 L 274.23944,752.7088 L 317.09658,799.85166 L 239.95373,876.99451 L 147.09658,874.13737 z "
         style="fill:url(#linearGradient1910);fill-opacity:1;fill-rule:evenodd;stroke:none;stroke-width:1px;stroke-linecap:butt;stroke-linejoin:miter;stroke-opacity:1" />
      <path
         sodipodi:nodetypes="cccc"
         id="path1322"
         d="M 122.8424,640.769 L 292.8424,741.12615 L 133.19954,890.76901 L 122.8424,640.769 z "
         style="fill:url(#linearGradient1912);fill-opacity:1;fill-rule:evenodd;stroke:black;stroke-width:12.80000019;stroke-linecap:butt;stroke-linejoin:miter;stroke-miterlimit:4;stroke-dasharray:none;stroke-opacity:1" />
      <path
         sodipodi:nodetypes="ccccccc"
         id="path1316"
         d="M 115.11833,615.17727 L 115.11833,643.7487 L 306.5469,822.32013 L 337.97547,822.32013 L 517.97545,646.60584 L 520.83265,613.7487 L 115.11833,615.17727 z "
         style="fill:url(#linearGradient1914);fill-opacity:1;fill-rule:evenodd;stroke:black;stroke-width:14;stroke-linecap:butt;stroke-linejoin:miter;stroke-miterlimit:4;stroke-dasharray:none;stroke-opacity:1" />
    </g>
    <path
       d="M 174.80296,138.41266 C 174.28623,139.23483 196.58317,180.74523 197.03682,181.60381 C 197.49046,182.46239 219.15134,224.2266 220.12172,224.26298 C 220.80912,224.28882 231.24565,207.33923 238.73858,195.32709 C 260.55069,205.65023 275.75954,227.67564 275.75954,253.41168 C 275.75954,289.11523 246.78277,318.09199 211.07924,318.09199 C 175.37572,318.09199 146.39894,289.11523 146.39894,253.41168 C 146.39894,238.63493 151.5599,225.15798 159.90947,214.2631 C 148.93481,200.09845 138.10633,194.72521 130.33526,192.45476 C 117.48688,209.47806 109.59076,230.4527 109.59076,253.41168 C 109.59076,309.47248 155.01846,354.90018 211.07924,354.90018 C 267.14004,354.90018 312.67412,309.47248 312.67412,253.41168 C 312.67412,214.47897 290.4423,181.08348 258.2065,164.15713 C 264.97922,153.36701 272.06608,142.48894 271.8234,142.02966 C 271.36976,141.17108 224.28357,139.72568 223.31318,139.68926 C 222.3428,139.65285 175.3197,137.5905 174.80296,138.41266 z "
       id="path2112"
       style="fill:url(#linearGradient2236);fill-opacity:1;stroke:none;stroke-width:0.375;stroke-miterlimit:4;stroke-opacity:1" />
    <path
       d="M 168.75949,134.76378 C 168.24276,135.58594 190.5397,177.09634 190.99335,177.95492 C 191.44699,178.8135 213.10787,220.57772 214.07825,220.61409 C 214.76565,220.63993 225.20218,203.69034 232.69512,191.6782 C 254.50722,202.00134 269.71607,224.02675 269.71607,249.76279 C 269.71607,285.46635 240.7393,314.44311 205.03578,314.44311 C 169.33225,314.44311 140.35547,285.46635 140.35547,249.76279 C 140.35547,234.98604 145.51642,221.50909 153.866,210.61421 C 142.89134,196.44956 132.06286,191.07632 124.29179,188.80587 C 111.44341,205.82917 103.54729,226.80381 103.54729,249.76279 C 103.54729,305.8236 148.97498,351.25129 205.03578,351.25129 C 261.09657,351.25129 306.63065,305.8236 306.63065,249.76279 C 306.63065,210.83008 284.39883,177.43459 252.16303,160.50824 C 258.93575,149.71812 266.02261,138.84006 265.77993,138.38077 C 265.32629,137.52219 218.2401,136.07679 217.26972,136.04038 C 216.29933,136.00396 169.27623,133.94161 168.75949,134.76378 z "
       id="path1301"
       style="fill:url(#linearGradient2233);fill-opacity:1;stroke:black;stroke-width:18.24443436;stroke-linejoin:round;stroke-miterlimit:4;stroke-dasharray:none;stroke-opacity:1" />
    <path
       d="M 177.9304,140.89218 C 177.9304,140.89218 206.51334,142.71663 211.98667,142.71663 C 217.46,142.71663 235.70444,139.06774 246.6511,142.71663 C 257.59776,146.36551 263.07109,146.36551 250.29999,146.36551 C 237.52888,146.36551 182.79558,144.54107 182.79558,144.54107 C 182.79558,144.54107 208.33779,177.38105 208.33779,191.9766 C 208.33779,206.57215 177.9304,140.89218 177.9304,140.89218 z "
       id="path2136"
       style="fill:#d7f1ff;fill-opacity:1;fill-rule:evenodd;stroke:none;stroke-width:1px;stroke-linecap:butt;stroke-linejoin:miter;stroke-opacity:1" />
    <path
       d="M 126.17778,199.94254 C 126.17778,199.94254 134.08371,200.5507 132.25927,204.19959 C 130.43482,207.84847 110.36595,251.63512 121.31261,282.65066 C 132.25927,313.6662 110.36595,266.23067 110.36595,266.23067 C 110.36595,266.23067 101.85189,230.34996 126.17778,199.94254 z "
       id="path2138"
       style="fill:#daf0fe;fill-opacity:1;fill-rule:evenodd;stroke:none;stroke-width:1px;stroke-linecap:butt;stroke-linejoin:miter;stroke-opacity:1" />
  </g>
</svg>
