<?xml version="1.0" encoding="UTF-8" standalone="no"?>
<!-- Generator: Adobe Illustrator 12.0.0, SVG Export Plug-In . SVG Version: 6.00 Build 51448)  -->
<svg
   xmlns:dc="http://purl.org/dc/elements/1.1/"
   xmlns:cc="http://creativecommons.org/ns#"
   xmlns:rdf="http://www.w3.org/1999/02/22-rdf-syntax-ns#"
   xmlns:svg="http://www.w3.org/2000/svg"
   xmlns="http://www.w3.org/2000/svg"
   xmlns:xlink="http://www.w3.org/1999/xlink"
   xmlns:sodipodi="http://sodipodi.sourceforge.net/DTD/sodipodi-0.dtd"
   xmlns:inkscape="http://www.inkscape.org/namespaces/inkscape"
   height="400"
   id="Layer_1"
   inkscape:version="0.46"
   sodipodi:docbase="D:\Quelltexte\Projekte\phpsurveyor\source\original art"
   sodipodi:docname="resetsurveylogic.svg"
   sodipodi:version="0.32"
   space="preserve"
   style="overflow:visible;enable-background:new 0 0 136.728 105.837;"
   version="1.0"
   viewBox="0 0 136.728 105.837"
   width="400"
   inkscape:export-filename="D:\xampp\xampp\htdocs\phpsurveyor\admin\images\conditions.png"
   inkscape:export-xdpi="9"
   inkscape:export-ydpi="9"
   inkscape:output_extension="org.inkscape.output.svg.inkscape">
  <metadata
     id="metadata3">
    <rdf:RDF>
      <cc:Work
         rdf:about="">
        <dc:title>Diagramma</dc:title>
        <dc:description />
        <dc:subject>
          <rdf:Bag>
            <rdf:li>unsorted</rdf:li>
          </rdf:Bag>
        </dc:subject>
        <dc:publisher>
          <cc:Agent
             rdf:about="http://www.openclipart.org/">
            <dc:title>Open Clip Art Library</dc:title>
          </cc:Agent>
        </dc:publisher>
        <dc:creator>
          <cc:Agent>
            <dc:title>Architetto Francesco Rollandin</dc:title>
          </cc:Agent>
        </dc:creator>
        <dc:rights>
          <cc:Agent>
            <dc:title>Architetto Francesco Rollandin</dc:title>
          </cc:Agent>
        </dc:rights>
        <dc:date />
        <dc:format>image/svg+xml</dc:format>
        <dc:type
           rdf:resource="http://purl.org/dc/dcmitype/StillImage" />
        <cc:license
           rdf:resource="http://web.resource.org/cc/PublicDomain" />
        <dc:language>en</dc:language>
      </cc:Work>
      <cc:License
         rdf:about="http://web.resource.org/cc/PublicDomain">
        <cc:permits
           rdf:resource="http://web.resource.org/cc/Reproduction" />
        <cc:permits
           rdf:resource="http://web.resource.org/cc/Distribution" />
        <cc:permits
           rdf:resource="http://web.resource.org/cc/DerivativeWorks" />
      </cc:License>
    </rdf:RDF>
  </metadata>
  <defs
     id="defs39">
    <linearGradient
       id="linearGradient2250">
      <stop
         style="stop-color:#ff0000;stop-opacity:1;"
         offset="0"
         id="stop2252" />
      <stop
         style="stop-color:#850000;stop-opacity:1;"
         offset="1"
         id="stop2254" />
    </linearGradient>
    <linearGradient
       inkscape:collect="always"
       xlink:href="#linearGradient2250"
       id="linearGradient4975"
       gradientUnits="userSpaceOnUse"
       gradientTransform="matrix(0.3577057,0,0,0.3859808,99.008521,-68.124091)"
       x1="-223.55299"
       y1="187.2412"
       x2="-93.461372"
       y2="304.79459" />
    <inkscape:perspective
       sodipodi:type="inkscape:persp3d"
       inkscape:vp_x="0 : 200 : 1"
       inkscape:vp_y="0 : 1000 : 0"
       inkscape:vp_z="400 : 200 : 1"
       inkscape:persp3d-origin="200 : 133.33333 : 1"
       id="perspective5168" />
    <linearGradient
       y2="448.80219"
       y1="448.80219"
       x2="-238.563"
       x1="-240.5889"
       id="XMLID_2_"
       gradientUnits="userSpaceOnUse"
       gradientTransform="matrix(577.9565,0,0,-725.3492,138642.1,325591.1)">
      <stop
         style="stop-color:#FFFFFF"
         offset="0"
         id="stop10" />
      <stop
         style="stop-color:#000000"
         offset="1"
         id="stop12" />
    </linearGradient>
    <linearGradient
       inkscape:collect="always"
       xlink:href="#XMLID_2_"
       id="linearGradient5494"
       gradientUnits="userSpaceOnUse"
       gradientTransform="matrix(551.42185,0,0,-738.33123,132282.72,331416.24)"
       x1="-240.5889"
       y1="448.80219"
       x2="-238.563"
       y2="448.80219" />
  </defs>
  <sodipodi:namedview
     bordercolor="#666666"
     borderopacity="1.0"
     id="base"
     inkscape:current-layer="Layer_1"
     inkscape:cx="200"
     inkscape:cy="200"
     inkscape:pageopacity="0.0"
     inkscape:pageshadow="2"
     inkscape:window-height="968"
     inkscape:window-width="1280"
     inkscape:window-x="0"
     inkscape:window-y="22"
     inkscape:zoom="1.9075"
     pagecolor="#ffffff"
     width="400px"
     height="400px"
     showgrid="false"
     showguides="true"
     inkscape:guide-bbox="true">
    <sodipodi:guide
       orientation="0,1"
       position="42,380"
       id="guide5170" />
    <sodipodi:guide
       orientation="1,0"
       position="40,244"
       id="guide5172" />
    <sodipodi:guide
       orientation="1,0"
       position="360,224"
       id="guide5174" />
    <sodipodi:guide
       orientation="1,0"
       position="20,337"
       id="guide5181" />
  </sodipodi:namedview>
  <path
     style="fill:#ffffff;fill-opacity:0.81775692"
     id="path5"
     d="M 120.09577,93.799157 C 120.09577,100.85578 110.41062,98.813503 106.96352,98.813503 C 97.933738,98.813503 88.904722,98.813503 79.874942,98.813503 C 61.45573,98.813503 43.035749,98.813503 24.618077,98.813503 C 20.423177,98.813503 16.360738,98.866668 16.360738,92.01299 C 16.360738,82.770054 16.360738,73.531942 16.360738,64.288999 C 16.360738,43.893246 16.360738,23.498459 16.360738,3.1007721 C 16.360738,-3.824428 24.429395,-2.072106 27.942731,-2.072106 C 36.647517,-2.072106 45.353841,-2.072106 54.059396,-2.072106 C 72.911421,-2.072106 91.761137,-2.072106 110.61316,-2.072106 C 114.50618,-2.072106 120.09577,-3.2019815 120.09577,3.8759306 C 120.09577,12.395908 120.09577,20.914919 120.09577,29.43393 C 120.09577,50.689897 120.09577,71.944896 120.09577,93.197971 C 120.09577,93.399974 120.09577,93.599078 120.09577,93.799157" />
  <path
     style="fill:url(#linearGradient5494);stroke:#000000;stroke-width:4.54690313;stroke-miterlimit:4;stroke-dasharray:none;stroke-opacity:1"
     id="path14"
     d="M 21.10604,-6.4643265 C 14.675479,-6.4643265 16.552118,8.2073974 16.552118,13.483122 C 16.552118,26.724437 16.552118,39.966782 16.552118,53.210159 C 16.552118,65.22497 16.552118,77.245959 16.552118,89.260769 C 16.552118,95.012266 15.8553,102.52886 21.927453,102.52886 C 53.401901,102.52886 84.877117,102.52886 116.35003,102.52886 C 122.53217,102.52886 121.27467,92.728145 121.27467,87.2341 C 121.27467,74.743517 121.27467,62.251904 121.27467,49.76029 C 121.27467,36.860873 121.27467,23.960424 121.27467,11.062036 C 121.27467,5.7626251 122.86596,-6.4643265 116.6269,-6.4643265 C 85.267828,-6.4643265 53.908748,-6.4643265 22.549668,-6.4643265 C 22.06974,-6.4643265 21.588276,-6.4643265 21.10604,-6.4643265 M 17.675024,96.431357 C 17.675024,75.743463 17.675024,55.056611 17.675024,34.371818 C 17.675024,23.822428 17.675024,13.27613 17.675024,2.7288004 C 17.675024,-3.5262743 20.010054,-4.9587421 24.271714,-4.9587421 C 42.178222,-4.9587421 60.083963,-4.9587421 77.990471,-4.9587421 C 87.302903,-4.9587421 96.61687,-4.9587421 105.92777,-4.9587421 C 108.87424,-4.9587421 116.69305,-6.8906685 119.14575,-3.6117486 C 121.93071,0.11410912 120.15329,12.942472 120.15329,17.43142 C 120.15329,31.066123 120.15329,44.699798 120.15329,58.3345 C 120.15329,69.517223 120.15329,80.704066 120.15329,91.887821 C 120.15329,97.64858 119.22959,101.02532 114.49493,101.02532 C 97.133713,101.02532 79.772508,101.02532 62.413609,101.02532 C 52.835832,101.02532 43.257289,101.02532 33.678744,101.02532 C 29.937775,101.02532 24.763177,102.29921 21.106809,101.02532 C 19.236323,101.02327 17.675024,98.934826 17.675024,96.431357" />
  <path
     style="fill:#494848;stroke:#494848;stroke-width:1.54262495;stroke-miterlimit:4;stroke-dasharray:none;stroke-opacity:1"
     id="path16"
     d="M 41.518592,62.543443 C 40.926361,46.118201 63.994081,51.304611 72.286076,51.304611 C 76.6196,51.304611 81.063253,50.939263 85.389076,51.304611 C 90.093034,51.304611 93.899019,54.388814 93.899019,60.63261 C 93.899019,63.861791 97.423906,63.574733 97.423906,60.12808 C 97.423906,42.555565 72.497092,47.703313 63.69527,47.703313 C 58.925852,47.703313 54.085581,47.39789 49.323093,47.703313 C 44.609895,47.703313 39.248246,50.215329 38.364907,56.753917 C 37.713376,61.567246 37.775758,62.543443 41.518592,62.543443" />
  <path
     style="fill:#494848;stroke:#494848;stroke-width:1.54262495;stroke-miterlimit:4;stroke-dasharray:none;stroke-opacity:1"
     id="path18"
     d="M 69.779301,47.721678 C 67.547462,47.721678 66.145825,48.80516 66.145825,45.785715 C 66.145825,44.2151 65.29021,36.326269 66.145825,35.341372 C 70.975314,29.794447 69.779301,45.960657 69.779301,47.721678" />
  <path
     style="fill:#fed219"
     id="path20"
     d="M 53.78446,86.623616 C 45.256036,86.623616 36.7253,86.623616 28.195333,86.623616 C 25.627718,86.623616 26.970826,79.364962 26.970826,76.778522 C 26.970826,74.211415 25.573809,62.289245 26.970826,60.448002 C 27.978157,59.125787 35.732601,60.448002 37.162733,60.448002 C 42.295654,60.448002 47.427802,60.448002 52.560723,60.448002 C 55.127568,60.448002 53.78446,67.709555 53.78446,70.294061 C 53.78446,75.737568 53.78446,81.183008 53.78446,86.623616" />
  <path
     style="fill:#ff9b02;fill-opacity:1"
     id="path22"
     d="M 26.970826,59.205042 C 25.217239,59.205042 25.029326,87.870441 27.05323,87.870441 C 31.71021,87.870441 36.368728,87.870441 41.026477,87.870441 C 43.656474,87.870441 51.527978,89.68365 53.78446,87.870441 C 55.538819,87.870441 55.726729,59.205042 53.702826,59.205042 C 44.791646,59.205042 35.882006,59.205042 26.970826,59.205042 M 52.791761,61.697728 C 52.791761,66.240427 52.791761,70.782159 52.791761,75.326792 C 52.791761,78.212856 54.111765,85.377756 51.378572,85.377756 C 43.573299,85.377756 35.769566,85.377756 27.964295,85.377756 C 27.964295,80.835057 27.964295,76.292357 27.964295,71.748691 C 27.964295,68.860695 26.64429,61.697728 29.377484,61.697728 C 37.181986,61.697728 44.985719,61.697728 52.791761,61.697728" />
  <path
     style="fill:#ffffa1"
     id="path24"
     d="M 43.624535,65.706938 C 43.624535,68.223464 27.636947,68.269756 27.636947,65.706938 C 27.636947,60.029482 43.624535,60.029482 43.624535,65.706938" />
  <path
     style="fill:#9cd305"
     id="path26"
     d="M 108.94429,86.623616 C 100.41433,86.623616 91.883587,86.623616 83.354392,86.623616 C 80.785236,86.623616 82.129113,79.364962 82.129113,76.778522 C 82.129113,74.211415 80.732097,62.289245 82.129113,60.448002 C 83.136445,59.125787 90.889349,60.448002 92.321022,60.448002 C 97.453169,60.448002 102.58532,60.448002 107.71824,60.448002 C 110.2874,60.448002 108.94352,67.709555 108.94352,70.294061 C 108.94429,75.737568 108.94429,81.183008 108.94429,86.623616" />
  <path
     style="fill:#618c03;fill-opacity:1"
     id="path28"
     d="M 82.129113,59.205042 C 80.376297,59.205042 80.187615,87.870441 82.210747,87.870441 C 86.868497,87.870441 91.527017,87.870441 96.183996,87.870441 C 98.813988,87.870441 106.68704,89.68365 108.94352,87.870441 C 110.69634,87.870441 110.88502,59.205042 108.86112,59.205042 C 99.950702,59.205042 91.041065,59.205042 82.129113,59.205042 M 107.95082,61.697728 C 107.95082,66.240427 107.95082,70.782159 107.95082,75.326792 C 107.95082,78.212856 109.27082,85.377756 106.53687,85.377756 C 98.731589,85.377756 90.927856,85.377756 83.123352,85.377756 C 83.123352,80.835057 83.123352,76.292357 83.123352,71.748691 C 83.123352,68.860695 81.80335,61.697728 84.535772,61.697728 C 92.341815,61.697728 100.14478,61.697728 107.95082,61.697728" />
  <path
     style="fill:#c2ef20"
     id="path30"
     d="M 100.09299,65.933111 C 100.09299,68.583304 83.122583,68.632056 83.122583,65.933111 C 83.123115,59.954091 100.09299,59.954091 100.09299,65.933111" />
  <path
     style="fill:#d82a2a"
     id="path32"
     d="M 82.323957,34.554616 C 73.576045,34.554616 64.825821,34.554616 56.077908,34.554616 C 53.607331,34.554616 54.898839,27.618784 54.898839,25.132863 C 54.898839,22.742631 53.516455,9.3020395 54.898839,7.7865181 C 56.301246,6.2477996 64.235901,7.7865181 66.053409,7.7865181 C 71.084673,7.7865181 76.115165,7.7865181 81.145657,7.7865181 C 83.615465,7.7865181 82.323957,14.722351 82.323957,17.20827 C 82.323957,22.991029 82.323957,28.772823 82.323957,34.554616" />
  <path
     style="fill:#8e0a0a;fill-opacity:1"
     id="path34"
     d="M 54.899608,6.5106963 C 53.103665,6.5106963 52.922684,35.82947 54.978932,35.82947 C 59.523473,35.82947 64.068783,35.82947 68.613324,35.82947 C 71.48899,35.82947 79.841827,37.774133 82.325497,35.82947 C 84.11836,35.82947 84.299342,6.5106963 82.246174,6.5106963 C 73.130138,6.5106963 64.014874,6.5106963 54.899608,6.5106963 M 81.308155,9.0604067 C 81.308155,13.957823 81.308155,18.860073 81.308155,23.759422 C 81.308155,26.670617 82.609676,33.278795 79.86339,33.278795 C 71.880217,33.278795 63.897045,33.278795 55.915412,33.278795 C 55.915412,28.379444 55.915412,23.479127 55.915412,18.577845 C 55.915412,15.668585 54.613891,9.0604067 57.360176,9.0604067 C 65.343349,9.0604067 73.327292,9.0604067 81.308155,9.0604067" />
  <path
     style="fill:#fcabab;fill-opacity:1"
     id="path36"
     d="M 73.442616,13.567012 C 73.442616,16.382605 55.915412,16.433209 55.915412,13.567012 C 55.915412,7.2192778 73.442616,7.2192778 73.442616,13.567012" />
  <path
     style="fill:url(#linearGradient4975);fill-opacity:1;fill-rule:evenodd;stroke:#000000;stroke-width:5.80924034px;stroke-linecap:butt;stroke-linejoin:miter;stroke-opacity:1"
     d="M 54.637291,54.452807 L 40.825176,39.314146 L 24.957716,54.452807 L 9.7579482,54.452807 L 9.7579482,39.314146 L 24.957716,24.390658 L 9.7579482,7.8479568 L 9.7579482,-5.6616672 L 24.957716,-5.6616672 L 39.103674,7.8479568 L 54.637291,-5.6616672 L 69.164392,-5.6616672 L 69.164392,7.8479568 L 54.637291,24.390658 L 68.912761,39.314146 L 69.164392,54.452807 L 54.637291,54.452807 z"
     id="path4214"
     sodipodi:nodetypes="ccccccccccccccccc" />
</svg>
