<?xml version="1.0" encoding="UTF-8" standalone="no"?>
<!-- Created with Inkscape (http://www.inkscape.org/) -->
<svg
   xmlns:dc="http://purl.org/dc/elements/1.1/"
   xmlns:cc="http://web.resource.org/cc/"
   xmlns:rdf="http://www.w3.org/1999/02/22-rdf-syntax-ns#"
   xmlns:svg="http://www.w3.org/2000/svg"
   xmlns="http://www.w3.org/2000/svg"
   xmlns:xlink="http://www.w3.org/1999/xlink"
   xmlns:sodipodi="http://inkscape.sourceforge.net/DTD/sodipodi-0.dtd"
   xmlns:inkscape="http://www.inkscape.org/namespaces/inkscape"
   id="svg1340"
   sodipodi:version="0.32"
   inkscape:version="0.43"
   width="210mm"
   height="297mm"
   sodipodi:docbase="C:\Documents and Settings\Owner\Desktop\New Folder"
   sodipodi:docname="graph.svg">
  <metadata
     id="metadata1345">
    <rdf:RDF>
      <cc:Work
         rdf:about="">
        <dc:format>image/svg+xml</dc:format>
        <dc:type
           rdf:resource="http://purl.org/dc/dcmitype/StillImage" />
      </cc:Work>
    </rdf:RDF>
  </metadata>
  <defs
     id="defs1343">
    <linearGradient
       id="linearGradient2250">
      <stop
         style="stop-color:#ff0000;stop-opacity:1;"
         offset="0"
         id="stop2252" />
      <stop
         style="stop-color:#850000;stop-opacity:1;"
         offset="1"
         id="stop2254" />
    </linearGradient>
    <linearGradient
       id="linearGradient2244">
      <stop
         id="stop2246"
         offset="0"
         style="stop-color:#6fff58;stop-opacity:1;" />
      <stop
         id="stop2248"
         offset="1"
         style="stop-color:#327e29;stop-opacity:1;" />
    </linearGradient>
    <linearGradient
       id="linearGradient2232">
      <stop
         style="stop-color:#0030ff;stop-opacity:1;"
         offset="0"
         id="stop2234" />
      <stop
         style="stop-color:#02116f;stop-opacity:1;"
         offset="1"
         id="stop2236" />
    </linearGradient>
    <linearGradient
       inkscape:collect="always"
       xlink:href="#linearGradient2244"
       id="linearGradient2238"
       x1="512.31555"
       y1="251.87074"
       x2="557.69232"
       y2="357.37271"
       gradientUnits="userSpaceOnUse"
       gradientTransform="translate(-62.60711,270.1251)" />
    <linearGradient
       inkscape:collect="always"
       xlink:href="#linearGradient2250"
       id="linearGradient2240"
       x1="528.2915"
       y1="346.53171"
       x2="702.09119"
       y2="432.35269"
       gradientUnits="userSpaceOnUse"
       gradientTransform="translate(-47.48293,293.6907)" />
    <linearGradient
       inkscape:collect="always"
       xlink:href="#linearGradient2232"
       id="linearGradient2242"
       x1="434.73245"
       y1="435.43597"
       x2="551.7702"
       y2="343.98737"
       gradientUnits="userSpaceOnUse"
       gradientTransform="translate(-81.60028,294.7458)" />
    <linearGradient
       inkscape:collect="always"
       xlink:href="#linearGradient2232"
       id="linearGradient2266"
       gradientUnits="userSpaceOnUse"
       gradientTransform="translate(-81.60028,294.7458)"
       x1="434.73245"
       y1="435.43597"
       x2="551.7702"
       y2="343.98737" />
    <linearGradient
       inkscape:collect="always"
       xlink:href="#linearGradient2250"
       id="linearGradient2273"
       gradientUnits="userSpaceOnUse"
       gradientTransform="translate(-47.48293,293.6907)"
       x1="528.2915"
       y1="346.53171"
       x2="702.09119"
       y2="432.35269" />
    <linearGradient
       inkscape:collect="always"
       xlink:href="#linearGradient2244"
       id="linearGradient2280"
       gradientUnits="userSpaceOnUse"
       gradientTransform="translate(-62.60711,270.1251)"
       x1="512.31555"
       y1="251.87074"
       x2="557.69232"
       y2="357.37271" />
  </defs>
  <sodipodi:namedview
     inkscape:window-height="712"
     inkscape:window-width="1012"
     inkscape:pageshadow="2"
     inkscape:pageopacity="0.0"
     borderopacity="1.0"
     bordercolor="#666666"
     pagecolor="#ffffff"
     id="base"
     inkscape:zoom="0.71078191"
     inkscape:cx="556.12229"
     inkscape:cy="206.77658"
     inkscape:window-x="800"
     inkscape:window-y="0"
     inkscape:current-layer="svg1340" />
  <g
     id="g3620"
     transform="matrix(0.926207,0,0,0.926207,-278.2774,-131.6014)">
    <path
       sodipodi:nodetypes="ccsc"
       id="path2713"
       d="M 548.64206,830.62208 L 461.4306,754.20823 C 461.4306,754.20823 515.76116,691.47477 611.76654,723.47657 C 614.25829,724.30716 549.47264,831.45266 548.64206,830.62208 z "
       style="fill:#000000;fill-opacity:1;fill-rule:evenodd;stroke:none;stroke-width:1px;stroke-linecap:butt;stroke-linejoin:miter;stroke-opacity:1" />
    <path
       sodipodi:nodetypes="ccccc"
       id="path2715"
       d="M 460.60001,752.96236 L 468.90586,779.95638 L 547.27455,852.07479 L 547.81147,828.13031 L 460.60001,752.96236 z "
       style="fill:#000000;fill-opacity:1;fill-rule:evenodd;stroke:none;stroke-width:1px;stroke-linecap:butt;stroke-linejoin:miter;stroke-opacity:1" />
    <path
       sodipodi:nodetypes="ccccc"
       id="path2717"
       d="M 611.76654,722.23069 L 614.67358,744.24121 L 547.39617,848.89494 L 546.98089,828.9609 L 611.76654,722.23069 z "
       style="fill:#000000;fill-opacity:1;fill-rule:evenodd;stroke:none;stroke-width:1px;stroke-linecap:butt;stroke-linejoin:miter;stroke-opacity:1" />
    <path
       sodipodi:nodetypes="ccccc"
       id="path2721"
       d="M 566.77236,964.00232 L 544.68198,852.59448 L 553.06771,839.82982 L 581.30761,955.28118 L 566.77236,964.00232 z "
       style="fill:#000000;fill-opacity:1;fill-rule:evenodd;stroke:none;stroke-width:1px;stroke-linecap:butt;stroke-linejoin:miter;stroke-opacity:1" />
    <path
       sodipodi:nodetypes="ccsc"
       id="path2723"
       d="M 553.06771,839.82984 L 580.47703,954.45061 C 617.3523,960.27302 771.78803,844.45559 617.02278,734.3455 C 614.88263,732.82285 553.8983,837.33808 553.06771,839.82984 z "
       style="fill:#000000;fill-opacity:1;fill-rule:evenodd;stroke:none;stroke-width:1px;stroke-linecap:butt;stroke-linejoin:miter;stroke-opacity:1" />
    <path
       sodipodi:nodetypes="cssccccccc"
       id="path2725"
       d="M 678.88319,806.1118 C 678.89101,806.1297 678.86958,806.15543 678.88319,806.1856 C 678.90111,806.22535 678.93912,806.25655 678.95698,806.29629 C 678.92175,806.21349 678.89943,806.14797 678.88319,806.1118 z M 679.17837,806.81286 C 681.24212,815.28139 708.14182,899.81623 585.9007,954.92068 C 582.98348,951.27416 565.17288,962.25582 566.56624,963.99754 L 569.25978,973.77546 L 593.75993,963.37028 C 593.75993,963.37028 718.48533,910.61939 679.17837,806.81286 z "
       style="fill:#000000;fill-opacity:1;fill-rule:evenodd;stroke:none;stroke-width:1px;stroke-linecap:butt;stroke-linejoin:miter;stroke-opacity:1" />
    <path
       sodipodi:nodetypes="ccsc"
       id="path2729"
       d="M 544.48923,844.94359 L 454.78602,767.69916 C 421.69351,791.83621 383.20702,953.88603 566.91503,960.39494 C 574.17467,960.65215 544.48923,844.94359 544.48923,844.94359 z "
       style="fill:#000000;fill-opacity:1;fill-rule:evenodd;stroke:none;stroke-width:1px;stroke-linecap:butt;stroke-linejoin:miter;stroke-opacity:1" />
    <path
       sodipodi:nodetypes="cscc"
       id="path2731"
       d="M 454.78602,766.86859 C 408.62687,818.06583 411.37365,957.0431 568.5762,959.56437 C 570.30336,959.59207 564.42328,976.17607 564.42328,976.17607 C 559.74538,993.83837 343.04641,970.33166 454.78602,766.86859 z "
       style="fill:#000000;fill-opacity:1;fill-rule:evenodd;stroke:none;stroke-width:1px;stroke-linecap:butt;stroke-linejoin:miter;stroke-opacity:1" />
  </g>
  <g
     id="g2275"
     transform="translate(-251.3233,18.94318)">
    <path
       sodipodi:nodetypes="ccsc"
       id="path2226"
       d="M 481.8637,620.44348 L 408.00138,555.72602 C 408.00138,555.72602 454.01576,502.59494 535.32595,529.69834 C 537.4363,530.40179 482.56715,621.14693 481.8637,620.44348 z "
       style="fill:url(#linearGradient2280);fill-opacity:1;fill-rule:evenodd;stroke:none;stroke-width:1px;stroke-linecap:butt;stroke-linejoin:miter;stroke-opacity:1" />
    <path
       sodipodi:nodetypes="ccccc"
       id="path2262"
       d="M 407.29793,554.67085 L 414.33243,577.53299 L 480.70551,638.6125 L 481.16025,618.33312 L 407.29793,554.67085 z "
       style="fill:#1c9c14;fill-opacity:1;fill-rule:evenodd;stroke:none;stroke-width:1px;stroke-linecap:butt;stroke-linejoin:miter;stroke-opacity:1" />
    <path
       sodipodi:nodetypes="ccccc"
       id="path2264"
       d="M 535.32595,528.64316 L 537.78802,547.28461 L 480.80852,635.91938 L 480.4568,619.03657 L 535.32595,528.64316 z "
       style="fill:#107709;fill-opacity:1;fill-rule:evenodd;stroke:none;stroke-width:1px;stroke-linecap:butt;stroke-linejoin:miter;stroke-opacity:1" />
  </g>
  <g
     id="g2268"
     transform="translate(-266.2165,1.065534)">
    <path
       sodipodi:nodetypes="ccccc"
       id="path2266"
       d="M 512.11207,751.2853 L 493.40298,656.93025 L 500.50514,646.11943 L 524.42246,743.89907 L 512.11207,751.2853 z "
       style="fill:#9c1422;fill-opacity:1;fill-rule:evenodd;stroke:none;stroke-width:1px;stroke-linecap:butt;stroke-linejoin:miter;stroke-opacity:1" />
    <path
       sodipodi:nodetypes="ccsc"
       id="path2230"
       d="M 500.50514,646.11944 L 523.71901,743.19563 C 554.94992,748.12683 685.74674,650.03715 554.67084,556.7812 C 552.85827,555.49162 501.20859,644.00909 500.50514,646.11944 z "
       style="fill:url(#linearGradient2273);fill-opacity:1;fill-rule:evenodd;stroke:none;stroke-width:1px;stroke-linecap:butt;stroke-linejoin:miter;stroke-opacity:1" />
    <path
       sodipodi:nodetypes="cssccccccc"
       id="path2252"
       d="M 607.0625,617.5625 C 607.06913,617.57766 607.05098,617.59945 607.0625,617.625 C 607.07768,617.65867 607.10987,617.68509 607.125,617.71875 C 607.09516,617.64862 607.07626,617.59313 607.0625,617.5625 z M 607.3125,618.15625 C 609.06036,625.32853 631.84262,696.92394 528.3125,743.59375 C 525.84181,740.50539 510.75741,749.80613 511.9375,751.28125 L 514.21875,759.5625 L 534.96875,750.75 C 534.96875,750.75 640.60289,706.0735 607.3125,618.15625 z "
       style="fill:#70000a;fill-opacity:1;fill-rule:evenodd;stroke:none;stroke-width:1px;stroke-linecap:butt;stroke-linejoin:miter;stroke-opacity:1" />
  </g>
  <g
     id="g2262"
     transform="translate(-235.8473,3.637946)">
    <path
       sodipodi:nodetypes="ccsc"
       id="path2228"
       d="M 462.87053,647.87805 L 386.89786,582.45714 C 358.8707,602.89962 326.2752,740.14507 481.8637,745.65769 C 488.01213,745.87553 462.87053,647.87805 462.87053,647.87805 z "
       style="fill:url(#linearGradient2266);fill-opacity:1;fill-rule:evenodd;stroke:none;stroke-width:1px;stroke-linecap:butt;stroke-linejoin:miter;stroke-opacity:1" />
    <path
       sodipodi:nodetypes="cscc"
       id="path1377"
       d="M 386.89786,581.7537 C 347.80412,625.11437 350.13046,742.8189 483.2706,744.95425 C 484.73339,744.97771 479.75335,759.02326 479.75335,759.02326 C 475.79148,773.98205 292.26182,754.07343 386.89786,581.7537 z "
       style="fill:#03019b;fill-opacity:1;fill-rule:evenodd;stroke:none;stroke-width:1px;stroke-linecap:butt;stroke-linejoin:miter;stroke-opacity:1" />
  </g>
</svg>
