<?xml version="1.0" encoding="UTF-8" standalone="no"?>
<!-- Created with Inkscape (http://www.inkscape.org/) -->
<svg
   xmlns:dc="http://purl.org/dc/elements/1.1/"
   xmlns:cc="http://creativecommons.org/ns#"
   xmlns:rdf="http://www.w3.org/1999/02/22-rdf-syntax-ns#"
   xmlns:svg="http://www.w3.org/2000/svg"
   xmlns="http://www.w3.org/2000/svg"
   xmlns:xlink="http://www.w3.org/1999/xlink"
   xmlns:sodipodi="http://sodipodi.sourceforge.net/DTD/sodipodi-0.dtd"
   xmlns:inkscape="http://www.inkscape.org/namespaces/inkscape"
   version="1.0"
   width="400"
   height="400"
   viewBox="0 0 139 139"
   id="Livello_1"
   xml:space="preserve"
   sodipodi:version="0.32"
   inkscape:version="0.46"
   sodipodi:docname="showhelp.svg"
   inkscape:output_extension="org.inkscape.output.svg.inkscape"
   inkscape:export-filename="D:\web\xampp\htdocs\limesurvey\images\showhelp.png"
   inkscape:export-xdpi="9"
   inkscape:export-ydpi="9"><metadata
   id="metadata48"><rdf:RDF><cc:Work
       rdf:about=""><dc:format>image/svg+xml</dc:format><dc:type
         rdf:resource="http://purl.org/dc/dcmitype/StillImage" /></cc:Work></rdf:RDF></metadata><sodipodi:namedview
   inkscape:window-height="968"
   inkscape:window-width="1280"
   inkscape:pageshadow="2"
   inkscape:pageopacity="0.0"
   guidetolerance="10.0"
   gridtolerance="10.0"
   objecttolerance="10.0"
   borderopacity="1.0"
   bordercolor="#666666"
   pagecolor="#ffffff"
   id="base"
   showgrid="false"
   inkscape:zoom="1.9075"
   inkscape:cx="200"
   inkscape:cy="197.37931"
   inkscape:window-x="-4"
   inkscape:window-y="-4"
   inkscape:current-layer="Livello_1" /><defs
   id="defs3162"><inkscape:perspective
   sodipodi:type="inkscape:persp3d"
   inkscape:vp_x="0 : 64 : 1"
   inkscape:vp_y="0 : 1000 : 0"
   inkscape:vp_z="128 : 64 : 1"
   inkscape:persp3d-origin="64 : 42.666667 : 1"
   id="perspective50" /><filter
   id="filter3547"
   height="1.6950431"
   y="-0.34752154"
   width="1.265282"
   x="-0.132641"><feGaussianBlur
     id="feGaussianBlur3549"
     stdDeviation="2.7512044"
     inkscape:collect="always" /></filter><filter
   id="filter5097"><feGaussianBlur
     id="feGaussianBlur5099"
     stdDeviation="2.32"
     inkscape:collect="always" /></filter><filter
   id="filter5125"
   height="1.1443688"
   y="-0.072184406"
   width="1.286536"
   x="-0.143268"><feGaussianBlur
     id="feGaussianBlur5127"
     stdDeviation="1.91024"
     inkscape:collect="always" /></filter>
	<defs
   id="defs3139"><path
     id="XMLID_10_"
     d="M 27.6,69.6 C 27.6,92.759 46.441,111.6 69.6,111.6 C 92.759,111.6 111.6,92.759 111.6,69.6 C 111.6,46.441 92.759,27.6 69.6,27.6 C 46.441,27.6 27.6,46.441 27.6,69.6 z" /></defs>
	<clipPath
   id="XMLID_6_">
		<use
   xlink:href="#XMLID_10_"
   height="139"
   width="139"
   y="0"
   x="0"
   id="use3143" />
	</clipPath>
	

		
	<radialGradient
   inkscape:collect="always"
   xlink:href="#XMLID_13_"
   id="radialGradient3218"
   gradientUnits="userSpaceOnUse"
   cx="69.600098"
   cy="69.600098"
   r="58" /><linearGradient
   inkscape:collect="always"
   xlink:href="#circle16776_1_"
   id="linearGradient3220"
   gradientUnits="userSpaceOnUse"
   gradientTransform="matrix(0,1.5861553,1.5861553,0,-593.00859,-194.07848)"
   x1="135.5601"
   y1="417.66461"
   x2="161.87621"
   y2="417.66461" /><linearGradient
   inkscape:collect="always"
   xlink:href="#circle16776_1_"
   id="linearGradient3260"
   gradientUnits="userSpaceOnUse"
   gradientTransform="matrix(0,2.0479662,2.0479662,0,-786.50126,-270.32036)"
   x1="135.5601"
   y1="417.66461"
   x2="161.87621"
   y2="417.66461" /></defs>
<filter
   id="AI_Sfocatura_4">
	<feGaussianBlur
   id="feGaussianBlur3096"
   stdDeviation="4" />
</filter>
<filter
   id="AI_Sfocatura_2">
	<feGaussianBlur
   id="feGaussianBlur3099"
   stdDeviation="2" />
</filter>
<radialGradient
   cx="69.600098"
   cy="69.576698"
   r="58"
   id="XMLID_12_"
   gradientUnits="userSpaceOnUse"
   gradientTransform="matrix(1,0,0,-0.1823,0,134.8566)">
	<stop
   style="stop-color:black;stop-opacity:1"
   offset="0"
   id="stop3102" />
	<stop
   style="stop-color:black;stop-opacity:0"
   offset="1"
   id="stop3104" />
</radialGradient>


<radialGradient
   cx="69.600098"
   cy="69.600098"
   r="58"
   id="XMLID_13_"
   gradientUnits="userSpaceOnUse">
	<stop
   style="stop-color:#eee;stop-opacity:1"
   offset="0.61540002"
   id="stop3113" />
	<stop
   style="stop-color:#ddd;stop-opacity:1"
   offset="0.82249999"
   id="stop3115" />
	<stop
   style="stop-color:white;stop-opacity:1"
   offset="1"
   id="stop3117" />
</radialGradient>

<linearGradient
   x1="27.6001"
   y1="69.600098"
   x2="111.6001"
   y2="69.600098"
   id="XMLID_14_"
   gradientUnits="userSpaceOnUse"
   gradientTransform="matrix(1.085938,0,0,1.085938,-3.909373,-8.253123)">
	<stop
   style="stop-color:#2a94ec;stop-opacity:1"
   offset="0"
   id="stop3122" />
	<stop
   style="stop-color:#0057ae;stop-opacity:1"
   offset="1"
   id="stop3124" />
</linearGradient>


<linearGradient
   x1="135.5601"
   y1="417.66461"
   x2="161.87621"
   y2="417.66461"
   id="circle16776_1_"
   gradientUnits="userSpaceOnUse"
   gradientTransform="matrix(0,1.5861553,1.5861553,0,-593.00859,-194.07848)">
	<stop
   style="stop-color:white;stop-opacity:1"
   offset="0"
   id="stop3132" />
	<stop
   style="stop-color:white;stop-opacity:0"
   offset="1"
   id="stop3134" />
</linearGradient>





<circle
   id="circle2423"
   style="fill:none;stroke:#000000;stroke-width:6.97253803;stroke-miterlimit:4;stroke-dasharray:none;stroke-opacity:1"
   transform="matrix(0.9967676,0,0,0.9967676,0.1249766,0.1249766)"
   r="58"
   cy="69.599998"
   cx="69.599998"
   sodipodi:cx="69.599998"
   sodipodi:cy="69.599998"
   sodipodi:rx="58"
   sodipodi:ry="58" /><circle
   cx="69.599998"
   cy="69.599998"
   r="58"
   transform="matrix(0.9967676,0,0,0.9967676,0.1249766,0.1249766)"
   style="opacity:0.7;fill:#000000;fill-opacity:1;stroke:none"
   id="circle5091"
   sodipodi:cx="69.599998"
   sodipodi:cy="69.599998"
   sodipodi:rx="58"
   sodipodi:ry="58" /><path
   d="M 14.809313,68.680175 C 14.809313,98.485278 39.057249,122.73321 68.86235,122.73321 C 98.667453,122.73321 122.91539,98.485278 122.91539,68.680175 C 122.91539,38.875074 98.667453,14.627139 68.86235,14.627139 C 39.057249,14.627139 14.809313,38.875074 14.809313,68.680175 z"
   style="fill:#008000"
   id="path3126" /><g
   transform="matrix(1.2869775,0,0,1.2869775,-20.711254,-20.893429)"
   style="opacity:0.3"
   id="circle22111">
	<path
   d="M 77.041,104.759 C 63.767,106.115 50.122,103.11 46.565,98.042 C 43.007,92.976 50.885,87.768 64.16,86.41 C 77.434,85.054 91.079,88.058 94.637,93.126 C 98.193,98.194 90.315,103.401 77.041,104.759 z"
   style="fill:#a8dde0"
   id="path3129" />
</g><path
   d="M 68.86235,17.409585 C 43.520484,17.409585 22.343276,34.836541 17.240413,58.039451 C 27.413967,67.274798 46.717338,53.30981 68.86235,53.30981 C 91.007366,53.30981 110.312,67.274798 120.48428,58.039451 C 115.38142,34.836541 94.205507,17.409585 68.86235,17.409585 z"
   style="opacity:0.8;fill:url(#linearGradient3260)"
   id="circle16776" /><path
   d="M 14.809328,68.680214 C 14.809328,98.485331 39.057273,122.73326 68.862389,122.73326 C 98.667506,122.73326 122.91545,98.485331 122.91545,68.680214 C 122.91545,38.875098 98.667506,14.627153 68.862389,14.627153 C 39.057273,14.627153 14.809328,38.875098 14.809328,68.680214 z"
   style="fill:none;stroke:#006e00;stroke-width:2.5739553;stroke-opacity:1"
   id="path3147" /><g
   transform="matrix(1.2869775,0,0,1.3171297,-19.872145,-22.155118)"
   style="fill:#005500;fill-opacity:1"
   id="g5119"><path
     d="M 63.37,80.089 L 63.192,77.746 C 63.012,73.148 64.44,68.462 68.451,63.684 C 71.304,60.26 73.62,57.286 73.62,54.221 C 73.62,51.157 71.571,48.994 67.202,48.903 C 64.173,48.903 60.696,49.895 58.289,51.517 L 55.348,41.784 C 58.556,39.89 63.815,38.088 70.233,38.088 C 81.91,38.088 87.348,44.668 87.348,52.058 C 87.348,58.997 83.069,63.415 79.681,67.289 C 76.472,70.894 75.046,74.41 75.135,78.466 L 75.135,80.088 L 63.37,80.088 L 63.37,80.089 z"
     style="fill:#005500;fill-opacity:1"
     id="path5121" /><circle
     cx="69.599998"
     cy="93.599998"
     r="8"
     style="fill:#005500;fill-opacity:1"
     id="circle5123"
     sodipodi:cx="69.599998"
     sodipodi:cy="93.599998"
     sodipodi:rx="8"
     sodipodi:ry="8" /></g><g
   transform="matrix(1.2869775,0,0,1.2869775,-19.872145,-20.893429)"
   id="g5101"><path
     d="M 63.37,80.089 L 63.192,77.746 C 63.012,73.148 64.44,68.462 68.451,63.684 C 71.304,60.26 73.62,57.286 73.62,54.221 C 73.62,51.157 71.571,48.994 67.202,48.903 C 64.173,48.903 60.696,49.895 58.289,51.517 L 55.348,41.784 C 58.556,39.89 63.815,38.088 70.233,38.088 C 81.91,38.088 87.348,44.668 87.348,52.058 C 87.348,58.997 83.069,63.415 79.681,67.289 C 76.472,70.894 75.046,74.41 75.135,78.466 L 75.135,80.088 L 63.37,80.088 L 63.37,80.089 z"
     style="fill:#ffffff"
     id="path3157" /><circle
     cx="69.599998"
     cy="93.599998"
     r="8"
     style="fill:#ffffff"
     id="circle3159"
     sodipodi:cx="69.599998"
     sodipodi:cy="93.599998"
     sodipodi:rx="8"
     sodipodi:ry="8" /></g>
</svg>