<?xml version="1.0" encoding="UTF-8" standalone="no"?>
<!-- Generator: Adobe Illustrator 12.0.0, SVG Export Plug-In . SVG Version: 6.00 Build 51448)  -->
<svg
   xmlns:dc="http://purl.org/dc/elements/1.1/"
   xmlns:cc="http://web.resource.org/cc/"
   xmlns:rdf="http://www.w3.org/1999/02/22-rdf-syntax-ns#"
   xmlns:svg="http://www.w3.org/2000/svg"
   xmlns="http://www.w3.org/2000/svg"
   xmlns:sodipodi="http://sodipodi.sourceforge.net/DTD/sodipodi-0.dtd"
   xmlns:inkscape="http://www.inkscape.org/namespaces/inkscape"
   height="127.644"
   id="Layer_1"
   inkscape:version="0.44"
   sodipodi:docbase="D:\Quelltexte\Projekte\phpsurveyor\source\original art"
   sodipodi:docname="summary.svg"
   sodipodi:version="0.32"
   space="preserve"
   style="overflow:visible;enable-background:new 0 0 134.544 127.644;"
   version="1.1"
   viewBox="0 0 134.544 127.644"
   width="134.544"
   inkscape:export-filename="D:\Quelltexte\Projekte\phpsurveyor\source\original art\summary.png"
   inkscape:export-xdpi="26.79327"
   inkscape:export-ydpi="26.79327">
  <metadata
     id="metadata3">
    <rdf:RDF>
      <cc:Work
         rdf:about="">
        <dc:title>Utensili chiave e cacciavite</dc:title>
        <dc:description />
        <dc:subject>
          <rdf:Bag>
            <rdf:li>tool</rdf:li>
          </rdf:Bag>
        </dc:subject>
        <dc:publisher>
          <cc:Agent
             rdf:about="http://www.openclipart.org/">
            <dc:title>Open Clip Art Library</dc:title>
          </cc:Agent>
        </dc:publisher>
        <dc:creator>
          <cc:Agent>
            <dc:title>Architetto Francesco Rollandin</dc:title>
          </cc:Agent>
        </dc:creator>
        <dc:rights>
          <cc:Agent>
            <dc:title>Architetto Francesco Rollandin</dc:title>
          </cc:Agent>
        </dc:rights>
        <dc:date />
        <dc:format>image/svg+xml</dc:format>
        <dc:type
           rdf:resource="http://purl.org/dc/dcmitype/StillImage" />
        <cc:license
           rdf:resource="http://web.resource.org/cc/PublicDomain" />
        <dc:language>en</dc:language>
      </cc:Work>
      <cc:License
         rdf:about="http://web.resource.org/cc/PublicDomain">
        <cc:permits
           rdf:resource="http://web.resource.org/cc/Reproduction" />
        <cc:permits
           rdf:resource="http://web.resource.org/cc/Distribution" />
        <cc:permits
           rdf:resource="http://web.resource.org/cc/DerivativeWorks" />
      </cc:License>
    </rdf:RDF>
  </metadata>
  <defs
     id="defs90">
    <linearGradient
       gradientUnits="userSpaceOnUse"
       id="XMLID_7_"
       x1="7.0522"
       x2="133.8921"
       y1="63.7373"
       y2="63.7373"
       gradientTransform="matrix(0.914954,0,0,0.914954,4.801718,4.801715)">
      <stop
         id="stop6"
         offset="0"
         style="stop-color:#EAEAEA" />
      <stop
         id="stop8"
         offset="0.1981"
         style="stop-color:#E1E1E1" />
      <stop
         id="stop10"
         offset="0.5226"
         style="stop-color:#C9C8C8" />
      <stop
         id="stop12"
         offset="0.9311"
         style="stop-color:#A1A0A0" />
      <stop
         id="stop14"
         offset="1"
         style="stop-color:#9A9999" />
    </linearGradient>
    <linearGradient
       gradientTransform="matrix(-193.4257,193.8962,193.8962,193.4257,-133765.5,-42541.02)"
       gradientUnits="userSpaceOnUse"
       id="XMLID_8_"
       x1="-235.5474"
       x2="-233.9202"
       y1="455.8291"
       y2="455.8291">
      <stop
         id="stop19"
         offset="0"
         style="stop-color:#FFFFFF" />
      <stop
         id="stop21"
         offset="1"
         style="stop-color:#000000" />
    </linearGradient>
    <linearGradient
       gradientTransform="matrix(-193.4255,193.8961,193.8961,193.4255,-133765.5,-42540.98)"
       gradientUnits="userSpaceOnUse"
       id="XMLID_10_"
       x1="-235.6143"
       x2="-233.7809"
       y1="455.6045"
       y2="455.6045">
      <stop
         id="stop40"
         offset="0"
         style="stop-color:#C6C6C6" />
      <stop
         id="stop42"
         offset="1"
         style="stop-color:#000000" />
    </linearGradient>
    <linearGradient
       gradientTransform="matrix(-193.4255,193.8961,193.8961,193.4255,-133765.5,-42540.98)"
       gradientUnits="userSpaceOnUse"
       id="XMLID_11_"
       x1="-235.5425"
       x2="-233.9296"
       y1="455.8232"
       y2="455.8232">
      <stop
         id="stop81"
         offset="0"
         style="stop-color:#C6C6C6" />
      <stop
         id="stop83"
         offset="1"
         style="stop-color:#000000" />
    </linearGradient>
  </defs>
  <sodipodi:namedview
     bordercolor="#666666"
     borderopacity="1.0"
     id="base"
     inkscape:current-layer="Layer_1"
     inkscape:cx="70.327166"
     inkscape:cy="60.529799"
     inkscape:pageopacity="0.0"
     inkscape:pageshadow="2"
     inkscape:window-height="968"
     inkscape:window-width="1280"
     inkscape:window-x="-4"
     inkscape:window-y="-4"
     inkscape:zoom="3.9885689"
     pagecolor="#ffffff" />
  <path
     d="M 104.6058,79.125245 C 95.95674,70.487166 85.117281,64.66074 75.382172,57.412476 C 70.011394,53.414128 61.375144,48.004005 60.128062,40.805149 C 59.352181,36.325534 61.583754,31.871539 60.938711,27.136653 C 60.281775,22.295632 58.173721,17.703479 54.945764,14.038174 C 47.983879,6.1329724 36.47925,3.4192194 26.720352,7.428547 C 30.199007,10.907202 33.677661,14.385856 37.157231,17.865425 C 42.093407,22.802516 41.376998,26.331494 36.562511,31.132256 C 32.082897,35.598146 28.581369,35.344704 24.261871,31.029781 C 20.659699,27.432183 17.06027,23.8355 13.458096,20.237901 C 9.1870918,29.618008 11.256717,40.912198 18.532431,48.185166 C 21.968998,51.619903 26.394629,54.015252 31.158793,54.990593 C 33.444349,55.458134 35.798524,55.603611 38.126167,55.421536 C 40.604777,55.226651 44.078857,53.36106 46.341537,53.981399 C 54.241249,56.139775 59.57543,63.750361 64.031255,70.168762 C 71.039801,80.257958 75.844224,91.445099 84.744895,100.15088 C 92.071846,107.31405 100.16095,114.77733 109.54106,119.18009 C 116.68959,122.53249 122.25983,119.98525 126.27282,113.02703 C 128.57027,109.04332 126.64612,105.31763 124.35325,101.7429 C 118.97332,93.360097 111.60519,86.129216 104.6058,79.125245 M 101.72369,99.403367 C 97.296232,99.403367 97.304466,92.532978 101.72369,92.532978 C 106.15116,92.564087 106.16945,99.403367 101.72369,99.403367"
     id="path16"
     style="fill:url(#XMLID_7_)" />
  <path
     d="M 71.317033,53.171664 C 70.954711,53.533072 70.591474,53.896308 70.230068,54.25863 C 73.280523,56.861673 75.211076,56.657638 78.751032,59.154548 C 78.49393,59.425374 78.235914,59.69803 77.977897,59.967942 C 91.39295,68.743264 103.12906,77.919337 113.86879,89.879612 C 118.24135,94.676716 123.19308,99.884633 125.80161,105.93431 C 127.74041,110.4368 125.45668,113.44791 122.24336,116.72801 C 114.5056,124.63048 104.23707,115.78928 97.43988,110.4185 C 84.468579,100.17101 73.406787,87.523606 65.850184,72.740697 C 65.539099,73.067336 65.2271,73.396719 64.916015,73.723358 C 63.073298,69.910745 62.838156,67.072558 60.368695,64.117257 C 58.439058,66.04049 62.717382,69.894275 63.94159,72.317988 C 66.045069,76.484688 68.553872,80.369582 71.123062,84.262711 C 77.159013,93.405844 84.121812,101.11891 92.443317,108.24823 C 98.127011,113.11669 104.42098,118.2203 111.52834,120.84622 C 117.62925,123.09702 122.02011,119.96696 125.73391,115.19822 C 132.69579,106.26095 121.17653,95.706039 115.49283,89.412986 C 109.52825,82.809765 103.34225,76.255035 96.302592,70.779951 C 88.272042,64.533561 78.985261,59.834358 71.317033,53.171664 M 36.091309,4.8017145 C 35.069307,4.8017145 24.3799,6.2839398 26.185105,7.9637951 C 26.250981,8.699418 28.741486,10.522921 29.238306,11.019741 C 32.337254,14.124179 36.373116,17.170976 38.940476,20.731976 C 42.961698,24.754113 36.340177,32.132301 32.309805,33.759089 C 27.687459,35.623764 22.810755,28.505424 20.071383,25.763307 C 19.482152,25.174077 13.554166,18.248791 12.764561,19.916752 C 8.9519487,28.302304 9.9849316,38.298175 15.427992,45.717535 C 20.244309,52.28416 28.044291,56.258719 36.191039,56.258719 C 40.128086,56.258719 43.997426,54.033551 47.676456,55.205607 C 51.270394,56.349299 53.781027,58.919404 56.243168,61.67799 C 59.46106,58.459183 48.431292,53.76547 45.595851,52.990503 C 44.019384,52.586094 40.265329,54.458089 38.463785,54.630101 C 34.904614,54.966804 31.278652,54.507497 27.920771,53.283288 C 15.191019,48.645388 8.8055561,34.188202 13.792054,21.637781 C 17.424421,25.272891 21.058618,28.906173 24.692815,32.540371 C 29.63814,37.48478 33.714259,35.056493 37.937687,30.832152 C 40.074103,28.695734 42.32306,26.606894 41.830815,23.250844 C 40.397082,21.216902 38.799573,19.510513 37.047436,17.758376 C 33.760008,14.472777 30.472578,11.185348 27.185149,7.8979184 C 28.060759,8.2337065 28.873238,8.6847787 29.62167,9.2529651 C 29.134,8.7652947 28.64816,8.2776243 28.159575,7.7908688 C 40.537986,3.3871959 54.43888,9.9007524 58.940452,22.267269 C 61.184834,28.434057 59.047501,33.004252 59.07129,39.036543 C 59.523277,42.072359 64.265483,53.662994 67.802695,50.124868 C 64.422855,47.153098 61.483108,44.631486 60.765785,40.048481 C 60.372355,37.527784 61.617607,35.145244 61.839026,32.588863 C 62.133641,29.162361 61.699952,25.669067 60.611158,22.410001 C 57.125183,11.960313 47.081735,4.8017145 36.091309,4.8017145"
     id="path23"
     style="fill:url(#XMLID_8_);stroke:black;stroke-width:4.57476902;stroke-miterlimit:4;stroke-dasharray:none;stroke-opacity:1" />
  <path
     d="M 15.672285,24.238994 C 15.46825,23.43292 14.95679,22.966293 14.137907,22.839114 C 11.937444,29.048907 12.817628,36.139799 16.232236,41.742976 C 13.494695,36.216655 13.244912,29.887004 15.672285,24.238994 M 59.818808,30.057185 C 59.826128,22.84369 56.279766,15.986111 50.491769,11.706871 C 47.829252,9.7388055 44.753178,8.3453308 41.51973,7.6380715 C 40.033846,7.3123479 29.23373,6.3470717 29.254774,8.4093776 C 29.287713,11.575118 36.733607,10.244775 38.127082,10.35091 C 42.574673,10.686698 46.879531,12.347339 50.385633,15.103179 C 58.380501,21.388913 61.05857,32.596182 56.522229,41.7567 C 58.658646,38.238702 59.832532,34.177223 59.818808,30.057185"
     id="path25"
     style="fill:#e5e5e5" />
  <path
     d="M 40.085999,33.738044 C 41.475813,32.34823 43.670788,30.267625 44.021214,28.19617 C 44.611359,24.726664 39.408932,29.333457 39.152746,29.646371 C 37.563471,31.595222 36.043732,33.565119 33.990576,35.058323 C 33.527609,35.395941 31.143239,36.317299 30.962993,36.90836 C 30.739744,37.643983 33.290636,37.579936 33.486436,37.557063 C 36.056541,37.248722 38.318307,35.507566 40.085999,33.738044"
     id="path27"
     style="fill:#e5e5e5" />
  <path
     d="M 27.185149,7.8970035 C 32.12224,12.832265 37.799528,17.535127 41.830815,23.249929 C 41.390722,20.288223 38.540641,18.17102 36.556106,16.18557 C 33.854248,13.484627 30.876988,9.2236865 27.185149,7.8970035"
     id="path44"
     style="fill:url(#XMLID_10_)" />
  <path
     d="M 43.592101,27.303174 C 43.682682,27.782611 43.770517,28.260216 43.860183,28.739652 C 44.186821,28.080886 44.096241,27.60328 43.592101,27.303174"
     id="path46"
     style="fill:#b2b2b2" />
  <path
     d="M 28.824746,37.587256 C 27.888748,38.525083 12.862461,23.545459 13.821334,22.582928 C 14.152547,22.250799 29.14864,37.264277 28.824746,37.587256"
     id="path48"
     style="fill:#e5e5e5" />
  <path
     d="M 125.53812,109.92991 C 128.8539,106.5949 93.599819,75.332762 89.926278,72.333542 C 81.023778,65.06332 70.735122,59.653198 62.699998,51.276796 C 61.238816,49.753397 59.66967,48.062562 58.828828,46.094497 C 58.807784,46.040514 58.422588,44.432941 58.626623,44.539075 C 58.78491,44.621421 58.281685,45.173138 58.244172,45.210651 C 58.010859,45.447625 66.253678,52.787384 66.737688,53.157026 C 76.631084,60.698074 87.778882,66.176818 97.420666,74.153386 C 105.54088,80.871892 113.21368,88.369024 119.60189,96.77379 C 120.99994,98.616507 128.24363,107.22256 125.53812,109.92991"
     id="path50"
     style="fill:#e5e5e5" />
  <path
     d="M 95.907332,85.639716 C 94.46811,85.639716 93.097509,85.875774 91.747037,86.36985 C 96.03634,86.36985 99.21855,85.97093 102.94882,88.84297 C 105.53082,90.830249 107.28112,93.608965 108.84661,96.417872 C 109.24735,97.135197 111.3243,102.54806 112.34173,102.54806 C 114.73068,102.54806 109.27572,93.226513 108.88046,92.754398 C 105.61133,88.845715 101.19943,85.639716 95.907332,85.639716"
     id="path52"
     style="fill:#9a9a9a" />
  <path
     d="M 100.32656,103.30931 C 102.3605,104.71833 104.78696,105.33135 107.2308,105.43383 C 107.76605,105.45579 111.81655,104.90407 112.09195,105.55918 C 113.87978,109.82652 101.33026,106.83554 100.41348,106.31035 C 94.781024,103.09338 90.300494,96.847901 90.253832,90.212655 C 90.226383,86.635186 91.503659,84.392634 91.964796,89.338875 C 92.513768,95.251307 95.446196,99.92306 100.32656,103.30931"
     id="path54"
     style="fill:#e5e5e5" />
  <path
     d="M 56.136119,64.863859 C 64.200522,72.900815 44.470457,89.853079 40.064039,94.330863 C 33.258612,101.24425 26.052436,108.90058 17.504937,113.71142 C 14.68688,115.29795 11.041703,116.76645 8.13398,114.59068 C -1.1088837,107.67272 15.95775,91.984921 20.183922,87.528181 C 27.559365,79.748328 35.470971,71.388395 44.79801,65.904162 C 48.006753,64.016613 52.952994,61.667926 56.136119,64.863859"
     id="path56"
     style="fill:#d82a2a" />
  <path
     d="M 56.136119,64.863859 C 55.629234,64.503367 55.121435,64.143791 54.61455,63.783299 C 60.303733,72.167021 42.091577,87.675489 37.633922,92.199021 C 31.029785,98.901972 24.136523,106.07613 16.038266,111.01139 C 13.362941,112.64183 9.6125454,114.61448 6.5071921,112.93279 C 13.773755,123.4145 32.444303,101.89021 36.68237,97.712533 C 41.302887,93.161552 64.868438,73.565071 56.136119,64.863859"
     id="path58"
     style="fill:#b20d0d" />
  <path
     d="M 50.605223,67.249145 C 51.694018,68.337024 32.816689,84.882134 31.705021,85.982824 C 25.642537,91.988581 19.704486,98.123347 14.032687,104.50149 C 13.539527,105.05504 10.984061,108.81184 9.9044157,108.28666 C 5.0716294,105.93705 21.067768,90.331599 22.10441,89.251954 C 24.175865,87.092663 45.843803,62.483149 50.605223,67.249145"
     id="path60"
     style="fill:#ef5656" />
  <path
     d="M 24.571126,82.220534 C 20.739299,86.052361 -5.9471595,111.11294 9.6509734,116.00886 C 15.527722,117.85341 22.836374,110.98027 26.870404,107.55286 C 34.675876,100.91853 42.03851,93.554067 48.766165,85.829112 C 52.719681,81.290941 62.862859,70.81106 56.538698,64.464025 C 48.08178,56.008021 29.266669,77.525906 24.571126,82.220534 M 7.6133713,113.38661 C 2.7613711,108.58585 10.10662,100.07586 13.064666,96.399574 C 20.205881,87.530926 28.526471,79.226805 37.304539,71.983116 C 41.034806,68.906125 52.978613,58.641259 56.981536,66.911526 C 58.48572,70.019625 56.219379,73.836812 54.599911,76.397768 C 48.893344,85.425617 40.722806,93.152402 33.044513,100.46197 C 28.85677,104.44842 14.693284,120.49397 7.6133713,113.38661"
     id="path62"
     style="fill:#970f00;stroke:black;stroke-width:4.57476902;stroke-miterlimit:4;stroke-dasharray:none;stroke-opacity:1" />
  <path
     d="M 107.91336,13.233015 C 112.89162,18.211278 106.32591,21.562754 102.80334,25.091731 C 99.488461,28.413013 95.229351,29.252026 91.79187,32.693168 C 87.92253,36.565252 84.05136,40.436421 80.18202,44.307591 C 73.902692,50.586919 67.620619,56.867163 61.33946,63.145577 C 59.987159,64.497878 58.636687,65.84835 57.285301,67.198822 C 56.668622,67.816416 55.878101,67.876803 55.067452,67.571208 C 51.953864,66.397323 54.157073,63.76317 55.524929,62.397144 C 64.292017,53.634631 73.060019,44.872118 81.825277,36.10686 C 83.969015,33.964038 86.111836,31.821216 88.253743,29.679309 C 89.575851,28.358116 91.523788,26.973791 92.29235,25.229889 C 93.035292,23.543629 92.880665,21.14462 94.253095,19.770359 C 98.188312,15.834228 102.32207,7.7432912 107.91336,13.233015"
     id="path64"
     style="fill:#c6c6c6;stroke:black;stroke-width:4.57476902;stroke-linejoin:miter;stroke-miterlimit:4;stroke-dasharray:none;stroke-opacity:1" />
  <path
     d="M 91.19715,29.149551 C 91.657372,29.609773 55.616425,65.691892 55.136073,65.211542 C 54.918315,64.993783 90.344413,28.37916 91.19715,29.149551"
     id="path66"
     style="fill:white" />
  <path
     d="M 95.134196,29.149551 C 89.272087,30.649161 56.557912,68.266573 55.883591,67.597742 C 60.912177,65.874883 94.321717,28.337072 95.134196,29.149551"
     id="path68"
     style="fill:#9a9a9a" />
  <path
     d="M 107.83376,16.78212 C 107.83376,20.661525 95.55965,28.821998 95.55965,22.092512 C 95.55965,21.54903 100.6413,20.768574 101.90485,19.959755 C 102.36142,19.666055 107.83376,16.107799 107.83376,16.78212"
     id="path70"
     style="fill:#e5e5e5" />
  <path
     d="M 104.17303,11.306122 C 102.76583,11.306122 94.763639,20.026547 94.866115,20.130851 C 95.794792,21.056784 103.20134,11.306122 104.17303,11.306122"
     id="path72"
     style="fill:#9a9a9a" />
  <path
     d="M 103.67529,12.075598 C 103.95893,11.786472 107.07984,16.426204 107.70475,16.426204 C 107.81729,14.498395 105.74217,12.082002 103.67529,12.075598"
     id="path74"
     style="fill:#ddd" />
  <path
     d="M 103.67346,12.075598 C 103.43008,12.075598 103.16566,12.353743 103.67346,12.075598"
     id="path76"
     style="fill:#c4c4c4" />
  <path
     d="M 71.66014,59.150888 C 69.810103,61.001839 67.959152,62.853706 66.109116,64.705572 C 62.528901,68.288532 63.412747,67.983852 65.848354,72.739782 C 69.160487,69.251063 72.472619,65.764175 75.784752,62.27454 C 74.394937,61.252537 73.017932,60.214064 71.66014,59.150888 M 73.74715,57.061134 C 73.561415,57.245954 73.374764,57.43352 73.189943,57.618341 C 74.656614,58.549764 76.141584,59.448248 77.643024,60.321114 C 77.753732,60.204 77.865357,60.085056 77.976982,59.967942 C 76.545079,59.031029 75.1269,58.073072 73.74715,57.061134"
     id="path78"
     style="fill:#9a9a9a" />
  <path
     d="M 63.095258,67.72309 C 61.764915,69.252893 64.066938,71.969392 64.915101,73.723358 C 66.940808,72.453402 64.010211,69.12114 63.095258,67.72309 M 74.587993,56.218461 C 74.306187,56.499351 74.028041,56.780242 73.74715,57.061134 C 75.321785,58.217635 77.171822,60.500445 78.750118,59.154548 C 77.363048,58.175548 75.975063,57.196546 74.587993,56.218461"
     id="path85"
     style="fill:url(#XMLID_11_)" />
  <path
     d="M 73.189943,57.618341 C 72.610778,57.949554 72.135002,58.675112 71.66014,59.151803 C 73.737086,60.775846 75.880822,63.739381 77.643024,60.321114 C 76.14067,59.448248 74.655699,58.548848 73.189943,57.618341"
     id="path87"
     style="fill:#b2b2b2" />
</svg>
