<?xml version="1.0" encoding="UTF-8" standalone="no"?>
<!-- Created with Inkscape (http://www.inkscape.org/) -->
<svg
   xmlns:dc="http://purl.org/dc/elements/1.1/"
   xmlns:cc="http://web.resource.org/cc/"
   xmlns:rdf="http://www.w3.org/1999/02/22-rdf-syntax-ns#"
   xmlns:svg="http://www.w3.org/2000/svg"
   xmlns="http://www.w3.org/2000/svg"
   xmlns:xlink="http://www.w3.org/1999/xlink"
   xmlns:sodipodi="http://sodipodi.sourceforge.net/DTD/sodipodi-0.dtd"
   xmlns:inkscape="http://www.inkscape.org/namespaces/inkscape"
   id="svg1340"
   sodipodi:version="0.32"
   inkscape:version="0.44"
   width="400"
   height="400"
   sodipodi:docbase="D:\xampp\xampp\htdocs\original art"
   sodipodi:docname="survey_security.svg"
   version="1.0"
   inkscape:export-filename="D:\xampp\xampp\htdocs\phpsurveyor\images\survey_security.png"
   inkscape:export-xdpi="9.5600004"
   inkscape:export-ydpi="9.5600004">
  <metadata
     id="metadata1345">
    <rdf:RDF>
      <cc:Work
         rdf:about="">
        <dc:format>image/svg+xml</dc:format>
        <dc:type
           rdf:resource="http://purl.org/dc/dcmitype/StillImage" />
      </cc:Work>
    </rdf:RDF>
  </metadata>
  <defs
     id="defs1343">
    <linearGradient
       id="linearGradient3573">
      <stop
         style="stop-color:#f2e300;stop-opacity:1;"
         offset="0"
         id="stop3575" />
      <stop
         style="stop-color:#e9ad26;stop-opacity:1;"
         offset="1"
         id="stop3577" />
    </linearGradient>
    <linearGradient
       inkscape:collect="always"
       xlink:href="#linearGradient3573"
       id="linearGradient4587"
       gradientUnits="userSpaceOnUse"
       gradientTransform="matrix(4.461601,0,0,4.345226,-1309.452,-513.7394)"
       x1="329.02979"
       y1="169.24638"
       x2="355.93204"
       y2="186.92792" />
    <linearGradient
       id="linearGradient9578">
      <stop
         style="stop-color:#ffffff;stop-opacity:1;"
         offset="0"
         id="stop9580" />
      <stop
         style="stop-color:#d3d3d3;stop-opacity:1;"
         offset="1"
         id="stop9582" />
    </linearGradient>
    <linearGradient
       inkscape:collect="always"
       xlink:href="#linearGradient2250"
       id="linearGradient3336"
       x1="-231.19771"
       y1="227.09267"
       x2="-54.282185"
       y2="245.46019"
       gradientUnits="userSpaceOnUse"
       gradientTransform="translate(308.8946,-111.4211)" />
    <linearGradient
       id="linearGradient2250">
      <stop
         style="stop-color:#ff0000;stop-opacity:1;"
         offset="0"
         id="stop2252" />
      <stop
         style="stop-color:#850000;stop-opacity:1;"
         offset="1"
         id="stop2254" />
    </linearGradient>
    <linearGradient
       id="linearGradient2244">
      <stop
         id="stop2246"
         offset="0"
         style="stop-color:#6fff58;stop-opacity:1;" />
      <stop
         id="stop2248"
         offset="1"
         style="stop-color:#327e29;stop-opacity:1;" />
    </linearGradient>
    <linearGradient
       id="linearGradient2232">
      <stop
         style="stop-color:#0030ff;stop-opacity:1;"
         offset="0"
         id="stop2234" />
      <stop
         style="stop-color:#02116f;stop-opacity:1;"
         offset="1"
         id="stop2236" />
    </linearGradient>
    <linearGradient
       inkscape:collect="always"
       xlink:href="#linearGradient2250"
       id="linearGradient1913"
       gradientUnits="userSpaceOnUse"
       gradientTransform="translate(308.8946,-111.4211)"
       x1="-231.19771"
       y1="227.09267"
       x2="-54.282185"
       y2="245.46019" />
    <linearGradient
       inkscape:collect="always"
       xlink:href="#linearGradient2250"
       id="linearGradient1899"
       gradientUnits="userSpaceOnUse"
       gradientTransform="matrix(1.046474,0,0,1.129193,304.9935,-155.0627)"
       x1="-231.19771"
       y1="227.09267"
       x2="-54.282185"
       y2="245.46019" />
  </defs>
  <sodipodi:namedview
     inkscape:window-height="721"
     inkscape:window-width="1021"
     inkscape:pageshadow="2"
     inkscape:pageopacity="0.0"
     borderopacity="1.0"
     bordercolor="#666666"
     pagecolor="#ffffff"
     id="base"
     inkscape:zoom="1.0051974"
     inkscape:cx="374.61881"
     inkscape:cy="143.39876"
     inkscape:window-x="209"
     inkscape:window-y="22"
     inkscape:current-layer="svg1340"
     width="400px"
     height="400px" />
  <path
     style="fill:#b1ffff;fill-opacity:1;fill-rule:evenodd;stroke:#b1ffff;stroke-width:18.99809074px;stroke-linecap:butt;stroke-linejoin:miter;stroke-opacity:1"
     d="M 79.396857,134.51561 L 328.68053,136.1276 L 79.396857,134.51561 z "
     id="path3588" />
  <path
     style="fill:#b1ffff;fill-opacity:1;fill-rule:evenodd;stroke:#b1ffff;stroke-width:18.35528755px;stroke-linecap:butt;stroke-linejoin:miter;stroke-opacity:1"
     d="M 72.099207,99.409207 L 304.79918,101.0212 L 72.099207,99.409207 z "
     id="path3590" />
  <path
     style="fill:#b1ffff;fill-opacity:1;fill-rule:evenodd;stroke:#b1ffff;stroke-width:17.6466732px;stroke-linecap:butt;stroke-linejoin:miter;stroke-opacity:1"
     d="M 68.103649,65.472909 L 283.18343,67.084919 L 68.103649,65.472909 z "
     id="path3592" />
  <path
     style="fill:none;fill-opacity:1;fill-rule:evenodd;stroke:none;stroke-width:15.6341238px;stroke-linecap:butt;stroke-linejoin:miter;stroke-opacity:1"
     d="M 331.3434,361.45016 L 78.19504,355.00193 L 72.020787,45.490259 L 257.25127,39.042019 L 337.51783,135.76443 L 331.3434,361.45016 z "
     id="path8703" />
  <path
     style="fill:#b1ffff;fill-opacity:1;fill-rule:evenodd;stroke:#b1ffff;stroke-width:18.99809074px;stroke-linecap:butt;stroke-linejoin:miter;stroke-opacity:1"
     d="M 79.340096,284.6692 L 328.62377,286.28122 L 79.340096,284.6692 z "
     id="path5980" />
  <path
     style="fill:#b1ffff;fill-opacity:1;fill-rule:evenodd;stroke:#b1ffff;stroke-width:18.99809074px;stroke-linecap:butt;stroke-linejoin:miter;stroke-opacity:1"
     d="M 79.856586,170.78614 L 329.14026,172.39815 L 79.856586,170.78614 z "
     id="path4226" />
  <path
     style="fill:#b1ffff;fill-opacity:1;fill-rule:evenodd;stroke:#b1ffff;stroke-width:18.99809074px;stroke-linecap:butt;stroke-linejoin:miter;stroke-opacity:1"
     d="M 82.489646,210.19713 L 331.77332,211.80914 L 82.489646,210.19713 z "
     id="path5976" />
  <path
     style="fill:#b1ffff;fill-opacity:1;fill-rule:evenodd;stroke:#b1ffff;stroke-width:18.99809074px;stroke-linecap:butt;stroke-linejoin:miter;stroke-opacity:1"
     d="M 81.702258,249.08811 L 330.98594,250.70012 L 81.702258,249.08811 z "
     id="path5978" />
  <path
     style="fill:#b1ffff;fill-opacity:1;fill-rule:evenodd;stroke:#b1ffff;stroke-width:18.99809074px;stroke-linecap:butt;stroke-linejoin:miter;stroke-opacity:1"
     d="M 80.127485,321.07776 L 329.41115,322.68976 L 80.127485,321.07776 z "
     id="path5982" />
  <path
     style="fill:#ffb1b1;fill-opacity:1;fill-rule:evenodd;stroke:#ffb1b1;stroke-width:17.93948174px;stroke-linecap:butt;stroke-linejoin:miter;stroke-opacity:1"
     d="M 123.08191,355.40771 L 118.45121,150.67858 L 123.08191,355.40771 z "
     id="path4228" />
  <path
     style="fill:#ffb1b1;fill-opacity:1;fill-rule:evenodd;stroke:#ffb1b1;stroke-width:21.68780136px;stroke-linecap:butt;stroke-linejoin:miter;stroke-opacity:1"
     d="M 122.27448,346.13292 L 117.64379,46.912744 L 122.27448,346.13292 z "
     id="path3594" />
  <path
     style="fill:none;fill-opacity:1;fill-rule:evenodd;stroke:black;stroke-width:17.93948174px;stroke-linecap:butt;stroke-linejoin:miter;stroke-opacity:1"
     d="M 331.46621,363.33921 L 78.317853,356.89097 L 72.1436,47.379358 L 257.37408,40.931117 L 337.64064,137.65354 L 331.46621,363.33921 z "
     id="path4212" />
  <path
     style="fill:white;fill-opacity:1;fill-rule:evenodd;stroke:none;stroke-width:15.6341238px;stroke-linecap:butt;stroke-linejoin:miter;stroke-opacity:1"
     d="M 224.14233,42.765672 L 230.31677,75.006544 L 230.31659,141.10013 L 332.53657,153.68381 L 332.50535,135.68152 L 258.10127,42.765672 L 224.14233,42.765672 z "
     id="path3431"
     sodipodi:nodetypes="ccccccc" />
  <path
     style="fill:none;fill-opacity:0.75;fill-rule:evenodd;stroke:black;stroke-width:17.93948174px;stroke-linecap:butt;stroke-linejoin:miter;stroke-opacity:1"
     d="M 223.98421,42.200144 L 230.15866,74.441016 L 230.15848,140.53457 L 332.37846,153.11826 L 332.34724,135.11602 L 257.94314,42.200144 L 223.98421,42.200144 z "
     id="path4216"
     sodipodi:nodetypes="ccccccc" />
  <path
     style="fill:black;fill-opacity:1;fill-rule:evenodd;stroke:none;stroke-width:13.22635937px;stroke-linecap:butt;stroke-linejoin:miter;stroke-opacity:1"
     d="M 195.74975,181.57477 C 172.47566,183.96192 159.80192,191.29638 148.16214,202.97553 C 134.36817,216.81616 130.46939,256.81477 156.8649,286.80916 C 182.76005,316.23501 235.31469,304.6252 235.31457,304.6252 L 249.03448,311.47754 L 254.66316,337.17381 L 274.36354,337.17381 L 274.36354,349.50801 L 279.99219,349.50801 L 282.80658,361.84222 L 301.09975,357.73083 L 301.09975,374.17647 L 320.44833,385.14006 L 352.81323,360.47173 L 352.81323,327.92315 L 268.73486,263.85381 C 268.73486,263.85381 284.93792,215.84741 246.01437,192.65337 C 230.16369,183.20815 216.17251,179.15319 195.74975,181.57477 z M 203.88365,214.56692 C 214.70371,214.84971 229.3596,220.67045 232.41971,238.43378 C 234.7542,259.71827 215.04543,270.05049 200.43289,268.53283 C 179.80298,264.79782 174.75652,252.27524 175.28058,240.08204 C 175.31738,224.98721 182.31622,215.1229 203.88365,214.56692 z "
     id="path2806"
     sodipodi:nodetypes="csscccccccccccccscccccc"
     inkscape:export-filename="D:\xampp\xampp\htdocs\phpsurveyor\images\path1815.png"
     inkscape:export-xdpi="9"
     inkscape:export-ydpi="9" />
  <path
     style="fill:url(#linearGradient4587);fill-opacity:1;fill-rule:evenodd;stroke:black;stroke-width:11.10957432px;stroke-linecap:butt;stroke-linejoin:miter;stroke-opacity:1"
     d="M 205.88877,176.76281 C 182.61466,179.14997 169.94094,186.48442 158.30117,198.16358 C 144.5072,212.00421 140.60842,252.00282 167.00391,281.99721 C 192.89907,311.42305 245.45371,299.81324 245.45357,299.81324 L 259.1735,306.66559 L 264.80218,332.36185 L 284.50257,332.36185 L 284.50257,344.69606 L 290.13122,344.69606 L 292.94558,357.03027 L 311.23877,352.91886 L 311.23877,369.36448 L 330.58735,380.32821 L 362.95225,355.65978 L 362.95225,323.11118 L 278.87389,259.04187 C 278.87389,259.04187 295.07693,211.03544 256.1534,187.84142 C 240.30271,178.39619 226.31151,174.34126 205.88877,176.76281 z M 214.02265,209.75496 C 224.84272,210.03775 239.4986,215.8585 242.55872,233.62183 C 244.8932,254.90631 225.18445,265.23853 210.57188,263.72088 C 189.94201,259.98586 184.89555,247.46329 185.41958,235.27009 C 185.45638,220.17526 192.45524,210.31094 214.02265,209.75496 z "
     id="path1815"
     sodipodi:nodetypes="csscccccccccccccscccccc"
     inkscape:export-filename="D:\xampp\xampp\htdocs\phpsurveyor\images\path1815.png"
     inkscape:export-xdpi="9"
     inkscape:export-ydpi="9" />
</svg>
