<?xml version="1.0" encoding="UTF-8" standalone="no"?>
<!-- Created with Inkscape (http://www.inkscape.org/) -->
<svg
   xmlns:dc="http://purl.org/dc/elements/1.1/"
   xmlns:cc="http://web.resource.org/cc/"
   xmlns:rdf="http://www.w3.org/1999/02/22-rdf-syntax-ns#"
   xmlns:svg="http://www.w3.org/2000/svg"
   xmlns="http://www.w3.org/2000/svg"
   xmlns:xlink="http://www.w3.org/1999/xlink"
   xmlns:sodipodi="http://sodipodi.sourceforge.net/DTD/sodipodi-0.dtd"
   xmlns:inkscape="http://www.inkscape.org/namespaces/inkscape"
   id="svg1577"
   sodipodi:version="0.32"
   inkscape:version="0.44"
   width="400"
   height="400"
   sodipodi:docbase="D:\Quelltexte\Projekte\phpsurveyor\source\original art"
   sodipodi:docname="tokenify.svg"
   version="1.0"
   inkscape:export-filename="D:\xampp\xampp\htdocs\phpsurveyor\admin\images\tokenify.png"
   inkscape:export-xdpi="9"
   inkscape:export-ydpi="9">
  <metadata
     id="metadata1582">
    <rdf:RDF>
      <cc:Work
         rdf:about="">
        <dc:format>image/svg+xml</dc:format>
        <dc:type
           rdf:resource="http://purl.org/dc/dcmitype/StillImage" />
      </cc:Work>
    </rdf:RDF>
  </metadata>
  <defs
     id="defs1580">
    <linearGradient
       id="linearGradient3588">
      <stop
         style="stop-color:#7f7f7f;stop-opacity:1;"
         offset="0"
         id="stop3590" />
      <stop
         style="stop-color:#efefef;stop-opacity:1;"
         offset="1"
         id="stop3592" />
    </linearGradient>
    <linearGradient
       inkscape:collect="always"
       xlink:href="#linearGradient3588"
       id="linearGradient3594"
       x1="227.91803"
       y1="469.90503"
       x2="135.06253"
       y2="365.79434"
       gradientUnits="userSpaceOnUse"
       gradientTransform="matrix(1.64652,0,0,1.64652,-119.5016,-492.8802)" />
  </defs>
  <sodipodi:namedview
     inkscape:window-height="721"
     inkscape:window-width="1024"
     inkscape:pageshadow="2"
     inkscape:pageopacity="0.0"
     borderopacity="1.0"
     bordercolor="#666666"
     pagecolor="#ffffff"
     id="base"
     inkscape:zoom="0.35539095"
     inkscape:cx="661.91625"
     inkscape:cy="23.128146"
     inkscape:window-x="309"
     inkscape:window-y="48"
     inkscape:current-layer="svg1577"
     width="400px"
     height="400px" />
  <path
     style="fill:url(#linearGradient3594);fill-opacity:1;fill-rule:evenodd;stroke:black;stroke-width:17.87348175px;stroke-linecap:butt;stroke-linejoin:miter;stroke-opacity:1"
     d="M 238.59143,40.360286 L 171.90454,42.035933 L 173.91293,82.696925 L 144.01486,101.72513 L 104.69083,54.436846 L 63.954576,96.773469 L 103.05282,140.89864 L 92.36518,165.58757 L 43.288361,163.94956 L 43.288361,225.79768 L 87.821542,227.47332 L 103.05282,255.40064 L 65.630223,296.73307 L 109.75538,337.50695 L 148.85362,297.85017 L 171.04494,318.44112 L 169.44457,359.215 L 233.75267,359.29026 L 232.15228,315.64837 L 258.88724,291.70614 L 295.19276,330.80439 L 337.64228,291.70614 L 299.66114,250.93227 L 317.05133,217.97803 L 359.4256,214.33163 L 359.38796,159.55645 L 305.51002,161.19446 L 297.98549,139.22299 L 335.96664,101.80039 L 303.01241,62.143597 L 260.93327,93.164709 L 236.95342,79.458533 L 238.59143,40.360286 z M 197.44715,164.35759 C 198.5562,164.2448 199.65971,164.35759 200.79843,164.35759 C 219.01687,164.35759 233.75267,179.09338 233.75267,197.31181 C 233.75267,215.53026 219.01687,230.26605 200.79843,230.26605 C 182.57998,230.26605 167.84419,215.53026 167.84419,197.31181 C 167.84419,180.2321 180.81122,166.04878 197.44715,164.35759 z "
     id="path1837"
     sodipodi:nodetypes="ccccccccccccccccccccccccccccccccccssssc" />
</svg>
